G04 Test: Block apertures with polarity*
G04 Tests LPD/LPC inside block apertures*
G04 Based on Gerber spec section 4.9.2 and 4.11*
%FSLAX26Y26*%
%MOMM*%
%LPD*%
G04 Define apertures*
%ADD10C,0.3*%
%ADD11C,2.0*%
%ADD12C,1.0*%
G04 Define block D20: solid circle with clear center hole*
%ABD20*%
%LPD*%
D11*
X0Y0D03*
%LPC*%
D12*
X0Y0D03*
%LPD*%
%AB*%
G04 Define block D21: ring pattern*
%ABD21*%
%LPD*%
G36*
X-1500000Y-1500000D02*
G01*
X1500000D01*
Y1500000D01*
X-1500000D01*
Y-1500000D01*
G37*
%LPC*%
D12*
X0Y0D03*
%LPD*%
D10*
X0Y0D03*
%AB*%
G04 Define block D22: checkerboard pattern (2x2)*
%ABD22*%
%LPD*%
G36*
X-1000000Y0D02*
G01*
X0D01*
Y1000000D01*
X-1000000D01*
Y0D01*
G37*
G36*
X0Y-1000000D02*
X1000000D01*
Y0D01*
X0D01*
Y-1000000D01*
G37*
%AB*%
G04 Define block D23: cross cutout*
%ABD23*%
%LPD*%
G36*
X-2000000Y-2000000D02*
G01*
X2000000D01*
Y2000000D01*
X-2000000D01*
Y-2000000D01*
G37*
%LPC*%
G36*
X-500000Y-2000000D02*
X500000D01*
Y2000000D01*
X-500000D01*
Y-2000000D01*
G37*
G36*
X-2000000Y-500000D02*
X2000000D01*
Y500000D01*
X-2000000D01*
Y-500000D01*
G37*
%LPD*%
%AB*%
G04 Flash block apertures*
D20*
X5000000Y5000000D03*
D21*
X15000000Y5000000D03*
D22*
X25000000Y5000000D03*
D23*
X35000000Y5000000D03*
G04 Flash again in second row to verify repeatability*
D20*
X5000000Y15000000D03*
D21*
X15000000Y15000000D03*
D22*
X25000000Y15000000D03*
D23*
X35000000Y15000000D03*
M02*
