G04 Test: Modal coordinates*
G04 Tests omitting X or Y when unchanged from current point*
G04 Based on Gerber spec - coordinates are modal*
%FSLAX26Y26*%
%MOMM*%
%ADD10C,0.5*%
%ADD11R,1.0X0.6*%
%LPD*%
G04 Horizontal line using Y modal (Y same as previous)*
D10*
G01*
X2000000Y2000000D02*
X5000000D01*
X8000000D01*
X11000000D01*
X14000000D01*
G04 Vertical line using X modal (X same as previous)*
X14000000Y5000000D02*
Y8000000D01*
Y11000000D01*
Y14000000D01*
Y17000000D01*
G04 Staircase pattern alternating modal X and Y*
X2000000Y8000000D02*
X4000000D01*
Y10000000D01*
X6000000D01*
Y12000000D01*
X8000000D01*
Y14000000D01*
X10000000D01*
Y16000000D01*
G04 Flashing with modal coordinates*
D11*
X20000000Y2000000D03*
X23000000D03*
X26000000D03*
X29000000D03*
G04 Vertical column of flashes*
X35000000Y2000000D03*
Y5000000D03*
Y8000000D03*
Y11000000D03*
Y14000000D03*
G04 Grid pattern using modal coordinates*
D10*
G04 Row 1*
X20000000Y20000000D03*
X23000000D03*
X26000000D03*
G04 Row 2 (Y changes, then X modal)*
Y23000000D03*
X23000000D03*
X20000000D03*
G04 Row 3*
Y26000000D03*
X23000000D03*
X26000000D03*
G04 Moves with modal coordinates*
X2000000Y25000000D02*
X5000000D02*
Y28000000D02*
X8000000D02*
G04 Draw from last move position*
X12000000D01*
Y25000000D01*
G04 Arc with modal end coordinates*
G75*
D10*
X20000000Y35000000D02*
G03*
Y40000000I0J2500000D01*
G02*
Y35000000I0J-2500000D01*
M02*
