G04 =========================================*
G04 Numerical Innovations - Layer Information*
G04 Units: English*
G04 Purpose: Mask Top*
G04 Material: Solder Resist*
G04 =========================================*
G04 FAB 3000 Version 8.3.44 (64-bit) - Gerber/CAM Software*
G04 RS274-X Output*
%FSLAX35Y35*%
%MIA0B0*%
%MOIN*%
%SFA1.000000B1.000000*%

%IPPOS*%
%AMROUNDEDRECTD27*
4,1,4,-0.023755,-0.000500,
0.023755,-0.000500,
0.023755,0.000500,
-0.023755,0.000500,
-0.023755,-0.000500,0.0*
4,1,4,-0.019045,-0.004710,
0.019045,-0.004710,
0.019045,0.004710,
-0.019045,0.004710,
-0.019045,-0.004710,0.0*
1,1,0.009420,-0.019050,0.000000*
1,1,0.009420,0.019050,0.000000*
1,1,0.009420,0.019050,0.000000*
1,1,0.009420,-0.019050,0.000000*
%
%AMROUNDEDRECTD28*
4,1,4,-0.004710,-0.019045,
0.004710,-0.019045,
0.004710,0.019045,
-0.004710,0.019045,
-0.004710,-0.019045,0.0*
4,1,4,-0.000500,-0.023755,
0.000500,-0.023755,
0.000500,0.023755,
-0.000500,0.023755,
-0.000500,-0.023755,0.0*
1,1,0.009420,0.000000,0.019050*
1,1,0.009420,0.000000,0.019050*
1,1,0.009420,0.000000,-0.019050*
1,1,0.009420,0.000000,-0.019050*
%
%AMROUNDEDRECTD31*
4,1,4,-0.019045,0.004710,
-0.019045,-0.004710,
0.019045,-0.004710,
0.019045,0.004710,
-0.019045,0.004710,0.0*
4,1,4,-0.023755,0.000500,
-0.023755,-0.000500,
0.023755,-0.000500,
0.023755,0.000500,
-0.023755,0.000500,0.0*
1,1,0.009420,0.019050,0.000000*
1,1,0.009420,0.019050,0.000000*
1,1,0.009420,-0.019050,0.000000*
1,1,0.009420,-0.019050,0.000000*
%
%AMROUNDEDRECTD32*
4,1,4,-0.000500,0.023755,
-0.000500,-0.023755,
0.000500,-0.023755,
0.000500,0.023755,
-0.000500,0.023755,0.0*
4,1,4,-0.004710,0.019045,
-0.004710,-0.019045,
0.004710,-0.019045,
0.004710,0.019045,
-0.004710,0.019045,0.0*
1,1,0.009420,0.000000,0.019050*
1,1,0.009420,0.000000,-0.019050*
1,1,0.009420,0.000000,-0.019050*
1,1,0.009420,0.000000,0.019050*
%
%AMROUNDEDRECTD38*
4,1,4,-0.011810,-0.030475,
0.011810,-0.030475,
0.011810,0.030475,
-0.011810,0.030475,
-0.011810,-0.030475,0.0*
4,1,4,-0.009805,-0.032480,
0.009805,-0.032480,
0.009805,0.032480,
-0.009805,0.032480,
-0.009805,-0.032480,0.0*
1,1,0.004020,-0.009800,0.030470*
1,1,0.004020,0.009800,0.030470*
1,1,0.004020,0.009800,-0.030470*
1,1,0.004020,-0.009800,-0.030470*
%
%AMDIAMOND39*
4,1,4,-0.026445,0.000000,
0.000000,-0.026445,
0.026445,0.000000,
0.000000,0.026445,
-0.026445,0.000000,0.0*
%
%AMROTATEDRECTD40*
4,1,5,-0.024360,0.000700,
-0.000700,0.024360,
0.024360,-0.000700,
0.000700,-0.024360,
-0.024360,0.000700,
-0.024360,0.000700,0.0*
%
%AMROTATEDRECTD43*
4,1,5,0.002780,0.025060,
0.025060,0.002780,
-0.002780,-0.025060,
-0.025060,-0.002780,
0.002780,0.025060,
0.002780,0.025060,0.0*
%
%AMROTATEDRECTD44*
4,1,5,0.000700,0.042450,
0.042450,0.000700,
-0.000700,-0.042450,
-0.042450,-0.000700,
0.000700,0.042450,
0.000700,0.042450,0.0*
%
%AMROUNDEDRECTD47*
4,1,4,-0.044290,0.029530,
-0.044290,-0.029530,
0.044290,-0.029530,
0.044290,0.029530,
-0.044290,0.029530,0.0*
4,1,4,-0.059055,0.014765,
-0.059055,-0.014765,
0.059055,-0.014765,
0.059055,0.014765,
-0.059055,0.014765,0.0*
1,1,0.029530,0.044290,0.014760*
1,1,0.029530,0.044290,-0.014760*
1,1,0.029530,-0.044290,-0.014760*
1,1,0.029530,-0.044290,0.014760*
%
%AMROUNDEDRECTD57*
4,1,4,0.015750,-0.035435,
0.015750,0.035435,
-0.015750,0.035435,
-0.015750,-0.035435,
0.015750,-0.035435,0.0*
4,1,4,0.031495,-0.019685,
0.031495,0.019685,
-0.031495,0.019685,
-0.031495,-0.019685,
0.031495,-0.019685,0.0*
1,1,0.031500,-0.015750,-0.019680*
1,1,0.031500,-0.015750,0.019680*
1,1,0.031500,0.015750,0.019680*
1,1,0.031500,0.015750,-0.019680*
%
%AMROUNDEDRECTD58*
4,1,4,0.025590,0.011220,
-0.025590,0.011220,
-0.025590,-0.011220,
0.025590,-0.011220,
0.025590,0.011220,0.0*
4,1,4,0.021850,0.014960,
-0.021850,0.014960,
-0.021850,-0.014960,
0.021850,-0.014960,
0.021850,0.014960,0.0*
1,1,0.007480,0.021850,-0.011220*
1,1,0.007480,-0.021850,-0.011220*
1,1,0.007480,-0.021850,0.011220*
1,1,0.007480,0.021850,0.011220*
%
%AMROUNDEDRECTD62*
4,1,4,0.025690,-0.042325,
0.025690,0.042325,
-0.025690,0.042325,
-0.025690,-0.042325,
0.025690,-0.042325,0.0*
4,1,4,0.028545,-0.039470,
0.028545,0.039470,
-0.028545,0.039470,
-0.028545,-0.039470,
0.028545,-0.039470,0.0*
1,1,0.005710,-0.025690,-0.039470*
1,1,0.005710,-0.025690,0.039470*
1,1,0.005710,0.025690,0.039470*
1,1,0.005710,0.025690,-0.039470*
%
%AMROUNDEDRECTD63*
4,1,4,-0.025610,0.008860,
-0.025610,-0.008860,
0.025610,-0.008860,
0.025610,0.008860,
-0.025610,0.008860,0.0*
4,1,4,-0.027560,0.006910,
-0.027560,-0.006910,
0.027560,-0.006910,
0.027560,0.006910,
-0.027560,0.006910,0.0*
1,1,0.003900,0.025610,0.006910*
1,1,0.003900,0.025610,-0.006910*
1,1,0.003900,-0.025610,-0.006910*
1,1,0.003900,-0.025610,0.006910*
%
%AMROUNDEDRECTD64*
4,1,4,0.059055,0.080905,
-0.059055,0.080905,
-0.059055,-0.080905,
0.059055,-0.080905,
0.059055,0.080905,0.0*
4,1,4,0.057285,0.082675,
-0.057285,0.082675,
-0.057285,-0.082675,
0.057285,-0.082675,
0.057285,0.082675,0.0*
1,1,0.003540,0.057280,-0.080910*
1,1,0.003540,-0.057280,-0.080910*
1,1,0.003540,-0.057280,0.080910*
1,1,0.003540,0.057280,0.080910*
%
%AMOVALD65*
4,1,4,-0.011137,-0.019488,
0.019488,0.011137,
0.011137,0.019488,
-0.019488,-0.011137,
-0.011137,-0.019488,0.0*
1,1,0.011810,0.015310,0.015310*
1,1,0.011810,-0.015310,-0.015310*
%
%AMOVALD66*
4,1,4,-0.019488,0.011137,
0.011137,-0.019488,
0.019488,-0.011137,
-0.011137,0.019488,
-0.019488,0.011137,0.0*
1,1,0.011810,0.015310,-0.015310*
1,1,0.011810,-0.015310,0.015310*
%
%AMDIAMOND67*
4,1,4,0.000000,0.026445,
-0.026445,0.000000,
0.000000,-0.026445,
0.026445,0.000000,
0.000000,0.026445,0.0*
%
%AMROUNDEDRECTD83*
4,1,4,-0.015810,-0.030475,
0.015810,-0.030475,
0.015810,0.030475,
-0.015810,0.030475,
-0.015810,-0.030475,0.0*
4,1,4,-0.009805,-0.036480,
0.009805,-0.036480,
0.009805,0.036480,
-0.009805,0.036480,
-0.009805,-0.036480,0.0*
1,1,0.012020,-0.009800,0.030470*
1,1,0.012020,0.009800,0.030470*
1,1,0.012020,0.009800,-0.030470*
1,1,0.012020,-0.009800,-0.030470*
%
%AMDIAMOND84*
4,1,4,-0.032105,0.000000,
0.000000,-0.032105,
0.032105,0.000000,
0.000000,0.032105,
-0.032105,0.000000,0.0*
%
%AMROTATEDRECTD85*
4,1,5,-0.030020,0.000700,
-0.000700,0.030020,
0.030020,-0.000700,
0.000700,-0.030020,
-0.030020,0.000700,
-0.030020,0.000700,0.0*
%
%AMROTATEDRECTD87*
4,1,5,0.002780,0.030710,
0.030710,0.002780,
-0.002780,-0.030710,
-0.030710,-0.002780,
0.002780,0.030710,
0.002780,0.030710,0.0*
%
%AMROTATEDRECTD88*
4,1,5,0.000700,0.048110,
0.048110,0.000700,
-0.000700,-0.048110,
-0.048110,-0.000700,
0.000700,0.048110,
0.000700,0.048110,0.0*
%
%AMROUNDEDRECTD91*
4,1,4,-0.044290,0.033530,
-0.044290,-0.033530,
0.044290,-0.033530,
0.044290,0.033530,
-0.044290,0.033530,0.0*
4,1,4,-0.063055,0.014765,
-0.063055,-0.014765,
0.063055,-0.014765,
0.063055,0.014765,
-0.063055,0.014765,0.0*
1,1,0.037530,0.044290,0.014760*
1,1,0.037530,0.044290,-0.014760*
1,1,0.037530,-0.044290,-0.014760*
1,1,0.037530,-0.044290,0.014760*
%
%AMROUNDEDRECTD100*
4,1,4,0.015750,-0.039435,
0.015750,0.039435,
-0.015750,0.039435,
-0.015750,-0.039435,
0.015750,-0.039435,0.0*
4,1,4,0.035495,-0.019685,
0.035495,0.019685,
-0.035495,0.019685,
-0.035495,-0.019685,
0.035495,-0.019685,0.0*
1,1,0.039500,-0.015750,-0.019680*
1,1,0.039500,-0.015750,0.019680*
1,1,0.039500,0.015750,0.019680*
1,1,0.039500,0.015750,-0.019680*
%
%AMROUNDEDRECTD101*
4,1,4,0.029590,0.011220,
-0.029590,0.011220,
-0.029590,-0.011220,
0.029590,-0.011220,
0.029590,0.011220,0.0*
4,1,4,0.021850,0.018960,
-0.021850,0.018960,
-0.021850,-0.018960,
0.021850,-0.018960,
0.021850,0.018960,0.0*
1,1,0.015480,0.021850,-0.011220*
1,1,0.015480,-0.021850,-0.011220*
1,1,0.015480,-0.021850,0.011220*
1,1,0.015480,0.021850,0.011220*
%
%AMROUNDEDRECTD106*
4,1,4,0.025690,-0.046325,
0.025690,0.046325,
-0.025690,0.046325,
-0.025690,-0.046325,
0.025690,-0.046325,0.0*
4,1,4,0.032545,-0.039470,
0.032545,0.039470,
-0.032545,0.039470,
-0.032545,-0.039470,
0.032545,-0.039470,0.0*
1,1,0.013710,-0.025690,-0.039470*
1,1,0.013710,-0.025690,0.039470*
1,1,0.013710,0.025690,0.039470*
1,1,0.013710,0.025690,-0.039470*
%
%AMROUNDEDRECTD108*
4,1,4,-0.025610,0.012860,
-0.025610,-0.012860,
0.025610,-0.012860,
0.025610,0.012860,
-0.025610,0.012860,0.0*
4,1,4,-0.031560,0.006910,
-0.031560,-0.006910,
0.031560,-0.006910,
0.031560,0.006910,
-0.031560,0.006910,0.0*
1,1,0.011900,0.025610,0.006910*
1,1,0.011900,0.025610,-0.006910*
1,1,0.011900,-0.025610,-0.006910*
1,1,0.011900,-0.025610,0.006910*
%
%AMROUNDEDRECTD109*
4,1,4,0.063055,0.080905,
-0.063055,0.080905,
-0.063055,-0.080905,
0.063055,-0.080905,
0.063055,0.080905,0.0*
4,1,4,0.057285,0.086675,
-0.057285,0.086675,
-0.057285,-0.086675,
0.057285,-0.086675,
0.057285,0.086675,0.0*
1,1,0.011540,0.057280,-0.080910*
1,1,0.011540,-0.057280,-0.080910*
1,1,0.011540,-0.057280,0.080910*
1,1,0.011540,0.057280,0.080910*
%
%AMOVALD110*
4,1,4,-0.008309,-0.022316,
0.022316,0.008309,
0.008309,0.022316,
-0.022316,-0.008309,
-0.008309,-0.022316,0.0*
1,1,0.019810,0.015310,0.015310*
1,1,0.019810,-0.015310,-0.015310*
%
%AMOVALD111*
4,1,4,-0.022316,0.008309,
0.008309,-0.022316,
0.022316,-0.008309,
-0.008309,0.022316,
-0.022316,0.008309,0.0*
1,1,0.019810,0.015310,-0.015310*
1,1,0.019810,-0.015310,0.015310*
%
%AMDIAMOND112*
4,1,4,0.000000,0.032105,
-0.032105,0.000000,
0.000000,-0.032105,
0.032105,0.000000,
0.000000,0.032105,0.0*
%
%AMROUNDEDRECTD125*
4,1,4,0.019685,0.011810,
-0.019685,0.011810,
-0.019685,-0.011810,
0.019685,-0.011810,
0.019685,0.011810,0.0*
4,1,4,0.000500,0.031495,
-0.000500,0.031495,
-0.000500,-0.031495,
0.000500,-0.031495,
0.000500,0.031495,0.0*
1,1,0.039370,0.000000,-0.011810*
1,1,0.039370,0.000000,-0.011810*
1,1,0.039370,0.000000,0.011810*
1,1,0.039370,0.000000,0.011810*
%
%ADD10C,0.010000*%
%ADD11C,0.009840*%
%ADD12C,0.007870*%
%ADD13C,0.019680*%
%ADD14C,0.023620*%
%ADD15C,0.003940*%
%ADD16C,0.005000*%
%ADD17C,0.005910*%
%ADD18R,0.095860X0.095860*%
%ADD19R,0.095860X0.095860*%
%ADD20R,0.043310X0.043310*%
%ADD21R,0.043310X0.043310*%
%ADD22R,0.039370X0.035430*%
%ADD23R,0.031500X0.039370*%
%ADD24R,0.061020X0.025590*%
%ADD25R,0.151580X0.151580*%
%ADD26C,0.008480*%
%ADD27ROUNDEDRECTD27*%
%ADD28ROUNDEDRECTD28*%
%ADD29R,0.035430X0.037400*%
%ADD30R,0.033470X0.035430*%
%ADD31ROUNDEDRECTD31*%
%ADD32ROUNDEDRECTD32*%
%ADD33R,0.151580X0.151580*%
%ADD34R,0.035430X0.033470*%
%ADD35R,0.088580X0.059060*%
%ADD36O,0.009840X0.019680*%
%ADD37R,0.037400X0.035430*%
%ADD38ROUNDEDRECTD38*%
%ADD39DIAMOND39*%
%ADD40ROTATEDRECTD40*%
%ADD41R,0.098430X0.090550*%
%ADD42R,0.023620X0.016930*%
%ADD43ROTATEDRECTD43*%
%ADD44ROTATEDRECTD44*%
%ADD45R,0.013390X0.025590*%
%ADD46R,0.013390X0.031500*%
%ADD47ROUNDEDRECTD47*%
%ADD48R,0.070870X0.049210*%
%ADD49R,0.050000X0.030000*%
%ADD50R,0.043310X0.039370*%
%ADD51R,0.037400X0.037400*%
%ADD52R,0.027560X0.017720*%
%ADD53R,0.059060X0.015750*%
%ADD54R,0.059060X0.031500*%
%ADD55R,0.023620X0.086610*%
%ADD56R,0.070870X0.102360*%
%ADD57ROUNDEDRECTD57*%
%ADD58ROUNDEDRECTD58*%
%ADD59R,0.037400X0.037400*%
%ADD60R,0.055120X0.047240*%
%ADD61R,0.047240X0.055120*%
%ADD62ROUNDEDRECTD62*%
%ADD63ROUNDEDRECTD63*%
%ADD64ROUNDEDRECTD64*%
%ADD65OVALD65*%
%ADD66OVALD66*%
%ADD67DIAMOND67*%
%ADD68C,0.168310*%
%ADD69R,0.141730X0.051180*%
%ADD70R,0.007870X0.039370*%
%ADD71R,0.011810X0.047240*%
%ADD72C,0.047240*%
%ADD73R,0.074410X0.051580*%
%ADD74R,0.047370X0.043430*%
%ADD75R,0.039500X0.047370*%
%ADD76R,0.069020X0.033590*%
%ADD77R,0.043430X0.045400*%
%ADD78R,0.041470X0.043430*%
%ADD79R,0.043430X0.041470*%
%ADD80R,0.096580X0.067060*%
%ADD81O,0.017840X0.027690*%
%ADD82R,0.045400X0.043430*%
%ADD83ROUNDEDRECTD83*%
%ADD84DIAMOND84*%
%ADD85ROTATEDRECTD85*%
%ADD86R,0.027560X0.020870*%
%ADD87ROTATEDRECTD87*%
%ADD88ROTATEDRECTD88*%
%ADD89R,0.021390X0.033590*%
%ADD90R,0.021390X0.039500*%
%ADD91ROUNDEDRECTD91*%
%ADD92R,0.078870X0.057210*%
%ADD93R,0.051310X0.047370*%
%ADD94R,0.045400X0.045400*%
%ADD95R,0.031500X0.021650*%
%ADD96R,0.067060X0.023750*%
%ADD97R,0.067060X0.039500*%
%ADD98R,0.031620X0.094610*%
%ADD99R,0.078870X0.110360*%
%ADD100ROUNDEDRECTD100*%
%ADD101ROUNDEDRECTD101*%
%ADD102R,0.045400X0.045400*%
%ADD103R,0.063120X0.055240*%
%ADD104R,0.047240X0.047240*%
%ADD105R,0.055240X0.063120*%
%ADD106ROUNDEDRECTD106*%
%ADD107R,0.047240X0.047240*%
%ADD108ROUNDEDRECTD108*%
%ADD109ROUNDEDRECTD109*%
%ADD110OVALD110*%
%ADD111OVALD111*%
%ADD112DIAMOND112*%
%ADD113R,0.149730X0.059180*%
%ADD114R,0.098190X0.075350*%
%ADD115O,0.078870X0.067060*%
%ADD116C,0.008000*%
%ADD117C,0.084770*%
%ADD118R,0.084770X0.084770*%
%ADD119C,0.049340*%
%ADD120C,0.063910*%
%ADD121C,0.143830*%
%ADD122C,0.118240*%
%ADD123C,0.165480*%
%ADD124C,0.133980*%
%ADD125ROUNDEDRECTD125*%
%ADD126C,0.025590*%
%ADD127C,0.007870*%
%ADD128C,0.015750*%
%ADD129C,0.039370*%
%ADD130C,0.013780*%
%ADD131C,0.011810*%
%ADD132R,0.090160X0.067320*%
%ADD133O,0.070870X0.059060*%
%ADD134C,0.076770*%
%ADD135R,0.076770X0.076770*%
%ADD136C,0.041340*%
%ADD137C,0.055910*%
%ADD138C,0.135830*%
%ADD139C,0.110240*%
%ADD140C,0.157480*%
%ADD141C,0.125980*%
%ADD142C,0.031500*%
%ADD143C,0.055120*%
%ADD144C,0.019680*%
%ADD145C,0.007000*%
%ADD146C,0.001000*%
%LNuP-H Main PCBA Assy V04_0*%
%LPD*%
G36*
X141929Y240158D02*
G01X132579D01*
X131658D01*
X129851Y240517D01*
X128150Y241222D01*
X126618Y242245D01*
X125316Y243547D01*
X124293Y245079D01*
X123588Y246780D01*
X123228Y248587D01*
Y249508D01*
Y285925D01*
Y286846D01*
X123588Y288653D01*
X124293Y290354D01*
X125316Y291886D01*
X126618Y293188D01*
X128150Y294211D01*
X129851Y294916D01*
X131658Y295276D01*
X132579D01*
X141929D01*
Y240158D01*
G37*
G54D68*
X132579Y267717D03*
G54D122*
X132677Y208465D03*
Y183465D03*
Y158465D03*
G54D70*
X196850Y145669D03*
Y133465D03*
G54D86*
X196125Y290806D03*
Y293365D03*
Y295924D03*
Y298483D03*
Y306201D03*
Y308760D03*
Y311319D03*
Y313878D03*
G54D87*
X196231Y272121D03*
G54D102*
X198916Y326027D03*
Y321105D03*
G54D122*
X87795Y158465D03*
G54D124*
X51181Y149606D03*
G54D123*
X110236Y226693D03*
G54D122*
X87795Y208465D03*
Y183465D03*
G54D74*
X423819Y204068D03*
X424016Y224935D03*
G54D121*
X419016Y150709D03*
G54D49*
X297791Y171260D03*
G54D120*
X301181Y161378D03*
G54D77*
X244685Y217717D03*
G54D92*
X249016Y159350D03*
Y169390D03*
G54D110*
X247217Y291966D03*
X245825Y293358D03*
X244433Y294750D03*
G54D111*
Y247702D03*
X245825Y249094D03*
X247217Y250486D03*
G54D41*
X62402Y301378D03*
X45472D03*
G54D77*
X134646Y299213D03*
G54D103*
X107874Y298622D03*
X115354D03*
G54D104*
X133858Y307087D03*
X122835D03*
G54D124*
X51181Y330709D03*
G54D117*
X114016Y334252D03*
X134016D03*
X94016D03*
X74016D03*
G54D112*
X201213Y285076D03*
G54D111*
X218264Y285006D03*
X219656Y286398D03*
X221048Y287790D03*
G54D110*
X243041Y296142D03*
X241649Y297534D03*
G54D111*
X230792D03*
X222440Y289182D03*
X223832Y290574D03*
X225224Y291966D03*
X226616Y293358D03*
X228008Y294750D03*
X229400Y296142D03*
G54D49*
X284012Y171260D03*
X277012D03*
X290791D03*
G54D77*
X249124Y179362D03*
G54D82*
X272475Y203666D03*
Y209966D03*
G54D93*
X256890Y163484D03*
Y169193D03*
G54D121*
X261535Y150709D03*
G54D120*
X273622Y161378D03*
X283465D03*
X291339D03*
G54D116*
X256890Y200787D03*
G54D84*
X249792Y298717D03*
G54D111*
X248609Y251878D03*
X250001Y253270D03*
X251393Y254662D03*
X252785Y256054D03*
G54D110*
X248609Y290574D03*
X250001Y289182D03*
X251393Y287790D03*
X252785Y286398D03*
G54D84*
X253272Y302197D03*
G54D110*
X256960Y282222D03*
X255569Y283614D03*
G54D111*
X254176Y257446D03*
X255569Y258838D03*
X256960Y260230D03*
G54D110*
X254176Y285006D03*
G54D84*
X205906Y261970D03*
G54D110*
X209913Y265797D03*
X211305Y264405D03*
X212697Y263014D03*
G54D87*
X200407Y267945D03*
G54D111*
X216873Y283614D03*
G54D112*
X204693Y281596D03*
G54D111*
X209913Y276655D03*
X211305Y278047D03*
X212697Y279438D03*
X214089Y280831D03*
X215480Y282222D03*
G54D77*
X90784Y280593D03*
Y255817D03*
X45509Y269104D03*
X51808D03*
G54D108*
X83894Y269400D03*
X60666D03*
G54D109*
X72280Y268120D03*
G54D127*
X68343Y270089D03*
X76217D03*
X72280D03*
G36*
X168996Y295276D02*
G01X169917D01*
X171723Y294916D01*
X173425Y294211D01*
X174957Y293188D01*
X176259Y291886D01*
X177282Y290354D01*
X177987Y288653D01*
X178347Y286846D01*
Y285925D01*
Y249508D01*
Y248587D01*
X177987Y246780D01*
X177282Y245079D01*
X176259Y243547D01*
X174957Y242245D01*
X173425Y241222D01*
X171723Y240517D01*
X169917Y240158D01*
X168996D01*
X159646D01*
Y295276D01*
X168996D01*
G37*
G54D68*
Y267717D03*
G54D78*
X173130Y159843D03*
G54D118*
X174016Y334252D03*
G54D104*
X173622Y308268D03*
G54D116*
X256890Y334646D03*
G54D111*
X262528Y265797D03*
X261136Y264405D03*
X259744Y263014D03*
X258352Y261622D03*
G54D110*
Y280831D03*
X259744Y279438D03*
X261136Y278047D03*
X262528Y276655D03*
G54D102*
X259842Y248524D03*
Y243602D03*
G54D88*
X267387Y272988D03*
X272398Y267977D03*
G54D102*
X265748Y248524D03*
Y243602D03*
G54D94*
X281201Y278346D03*
X276279D03*
G54D101*
X277559Y253386D03*
Y260433D03*
G54D102*
X283465Y243602D03*
Y248524D03*
X271654D03*
Y243602D03*
X277559Y248524D03*
Y243602D03*
G54D32*
X350394Y237485D03*
X352362D03*
X354331D03*
X356299D03*
X358268D03*
X360236D03*
X362205D03*
X364173D03*
X366142D03*
G54D81*
X400913Y239451D03*
X403473D03*
X406032D03*
X408591D03*
G54D82*
X339567Y240534D03*
G54D77*
X406363Y246850D03*
X412663D03*
X359449Y245455D03*
X353150D03*
G54D78*
X359599Y251117D03*
X353497D03*
G54D79*
X364961Y251870D03*
Y245768D03*
G54D116*
X390748Y334646D03*
G54D115*
X342244Y298228D03*
X350118Y292323D03*
X342244Y286417D03*
X350118Y304134D03*
G54D98*
X537402Y223031D03*
X541339D03*
X545276D03*
X549213D03*
X553150D03*
X557087D03*
X561024D03*
X588583D03*
X592520D03*
X596457D03*
X600394D03*
X584646D03*
X580709D03*
X576772D03*
X572835D03*
X568898D03*
X564961D03*
G54D91*
X607283Y169291D03*
Y179291D03*
Y189291D03*
G54D98*
X604331Y223031D03*
G54D91*
X625000Y174291D03*
Y184291D03*
Y194291D03*
G54D94*
X643209Y233268D03*
X648130D03*
G54D95*
X640945Y239370D03*
Y246850D03*
X650394D03*
Y243110D03*
Y239370D03*
G54D98*
X608268Y223031D03*
X612205D03*
X616142D03*
G54D99*
X626378Y232480D03*
G54D124*
X641732Y149606D03*
Y330709D03*
G54D96*
X479921Y247047D03*
Y250984D03*
Y258858D03*
Y266732D03*
Y274606D03*
Y278543D03*
Y286417D03*
Y282480D03*
Y270669D03*
Y262795D03*
Y254921D03*
G54D97*
Y292323D03*
Y243110D03*
G54D99*
X491732Y232480D03*
G54D98*
X513779Y223031D03*
X509842D03*
X505905D03*
X501968D03*
X521654D03*
X525591D03*
X533464D03*
X529528D03*
X517717D03*
G54D75*
X448668Y219685D03*
X442763D03*
X438386D03*
X432480D03*
G54D72*
X114821Y265302D02*
G01X124696D01*
G54D77*
X97083Y255817D03*
G54D113*
X108268Y251772D03*
Y244291D03*
G54D107*
X95312Y262510D03*
G54D90*
X115650Y257874D03*
X113091D03*
X110531D03*
X107972D03*
G54D114*
X111811Y265335D03*
G54D83*
X193558Y222624D03*
X188558D03*
G36*
X192582Y303937D02*
G01X184315D01*
Y305157D01*
X182543D01*
Y307244D01*
X184315D01*
Y307717D01*
X182543D01*
Y309803D01*
X184315D01*
Y310276D01*
X182543D01*
Y312362D01*
X184315D01*
Y312835D01*
X182543D01*
Y314921D01*
X184315D01*
Y316142D01*
X192582D01*
Y303937D01*
G37*
G36*
Y288542D02*
G01X184315D01*
Y289763D01*
X182543D01*
Y291849D01*
X184315D01*
Y292322D01*
X182543D01*
Y294408D01*
X184315D01*
Y294881D01*
X182543D01*
Y296967D01*
X184315D01*
Y297440D01*
X182543D01*
Y299526D01*
X184315D01*
Y300747D01*
X192582D01*
Y288542D01*
G37*
G54D82*
X182672Y225971D03*
Y238175D03*
Y231876D03*
G54D83*
X193558Y241915D03*
X188558D03*
G54D86*
X183921Y306201D03*
Y308760D03*
Y311319D03*
Y313878D03*
Y290806D03*
Y293365D03*
Y295924D03*
Y298483D03*
G54D83*
X203558Y241915D03*
X198558D03*
G54D84*
X212869Y246639D03*
G54D110*
X225224Y250486D03*
X226616Y249094D03*
X228008Y247702D03*
X229400Y246310D03*
X230792Y244918D03*
G54D111*
X241649D03*
X243041Y246310D03*
G54D84*
X216349Y250119D03*
G54D110*
X221048Y254662D03*
X222440Y253270D03*
X223832Y251878D03*
G54D85*
X205807Y253354D03*
G54D84*
X202426Y258490D03*
G54D110*
X219656Y256054D03*
X218264Y257446D03*
X216873Y258838D03*
X215480Y260230D03*
X214089Y261622D03*
G54D85*
X210122Y257669D03*
G54D127*
X68343Y262215D03*
Y266152D03*
X72280D03*
X76217D03*
X72280Y262215D03*
X76217D03*
G54D108*
X83894Y266841D03*
Y264282D03*
Y261722D03*
Y259163D03*
Y256604D03*
G54D79*
X333858Y212089D03*
Y218191D03*
G54D82*
X328051Y212665D03*
G54D94*
X315224Y215748D03*
X320146D03*
G54D100*
X303543Y206403D03*
Y186403D03*
X320079Y206403D03*
Y186403D03*
G54D82*
X339567Y234234D03*
X341732Y210022D03*
Y216321D03*
X328051Y218965D03*
G54D31*
X347340Y218683D03*
Y220652D03*
Y222620D03*
Y224589D03*
Y226557D03*
Y228526D03*
Y230494D03*
Y232463D03*
Y234431D03*
G54D79*
X176772Y177854D03*
X189270Y188984D03*
Y195087D03*
G54D80*
X179427Y196169D03*
G54D81*
X183266Y202370D03*
G54D82*
X182672Y219671D03*
G54D81*
X183266Y189969D03*
X180707D03*
X178148D03*
X175589D03*
Y202370D03*
X178148D03*
X180707D03*
G54D77*
X60273Y286624D03*
G54D78*
X45607Y275010D03*
X51710D03*
G54D79*
X41769Y281604D03*
Y287707D03*
X47674D03*
Y281604D03*
X53580D03*
Y287707D03*
G54D108*
X60666Y271959D03*
Y274518D03*
Y277077D03*
Y279636D03*
G54D77*
X66572Y286624D03*
G54D127*
X68343Y274026D03*
X76217D03*
X72280D03*
G54D108*
X83894Y279636D03*
Y277077D03*
Y274518D03*
Y271959D03*
G54D77*
X242825Y179362D03*
G54D79*
X237228Y178289D03*
G54D82*
X231784Y178150D03*
G54D77*
X140945Y299213D03*
G54D106*
X154331Y232283D03*
G54D117*
X154016Y334252D03*
G54D82*
X153543Y208858D03*
Y202559D03*
G54D79*
X149606Y158366D03*
Y164469D03*
X147638Y208760D03*
Y202658D03*
G54D78*
X152657Y299213D03*
X146555D03*
G54D105*
X156102Y221457D03*
G54D77*
X169191Y207291D03*
X162892D03*
G54D104*
X162598Y308268D03*
G54D105*
X162795Y221457D03*
G54D106*
X164567Y232283D03*
G54D79*
X170866Y177854D03*
Y171752D03*
G54D78*
X167028Y159843D03*
X39702Y245482D03*
X45804D03*
X46788Y251191D03*
X40686D03*
G54D77*
X45509Y263199D03*
X40587Y257097D03*
X46887D03*
G54D82*
X52595Y250994D03*
Y257293D03*
G54D78*
X51119Y245482D03*
G54D77*
X51808Y263199D03*
G54D108*
X60666Y256604D03*
Y259163D03*
Y261722D03*
Y264282D03*
Y266841D03*
G54D78*
X57221Y245482D03*
G54D90*
X107972Y274409D03*
X110531D03*
X113091D03*
X115650D03*
G54D107*
X95312Y273533D03*
G54D89*
X115650Y269980D03*
X113091D03*
X110531D03*
X107972D03*
G54D114*
X111810Y281870D03*
G54D77*
X97083Y280593D03*
G54D89*
X115650Y286516D03*
G54D103*
X107874Y291929D03*
X115354D03*
G54D89*
X113091Y286516D03*
X110531D03*
X107972D03*
G54D77*
X386220Y230494D03*
G54D116*
X390748Y200787D03*
G54D81*
X400913Y227049D03*
X403473D03*
X406032D03*
X408591D03*
G54D80*
X404752Y233250D03*
G54D79*
X394685Y229510D03*
Y223408D03*
X413386Y224687D03*
Y218585D03*
G54D76*
X241035Y340728D03*
Y305728D03*
Y310728D03*
Y315728D03*
Y320728D03*
Y325728D03*
Y330728D03*
Y335728D03*
X219578Y305728D03*
G54D119*
X206426Y305574D03*
Y310575D03*
X211426Y315575D03*
X206426D03*
X211426Y310575D03*
Y305574D03*
G54D76*
X219578Y320728D03*
Y315728D03*
Y310728D03*
G54D119*
X211426Y320574D03*
X206426D03*
Y325574D03*
X211426D03*
G54D76*
X219578Y340728D03*
Y335728D03*
Y330728D03*
Y325728D03*
G54D74*
X449213Y224935D03*
G54D96*
X468898Y252953D03*
Y256890D03*
G54D97*
Y243110D03*
G54D96*
Y249016D03*
G54D74*
X428150Y234384D03*
X432283Y224935D03*
X453346Y234384D03*
X457480Y224935D03*
G54D96*
X468898Y260827D03*
Y268701D03*
Y276575D03*
Y280512D03*
Y288386D03*
Y284449D03*
Y272638D03*
Y264764D03*
G54D97*
Y292323D03*
G54D82*
X231784Y171850D03*
G54D79*
X237228Y172186D03*
G54D78*
X220866Y156024D03*
X226969D03*
G54D125*
X179252Y154252D03*
Y135630D03*
G54D79*
X176772Y171752D03*
G54D126*
X185827Y158780D03*
G54D71*
X186024Y163701D03*
G54D49*
X186956Y174256D03*
X193956D03*
G54D126*
X188976Y158780D03*
X192126D03*
X195276D03*
X193701Y156024D03*
X187402D03*
X190551D03*
G54D71*
X191929Y163701D03*
X193898D03*
X195866D03*
X189961D03*
X187992D03*
X205709D03*
X203740D03*
X201772D03*
X199803D03*
G54D126*
X200000Y156024D03*
X203150D03*
X198425Y158780D03*
X204724D03*
X201575D03*
G54D71*
X197835Y163701D03*
G54D49*
X200240Y173639D03*
G54D126*
X206299Y156024D03*
X207874Y158780D03*
G54D49*
X207240Y173639D03*
G54D125*
X214449Y154252D03*
Y135630D03*
G54D71*
X207677Y163701D03*
G54D49*
X441492Y171260D03*
G54D120*
X431102Y161378D03*
X458661D03*
X448819D03*
X440945D03*
G54D121*
X470748Y150709D03*
G54D49*
X455272Y171260D03*
X448272D03*
X434492D03*
G54D75*
X442913Y198557D03*
X448819D03*
X437795D03*
X431890D03*
G54D74*
X453346Y213517D03*
X457480Y204068D03*
X449213D03*
X427953Y213517D03*
X432087Y204068D03*
G54D93*
X335630Y163484D03*
Y169193D03*
G54D121*
X313268Y150709D03*
X340276D03*
G54D120*
X352362Y161378D03*
G54D92*
X327764Y159350D03*
Y169390D03*
G54D49*
X355752Y171260D03*
G54D120*
X362205Y161378D03*
G54D49*
X362752Y171260D03*
X369531D03*
X376532D03*
G54D93*
X414370Y169193D03*
G54D121*
X392008Y150709D03*
G54D120*
X379921Y161378D03*
X370079D03*
G54D93*
X414370Y163484D03*
G54D92*
X406496Y159350D03*
Y169390D03*
G36*
X350660Y217933D02*
G01X350793Y217800D01*
X350865Y217627D01*
Y217534D01*
Y213254D01*
X349923D01*
Y217534D01*
Y217627D01*
X349994Y217800D01*
X350127Y217933D01*
X350300Y218005D01*
X350487D01*
X350660Y217933D01*
G37*
G54D26*
X350394Y215580D03*
G54D82*
X360039Y194806D03*
Y201105D03*
G54D33*
X358268Y226557D03*
G54D32*
X352362Y215629D03*
X354331D03*
X356299D03*
X358268D03*
X360236D03*
X362205D03*
X364173D03*
X366142D03*
G54D31*
X369196Y234431D03*
Y232463D03*
Y230494D03*
Y228526D03*
Y226557D03*
Y224589D03*
Y222620D03*
Y220652D03*
Y218683D03*
G54D82*
X383858Y215534D03*
Y221833D03*
X375984Y210809D03*
Y217108D03*
G54D77*
X379921Y230494D03*
G54D25*
X229242Y200032D03*
G54D82*
X210542Y201410D03*
G54D78*
X211034Y207618D03*
X204931D03*
G54D83*
X198558Y222624D03*
X203558D03*
G54D27*
X218314Y207906D03*
Y205937D03*
Y203969D03*
G54D77*
X216740Y216672D03*
G54D27*
X240171Y203969D03*
Y205937D03*
Y207906D03*
G54D28*
X237117Y210960D03*
G54D77*
X238386Y217717D03*
X227953Y222146D03*
X221654D03*
X223039Y216672D03*
G54D28*
X221368Y210960D03*
X223337D03*
X225306D03*
X227274D03*
X229242D03*
X231211D03*
X233179D03*
X235148D03*
Y189104D03*
X237117D03*
G54D77*
X218219Y182709D03*
X211920D03*
G54D28*
X233179Y189104D03*
X231211D03*
X229242D03*
X227274D03*
X225306D03*
X223337D03*
X221368D03*
G36*
X242546Y191687D02*
G01X238172D01*
X237999Y191758D01*
X237867Y191891D01*
X237795Y192064D01*
Y192158D01*
Y192251D01*
X237867Y192424D01*
X237999Y192557D01*
X238172Y192629D01*
X242546D01*
Y191687D01*
G37*
G54D26*
X240220Y192158D03*
G54D27*
X218314D03*
X240171Y194126D03*
Y196095D03*
Y198063D03*
Y200032D03*
Y202000D03*
X218314D03*
Y200032D03*
Y198063D03*
G54D82*
X210542Y195110D03*
G54D79*
X200728Y195012D03*
Y201114D03*
G54D27*
X218314Y194126D03*
Y196095D03*
M02*