; ========================================
; Numerical Innovations - Layer Information
; Units: English
; Purpose: Drill ThruHole
; Digits=2:4
; ========================================
M48
INCH
VER,1
FMAT,2
;FILE_FORMAT=2:4
T01C0.00787
T02C0.01378
T03C0.01575
T04C0.02362
T05C0.02756
T06C0.0315
T07C0.03543
T08C0.03622
T09C0.05118
T10C0.05512
T11C0.08268
T12C0.09055
T13C0.126
T14C0.09843
DETECT,ON
ATC,ON
%
G90
T01
X006834Y026615
Y027009
Y027403
X007228
X007622
Y027009
X007228
Y026615
X007622
Y026222
X007228
X006834
T02
X006893Y024961
X003976Y019095
X005630Y017638
X007205Y019291
X007913Y022087
X006299Y022126
X004449Y022165
X003947Y024016
X008606Y025316
X010335Y024016
X010827
X011319
X011221Y017362
X011142Y019410
X011496Y021431
X013740Y022480
X015059Y019882
X015354Y016535
X014213Y017323
X014961Y023425
Y023032
X015256Y021752
X015158Y022146
X023858Y022224
X022579Y017205
X016289Y020276
X016063Y019136
X018071Y018569
X018632Y020503
X018917Y019912
X020479Y019511
X020503Y020358
X021103Y021150
X021570Y021220
X022677Y021667
X023416Y020554
X022432
Y019472
X023416
X023228Y025295
X020796Y025079
X018533Y024245
X019356Y023613
X019882Y022795
X018856
Y021737
X018091Y021483
X018071Y020729
X017293
X017234Y019777
X017165Y019423
X017087Y016693
X017677
X018268Y017426
X019528Y017019
X019924Y017043
X020787Y017019
X020838Y018310
X021112Y019054
X021743Y018908
X022137Y018271
X022992Y018382
X022317Y024546
X021588Y024378
Y023540
X022001Y023118
X022774Y023252
X023622Y023740
X024469Y022215
X025689Y015945
X024357Y016919
X024734Y020003
X027257Y019973
X026863Y020997
X026245Y020591
X026043Y021772
X024302Y018310
X025512Y017953
X027264Y017126
X030217
X031178Y017598
X031102Y021569
X030321Y021444
X030374Y019252
X028661Y018425
Y019588
Y021339
X029055Y023189
X025000Y024331
X025984Y023905
X026575Y023898
X027165
X027756Y023905
X028347Y023898
X028176Y025339
X033563Y015945
X032796Y017428
X033150Y017953
X032015Y019640
X032008Y021956
X031693Y024331
X031850Y025315
X033071Y025158
X033543Y024073
Y023404
X032631Y023423
X032835Y022557
Y020825
X033819Y021632
X032972Y015453
X032579
X025098
X024606
X043012Y017126
X041437Y015945
X040649Y017402
X038091Y017126
X035138
X035614Y020111
X036516Y019472
X037254Y021081
X037087Y021563
X038386Y023837
X037284Y024331
X041693Y024685
X040656Y025177
X034942Y024631
X034547Y024329
Y023837
X035335Y023148
Y022164
X036319
Y023148
X037638Y022971
X037520Y022164
X037874Y022341
X038787Y021563
X038965Y022341
X038622Y022695
X039038Y022951
X039744Y023217
X041339Y022846
Y021376
X040328Y019843
X040787Y020315
X040847Y015453
X040453
X045965Y017126
X044291Y020289
X044276Y021512
X044134Y024095
X046280Y024350
Y025295
X049173Y024091
X049154Y022441
X049803Y023228
X048504
X046929Y023898
X048032
X048504Y024350
X053347Y024705
Y023032
X052165
Y021555
X053347
X055709Y023032
X054528
Y021555
X055709
X059622Y017677
Y018071
X060433Y021555
X060039
X059646
X058465
Y023032
X059646
X060039
X060433
X062008
Y023492
X062561Y022384
X063508Y017579
Y017185
X065256Y023524
X064173Y021752
X064434Y020167
X061260Y033661
X056654Y033110
X062126Y027205
X060039Y030079
X059961Y028661
X056221Y026450
X047795Y032362
X046850Y029724
X046280Y028839
Y026476
Y027658
X048622Y026083
Y026969
X048721Y028248
X048534Y029232
X051575Y029528
X053819Y029055
X052756Y027953
X051870Y026969
X051083Y026083
X054429Y026280
X041378Y031339
X042402Y033386
X035906Y033425
X036822Y026612
X036732Y029678
X042480Y030906
X044556Y026476
X044370Y028976
X041831Y028347
X042441Y027362
X039784Y026417
X038976Y027441
X038307Y027638
X037480Y028347
X036732Y028032
X035435Y027402
X035325Y026825
X035960Y025512
X033974Y032205
X032598Y033347
X032229Y031824
X030669Y031811
X028386Y032966
X026096Y031557
X026299Y025709
X029646Y026457
X029528Y028912
X031168Y029803
X030354Y029882
X025670Y030586
X025392Y029700
X027676Y026441
X027756Y027143
X027191Y027845
X028504Y027835
X030326
X030158Y028298
X030825Y028471
X031575Y028806
Y029803
X032441Y029409
X032945Y028937
X034764Y026825
X024921Y034057
X022587Y033086
Y031557
X019613Y031782
X020000Y031378
X023917Y025787
X023553Y026634
X019906Y029846
X019919Y029356
X020931Y028374
X020437Y028779
X018799Y027140
Y028330
X019680Y028001
X020193Y027909
X020323Y026502
X019975Y026096
X025139Y027691
X024219Y028475
X022864Y028848
X022497Y030570
X022587Y029960
X022047Y029429
X021744Y029142
X021984Y027563
X022289Y026271
X022539Y025787
X011024Y030315
X011319
X011614
X012008Y027953
X011910Y025787
X007031Y028662
X008409Y028367
X009492Y026792
X009000Y026103
X004078Y026300
Y026891
X004177Y029233
X004767
T03
X018583Y015878
X018898
X019213
X019528
X019843
X020158
X020787
X020472
X020630Y015602
X020315
X020000
X019370
X019055
X018740
T05
X021143Y032557
X020643
Y032057
X021143
Y031558
X020643
Y031058
X021143
Y030557
X020643
T06
X017126Y022146
X061122Y025591
Y021161
X061811Y016240
T07
X035012Y029232
Y030413
X034224Y029823
Y028642
T08
X027362Y016138
X028347
X029134
X030118
X037008
X036221
X035236
X045866
X044882
X044095
X043110
X037992
T09
X015402Y033425
X013402
X011402
X009402
X007402
X017402
T10
X013268Y015847
Y018347
Y020847
X008780
Y018347
Y015847
T11
X011024Y022669
T12
X034028Y015071
X031327
X026154
X041902
X039201
X047075
T13
X005118Y014961
X064173
Y033071
X005118
T14
X025689Y020079
X039075
Y033465
X025689
M30
