G04 =========================================*
G04 Numerical Innovations - Layer Information*
G04 Units: English*
G04 Purpose: Silk Top*
G04 =========================================*
G04 FAB 3000 Version 8.3.44 (64-bit) - Gerber/CAM Software*
G04 RS274-X Output*
%FSLAX35Y35*%
%MIA0B0*%
%MOIN*%
%SFA1.000000B1.000000*%

%IPPOS*%
%AMROUNDEDRECTD27*
4,1,4,-0.023755,-0.000500,
0.023755,-0.000500,
0.023755,0.000500,
-0.023755,0.000500,
-0.023755,-0.000500,0.0*
4,1,4,-0.019045,-0.004710,
0.019045,-0.004710,
0.019045,0.004710,
-0.019045,0.004710,
-0.019045,-0.004710,0.0*
1,1,0.009420,-0.019050,0.000000*
1,1,0.009420,0.019050,0.000000*
1,1,0.009420,0.019050,0.000000*
1,1,0.009420,-0.019050,0.000000*
%
%AMROUNDEDRECTD28*
4,1,4,-0.004710,-0.019045,
0.004710,-0.019045,
0.004710,0.019045,
-0.004710,0.019045,
-0.004710,-0.019045,0.0*
4,1,4,-0.000500,-0.023755,
0.000500,-0.023755,
0.000500,0.023755,
-0.000500,0.023755,
-0.000500,-0.023755,0.0*
1,1,0.009420,0.000000,0.019050*
1,1,0.009420,0.000000,0.019050*
1,1,0.009420,0.000000,-0.019050*
1,1,0.009420,0.000000,-0.019050*
%
%AMROUNDEDRECTD31*
4,1,4,-0.019045,0.004710,
-0.019045,-0.004710,
0.019045,-0.004710,
0.019045,0.004710,
-0.019045,0.004710,0.0*
4,1,4,-0.023755,0.000500,
-0.023755,-0.000500,
0.023755,-0.000500,
0.023755,0.000500,
-0.023755,0.000500,0.0*
1,1,0.009420,0.019050,0.000000*
1,1,0.009420,0.019050,0.000000*
1,1,0.009420,-0.019050,0.000000*
1,1,0.009420,-0.019050,0.000000*
%
%AMROUNDEDRECTD32*
4,1,4,-0.000500,0.023755,
-0.000500,-0.023755,
0.000500,-0.023755,
0.000500,0.023755,
-0.000500,0.023755,0.0*
4,1,4,-0.004710,0.019045,
-0.004710,-0.019045,
0.004710,-0.019045,
0.004710,0.019045,
-0.004710,0.019045,0.0*
1,1,0.009420,0.000000,0.019050*
1,1,0.009420,0.000000,-0.019050*
1,1,0.009420,0.000000,-0.019050*
1,1,0.009420,0.000000,0.019050*
%
%AMROUNDEDRECTD38*
4,1,4,-0.011810,-0.030475,
0.011810,-0.030475,
0.011810,0.030475,
-0.011810,0.030475,
-0.011810,-0.030475,0.0*
4,1,4,-0.009805,-0.032480,
0.009805,-0.032480,
0.009805,0.032480,
-0.009805,0.032480,
-0.009805,-0.032480,0.0*
1,1,0.004020,-0.009800,0.030470*
1,1,0.004020,0.009800,0.030470*
1,1,0.004020,0.009800,-0.030470*
1,1,0.004020,-0.009800,-0.030470*
%
%AMDIAMOND39*
4,1,4,-0.026445,0.000000,
0.000000,-0.026445,
0.026445,0.000000,
0.000000,0.026445,
-0.026445,0.000000,0.0*
%
%AMROTATEDRECTD40*
4,1,5,-0.024360,0.000700,
-0.000700,0.024360,
0.024360,-0.000700,
0.000700,-0.024360,
-0.024360,0.000700,
-0.024360,0.000700,0.0*
%
%AMROTATEDRECTD43*
4,1,5,0.002780,0.025060,
0.025060,0.002780,
-0.002780,-0.025060,
-0.025060,-0.002780,
0.002780,0.025060,
0.002780,0.025060,0.0*
%
%AMROTATEDRECTD44*
4,1,5,0.000700,0.042450,
0.042450,0.000700,
-0.000700,-0.042450,
-0.042450,-0.000700,
0.000700,0.042450,
0.000700,0.042450,0.0*
%
%AMROUNDEDRECTD47*
4,1,4,-0.044290,0.029530,
-0.044290,-0.029530,
0.044290,-0.029530,
0.044290,0.029530,
-0.044290,0.029530,0.0*
4,1,4,-0.059055,0.014765,
-0.059055,-0.014765,
0.059055,-0.014765,
0.059055,0.014765,
-0.059055,0.014765,0.0*
1,1,0.029530,0.044290,0.014760*
1,1,0.029530,0.044290,-0.014760*
1,1,0.029530,-0.044290,-0.014760*
1,1,0.029530,-0.044290,0.014760*
%
%AMROUNDEDRECTD57*
4,1,4,0.015750,-0.035435,
0.015750,0.035435,
-0.015750,0.035435,
-0.015750,-0.035435,
0.015750,-0.035435,0.0*
4,1,4,0.031495,-0.019685,
0.031495,0.019685,
-0.031495,0.019685,
-0.031495,-0.019685,
0.031495,-0.019685,0.0*
1,1,0.031500,-0.015750,-0.019680*
1,1,0.031500,-0.015750,0.019680*
1,1,0.031500,0.015750,0.019680*
1,1,0.031500,0.015750,-0.019680*
%
%AMROUNDEDRECTD58*
4,1,4,0.025590,0.011220,
-0.025590,0.011220,
-0.025590,-0.011220,
0.025590,-0.011220,
0.025590,0.011220,0.0*
4,1,4,0.021850,0.014960,
-0.021850,0.014960,
-0.021850,-0.014960,
0.021850,-0.014960,
0.021850,0.014960,0.0*
1,1,0.007480,0.021850,-0.011220*
1,1,0.007480,-0.021850,-0.011220*
1,1,0.007480,-0.021850,0.011220*
1,1,0.007480,0.021850,0.011220*
%
%AMROUNDEDRECTD62*
4,1,4,0.025690,-0.042325,
0.025690,0.042325,
-0.025690,0.042325,
-0.025690,-0.042325,
0.025690,-0.042325,0.0*
4,1,4,0.028545,-0.039470,
0.028545,0.039470,
-0.028545,0.039470,
-0.028545,-0.039470,
0.028545,-0.039470,0.0*
1,1,0.005710,-0.025690,-0.039470*
1,1,0.005710,-0.025690,0.039470*
1,1,0.005710,0.025690,0.039470*
1,1,0.005710,0.025690,-0.039470*
%
%AMROUNDEDRECTD63*
4,1,4,-0.025610,0.008860,
-0.025610,-0.008860,
0.025610,-0.008860,
0.025610,0.008860,
-0.025610,0.008860,0.0*
4,1,4,-0.027560,0.006910,
-0.027560,-0.006910,
0.027560,-0.006910,
0.027560,0.006910,
-0.027560,0.006910,0.0*
1,1,0.003900,0.025610,0.006910*
1,1,0.003900,0.025610,-0.006910*
1,1,0.003900,-0.025610,-0.006910*
1,1,0.003900,-0.025610,0.006910*
%
%AMROUNDEDRECTD64*
4,1,4,0.059055,0.080905,
-0.059055,0.080905,
-0.059055,-0.080905,
0.059055,-0.080905,
0.059055,0.080905,0.0*
4,1,4,0.057285,0.082675,
-0.057285,0.082675,
-0.057285,-0.082675,
0.057285,-0.082675,
0.057285,0.082675,0.0*
1,1,0.003540,0.057280,-0.080910*
1,1,0.003540,-0.057280,-0.080910*
1,1,0.003540,-0.057280,0.080910*
1,1,0.003540,0.057280,0.080910*
%
%AMOVALD65*
4,1,4,-0.011137,-0.019488,
0.019488,0.011137,
0.011137,0.019488,
-0.019488,-0.011137,
-0.011137,-0.019488,0.0*
1,1,0.011810,0.015310,0.015310*
1,1,0.011810,-0.015310,-0.015310*
%
%AMOVALD66*
4,1,4,-0.019488,0.011137,
0.011137,-0.019488,
0.019488,-0.011137,
-0.011137,0.019488,
-0.019488,0.011137,0.0*
1,1,0.011810,0.015310,-0.015310*
1,1,0.011810,-0.015310,0.015310*
%
%AMDIAMOND67*
4,1,4,0.000000,0.026445,
-0.026445,0.000000,
0.000000,-0.026445,
0.026445,0.000000,
0.000000,0.026445,0.0*
%
%AMROUNDEDRECTD125*
4,1,4,0.019685,0.011810,
-0.019685,0.011810,
-0.019685,-0.011810,
0.019685,-0.011810,
0.019685,0.011810,0.0*
4,1,4,0.000500,0.031495,
-0.000500,0.031495,
-0.000500,-0.031495,
0.000500,-0.031495,
0.000500,0.031495,0.0*
1,1,0.039370,0.000000,-0.011810*
1,1,0.039370,0.000000,-0.011810*
1,1,0.039370,0.000000,0.011810*
1,1,0.039370,0.000000,0.011810*
%
%ADD10C,0.010000*%
%ADD11C,0.009840*%
%ADD12C,0.007870*%
%ADD13C,0.019680*%
%ADD14C,0.023620*%
%ADD15C,0.003940*%
%ADD16C,0.005000*%
%ADD17C,0.005910*%
%ADD22R,0.039370X0.035430*%
%ADD23R,0.031500X0.039370*%
%ADD24R,0.061020X0.025590*%
%ADD25R,0.151580X0.151580*%
%ADD26C,0.008480*%
%ADD27ROUNDEDRECTD27*%
%ADD28ROUNDEDRECTD28*%
%ADD29R,0.035430X0.037400*%
%ADD30R,0.033470X0.035430*%
%ADD31ROUNDEDRECTD31*%
%ADD32ROUNDEDRECTD32*%
%ADD33R,0.151580X0.151580*%
%ADD34R,0.035430X0.033470*%
%ADD35R,0.088580X0.059060*%
%ADD36O,0.009840X0.019680*%
%ADD37R,0.037400X0.035430*%
%ADD38ROUNDEDRECTD38*%
%ADD39DIAMOND39*%
%ADD40ROTATEDRECTD40*%
%ADD41R,0.098430X0.090550*%
%ADD42R,0.023620X0.016930*%
%ADD43ROTATEDRECTD43*%
%ADD44ROTATEDRECTD44*%
%ADD45R,0.013390X0.025590*%
%ADD46R,0.013390X0.031500*%
%ADD47ROUNDEDRECTD47*%
%ADD48R,0.070870X0.049210*%
%ADD49R,0.050000X0.030000*%
%ADD50R,0.043310X0.039370*%
%ADD51R,0.037400X0.037400*%
%ADD52R,0.027560X0.017720*%
%ADD53R,0.059060X0.015750*%
%ADD54R,0.059060X0.031500*%
%ADD55R,0.023620X0.086610*%
%ADD56R,0.070870X0.102360*%
%ADD57ROUNDEDRECTD57*%
%ADD58ROUNDEDRECTD58*%
%ADD59R,0.037400X0.037400*%
%ADD60R,0.055120X0.047240*%
%ADD61R,0.047240X0.055120*%
%ADD62ROUNDEDRECTD62*%
%ADD63ROUNDEDRECTD63*%
%ADD64ROUNDEDRECTD64*%
%ADD65OVALD65*%
%ADD66OVALD66*%
%ADD67DIAMOND67*%
%ADD68C,0.168310*%
%ADD69R,0.141730X0.051180*%
%ADD70R,0.007870X0.039370*%
%ADD71R,0.011810X0.047240*%
%ADD72C,0.047240*%
%ADD104R,0.047240X0.047240*%
%ADD107R,0.047240X0.047240*%
%ADD115O,0.078870X0.067060*%
%ADD116C,0.008000*%
%ADD117C,0.084770*%
%ADD118R,0.084770X0.084770*%
%ADD119C,0.049340*%
%ADD120C,0.063910*%
%ADD121C,0.143830*%
%ADD122C,0.118240*%
%ADD123C,0.165480*%
%ADD124C,0.133980*%
%ADD125ROUNDEDRECTD125*%
%ADD126C,0.025590*%
%ADD127C,0.007870*%
%ADD128C,0.015750*%
%ADD129C,0.039370*%
%ADD130C,0.013780*%
%ADD131C,0.011810*%
%ADD132R,0.090160X0.067320*%
%ADD133O,0.070870X0.059060*%
%ADD134C,0.076770*%
%ADD135R,0.076770X0.076770*%
%ADD136C,0.041340*%
%ADD137C,0.055910*%
%ADD138C,0.135830*%
%ADD139C,0.110240*%
%ADD140C,0.157480*%
%ADD141C,0.125980*%
%ADD142C,0.031500*%
%ADD143C,0.055120*%
%ADD144C,0.019680*%
%ADD145C,0.007000*%
%ADD146C,0.001000*%
%LNuP-H Main PCBA Assy V04_0*%
%LPD*%
G54D10*
X78740Y105905D02*
G01X141732D01*
X78740Y237795D02*
G01X141732D01*
X78740Y141732D02*
G01X141732D01*
G54D12*
X64016Y318307D02*
G01X184016D01*
X64016Y350197D02*
G01X184016D01*
X126673Y303740D02*
G01X130020D01*
X126673Y310433D02*
G01X130020D01*
G54D15*
X128346Y298032D02*
G01Y300393D01*
D02*
G01X127166Y299213D01*
D02*
G01X128740D01*
G54D17*
X128734Y313189D02*
G01X126963D01*
Y315550D02*
G01X128734D01*
G54D11*
X121457Y267717D02*
G01X121446Y267819D01*
X121414Y267917D01*
X121363Y268006D01*
X121294Y268083D01*
X121211Y268143D01*
X121117Y268185D01*
X121016Y268206D01*
X120914D01*
X120813Y268185D01*
X120719Y268143D01*
X120636Y268083D01*
X120567Y268006D01*
X120516Y267917D01*
X120484Y267819D01*
X120473Y267717D01*
X120484Y267615D01*
X120516Y267517D01*
X120567Y267428D01*
X120636Y267351D01*
X120719Y267291D01*
X120813Y267249D01*
X120914Y267228D01*
X121016D01*
X121117Y267249D01*
X121211Y267291D01*
X121294Y267351D01*
X121363Y267428D01*
X121414Y267517D01*
X121446Y267615D01*
X121457Y267717D01*
D03*
G54D15*
Y284252D02*
G01X121850Y284645D01*
Y282284D02*
G01X121457Y282677D01*
X122637Y272834D02*
G01X121457Y271654D01*
D02*
G01X123031D01*
X122835Y296850D02*
G01X121654Y295669D01*
D02*
G01X123228D01*
X120867Y301053D02*
G01X122047D01*
Y303414D02*
G01X120867D01*
G54D17*
X120469Y313189D02*
G01X122240D01*
G54D12*
X143504Y242165D02*
G01X144920Y241803D01*
X146353Y241520D01*
X147799Y241316D01*
X149255Y241192D01*
X150715Y241148D01*
X152176Y241184D01*
X153632Y241300D01*
X155080Y241497D01*
X156515Y241772D01*
X157932Y242126D01*
X158071Y242165D01*
Y293268D02*
G01X156656Y293630D01*
X155222Y293913D01*
X153776Y294117D01*
X152320Y294241D01*
X150860Y294285D01*
X149399Y294249D01*
X147943Y294133D01*
X146495Y293936D01*
X145060Y293661D01*
X143643Y293307D01*
X143504Y293268D01*
G54D15*
X144095Y301969D02*
G01X155118D01*
X144095Y296457D02*
G01X155118D01*
X150787Y211614D02*
G01X156299D01*
X150787Y199803D02*
G01X156299D01*
X153544Y197775D02*
G01X153150Y197381D01*
D02*
G01Y195807D01*
D02*
G01X153544Y195413D01*
G54D12*
X166437Y311614D02*
G01X169783D01*
X166437Y304921D02*
G01X169783D01*
G54D15*
X164567Y162598D02*
G01X175591D01*
X164567Y157087D02*
G01X175591D01*
X160136Y204535D02*
G01X171947D01*
X160136Y210047D02*
G01X171947D01*
G54D17*
X166535Y238583D02*
G01X168110D01*
X166535Y225984D02*
G01X168110D01*
X158658Y314370D02*
G01X160429D01*
Y313189D02*
G01X158658D01*
X160429Y314960D02*
G01Y313189D01*
X159838Y315550D02*
G01X160429Y314960D01*
G54D12*
X249016Y192913D02*
G01X398622D01*
X249016Y342520D02*
G01X398622D01*
X261614Y165354D02*
G01X313189D01*
X265158Y110236D02*
G01X309646D01*
X369646Y174236D02*
G01X376417D01*
X369646Y168283D02*
G01X376417D01*
X340354Y165354D02*
G01X391929D01*
X343898Y110236D02*
G01X388386D01*
G54D15*
X373228Y208053D02*
G01X378740D01*
X373228Y219864D02*
G01X378740D01*
X374999Y177362D02*
G01X373425D01*
X374606Y176575D02*
G01X374999Y176181D01*
D02*
G01Y175394D01*
D02*
G01X374606Y175000D01*
X376271Y204652D02*
G01X374697D01*
D02*
G01X376271Y206226D01*
X375878Y207014D02*
G01X375091D01*
D02*
G01X374697Y206620D01*
X362205Y243307D02*
G01X367717D01*
X362205Y254331D02*
G01X367717D01*
G54D11*
X350886Y211088D02*
G01X350875Y211190D01*
X350843Y211288D01*
X350792Y211377D01*
X350723Y211454D01*
X350640Y211514D01*
X350546Y211556D01*
X350445Y211577D01*
X350343D01*
X350242Y211556D01*
X350148Y211514D01*
X350065Y211454D01*
X349996Y211377D01*
X349945Y211288D01*
X349913Y211190D01*
X349902Y211088D01*
X349913Y210986D01*
X349945Y210888D01*
X349996Y210799D01*
X350065Y210722D01*
X350148Y210662D01*
X350242Y210620D01*
X350343Y210599D01*
X350445D01*
X350546Y210620D01*
X350640Y210662D01*
X350723Y210722D01*
X350792Y210799D01*
X350843Y210888D01*
X350875Y210986D01*
X350886Y211088D01*
G54D15*
X350788Y194027D02*
G01X350001D01*
D02*
G01X349607Y193634D01*
Y192059D02*
G01X350001Y191666D01*
D02*
G01X350788D01*
X325295Y221720D02*
G01X330807D01*
X325295Y209909D02*
G01X330807D01*
X326261Y174700D02*
G01X327049D01*
X326655Y177061D02*
G01X326261Y176668D01*
G54D17*
X323418Y296260D02*
G01X326567Y299408D01*
X324205Y283569D02*
G01X327354Y286718D01*
G54D10*
X299016Y211167D02*
G01X324606D01*
X299016Y181640D02*
G01X324606D01*
X301575Y210577D02*
G01X322047D01*
X301575Y182230D02*
G01X322047D01*
G54D12*
X313228Y110237D02*
G01X315945Y110236D01*
X313189Y111417D02*
G01X315945D01*
G54D17*
X306888Y299408D02*
G01X308462D01*
X307675Y283569D02*
G01X306888D01*
X306101D02*
G01X307675D01*
G54D15*
X331102Y220652D02*
G01X336614D01*
X331102Y209628D02*
G01X336614D01*
X332981Y177861D02*
G01X332194D01*
Y175500D02*
G01X332981D01*
X332381Y238565D02*
G01X333956D01*
Y238171D02*
G01X332381Y236597D01*
D02*
G01Y236203D01*
X332178Y208163D02*
G01X333359D01*
Y206589D02*
G01X332178D01*
G54D17*
X315547Y300196D02*
G01Y299408D01*
D02*
G01X314759D01*
D02*
G01X316334D01*
D02*
G01X315547D01*
D02*
G01Y297047D01*
X321844Y297834D02*
G01X318695D01*
X321844Y298621D02*
G01Y297834D01*
X321057Y299408D02*
G01X321844Y298621D01*
X319482Y299408D02*
G01X321057D01*
X318695Y298621D02*
G01X319482Y299408D01*
X318695Y297047D02*
G01Y298621D01*
X319482Y296260D02*
G01X318695Y297047D01*
X321057Y296260D02*
G01X319482D01*
X315547Y297047D02*
G01X316334Y296260D01*
X301378Y300983D02*
G01Y296260D01*
D02*
G01X302952Y297834D01*
D02*
G01X304526Y296260D01*
X306101Y298621D02*
G01X306888Y299408D01*
X306101Y296260D02*
G01Y298621D01*
Y300983D02*
G01Y296260D01*
X304526D02*
G01Y300983D01*
G54D10*
X402574Y200787D02*
G01X402534Y201761D01*
X402414Y202728D01*
X402214Y203682D01*
X401937Y204616D01*
X401584Y205524D01*
X401157Y206401D01*
X400659Y207239D01*
X400094Y208033D01*
X399466Y208778D01*
X398778Y209468D01*
X398036Y210100D01*
X397245Y210669D01*
X396409Y211170D01*
X395535Y211601D01*
X394628Y211958D01*
X393695Y212240D01*
X392742Y212444D01*
X391776Y212568D01*
X390802Y212613D01*
X389828Y212577D01*
X388860Y212461D01*
X387906Y212266D01*
X386970Y211993D01*
X386060Y211644D01*
X385182Y211221D01*
X384342Y210727D01*
X383545Y210166D01*
X382797Y209541D01*
X382103Y208857D01*
X381468Y208118D01*
X380896Y207329D01*
X380391Y206495D01*
X379956Y205623D01*
X379595Y204718D01*
X379309Y203786D01*
X379101Y202834D01*
X378972Y201868D01*
X378923Y200895D01*
X378954Y199921D01*
X379065Y198953D01*
X379256Y197997D01*
X379525Y197060D01*
X379870Y196149D01*
X380289Y195269D01*
X380779Y194426D01*
X381336Y193627D01*
X381958Y192876D01*
X382639Y192179D01*
X383375Y191541D01*
X384162Y190965D01*
X384993Y190456D01*
X385863Y190017D01*
X386766Y189652D01*
X387697Y189362D01*
X388648Y189149D01*
X389613Y189016D01*
X390586Y188962D01*
X391561Y188989D01*
X392529Y189096D01*
X393486Y189282D01*
X394424Y189547D01*
X395337Y189888D01*
X396219Y190303D01*
X397064Y190789D01*
X397865Y191343D01*
X398619Y191961D01*
X399319Y192639D01*
X399961Y193372D01*
X400540Y194156D01*
X401053Y194985D01*
X401496Y195853D01*
X401865Y196755D01*
X402160Y197684D01*
X402376Y198634D01*
X402514Y199599D01*
X402572Y200572D01*
X402574Y200787D01*
X402639Y334646D02*
G01X402599Y335622D01*
X402479Y336592D01*
X402279Y337549D01*
X402002Y338486D01*
X401649Y339397D01*
X401222Y340276D01*
X400724Y341117D01*
X400159Y341915D01*
X399530Y342663D01*
X398842Y343357D01*
X398100Y343992D01*
X397307Y344564D01*
X396471Y345069D01*
X395596Y345504D01*
X394687Y345865D01*
X393753Y346151D01*
X392798Y346359D01*
X391829Y346488D01*
X390853Y346537D01*
X389877Y346505D01*
X388906Y346393D01*
X387947Y346202D01*
X387008Y345933D01*
X386094Y345588D01*
X385211Y345169D01*
X384365Y344679D01*
X383563Y344121D01*
X382809Y343499D01*
X382109Y342817D01*
X381467Y342080D01*
X380888Y341293D01*
X380376Y340461D01*
X379933Y339589D01*
X379564Y338685D01*
X379270Y337753D01*
X379054Y336800D01*
X378916Y335832D01*
X378859Y334857D01*
X378882Y333880D01*
X378985Y332908D01*
X379167Y331948D01*
X379428Y331006D01*
X379765Y330089D01*
X380176Y329202D01*
X380659Y328352D01*
X381210Y327545D01*
X381825Y326786D01*
X382501Y326080D01*
X383232Y325432D01*
X384014Y324845D01*
X384842Y324326D01*
X385709Y323875D01*
X386611Y323498D01*
X387540Y323196D01*
X388491Y322971D01*
X389457Y322825D01*
X390432Y322759D01*
X391409Y322773D01*
X392382Y322868D01*
X393344Y323042D01*
X394288Y323294D01*
X395208Y323623D01*
X396098Y324027D01*
X396952Y324502D01*
X397764Y325046D01*
X398529Y325654D01*
X399241Y326323D01*
X399896Y327049D01*
X400489Y327826D01*
X401016Y328649D01*
X401474Y329512D01*
X401859Y330410D01*
X402169Y331337D01*
X402402Y332286D01*
X402557Y333251D01*
X402632Y334225D01*
X402639Y334646D01*
G54D15*
X381102Y212778D02*
G01X386614D01*
X381102Y224589D02*
G01X386614D01*
X377165Y233250D02*
G01X388976D01*
X377165Y227738D02*
G01X388976D01*
G54D12*
X368110Y214746D02*
G01X370079D01*
D02*
G01Y216715D01*
X368110Y238368D02*
G01X370079D01*
Y236400D02*
G01Y238368D01*
X355866Y168283D02*
G01X362638D01*
X355866Y174236D02*
G01X362638D01*
G54D15*
X351036Y248361D02*
G01X362060D01*
X351036Y253873D02*
G01X362060D01*
X350394Y242699D02*
G01X362205D01*
X350394Y248211D02*
G01X362205D01*
X357283Y192050D02*
G01X362795D01*
X357283Y203861D02*
G01X362795D01*
X360826Y175000D02*
G01Y177362D01*
D02*
G01X359646Y176181D01*
D02*
G01X361220D01*
X359298Y257357D02*
G01X360872D01*
D02*
G01Y256963D01*
D02*
G01X359298Y255389D01*
G54D12*
X249016Y192913D02*
G01Y342520D01*
X210609Y271226D02*
G01X236221Y245614D01*
Y296838D02*
G01X261832Y271226D01*
X210609D02*
G01X236221Y296838D01*
Y245614D02*
G01X261832Y271226D01*
G54D14*
X217358D02*
G01X217332Y271472D01*
X217256Y271706D01*
X217132Y271920D01*
X216967Y272104D01*
X216768Y272249D01*
X216542Y272349D01*
X216300Y272401D01*
X216054D01*
X215812Y272349D01*
X215587Y272249D01*
X215387Y272104D01*
X215222Y271920D01*
X215098Y271706D01*
X215022Y271472D01*
X214996Y271226D01*
X215022Y270981D01*
X215098Y270746D01*
X215222Y270532D01*
X215387Y270348D01*
X215586Y270203D01*
X215812Y270103D01*
X216054Y270052D01*
X216300D01*
X216542Y270103D01*
X216767Y270203D01*
X216967Y270348D01*
X217132Y270532D01*
X217256Y270746D01*
X217332Y270980D01*
X217358Y271226D01*
D03*
G54D11*
X185507Y222624D02*
G01X185496Y222726D01*
X185464Y222824D01*
X185413Y222913D01*
X185344Y222990D01*
X185261Y223050D01*
X185167Y223092D01*
X185066Y223113D01*
X184964D01*
X184863Y223092D01*
X184769Y223050D01*
X184686Y222990D01*
X184617Y222913D01*
X184566Y222824D01*
X184534Y222726D01*
X184523Y222624D01*
X184534Y222522D01*
X184566Y222424D01*
X184617Y222335D01*
X184686Y222258D01*
X184769Y222198D01*
X184863Y222156D01*
X184964Y222135D01*
X185066D01*
X185167Y222156D01*
X185261Y222198D01*
X185344Y222258D01*
X185413Y222335D01*
X185464Y222424D01*
X185496Y222522D01*
X185507Y222624D01*
G54D15*
X218898Y219390D02*
G01Y224902D01*
X230709Y219390D02*
G01Y224902D01*
X179916Y216915D02*
G01Y228726D01*
X185428Y216915D02*
G01Y228726D01*
X174307Y223411D02*
G01X173913Y223805D01*
X173126D02*
G01X172732Y223411D01*
D02*
G01Y221837D01*
X175094Y223411D02*
G01X175487Y223805D01*
X176275D02*
G01X176668Y223411D01*
D02*
G01Y223018D01*
X179030Y223805D02*
G01X178242Y223411D01*
D02*
G01X177455Y222624D01*
G54D12*
X64997Y255128D02*
G01X79564D01*
X64997Y281112D02*
G01X79564D01*
G54D15*
X70670Y305512D02*
G01X71851D01*
Y307874D02*
G01X70670D01*
X69918Y292530D02*
G01X71493D01*
G54D12*
X201938Y302484D02*
G01X215914D01*
D02*
G01Y328665D01*
X201938Y302484D02*
G01Y328665D01*
G54D15*
X260893Y301947D02*
G01X260499Y302341D01*
D02*
G01X259712D01*
D02*
G01X259318Y301947D01*
X263254Y302341D02*
G01X261680D01*
D02*
G01Y301160D01*
X197033Y302544D02*
G01X197427Y302150D01*
D02*
G01X198214D01*
X197820Y302938D02*
G01X198608Y302150D01*
X198214D02*
G01X198608Y302544D01*
X200969Y302150D02*
G01X199395D01*
D02*
G01X200969Y303725D01*
G54D12*
X199866Y306201D02*
G01X199857Y306283D01*
X199832Y306361D01*
X199791Y306433D01*
X199736Y306494D01*
X199669Y306542D01*
X199594Y306576D01*
X199513Y306593D01*
X199431D01*
X199350Y306576D01*
X199275Y306542D01*
X199208Y306494D01*
X199153Y306433D01*
X199112Y306361D01*
X199087Y306283D01*
X199078Y306201D01*
X199087Y306119D01*
X199112Y306041D01*
X199153Y305970D01*
X199208Y305908D01*
X199275Y305860D01*
X199350Y305826D01*
X199431Y305809D01*
X199513D01*
X199594Y305826D01*
X199669Y305860D01*
X199736Y305908D01*
X199791Y305969D01*
X199832Y306041D01*
X199857Y306119D01*
X199866Y306201D01*
D03*
X237983Y303071D02*
G01X244086D01*
X224007Y303740D02*
G01X236605D01*
G54D15*
X198608Y302544D02*
G01Y304118D01*
D02*
G01X198214Y304512D01*
D02*
G01X197427D01*
X200969Y303725D02*
G01Y304118D01*
D02*
G01X200575Y304512D01*
D02*
G01X199788D01*
D02*
G01X199395Y304118D01*
G54D16*
X184118Y302898D02*
G01X195929D01*
G54D15*
X197033Y304118D02*
G01Y302544D01*
X197427Y304512D02*
G01X197033Y304118D01*
G54D12*
X236605Y303740D02*
G01Y342717D01*
X224007Y303740D02*
G01Y342717D01*
G54D10*
X427165Y206234D02*
G01X428740D01*
X427362Y227100D02*
G01X428937D01*
G54D12*
X422638Y110236D02*
G01X467126D01*
X419095Y165354D02*
G01X470669D01*
G54D17*
X310824Y285143D02*
G01X313185D01*
X310037Y284356D02*
G01X310824Y285143D01*
Y283569D02*
G01X310037Y284356D01*
X313185Y283569D02*
G01X310824D01*
X313185Y285930D02*
G01Y283569D01*
X312398Y286718D02*
G01X313185Y285930D01*
X310824Y286718D02*
G01X312398D01*
X311611Y299408D02*
G01X310824D01*
X311611Y296260D02*
G01Y299408D01*
X312398Y296260D02*
G01X311611D01*
X310824D02*
G01X312398D01*
X309249Y298621D02*
G01Y296260D01*
X308462Y299408D02*
G01X309249Y298621D01*
G54D10*
X422244Y229659D02*
G01Y232218D01*
G54D12*
X398158Y226656D02*
G01Y232463D01*
X411346Y226656D02*
G01Y232463D01*
X398622Y192913D02*
G01Y342520D01*
G54D15*
X391929Y220947D02*
G01Y231971D01*
X397441Y220947D02*
G01Y231971D01*
X388976Y227738D02*
G01Y233250D01*
G54D12*
X388386Y110236D02*
G01Y111417D01*
G54D15*
X386614Y212778D02*
G01Y224589D01*
X389297Y216518D02*
G01Y214943D01*
X389370Y169488D02*
G01X388583D01*
D02*
G01X388977D01*
D02*
G01Y167520D01*
D02*
G01X388583Y167126D01*
X388190D02*
G01X387796Y167520D01*
X388583Y167126D02*
G01X388190D01*
G54D12*
X388386Y111417D02*
G01X390748D01*
G54D15*
X390478Y216911D02*
G01X389691D01*
D02*
G01X389297Y216518D01*
Y214943D02*
G01X389691Y214550D01*
D02*
G01X390478D01*
G36*
X523095Y206964D02*
G01X523514D01*
Y206918D01*
X523746D01*
Y206871D01*
X523885D01*
Y206825D01*
X524072D01*
Y206778D01*
X524211D01*
Y206732D01*
X524304D01*
Y206685D01*
X524443D01*
Y206639D01*
X524537D01*
Y206592D01*
X524629D01*
Y206546D01*
X524722D01*
Y206499D01*
X524769D01*
Y206453D01*
X524862D01*
Y206406D01*
X524955D01*
Y206360D01*
X525002D01*
Y206313D01*
X525095D01*
Y206267D01*
X525141D01*
Y206220D01*
X525188D01*
Y206174D01*
X525281D01*
Y206127D01*
X525327D01*
Y206081D01*
X525374D01*
Y206034D01*
X525420D01*
Y205988D01*
X525467D01*
Y205941D01*
X525513D01*
Y205895D01*
X525560D01*
Y205848D01*
X525606D01*
Y205802D01*
X525653D01*
Y205755D01*
X525699D01*
Y205709D01*
X525746D01*
Y205662D01*
X525792D01*
Y205616D01*
X525839D01*
Y205569D01*
X525885D01*
Y205523D01*
X525932D01*
Y205430D01*
X525978D01*
Y205383D01*
X526024D01*
Y205337D01*
X526071D01*
Y205244D01*
X526118D01*
Y205197D01*
X526164D01*
Y205104D01*
X526210D01*
Y205011D01*
X526257D01*
Y204965D01*
X526303D01*
Y204872D01*
X526350D01*
Y204779D01*
X526397D01*
Y204639D01*
X526443D01*
Y204546D01*
X526489D01*
Y204407D01*
X526536D01*
Y204267D01*
X526582D01*
Y204128D01*
X526629D01*
Y203942D01*
X526676D01*
Y203709D01*
X526722D01*
Y190736D01*
X526676D01*
Y190782D01*
X526582D01*
Y190829D01*
X526536D01*
Y190875D01*
X526489D01*
Y190922D01*
X526443D01*
Y190968D01*
X526397D01*
Y191015D01*
X526350D01*
Y191061D01*
X526303D01*
Y191108D01*
X526210D01*
Y191154D01*
X526164D01*
Y191201D01*
X526118D01*
Y191247D01*
X526071D01*
Y191294D01*
X525978D01*
Y191340D01*
X525932D01*
Y191387D01*
X525885D01*
Y191433D01*
X525792D01*
Y191480D01*
X525746D01*
Y191526D01*
X525699D01*
Y191573D01*
X525606D01*
Y191619D01*
X525560D01*
Y191666D01*
X525513D01*
Y191712D01*
X525420D01*
Y191759D01*
X525374D01*
Y191805D01*
X525281D01*
Y191852D01*
X525234D01*
Y191898D01*
X525141D01*
Y191945D01*
X525095D01*
Y191991D01*
X525002D01*
Y192038D01*
X524955D01*
Y192084D01*
X524862D01*
Y192131D01*
X524816D01*
Y192177D01*
X524722D01*
Y192224D01*
X524629D01*
Y192270D01*
X524583D01*
Y192317D01*
X524490D01*
Y192363D01*
X524397D01*
Y192410D01*
X524304D01*
Y192456D01*
X524258D01*
Y192503D01*
X524164D01*
Y192549D01*
X524072D01*
Y192596D01*
X523979D01*
Y192642D01*
X523885D01*
Y192689D01*
X523793D01*
Y192735D01*
X523700D01*
Y192782D01*
X523606D01*
Y192828D01*
X523514D01*
Y192875D01*
X523420D01*
Y192921D01*
X523281D01*
Y192968D01*
X523188D01*
Y193014D01*
X523095D01*
Y193061D01*
X523002D01*
Y193107D01*
X522862D01*
Y193154D01*
X522769D01*
Y193200D01*
X522630D01*
Y193247D01*
X522491D01*
Y193293D01*
X522398D01*
Y193340D01*
X522258D01*
Y193386D01*
X522119D01*
Y193433D01*
X521979D01*
Y193479D01*
X521840D01*
Y193526D01*
X521654D01*
Y193572D01*
X521514D01*
Y193619D01*
X521328D01*
Y193665D01*
X521142D01*
Y193712D01*
X520956D01*
Y193758D01*
X520770D01*
Y193805D01*
X520538D01*
Y193851D01*
X520305D01*
Y193898D01*
X520026D01*
Y193944D01*
X519700D01*
Y193991D01*
X519282D01*
Y194037D01*
X518678D01*
Y194084D01*
X517376D01*
Y194037D01*
X516724D01*
Y193991D01*
X516353D01*
Y193944D01*
X516027D01*
Y193898D01*
X515748D01*
Y193851D01*
X515516D01*
Y193805D01*
X515283D01*
Y193758D01*
X515051D01*
Y193712D01*
X514864D01*
Y193665D01*
X514678D01*
Y193619D01*
X514539D01*
Y193572D01*
X514353D01*
Y193526D01*
X514214D01*
Y193479D01*
X514074D01*
Y193433D01*
X513935D01*
Y193386D01*
X513795D01*
Y193340D01*
X513656D01*
Y193293D01*
X513516D01*
Y193247D01*
X513377D01*
Y193200D01*
X513283D01*
Y193154D01*
X513144D01*
Y193107D01*
X513051D01*
Y193061D01*
X512958D01*
Y193014D01*
X512818D01*
Y192968D01*
X512725D01*
Y192921D01*
X512633D01*
Y192875D01*
X512539D01*
Y192828D01*
X512400D01*
Y192782D01*
X512307D01*
Y192735D01*
X512214D01*
Y192689D01*
X512121D01*
Y192642D01*
X512028D01*
Y192596D01*
X511981D01*
Y192549D01*
X511889D01*
Y192503D01*
X511796D01*
Y192456D01*
X511702D01*
Y192410D01*
X511610D01*
Y192363D01*
X511563D01*
Y192317D01*
X511470D01*
Y192270D01*
X511377D01*
Y192224D01*
X511284D01*
Y192177D01*
X511237D01*
Y192131D01*
X511144D01*
Y192084D01*
X511098D01*
Y192038D01*
X511005D01*
Y191991D01*
X510958D01*
Y191945D01*
X510865D01*
Y191898D01*
X510819D01*
Y191852D01*
X510726D01*
Y191805D01*
X510679D01*
Y191759D01*
X510587D01*
Y191712D01*
X510540D01*
Y191666D01*
X510447D01*
Y191619D01*
X510400D01*
Y191573D01*
X510354D01*
Y191526D01*
X510261D01*
Y191480D01*
X510215D01*
Y191433D01*
X510168D01*
Y191387D01*
X510075D01*
Y191340D01*
X510029D01*
Y191294D01*
X509982D01*
Y191247D01*
X509936D01*
Y191201D01*
X509842D01*
Y191154D01*
X509796D01*
Y191108D01*
X509750D01*
Y191061D01*
X509703D01*
Y191015D01*
X509656D01*
Y190968D01*
X509563D01*
Y190922D01*
X509517D01*
Y190875D01*
X509471D01*
Y190829D01*
X509424D01*
Y190782D01*
X509377D01*
Y190736D01*
X509331D01*
Y190689D01*
X509284D01*
Y190643D01*
X509238D01*
Y190596D01*
X509192D01*
Y190550D01*
X509098D01*
Y190503D01*
X509052D01*
Y190457D01*
X509005D01*
Y190410D01*
X508959D01*
Y190364D01*
X508913D01*
Y190317D01*
X508866D01*
Y190271D01*
X508819D01*
Y190224D01*
X508773D01*
Y190178D01*
X508727D01*
Y190131D01*
X508680D01*
Y190085D01*
X508634D01*
Y190038D01*
X508587D01*
Y189945D01*
X508540D01*
Y189899D01*
X508494D01*
Y189852D01*
X508448D01*
Y189806D01*
X508401D01*
Y189759D01*
X508355D01*
Y189713D01*
X508308D01*
Y189666D01*
X508261D01*
Y189620D01*
X508215D01*
Y189573D01*
X508169D01*
Y189480D01*
X508122D01*
Y189434D01*
X508076D01*
Y189387D01*
X508029D01*
Y189341D01*
X507982D01*
Y189294D01*
X507936D01*
Y189201D01*
X507890D01*
Y189155D01*
X507843D01*
Y189108D01*
X507796D01*
Y189015D01*
X507750D01*
Y188969D01*
X507703D01*
Y188922D01*
X507657D01*
Y188829D01*
X507611D01*
Y188783D01*
X507564D01*
Y188736D01*
X507517D01*
Y188643D01*
X507471D01*
Y188597D01*
X507424D01*
Y188550D01*
X507378D01*
Y188457D01*
X507332D01*
Y188411D01*
X507285D01*
Y188318D01*
X507238D01*
Y188271D01*
X507192D01*
Y188178D01*
X507146D01*
Y188132D01*
X507099D01*
Y188039D01*
X507053D01*
Y187946D01*
X507006D01*
Y187899D01*
X506959D01*
Y187806D01*
X506913D01*
Y187713D01*
X506867D01*
Y187667D01*
X506820D01*
Y187574D01*
X506774D01*
Y187481D01*
X506727D01*
Y187388D01*
X506680D01*
Y187341D01*
X506634D01*
Y187248D01*
X506588D01*
Y187155D01*
X506541D01*
Y187062D01*
X506495D01*
Y186969D01*
X506448D01*
Y186876D01*
X506401D01*
Y186783D01*
X506355D01*
Y186690D01*
X506309D01*
Y186597D01*
X506262D01*
Y186504D01*
X506215D01*
Y186365D01*
X506169D01*
Y186272D01*
X506122D01*
Y186179D01*
X506076D01*
Y186039D01*
X506030D01*
Y185946D01*
X505983D01*
Y185807D01*
X505936D01*
Y185714D01*
X505890D01*
Y185574D01*
X505843D01*
Y185435D01*
X505797D01*
Y185295D01*
X505751D01*
Y201942D01*
X499287D01*
Y192363D01*
X499194D01*
Y192410D01*
X499148D01*
Y192456D01*
X499054D01*
Y192503D01*
X498961D01*
Y192549D01*
X498869D01*
Y192596D01*
X498775D01*
Y192642D01*
X498682D01*
Y192689D01*
X498590D01*
Y192735D01*
X498496D01*
Y192782D01*
X498404D01*
Y192828D01*
X498311D01*
Y192875D01*
X498217D01*
Y192921D01*
X498125D01*
Y192968D01*
X498032D01*
Y193014D01*
X497892D01*
Y193061D01*
X497799D01*
Y193107D01*
X497659D01*
Y193154D01*
X497567D01*
Y193200D01*
X497427D01*
Y193247D01*
X497334D01*
Y193293D01*
X497194D01*
Y193340D01*
X497055D01*
Y193386D01*
X496915D01*
Y193433D01*
X496776D01*
Y193479D01*
X496636D01*
Y193526D01*
X496497D01*
Y193572D01*
X496311D01*
Y193619D01*
X496125D01*
Y193665D01*
X495986D01*
Y193712D01*
X495753D01*
Y193758D01*
X495567D01*
Y193805D01*
X495334D01*
Y193851D01*
X495102D01*
Y193898D01*
X494823D01*
Y193944D01*
X494497D01*
Y193991D01*
X494079D01*
Y194037D01*
X493474D01*
Y194084D01*
X492172D01*
Y194037D01*
X491568D01*
Y193991D01*
X491150D01*
Y193944D01*
X490824D01*
Y193898D01*
X490545D01*
Y193851D01*
X490312D01*
Y193805D01*
X490080D01*
Y193758D01*
X489894D01*
Y193712D01*
X489708D01*
Y193665D01*
X489522D01*
Y193619D01*
X489336D01*
Y193572D01*
X489196D01*
Y193526D01*
X489010D01*
Y193479D01*
X488871D01*
Y193433D01*
X488731D01*
Y193386D01*
X488592D01*
Y193340D01*
X488452D01*
Y193293D01*
X488313D01*
Y193247D01*
X488220D01*
Y193200D01*
X488081D01*
Y193154D01*
X487988D01*
Y193107D01*
X487848D01*
Y193061D01*
X487755D01*
Y193014D01*
X487662D01*
Y192968D01*
X487523D01*
Y192921D01*
X487430D01*
Y192875D01*
X487336D01*
Y192828D01*
X487244D01*
Y192782D01*
X487150D01*
Y192735D01*
X487057D01*
Y192689D01*
X486965D01*
Y192642D01*
X486871D01*
Y192596D01*
X486778D01*
Y192549D01*
X486686D01*
Y192503D01*
X486592D01*
Y192456D01*
X486500D01*
Y192410D01*
X486453D01*
Y192363D01*
X486360D01*
Y192317D01*
X486267D01*
Y192270D01*
X486174D01*
Y192224D01*
X486128D01*
Y192177D01*
X486034D01*
Y192131D01*
X485988D01*
Y192084D01*
X485895D01*
Y192038D01*
X485802D01*
Y191991D01*
X485755D01*
Y191945D01*
X485663D01*
Y191898D01*
X485616D01*
Y191852D01*
X485523D01*
Y191805D01*
X485476D01*
Y191759D01*
X485430D01*
Y191712D01*
X485337D01*
Y191666D01*
X485290D01*
Y191619D01*
X485197D01*
Y191573D01*
X485151D01*
Y191526D01*
X485105D01*
Y191480D01*
X485011D01*
Y191433D01*
X484965D01*
Y191387D01*
X484918D01*
Y191340D01*
X484826D01*
Y191294D01*
X484779D01*
Y191247D01*
X484732D01*
Y191201D01*
X484686D01*
Y191154D01*
X484593D01*
Y191108D01*
X484547D01*
Y191061D01*
X484500D01*
Y191015D01*
X484453D01*
Y190968D01*
X484407D01*
Y190922D01*
X484361D01*
Y190875D01*
X484268D01*
Y190829D01*
X484221D01*
Y190782D01*
X484174D01*
Y190736D01*
X484082D01*
Y203384D01*
X484128D01*
Y203756D01*
X484174D01*
Y203988D01*
X484221D01*
Y204174D01*
X484268D01*
Y204314D01*
X484314D01*
Y204453D01*
X484361D01*
Y204546D01*
X484407D01*
Y204686D01*
X484453D01*
Y204779D01*
X484500D01*
Y204872D01*
X484547D01*
Y204965D01*
X484593D01*
Y205058D01*
X484640D01*
Y205104D01*
X484686D01*
Y205197D01*
X484732D01*
Y205244D01*
X484779D01*
Y205337D01*
X484826D01*
Y205383D01*
X484872D01*
Y205476D01*
X484918D01*
Y205523D01*
X484965D01*
Y205569D01*
X485011D01*
Y205616D01*
X485058D01*
Y205662D01*
X485105D01*
Y205755D01*
X485151D01*
Y205802D01*
X485197D01*
Y205848D01*
X485244D01*
Y205895D01*
X485290D01*
Y205941D01*
X485337D01*
Y205988D01*
X485430D01*
Y206034D01*
X485476D01*
Y206081D01*
X485523D01*
Y206127D01*
X485569D01*
Y206174D01*
X485616D01*
Y206220D01*
X485709D01*
Y206267D01*
X485755D01*
Y206313D01*
X485849D01*
Y206360D01*
X485895D01*
Y206406D01*
X485988D01*
Y206453D01*
X486034D01*
Y206499D01*
X486128D01*
Y206546D01*
X486221D01*
Y206592D01*
X486313D01*
Y206639D01*
X486407D01*
Y206685D01*
X486546D01*
Y206732D01*
X486639D01*
Y206778D01*
X486778D01*
Y206825D01*
X486918D01*
Y206871D01*
X487104D01*
Y206918D01*
X487336D01*
Y206964D01*
X487709D01*
Y207011D01*
X523095D01*
Y206964D01*
G37*
G36*
X518259Y187574D02*
G01X518863D01*
Y187527D01*
X519142D01*
Y187481D01*
X519375D01*
Y187434D01*
X519607D01*
Y187388D01*
X519747D01*
Y187341D01*
X519933D01*
Y187295D01*
X520073D01*
Y187248D01*
X520212D01*
Y187202D01*
X520352D01*
Y187155D01*
X520444D01*
Y187109D01*
X520538D01*
Y187062D01*
X520677D01*
Y187016D01*
X520770D01*
Y186969D01*
X520863D01*
Y186923D01*
X520956D01*
Y186876D01*
X521049D01*
Y186830D01*
X521142D01*
Y186783D01*
X521188D01*
Y186737D01*
X521281D01*
Y186690D01*
X521375D01*
Y186644D01*
X521421D01*
Y186597D01*
X521514D01*
Y186551D01*
X521560D01*
Y186504D01*
X521654D01*
Y186458D01*
X521700D01*
Y186411D01*
X521793D01*
Y186365D01*
X521840D01*
Y186318D01*
X521933D01*
Y186272D01*
X521979D01*
Y186225D01*
X522025D01*
Y186179D01*
X522072D01*
Y186132D01*
X522165D01*
Y186086D01*
X522212D01*
Y186039D01*
X522258D01*
Y185993D01*
X522304D01*
Y185946D01*
X522351D01*
Y185900D01*
X522398D01*
Y185853D01*
X522444D01*
Y185807D01*
X522491D01*
Y185760D01*
X522537D01*
Y185714D01*
X522583D01*
Y185667D01*
X522630D01*
Y185621D01*
X522677D01*
Y185574D01*
X522723D01*
Y185528D01*
X522769D01*
Y185481D01*
X522816D01*
Y185435D01*
X522862D01*
Y185388D01*
X522909D01*
Y185342D01*
X522956D01*
Y185295D01*
X523002D01*
Y185202D01*
X523048D01*
Y185156D01*
X523095D01*
Y185109D01*
X523141D01*
Y185016D01*
X523188D01*
Y184970D01*
X523235D01*
Y184923D01*
X523281D01*
Y184830D01*
X523327D01*
Y184784D01*
X523374D01*
Y184691D01*
X523420D01*
Y184644D01*
X523467D01*
Y184551D01*
X523514D01*
Y184505D01*
X523560D01*
Y184412D01*
X523606D01*
Y184319D01*
X523653D01*
Y184226D01*
X523700D01*
Y184179D01*
X523746D01*
Y184086D01*
X523793D01*
Y183993D01*
X523839D01*
Y183900D01*
X523885D01*
Y183761D01*
X523932D01*
Y183668D01*
X523979D01*
Y183575D01*
X524025D01*
Y183435D01*
X524072D01*
Y183342D01*
X524118D01*
Y183203D01*
X524164D01*
Y183063D01*
X524211D01*
Y182877D01*
X524258D01*
Y182691D01*
X524304D01*
Y182505D01*
X524351D01*
Y182226D01*
X524397D01*
Y181901D01*
X524443D01*
Y180366D01*
X524397D01*
Y180041D01*
X524351D01*
Y179808D01*
X524304D01*
Y179622D01*
X524258D01*
Y179436D01*
X524211D01*
Y179250D01*
X524164D01*
Y179111D01*
X524118D01*
Y178971D01*
X524072D01*
Y178878D01*
X524025D01*
Y178739D01*
X523979D01*
Y178646D01*
X523932D01*
Y178506D01*
X523885D01*
Y178413D01*
X523839D01*
Y178320D01*
X523793D01*
Y178227D01*
X523746D01*
Y178134D01*
X523700D01*
Y178041D01*
X523653D01*
Y177995D01*
X523606D01*
Y177902D01*
X523560D01*
Y177809D01*
X523514D01*
Y177762D01*
X523467D01*
Y177669D01*
X523420D01*
Y177576D01*
X523374D01*
Y177530D01*
X523327D01*
Y177437D01*
X523281D01*
Y177390D01*
X523235D01*
Y177344D01*
X523188D01*
Y177251D01*
X523141D01*
Y177204D01*
X523095D01*
Y177158D01*
X523048D01*
Y177065D01*
X523002D01*
Y177018D01*
X522956D01*
Y176972D01*
X522909D01*
Y176925D01*
X522862D01*
Y176879D01*
X522816D01*
Y176832D01*
X522769D01*
Y176786D01*
X522723D01*
Y176693D01*
X522677D01*
Y176646D01*
X522630D01*
Y176600D01*
X522583D01*
Y176553D01*
X522537D01*
Y176507D01*
X522491D01*
Y176460D01*
X522398D01*
Y176414D01*
X522351D01*
Y176367D01*
X522304D01*
Y176321D01*
X522258D01*
Y176274D01*
X522212D01*
Y176228D01*
X522165D01*
Y176181D01*
X522119D01*
Y176135D01*
X522025D01*
Y176088D01*
X521979D01*
Y176042D01*
X521933D01*
Y175995D01*
X521840D01*
Y175949D01*
X521793D01*
Y175902D01*
X521746D01*
Y175856D01*
X521654D01*
Y175809D01*
X521607D01*
Y175763D01*
X521514D01*
Y175716D01*
X521467D01*
Y175670D01*
X521375D01*
Y175623D01*
X521281D01*
Y175577D01*
X521235D01*
Y175530D01*
X521142D01*
Y175484D01*
X521049D01*
Y175437D01*
X520956D01*
Y175391D01*
X520863D01*
Y175344D01*
X520770D01*
Y175298D01*
X520677D01*
Y175251D01*
X520584D01*
Y175205D01*
X520491D01*
Y175158D01*
X520352D01*
Y175112D01*
X520212D01*
Y175065D01*
X520119D01*
Y175019D01*
X519979D01*
Y174972D01*
X519794D01*
Y174926D01*
X519654D01*
Y174879D01*
X519421D01*
Y174833D01*
X519189D01*
Y174786D01*
X518910D01*
Y174740D01*
X518445D01*
Y174693D01*
X517561D01*
Y174740D01*
X517097D01*
Y174786D01*
X516818D01*
Y174833D01*
X516585D01*
Y174879D01*
X516399D01*
Y174926D01*
X516213D01*
Y174972D01*
X516074D01*
Y175019D01*
X515934D01*
Y175065D01*
X515795D01*
Y175112D01*
X515655D01*
Y175158D01*
X515562D01*
Y175205D01*
X515469D01*
Y175251D01*
X515330D01*
Y175298D01*
X515237D01*
Y175344D01*
X515143D01*
Y175391D01*
X515051D01*
Y175437D01*
X514958D01*
Y175484D01*
X514864D01*
Y175530D01*
X514818D01*
Y175577D01*
X514725D01*
Y175623D01*
X514632D01*
Y175670D01*
X514585D01*
Y175716D01*
X514493D01*
Y175763D01*
X514446D01*
Y175809D01*
X514353D01*
Y175856D01*
X514306D01*
Y175902D01*
X514214D01*
Y175949D01*
X514167D01*
Y175995D01*
X514120D01*
Y176042D01*
X514028D01*
Y176088D01*
X513981D01*
Y176135D01*
X513935D01*
Y176181D01*
X513888D01*
Y176228D01*
X513795D01*
Y176274D01*
X513749D01*
Y176321D01*
X513702D01*
Y176367D01*
X513656D01*
Y176414D01*
X513609D01*
Y176460D01*
X513562D01*
Y176507D01*
X513516D01*
Y176553D01*
X513470D01*
Y176600D01*
X513423D01*
Y176646D01*
X513377D01*
Y176693D01*
X513330D01*
Y176739D01*
X513283D01*
Y176786D01*
X513237D01*
Y176832D01*
X513191D01*
Y176879D01*
X513144D01*
Y176925D01*
X513097D01*
Y177018D01*
X513051D01*
Y177065D01*
X513004D01*
Y177111D01*
X512958D01*
Y177158D01*
X512912D01*
Y177251D01*
X512865D01*
Y177297D01*
X512818D01*
Y177344D01*
X512772D01*
Y177437D01*
X512725D01*
Y177483D01*
X512679D01*
Y177576D01*
X512633D01*
Y177623D01*
X512586D01*
Y177716D01*
X512539D01*
Y177762D01*
X512493D01*
Y177855D01*
X512446D01*
Y177948D01*
X512400D01*
Y177995D01*
X512354D01*
Y178088D01*
X512307D01*
Y178181D01*
X512260D01*
Y178274D01*
X512214D01*
Y178367D01*
X512168D01*
Y178460D01*
X512121D01*
Y178553D01*
X512075D01*
Y178692D01*
X512028D01*
Y178785D01*
X511981D01*
Y178925D01*
X511935D01*
Y179018D01*
X511889D01*
Y179157D01*
X511842D01*
Y179343D01*
X511796D01*
Y179483D01*
X511749D01*
Y179669D01*
X511702D01*
Y179901D01*
X511656D01*
Y180180D01*
X511610D01*
Y180599D01*
X511563D01*
Y181715D01*
X511610D01*
Y182133D01*
X511656D01*
Y182412D01*
X511702D01*
Y182598D01*
X511749D01*
Y182784D01*
X511796D01*
Y182970D01*
X511842D01*
Y183110D01*
X511889D01*
Y183249D01*
X511935D01*
Y183389D01*
X511981D01*
Y183528D01*
X512028D01*
Y183621D01*
X512075D01*
Y183714D01*
X512121D01*
Y183854D01*
X512168D01*
Y183947D01*
X512214D01*
Y184040D01*
X512260D01*
Y184133D01*
X512307D01*
Y184226D01*
X512354D01*
Y184272D01*
X512400D01*
Y184365D01*
X512446D01*
Y184458D01*
X512493D01*
Y184551D01*
X512539D01*
Y184598D01*
X512586D01*
Y184691D01*
X512633D01*
Y184737D01*
X512679D01*
Y184830D01*
X512725D01*
Y184877D01*
X512772D01*
Y184970D01*
X512818D01*
Y185016D01*
X512865D01*
Y185063D01*
X512912D01*
Y185109D01*
X512958D01*
Y185202D01*
X513004D01*
Y185249D01*
X513051D01*
Y185295D01*
X513097D01*
Y185342D01*
X513144D01*
Y185388D01*
X513191D01*
Y185481D01*
X513237D01*
Y185528D01*
X513283D01*
Y185574D01*
X513330D01*
Y185621D01*
X513377D01*
Y185667D01*
X513423D01*
Y185714D01*
X513470D01*
Y185760D01*
X513516D01*
Y185807D01*
X513562D01*
Y185853D01*
X513609D01*
Y185900D01*
X513656D01*
Y185946D01*
X513702D01*
Y185993D01*
X513795D01*
Y186039D01*
X513841D01*
Y186086D01*
X513888D01*
Y186132D01*
X513935D01*
Y186179D01*
X513981D01*
Y186225D01*
X514074D01*
Y186272D01*
X514120D01*
Y186318D01*
X514167D01*
Y186365D01*
X514260D01*
Y186411D01*
X514306D01*
Y186458D01*
X514353D01*
Y186504D01*
X514446D01*
Y186551D01*
X514493D01*
Y186597D01*
X514585D01*
Y186644D01*
X514678D01*
Y186690D01*
X514725D01*
Y186737D01*
X514818D01*
Y186783D01*
X514911D01*
Y186830D01*
X515004D01*
Y186876D01*
X515097D01*
Y186923D01*
X515190D01*
Y186969D01*
X515283D01*
Y187016D01*
X515376D01*
Y187062D01*
X515469D01*
Y187109D01*
X515562D01*
Y187155D01*
X515701D01*
Y187202D01*
X515841D01*
Y187248D01*
X515934D01*
Y187295D01*
X516120D01*
Y187341D01*
X516259D01*
Y187388D01*
X516445D01*
Y187434D01*
X516632D01*
Y187481D01*
X516864D01*
Y187527D01*
X517190D01*
Y187574D01*
X517747D01*
Y187620D01*
X518259D01*
Y187574D01*
G37*
G36*
X505099Y160325D02*
G01X511563D01*
Y169950D01*
X511610D01*
Y169904D01*
X511702D01*
Y169857D01*
X511749D01*
Y169811D01*
X511842D01*
Y169764D01*
X511935D01*
Y169718D01*
X512028D01*
Y169671D01*
X512121D01*
Y169625D01*
X512214D01*
Y169578D01*
X512307D01*
Y169532D01*
X512400D01*
Y169485D01*
X512493D01*
Y169439D01*
X512586D01*
Y169392D01*
X512679D01*
Y169346D01*
X512818D01*
Y169299D01*
X512912D01*
Y169253D01*
X513004D01*
Y169206D01*
X513144D01*
Y169160D01*
X513237D01*
Y169113D01*
X513377D01*
Y169067D01*
X513516D01*
Y169020D01*
X513609D01*
Y168974D01*
X513749D01*
Y168927D01*
X513888D01*
Y168881D01*
X514028D01*
Y168834D01*
X514167D01*
Y168788D01*
X514306D01*
Y168741D01*
X514493D01*
Y168695D01*
X514678D01*
Y168648D01*
X514818D01*
Y168602D01*
X515004D01*
Y168555D01*
X515237D01*
Y168509D01*
X515422D01*
Y168462D01*
X515701D01*
Y168416D01*
X515934D01*
Y168369D01*
X516259D01*
Y168323D01*
X516632D01*
Y168276D01*
X517190D01*
Y168230D01*
X518817D01*
Y168276D01*
X519375D01*
Y168323D01*
X519747D01*
Y168369D01*
X520073D01*
Y168416D01*
X520352D01*
Y168462D01*
X520584D01*
Y168509D01*
X520817D01*
Y168555D01*
X521002D01*
Y168602D01*
X521188D01*
Y168648D01*
X521375D01*
Y168695D01*
X521560D01*
Y168741D01*
X521700D01*
Y168788D01*
X521840D01*
Y168834D01*
X521979D01*
Y168881D01*
X522119D01*
Y168927D01*
X522258D01*
Y168974D01*
X522398D01*
Y169020D01*
X522537D01*
Y169067D01*
X522677D01*
Y169113D01*
X522769D01*
Y169160D01*
X522909D01*
Y169206D01*
X523002D01*
Y169253D01*
X523095D01*
Y169299D01*
X523235D01*
Y169346D01*
X523327D01*
Y169392D01*
X523420D01*
Y169439D01*
X523514D01*
Y169485D01*
X523606D01*
Y169532D01*
X523700D01*
Y169578D01*
X523839D01*
Y169625D01*
X523885D01*
Y169671D01*
X523979D01*
Y169718D01*
X524072D01*
Y169764D01*
X524164D01*
Y169811D01*
X524258D01*
Y169857D01*
X524351D01*
Y169904D01*
X524443D01*
Y169950D01*
X524490D01*
Y169997D01*
X524583D01*
Y170043D01*
X524676D01*
Y170090D01*
X524722D01*
Y170136D01*
X524816D01*
Y170183D01*
X524909D01*
Y170229D01*
X524955D01*
Y170276D01*
X525048D01*
Y170322D01*
X525095D01*
Y170369D01*
X525188D01*
Y170415D01*
X525234D01*
Y170462D01*
X525327D01*
Y170508D01*
X525374D01*
Y170555D01*
X525467D01*
Y170601D01*
X525513D01*
Y170648D01*
X525560D01*
Y170694D01*
X525653D01*
Y170741D01*
X525699D01*
Y170787D01*
X525746D01*
Y170834D01*
X525839D01*
Y170880D01*
X525885D01*
Y170927D01*
X525932D01*
Y170973D01*
X526024D01*
Y171020D01*
X526071D01*
Y171066D01*
X526118D01*
Y171113D01*
X526164D01*
Y171159D01*
X526257D01*
Y171206D01*
X526303D01*
Y171252D01*
X526350D01*
Y171299D01*
X526397D01*
Y171345D01*
X526443D01*
Y171392D01*
X526489D01*
Y171438D01*
X526582D01*
Y171485D01*
X526629D01*
Y171531D01*
X526676D01*
Y171578D01*
X526722D01*
Y158604D01*
X526676D01*
Y158372D01*
X526629D01*
Y158186D01*
X526582D01*
Y158046D01*
X526536D01*
Y157907D01*
X526489D01*
Y157767D01*
X526443D01*
Y157628D01*
X526397D01*
Y157535D01*
X526350D01*
Y157442D01*
X526303D01*
Y157349D01*
X526257D01*
Y157256D01*
X526210D01*
Y157209D01*
X526164D01*
Y157116D01*
X526118D01*
Y157070D01*
X526071D01*
Y156977D01*
X526024D01*
Y156930D01*
X525978D01*
Y156837D01*
X525932D01*
Y156791D01*
X525885D01*
Y156744D01*
X525839D01*
Y156698D01*
X525792D01*
Y156651D01*
X525746D01*
Y156558D01*
X525699D01*
Y156512D01*
X525653D01*
Y156465D01*
X525606D01*
Y156419D01*
X525560D01*
Y156372D01*
X525513D01*
Y156326D01*
X525467D01*
Y156279D01*
X525374D01*
Y156233D01*
X525327D01*
Y156186D01*
X525281D01*
Y156140D01*
X525234D01*
Y156093D01*
X525141D01*
Y156047D01*
X525095D01*
Y156000D01*
X525048D01*
Y155954D01*
X524955D01*
Y155907D01*
X524909D01*
Y155861D01*
X524816D01*
Y155814D01*
X524722D01*
Y155768D01*
X524629D01*
Y155721D01*
X524537D01*
Y155675D01*
X524443D01*
Y155628D01*
X524351D01*
Y155582D01*
X524211D01*
Y155535D01*
X524072D01*
Y155489D01*
X523932D01*
Y155442D01*
X523793D01*
Y155396D01*
X523560D01*
Y155349D01*
X523235D01*
Y155303D01*
X487615D01*
Y155349D01*
X487290D01*
Y155396D01*
X487057D01*
Y155442D01*
X486918D01*
Y155489D01*
X486732D01*
Y155535D01*
X486639D01*
Y155582D01*
X486500D01*
Y155628D01*
X486407D01*
Y155675D01*
X486313D01*
Y155721D01*
X486221D01*
Y155768D01*
X486128D01*
Y155814D01*
X486034D01*
Y155861D01*
X485942D01*
Y155907D01*
X485895D01*
Y155954D01*
X485802D01*
Y156000D01*
X485755D01*
Y156047D01*
X485663D01*
Y156093D01*
X485616D01*
Y156140D01*
X485569D01*
Y156186D01*
X485523D01*
Y156233D01*
X485430D01*
Y156279D01*
X485384D01*
Y156326D01*
X485337D01*
Y156372D01*
X485290D01*
Y156419D01*
X485244D01*
Y156465D01*
X485197D01*
Y156512D01*
X485151D01*
Y156558D01*
X485105D01*
Y156605D01*
X485058D01*
Y156651D01*
X485011D01*
Y156744D01*
X484965D01*
Y156791D01*
X484918D01*
Y156837D01*
X484872D01*
Y156884D01*
X484826D01*
Y156977D01*
X484779D01*
Y157023D01*
X484732D01*
Y157116D01*
X484686D01*
Y157163D01*
X484640D01*
Y157256D01*
X484593D01*
Y157349D01*
X484547D01*
Y157442D01*
X484500D01*
Y157535D01*
X484453D01*
Y157628D01*
X484407D01*
Y157721D01*
X484361D01*
Y157860D01*
X484314D01*
Y158000D01*
X484268D01*
Y158139D01*
X484221D01*
Y158325D01*
X484174D01*
Y158558D01*
X484128D01*
Y158930D01*
X484082D01*
Y171578D01*
X484174D01*
Y171531D01*
X484221D01*
Y171485D01*
X484268D01*
Y171438D01*
X484314D01*
Y171392D01*
X484361D01*
Y171345D01*
X484453D01*
Y171299D01*
X484500D01*
Y171252D01*
X484547D01*
Y171206D01*
X484593D01*
Y171159D01*
X484640D01*
Y171113D01*
X484732D01*
Y171066D01*
X484779D01*
Y171020D01*
X484826D01*
Y170973D01*
X484872D01*
Y170927D01*
X484965D01*
Y170880D01*
X485011D01*
Y170834D01*
X485058D01*
Y170787D01*
X485151D01*
Y170741D01*
X485197D01*
Y170694D01*
X485244D01*
Y170648D01*
X485337D01*
Y170601D01*
X485384D01*
Y170555D01*
X485476D01*
Y170508D01*
X485523D01*
Y170462D01*
X485616D01*
Y170415D01*
X485663D01*
Y170369D01*
X485755D01*
Y170322D01*
X485802D01*
Y170276D01*
X485895D01*
Y170229D01*
X485942D01*
Y170183D01*
X486034D01*
Y170136D01*
X486081D01*
Y170090D01*
X486174D01*
Y170043D01*
X486267D01*
Y169997D01*
X486360D01*
Y169950D01*
X486407D01*
Y169904D01*
X486500D01*
Y169857D01*
X486592D01*
Y169811D01*
X486686D01*
Y169764D01*
X486732D01*
Y169718D01*
X486825D01*
Y169671D01*
X486918D01*
Y169625D01*
X487011D01*
Y169578D01*
X487104D01*
Y169532D01*
X487197D01*
Y169485D01*
X487290D01*
Y169439D01*
X487430D01*
Y169392D01*
X487523D01*
Y169346D01*
X487615D01*
Y169299D01*
X487709D01*
Y169253D01*
X487848D01*
Y169206D01*
X487941D01*
Y169160D01*
X488081D01*
Y169113D01*
X488173D01*
Y169067D01*
X488313D01*
Y169020D01*
X488452D01*
Y168974D01*
X488546D01*
Y168927D01*
X488685D01*
Y168881D01*
X488825D01*
Y168834D01*
X489010D01*
Y168788D01*
X489150D01*
Y168741D01*
X489290D01*
Y168695D01*
X489475D01*
Y168648D01*
X489662D01*
Y168602D01*
X489848D01*
Y168555D01*
X490033D01*
Y168509D01*
X490266D01*
Y168462D01*
X490498D01*
Y168416D01*
X490777D01*
Y168369D01*
X491056D01*
Y168323D01*
X491475D01*
Y168276D01*
X491987D01*
Y168230D01*
X493660D01*
Y168276D01*
X494172D01*
Y168323D01*
X494591D01*
Y168369D01*
X494870D01*
Y168416D01*
X495149D01*
Y168462D01*
X495381D01*
Y168509D01*
X495613D01*
Y168555D01*
X495799D01*
Y168602D01*
X495986D01*
Y168648D01*
X496172D01*
Y168695D01*
X496357D01*
Y168741D01*
X496497D01*
Y168788D01*
X496683D01*
Y168834D01*
X496823D01*
Y168881D01*
X496962D01*
Y168927D01*
X497101D01*
Y168974D01*
X497194D01*
Y169020D01*
X497334D01*
Y169067D01*
X497473D01*
Y169113D01*
X497567D01*
Y169160D01*
X497706D01*
Y169206D01*
X497799D01*
Y169253D01*
X497938D01*
Y169299D01*
X498032D01*
Y169346D01*
X498125D01*
Y169392D01*
X498264D01*
Y169439D01*
X498357D01*
Y169485D01*
X498450D01*
Y169532D01*
X498543D01*
Y169578D01*
X498636D01*
Y169625D01*
X498729D01*
Y169671D01*
X498822D01*
Y169718D01*
X498915D01*
Y169764D01*
X498961D01*
Y169811D01*
X499054D01*
Y169857D01*
X499148D01*
Y169904D01*
X499240D01*
Y169950D01*
X499333D01*
Y169997D01*
X499380D01*
Y170043D01*
X499473D01*
Y170090D01*
X499566D01*
Y170136D01*
X499613D01*
Y170183D01*
X499706D01*
Y170229D01*
X499752D01*
Y170276D01*
X499845D01*
Y170322D01*
X499938D01*
Y170369D01*
X499985D01*
Y170415D01*
X500077D01*
Y170462D01*
X500124D01*
Y170508D01*
X500171D01*
Y170555D01*
X500264D01*
Y170601D01*
X500310D01*
Y170648D01*
X500403D01*
Y170694D01*
X500450D01*
Y170741D01*
X500496D01*
Y170787D01*
X500589D01*
Y170834D01*
X500635D01*
Y170880D01*
X500682D01*
Y170927D01*
X500775D01*
Y170973D01*
X500821D01*
Y171020D01*
X500868D01*
Y171066D01*
X500914D01*
Y171113D01*
X501008D01*
Y171159D01*
X501054D01*
Y171206D01*
X501100D01*
Y171252D01*
X501147D01*
Y171299D01*
X501194D01*
Y171345D01*
X501287D01*
Y171392D01*
X501333D01*
Y171438D01*
X501379D01*
Y171485D01*
X501426D01*
Y171531D01*
X501473D01*
Y171578D01*
X501519D01*
Y171624D01*
X501566D01*
Y171671D01*
X501612D01*
Y171717D01*
X501658D01*
Y171764D01*
X501752D01*
Y171810D01*
X501798D01*
Y171857D01*
X501845D01*
Y171903D01*
X501891D01*
Y171950D01*
X501937D01*
Y171996D01*
X501984D01*
Y172043D01*
X502031D01*
Y172089D01*
X502077D01*
Y172136D01*
X502123D01*
Y172182D01*
X502170D01*
Y172229D01*
X502216D01*
Y172322D01*
X502263D01*
Y172368D01*
X502310D01*
Y172415D01*
X502356D01*
Y172461D01*
X502402D01*
Y172508D01*
X502449D01*
Y172554D01*
X502495D01*
Y172601D01*
X502542D01*
Y172647D01*
X502589D01*
Y172694D01*
X502635D01*
Y172787D01*
X502681D01*
Y172833D01*
X502728D01*
Y172880D01*
X502774D01*
Y172926D01*
X502821D01*
Y172973D01*
X502868D01*
Y173066D01*
X502914D01*
Y173112D01*
X502960D01*
Y173159D01*
X503007D01*
Y173205D01*
X503054D01*
Y173298D01*
X503100D01*
Y173345D01*
X503147D01*
Y173391D01*
X503193D01*
Y173484D01*
X503239D01*
Y173531D01*
X503286D01*
Y173577D01*
X503333D01*
Y173670D01*
X503379D01*
Y173717D01*
X503426D01*
Y173810D01*
X503472D01*
Y173856D01*
X503518D01*
Y173903D01*
X503565D01*
Y173996D01*
X503612D01*
Y174042D01*
X503658D01*
Y174135D01*
X503705D01*
Y174228D01*
X503751D01*
Y174275D01*
X503797D01*
Y174368D01*
X503844D01*
Y174414D01*
X503891D01*
Y174507D01*
X503937D01*
Y174600D01*
X503983D01*
Y174647D01*
X504030D01*
Y174740D01*
X504076D01*
Y174833D01*
X504123D01*
Y174926D01*
X504170D01*
Y175019D01*
X504216D01*
Y175065D01*
X504262D01*
Y175158D01*
X504309D01*
Y175251D01*
X504355D01*
Y175344D01*
X504402D01*
Y175437D01*
X504449D01*
Y175530D01*
X504495D01*
Y175623D01*
X504541D01*
Y175763D01*
X504588D01*
Y175856D01*
X504635D01*
Y175949D01*
X504681D01*
Y176042D01*
X504728D01*
Y176181D01*
X504774D01*
Y176274D01*
X504820D01*
Y176414D01*
X504867D01*
Y176507D01*
X504914D01*
Y176646D01*
X504960D01*
Y176786D01*
X505007D01*
Y176879D01*
X505053D01*
Y177018D01*
X505099D01*
Y160325D01*
G37*
G54D10*
X519241Y148455D02*
G01Y144456D01*
D02*
G01Y146455D01*
D02*
G01X520241Y147455D01*
G54D12*
X485925Y249114D02*
G01X632185D01*
G54D17*
X78146Y316731D02*
G01X76179Y314763D01*
D02*
G01X78802D01*
G54D10*
X78740Y105905D02*
G01Y237795D01*
G54D17*
X80114Y316731D02*
G01Y314107D01*
X78146Y312795D02*
G01Y316731D01*
G54D15*
X78994Y240700D02*
G01X78600Y241094D01*
X79387Y240700D02*
G01X78994D01*
X79781Y241094D02*
G01X79387Y240700D01*
X79781Y243061D02*
G01Y241094D01*
X79387Y243061D02*
G01X79781D01*
X80174D02*
G01X79387D01*
G54D17*
X80114Y314107D02*
G01X81426Y312795D01*
G54D15*
X82536Y242274D02*
G01Y242668D01*
D02*
G01X82142Y243061D01*
D02*
G01X81355D01*
D02*
G01X80961Y242668D01*
G54D17*
X81426Y312795D02*
G01X82738Y314107D01*
D02*
G01Y316731D01*
G54D15*
X80961Y240700D02*
G01X82536Y242274D01*
Y240700D02*
G01X80961D01*
X229028Y169095D02*
G01X234539D01*
X229028Y180905D02*
G01X234539D01*
G54D12*
X187070Y171280D02*
G01X193842D01*
X187070Y177233D02*
G01X193842D01*
G54D15*
X191874Y214563D02*
G01X192268Y214957D01*
D02*
G01Y216925D01*
X191037Y178325D02*
G01X192218D01*
D02*
G01X192611Y178719D01*
Y180293D02*
G01X192218Y180686D01*
D02*
G01X191037D01*
X191829Y205815D02*
G01X192222Y206209D01*
D02*
G01Y207783D01*
D02*
G01X191829Y208177D01*
X191041Y206996D02*
G01X192222D01*
G54D12*
X290905Y174236D02*
G01X297677D01*
X290905Y168283D02*
G01X297677D01*
G54D15*
X292323Y175000D02*
G01X293504D01*
Y177362D02*
G01X292323D01*
X282284Y231300D02*
G01X282677Y230907D01*
D02*
G01X284252D01*
D02*
G01X284645Y231300D01*
X276459Y205345D02*
G01Y203771D01*
X280395Y204951D02*
G01X280001Y204558D01*
D02*
G01X279607D01*
D02*
G01X280001D01*
D02*
G01X280395Y204164D01*
X281575Y203377D02*
G01Y205739D01*
X278033Y205345D02*
G01X277639Y205739D01*
D02*
G01X276852D01*
D02*
G01X276459Y205345D01*
X278820D02*
G01X279214Y205739D01*
D02*
G01X280001D01*
D02*
G01X280395Y205345D01*
D02*
G01Y204951D01*
X281575Y205739D02*
G01X281182Y205345D01*
G54D10*
X268716Y200787D02*
G01X268676Y201761D01*
X268556Y202728D01*
X268356Y203682D01*
X268079Y204616D01*
X267726Y205524D01*
X267299Y206401D01*
X266801Y207239D01*
X266236Y208033D01*
X265608Y208778D01*
X264920Y209468D01*
X264178Y210100D01*
X263387Y210669D01*
X262551Y211170D01*
X261677Y211601D01*
X260770Y211958D01*
X259837Y212240D01*
X258884Y212444D01*
X257918Y212568D01*
X256944Y212613D01*
X255970Y212577D01*
X255002Y212461D01*
X254048Y212266D01*
X253112Y211993D01*
X252202Y211644D01*
X251324Y211221D01*
X250484Y210728D01*
X249687Y210166D01*
X248939Y209541D01*
X248245Y208857D01*
X247610Y208118D01*
X247038Y207329D01*
X246533Y206495D01*
X246098Y205623D01*
X245737Y204718D01*
X245451Y203787D01*
X245243Y202834D01*
X245114Y201868D01*
X245065Y200895D01*
X245096Y199921D01*
X245207Y198953D01*
X245398Y197997D01*
X245667Y197060D01*
X246012Y196149D01*
X246430Y195269D01*
X246920Y194426D01*
X247478Y193627D01*
X248099Y192876D01*
X248781Y192179D01*
X249517Y191541D01*
X250303Y190965D01*
X251134Y190456D01*
X252004Y190017D01*
X252908Y189652D01*
X253838Y189362D01*
X254789Y189149D01*
X255755Y189016D01*
X256728Y188962D01*
X257702Y188989D01*
X258671Y189096D01*
X259627Y189282D01*
X260565Y189547D01*
X261478Y189887D01*
X262360Y190302D01*
X263205Y190788D01*
X264007Y191342D01*
X264760Y191960D01*
X265460Y192638D01*
X266102Y193372D01*
X266682Y194155D01*
X267194Y194984D01*
X267637Y195852D01*
X268007Y196754D01*
X268301Y197683D01*
X268518Y198633D01*
X268656Y199598D01*
X268714Y200571D01*
X268716Y200787D01*
G54D15*
X240069Y182118D02*
G01X251880D01*
X240069Y176606D02*
G01X251880D01*
X250109Y185986D02*
G01X250896D01*
D02*
G01X251289Y185593D01*
Y185199D02*
G01X250896Y184806D01*
D02*
G01X250502D01*
D02*
G01X250896D01*
D02*
G01X251289Y184412D01*
Y184018D02*
G01X250896Y183625D01*
D02*
G01X250109D01*
X251335Y219004D02*
G01X250941Y219397D01*
D02*
G01X250154D01*
Y217036D02*
G01X250941D01*
D02*
G01X251335Y217429D01*
X248534Y185986D02*
G01X247747D01*
Y183625D02*
G01X248534D01*
X248928Y185593D02*
G01X248534Y185986D01*
Y183625D02*
G01X248928Y184018D01*
X249715Y185593D02*
G01X250109Y185986D01*
Y183625D02*
G01X249715Y184018D01*
X248730Y188615D02*
G01X248337Y189008D01*
X249517Y188615D02*
G01X248730D01*
X249911Y189008D02*
G01X249517Y188615D01*
X249911Y189795D02*
G01Y189008D01*
X249517Y190189D02*
G01X249911Y189795D01*
X249124Y190189D02*
G01X249517D01*
X248337Y189795D02*
G01X249124Y190189D01*
X248337Y190976D02*
G01Y189795D01*
X249911Y190976D02*
G01X248337D01*
X249760Y217429D02*
G01X250154Y217036D01*
X249760Y219004D02*
G01Y217429D01*
X250154Y219397D02*
G01X249760Y219004D01*
X213984Y213916D02*
G01X225795D01*
X213984Y219427D02*
G01X225795D01*
X214676Y178575D02*
G01X215463D01*
Y177394D02*
G01X215069D01*
D02*
G01X215463D01*
Y176213D02*
G01X214676D01*
G54D12*
X216024Y158976D02*
G01Y162795D01*
Y140256D02*
G01Y149626D01*
G54D15*
X215463Y178575D02*
G01X215856Y178181D01*
Y176607D02*
G01X215463Y176213D01*
X215856Y177000D02*
G01Y176607D01*
X215463Y177394D02*
G01X215856Y177000D01*
Y177787D02*
G01X215463Y177394D01*
X215856Y178181D02*
G01Y177787D01*
X217824Y176213D02*
G01X217037D01*
D02*
G01X216644Y176607D01*
X217037Y178575D02*
G01X217824D01*
X216644Y178181D02*
G01X217037Y178575D01*
X213495Y178181D02*
G01X213101Y178575D01*
D02*
G01X212314D01*
X214676Y176213D02*
G01X214282Y176607D01*
Y178181D02*
G01X214676Y178575D01*
X213101Y176213D02*
G01X213495Y176607D01*
X212314Y176213D02*
G01X213101D01*
X211921Y176607D02*
G01X212314Y176213D01*
X211921Y178181D02*
G01Y176607D01*
X212314Y178575D02*
G01X211921Y178181D01*
X213298Y192354D02*
G01Y204166D01*
X213494Y204862D02*
G01Y210374D01*
X213984Y213916D02*
G01Y219427D01*
X212245Y216683D02*
G01X212638Y217076D01*
D02*
G01Y218651D01*
D02*
G01X212245Y219044D01*
X212313Y185662D02*
G01X212707Y186056D01*
D02*
G01Y186843D01*
D02*
G01X212313Y187237D01*
X211919Y189598D02*
G01X212313D01*
D02*
G01X212707Y189205D01*
D02*
G01Y188418D01*
D02*
G01X212313Y188024D01*
X212707Y190779D02*
G01X212313Y190385D01*
X212707Y191566D02*
G01Y190779D01*
X212313Y191960D02*
G01X212707Y191566D01*
G54D12*
X252165Y163386D02*
G01Y165354D01*
G54D15*
X251880Y176606D02*
G01Y182118D01*
X252077Y184806D02*
G01X253651D01*
X253257Y185986D02*
G01X252077Y184806D01*
X253257Y183625D02*
G01Y185986D01*
X251289Y184412D02*
G01Y184018D01*
Y185593D02*
G01Y185199D01*
X252515Y219397D02*
G01X253303D01*
D02*
G01X253696Y219004D01*
D02*
G01Y218610D01*
D02*
G01X253303Y218217D01*
D02*
G01X252909D01*
D02*
G01X253303D01*
D02*
G01X253696Y217823D01*
D02*
G01Y217429D01*
D02*
G01X253303Y217036D01*
D02*
G01X252515D01*
D02*
G01X252122Y217429D01*
Y219004D02*
G01X252515Y219397D01*
G54D17*
X359251Y304527D02*
G01X356890D01*
X358464D02*
G01X360038Y302953D01*
Y305314D02*
G01X359251Y304527D01*
X360038Y306889D02*
G01Y305314D01*
X359251Y307676D02*
G01X360038Y306889D01*
X356890Y307676D02*
G01X359251D01*
X356890Y302953D02*
G01Y307676D01*
X360038Y292322D02*
G01X358464D01*
X360038Y290748D02*
G01Y292322D01*
X359251Y289961D02*
G01X360038Y290748D01*
X357677Y289961D02*
G01X359251D01*
X356890Y290748D02*
G01X357677Y289961D01*
X356890Y293896D02*
G01Y290748D01*
X357677Y294684D02*
G01X356890Y293896D01*
X359251Y294684D02*
G01X357677D01*
X360038Y293896D02*
G01X359251Y294684D01*
G54D15*
X206811Y287900D02*
G01Y286326D01*
X209566Y285933D02*
G01Y288294D01*
X212715Y287507D02*
G01X212321Y287113D01*
D02*
G01X211927D01*
D02*
G01X212321D01*
D02*
G01X212715Y286720D01*
G54D16*
X184118Y317181D02*
G01X195929D01*
G54D17*
X175188Y314960D02*
G01X177549D01*
X170465Y314370D02*
G01X168104D01*
X170465Y314960D02*
G01Y314370D01*
X169875Y315550D02*
G01X170465Y314960D01*
X168694Y315550D02*
G01X169875D01*
X168104Y314960D02*
G01X168694Y315550D01*
X168104Y313779D02*
G01Y314960D01*
X168694Y313189D02*
G01X168104Y313779D01*
X169875Y313189D02*
G01X168694D01*
G54D10*
X268742Y334646D02*
G01X268702Y335621D01*
X268582Y336589D01*
X268382Y337544D01*
X268105Y338480D01*
X267752Y339389D01*
X267325Y340266D01*
X266827Y341105D01*
X266262Y341901D01*
X265634Y342647D01*
X264946Y343339D01*
X264204Y343972D01*
X263412Y344542D01*
X262576Y345045D01*
X261701Y345478D01*
X260794Y345837D01*
X259860Y346120D01*
X258907Y346325D01*
X257939Y346452D01*
X256965Y346498D01*
X255989Y346464D01*
X255021Y346350D01*
X254064Y346156D01*
X253127Y345885D01*
X252216Y345537D01*
X251336Y345116D01*
X250493Y344624D01*
X249694Y344064D01*
X248944Y343440D01*
X248248Y342756D01*
X247610Y342018D01*
X247035Y341230D01*
X246527Y340397D01*
X246089Y339525D01*
X245724Y338620D01*
X245435Y337688D01*
X245224Y336736D01*
X245091Y335769D01*
X245039Y334795D01*
X245067Y333820D01*
X245175Y332850D01*
X245362Y331893D01*
X245628Y330954D01*
X245970Y330040D01*
X246385Y329157D01*
X246872Y328312D01*
X247427Y327510D01*
X248046Y326756D01*
X248725Y326055D01*
X249460Y325412D01*
X250244Y324833D01*
X251074Y324319D01*
X251943Y323876D01*
X252846Y323505D01*
X253776Y323211D01*
X254727Y322993D01*
X255693Y322855D01*
X256666Y322796D01*
X257642Y322818D01*
X258612Y322920D01*
X259571Y323101D01*
X260511Y323361D01*
X261427Y323697D01*
X262312Y324107D01*
X263161Y324589D01*
X263967Y325139D01*
X264725Y325753D01*
X265430Y326427D01*
X266077Y327158D01*
X266661Y327939D01*
X267180Y328765D01*
X267629Y329631D01*
X268005Y330532D01*
X268306Y331460D01*
X268529Y332410D01*
X268674Y333374D01*
X268738Y334348D01*
X268742Y334646D01*
G54D12*
X184016Y318307D02*
G01Y350197D01*
G54D15*
X195885Y331598D02*
G01X195491Y331991D01*
D02*
G01X194704D01*
X197066D02*
G01X196672Y331598D01*
X195491Y329630D02*
G01X195885Y330024D01*
X194704Y329630D02*
G01X195491D01*
X194311Y330024D02*
G01X194704Y329630D01*
X194311Y331598D02*
G01Y330024D01*
X194704Y331991D02*
G01X194311Y331598D01*
X197853Y331991D02*
G01X197066D01*
X196672Y329630D02*
G01X198246Y331204D01*
Y329630D02*
G01X196672D01*
X217691Y246380D02*
G01X216904D01*
Y244018D02*
G01X217691D01*
X266929Y237008D02*
G01X264567D01*
X264961Y240157D02*
G01X266535D01*
Y238582D02*
G01X264961D01*
Y234253D02*
G01X266535D01*
X204134Y274803D02*
G01Y272835D01*
D02*
G01X204528Y272441D01*
D02*
G01X205315D01*
D02*
G01X205709Y272835D01*
D02*
G01Y274803D01*
X206496Y272441D02*
G01X207283D01*
D02*
G01X206889D01*
D02*
G01Y274803D01*
D02*
G01X206496Y274409D01*
X206811Y286326D02*
G01X207205Y285933D01*
X211534D02*
G01X211140Y286326D01*
X212321Y285933D02*
G01X211534D01*
X212715Y286326D02*
G01X212321Y285933D01*
X212715Y286720D02*
G01Y286326D01*
X209960Y285933D02*
G01X209566D01*
X209172D02*
G01X209960D01*
X207992D02*
G01X208385Y286326D01*
X207205Y285933D02*
G01X207992D01*
X202118Y253563D02*
G01X209913Y261358D01*
D02*
G01X213810Y257460D01*
G54D11*
X208456Y267746D02*
G01X208445Y267848D01*
X208414Y267946D01*
X208362Y268035D01*
X208293Y268112D01*
X208210Y268172D01*
X208116Y268214D01*
X208015Y268235D01*
X207913D01*
X207812Y268214D01*
X207718Y268172D01*
X207635Y268112D01*
X207566Y268035D01*
X207515Y267946D01*
X207483Y267848D01*
X207472Y267746D01*
X207483Y267644D01*
X207515Y267546D01*
X207566Y267457D01*
X207635Y267380D01*
X207718Y267320D01*
X207812Y267278D01*
X207913Y267257D01*
X208015D01*
X208116Y267278D01*
X208210Y267320D01*
X208293Y267380D01*
X208362Y267457D01*
X208413Y267546D01*
X208445Y267644D01*
X208456Y267746D01*
D03*
G54D15*
X192914Y267716D02*
G01X194095D01*
D02*
G01X194488Y267323D01*
D02*
G01Y266535D01*
D02*
G01X194095Y266142D01*
D02*
G01X192914D01*
X193701D02*
G01X194488Y265355D01*
X196850D02*
G01X195275D01*
D02*
G01X196850Y266929D01*
D02*
G01Y267323D01*
D02*
G01X196456Y267716D01*
D02*
G01X195669D01*
D02*
G01X195275Y267323D01*
X192914Y265355D02*
G01Y267716D01*
G54D17*
X275394Y255709D02*
G01Y258071D01*
G54D15*
X195958Y249068D02*
G01X195948Y251429D01*
D02*
G01X197129Y251434D01*
D02*
G01X197524Y251043D01*
D02*
G01X197528Y250255D01*
D02*
G01X197136Y249860D01*
D02*
G01X195955Y249855D01*
X196742Y249858D02*
G01X197533Y249075D01*
X197519Y255286D02*
G01X196732D01*
D02*
G01X196339Y254892D01*
D02*
G01Y253318D01*
D02*
G01X196732Y252924D01*
D02*
G01X197519D01*
D02*
G01X197913Y253318D01*
Y254892D02*
G01X197519Y255286D01*
X199894Y249085D02*
G01X198320Y249078D01*
D02*
G01X199887Y250659D01*
X198703Y251441D02*
G01X198311Y251046D01*
X276772Y236221D02*
G01X276378Y235827D01*
D02*
G01Y235040D01*
D02*
G01X276772Y234647D01*
D02*
G01X278346D01*
D02*
G01X278740Y235040D01*
D02*
G01Y235827D01*
D02*
G01X278346Y236221D01*
X278740Y237008D02*
G01Y237795D01*
D02*
G01Y237402D01*
D02*
G01X276378D01*
D02*
G01X276772Y237008D01*
X278740Y238976D02*
G01Y239763D01*
X276378Y239369D02*
G01X276772Y238976D01*
X278740Y239369D02*
G01X276378D01*
X278740Y239763D02*
G01Y239369D01*
X282677Y232481D02*
G01X282284Y232087D01*
D02*
G01Y231300D01*
X284645D02*
G01Y232087D01*
D02*
G01X284252Y232481D01*
X284645Y233268D02*
G01Y234055D01*
D02*
G01Y233662D01*
D02*
G01X282284D01*
D02*
G01X282677Y233268D01*
X284645Y236810D02*
G01Y235236D01*
D02*
G01X283071Y236810D01*
D02*
G01X282677D01*
D02*
G01X282284Y236417D01*
D02*
G01Y235629D01*
D02*
G01X282677Y235236D01*
X280315Y268834D02*
G01X279922Y269228D01*
D02*
G01X279134D01*
D02*
G01X278741Y268834D01*
D02*
G01Y267260D01*
D02*
G01X279134Y266866D01*
D02*
G01X279922D01*
X282677D02*
G01X281102D01*
D02*
G01X282677Y268440D01*
D02*
G01Y268834D01*
D02*
G01X282283Y269228D01*
D02*
G01X281496D01*
D02*
G01X281102Y268834D01*
X279922Y266866D02*
G01X280315Y267260D01*
X282284Y274800D02*
G01X281888Y275191D01*
D02*
G01X281101Y275185D01*
D02*
G01X280710Y274789D01*
D02*
G01X280721Y273215D01*
D02*
G01X281117Y272824D01*
D02*
G01X281904Y272830D01*
D02*
G01X282295Y273226D01*
X284266Y272846D02*
G01X284249Y275207D01*
X283077Y274019D02*
G01X284651Y274030D01*
X284249Y275207D02*
G01X283077Y274019D01*
X367717Y243307D02*
G01Y254331D01*
X365937Y257421D02*
G01X366331Y257815D01*
D02*
G01X367118D01*
D02*
G01X367512Y257421D01*
D02*
G01Y257027D01*
D02*
G01X367118Y256634D01*
D02*
G01X367512Y256240D01*
D02*
G01Y255847D01*
D02*
G01X367118Y255453D01*
D02*
G01X366331D01*
D02*
G01X365937Y255847D01*
D02*
G01Y256240D01*
D02*
G01X366331Y256634D01*
D02*
G01X367118D01*
X365937Y257027D02*
G01Y257421D01*
X366331Y256634D02*
G01X365937Y257027D01*
G54D17*
X369484Y292322D02*
G01Y291535D01*
D02*
G01X366336D01*
Y303740D02*
G01Y305314D01*
D02*
G01X367123Y306101D01*
D02*
G01X369484D01*
X367123Y302953D02*
G01X366336Y303740D01*
X369484Y302953D02*
G01X367123D01*
X369484Y307676D02*
G01Y302953D01*
X368697Y293109D02*
G01X369484Y292322D01*
X367123Y293109D02*
G01X368697D01*
X366336Y292322D02*
G01X367123Y293109D01*
X366336Y290748D02*
G01Y292322D01*
X367123Y289961D02*
G01X366336Y290748D01*
X368697Y289961D02*
G01X367123D01*
G54D15*
X362060Y248361D02*
G01Y253873D01*
X362205Y243307D02*
G01Y254331D01*
Y242699D02*
G01Y248211D01*
X362795Y192050D02*
G01Y203861D01*
X363576Y255453D02*
G01Y257815D01*
D02*
G01X364757D01*
D02*
G01X365150Y257421D01*
X364363Y256240D02*
G01X365150Y255453D01*
X364757Y256240D02*
G01X363576D01*
X365150Y256634D02*
G01X364757Y256240D01*
X365150Y257421D02*
G01Y256634D01*
G54D17*
X362400Y292322D02*
G01X363187Y293109D01*
D02*
G01X363974D01*
Y302953D02*
G01X362400D01*
D02*
G01X361613Y303740D01*
D02*
G01Y305314D01*
D02*
G01X362400Y306101D01*
D02*
G01X363974D01*
D02*
G01X364761Y305314D01*
D02*
G01Y304527D01*
D02*
G01X361613D01*
Y291535D02*
G01X362400Y292322D01*
X361613Y289961D02*
G01Y291535D01*
Y293109D02*
G01Y289961D01*
X332864Y298621D02*
G01X336012D01*
X335225Y283569D02*
G01X336800Y285143D01*
D02*
G01Y288292D01*
X333651Y285143D02*
G01X335225Y283569D01*
X333651Y288292D02*
G01Y285143D01*
G54D12*
X200354Y176616D02*
G01X207126D01*
X200354Y170663D02*
G01X207126D01*
G54D15*
X205511Y179741D02*
G01X206298D01*
Y177380D02*
G01X205511D01*
X197972Y192551D02*
G01X203484D01*
X197972Y203575D02*
G01X203484D01*
X198718Y194989D02*
G01X199111Y195382D01*
D02*
G01Y196956D01*
D02*
G01X198718Y197350D01*
X197931Y196169D02*
G01X199111D01*
X198731Y208012D02*
G01X198337Y207618D01*
X198731Y205650D02*
G01Y208012D01*
X199124Y205650D02*
G01X198731D01*
X198337D02*
G01X199124D01*
X203484Y192551D02*
G01Y203575D01*
X202471Y204862D02*
G01Y210374D01*
X200305Y207618D02*
G01X200699Y208012D01*
X200305Y206044D02*
G01Y207618D01*
X200699Y205650D02*
G01X200305Y206044D01*
X201486Y205650D02*
G01X200699D01*
X201879Y206044D02*
G01X201486Y205650D01*
X201879Y207618D02*
G01Y206044D01*
X201486Y208012D02*
G01X201879Y207618D01*
X200699Y208012D02*
G01X201486D01*
X201515Y189401D02*
G01Y190189D01*
D02*
G01X201121Y190582D01*
D02*
G01X199547D01*
D02*
G01X199153Y190189D01*
D02*
G01Y189401D01*
D02*
G01X199547Y189008D01*
D02*
G01X199941D01*
D02*
G01X200334Y189401D01*
D02*
G01Y190582D01*
X201121Y189008D02*
G01X201515Y189401D01*
X259318Y301947D02*
G01Y300373D01*
D02*
G01X259712Y299980D01*
D02*
G01X260499D01*
D02*
G01X260893Y300373D01*
X261680Y301160D02*
G01X262467Y301554D01*
X262073Y299980D02*
G01X261680Y300373D01*
X262861Y299980D02*
G01X262073D01*
X263254Y300373D02*
G01X262861Y299980D01*
X263254Y301160D02*
G01Y300373D01*
X262861Y301554D02*
G01X263254Y301160D01*
X262467Y301554D02*
G01X262861D01*
X234103Y299827D02*
G01Y301795D01*
X233709Y299434D02*
G01X234103Y299827D01*
X232922Y299434D02*
G01X233709D01*
X232528Y299827D02*
G01X232922Y299434D01*
X232528Y301795D02*
G01Y299827D01*
X235677Y300614D02*
G01X236070D01*
D02*
G01X236464Y300221D01*
D02*
G01Y299827D01*
D02*
G01X236070Y299434D01*
D02*
G01X235283D01*
D02*
G01X234890Y299827D01*
X236070Y300614D02*
G01X235677D01*
X236464Y301008D02*
G01X236070Y300614D01*
X236464Y301401D02*
G01Y301008D01*
X236070Y301795D02*
G01X236464Y301401D01*
X235283Y301795D02*
G01X236070D01*
X234890Y301401D02*
G01X235283Y301795D01*
X282540Y260098D02*
G01Y258524D01*
G54D17*
X279724Y255709D02*
G01Y258071D01*
G54D15*
X283721Y260492D02*
G01X282934D01*
D02*
G01X282540Y260098D01*
Y258524D02*
G01X282934Y258130D01*
D02*
G01X283721D01*
D02*
G01X284114Y258524D01*
X286476Y258917D02*
G01Y258524D01*
D02*
G01X286082Y258130D01*
D02*
G01X285295D01*
D02*
G01X284901Y258524D01*
D02*
G01Y258917D01*
X286476Y259705D02*
G01X286082Y259311D01*
D02*
G01X286476Y258917D01*
X284901D02*
G01X285295Y259311D01*
D02*
G01X284901Y259705D01*
X285295Y259311D02*
G01X286082D01*
X284901Y260098D02*
G01X285295Y260492D01*
D02*
G01X286082D01*
D02*
G01X286476Y260098D01*
D02*
G01Y259705D01*
X284901D02*
G01Y260098D01*
X284114D02*
G01X283721Y260492D01*
X381102Y212778D02*
G01Y224589D01*
X380610Y234227D02*
G01X380216Y234620D01*
X381397Y234227D02*
G01X380610D01*
X381790Y234620D02*
G01X381397Y234227D01*
X381790Y235014D02*
G01Y234620D01*
X381397Y235408D02*
G01X381790Y235014D01*
X381003Y235408D02*
G01X381397D01*
D02*
G01X381003D01*
X381790Y235801D02*
G01X381397Y235408D01*
X381790Y236195D02*
G01Y235801D01*
X381397Y236588D02*
G01X381790Y236195D01*
X380610Y236588D02*
G01X381397D01*
X380216Y236195D02*
G01X380610Y236588D01*
G54D17*
X380504Y289961D02*
G01X383653Y293109D01*
Y304527D02*
G01Y307676D01*
X382078Y302953D02*
G01X383653Y304527D01*
X380504D02*
G01X382078Y302953D01*
X380504Y307676D02*
G01Y304527D01*
X375781Y293109D02*
G01X378143D01*
D02*
G01X378930Y292322D01*
D02*
G01Y289961D01*
Y307676D02*
G01X375781D01*
D02*
G01Y305314D01*
D02*
G01X377356Y306101D01*
D02*
G01X378143D01*
D02*
G01X378930Y305314D01*
X376568Y302953D02*
G01X375781Y303740D01*
X378143Y302953D02*
G01X376568D01*
X378930Y303740D02*
G01X378143Y302953D01*
X378930Y305314D02*
G01Y303740D01*
X375781Y289961D02*
G01Y293109D01*
G54D12*
X337598Y111417D02*
G01X340354D01*
X337598Y110236D02*
G01X340315Y110237D01*
G54D15*
X338976Y207266D02*
G01X344488D01*
X338976Y219077D02*
G01X344488D01*
X336811Y243289D02*
G01X342323D01*
X336811Y231479D02*
G01X342323D01*
X340248Y205999D02*
G01X339855Y206393D01*
D02*
G01X339068D01*
Y204031D02*
G01X339855D01*
D02*
G01X340248Y204425D01*
X351036Y248361D02*
G01Y253873D01*
X350394Y242699D02*
G01Y248211D01*
X359298Y255389D02*
G01Y254996D01*
X357723Y255783D02*
G01X358511Y254996D01*
X358117Y255783D02*
G01X356936D01*
X358511Y256176D02*
G01X358117Y255783D01*
X358511Y256963D02*
G01Y256176D01*
X358117Y257357D02*
G01X358511Y256963D01*
X356936Y257357D02*
G01X358117D01*
X356936Y254996D02*
G01Y257357D01*
X357283Y192050D02*
G01Y203861D01*
G54D11*
X350886Y211088D03*
G54D15*
X354331Y211006D02*
G01Y209038D01*
D02*
G01X354725Y208644D01*
D02*
G01X355512D01*
D02*
G01X355906Y209038D01*
D02*
G01Y211006D01*
X357874Y208644D02*
G01Y211006D01*
D02*
G01X356693Y209825D01*
D02*
G01X358267D01*
X357284Y177362D02*
G01Y175000D01*
D02*
G01X358465D01*
D02*
G01X358858Y175394D01*
D02*
G01Y176968D01*
D02*
G01X358465Y177362D01*
D02*
G01X357284D01*
X355905Y192059D02*
G01X355511Y191666D01*
D02*
G01X354724D01*
D02*
G01X354330Y192059D01*
X353543Y191666D02*
G01X351969D01*
X350788D02*
G01X351182Y192059D01*
X354330Y194027D02*
G01Y192846D01*
D02*
G01X355117Y193240D01*
X355511D02*
G01X355905Y192846D01*
D02*
G01Y192059D01*
X351969Y191666D02*
G01X353543Y193240D01*
X355905Y194027D02*
G01X354330D01*
X355117Y193240D02*
G01X355511D01*
X352362Y194027D02*
G01X351969Y193634D01*
X353150Y194027D02*
G01X352362D01*
X353543Y193634D02*
G01X353150Y194027D01*
X353543Y193240D02*
G01Y193634D01*
X351182D02*
G01X350788Y194027D01*
X377165Y227738D02*
G01Y233250D01*
X376271Y206226D02*
G01Y206620D01*
D02*
G01X375878Y207014D01*
X377059Y205833D02*
G01Y205046D01*
X376674Y234227D02*
G01X377067Y234620D01*
X375887Y234227D02*
G01X376674D01*
X375493Y234620D02*
G01X375887Y234227D01*
X375493Y236195D02*
G01Y234620D01*
X375887Y236588D02*
G01X375493Y236195D01*
X376674Y236588D02*
G01X375887D01*
X377067Y236195D02*
G01X376674Y236588D01*
X377846Y206620D02*
G01X377059Y205833D01*
Y205046D02*
G01X377452Y204652D01*
D02*
G01X378239D01*
Y205833D02*
G01X377059D01*
X378740Y208053D02*
G01Y219864D01*
X378633Y207014D02*
G01X377846Y206620D01*
X379429Y235801D02*
G01Y236195D01*
D02*
G01X379035Y236588D01*
D02*
G01X378248D01*
D02*
G01X377855Y236195D01*
Y234227D02*
G01X379429Y235801D01*
Y234227D02*
G01X377855D01*
X378633Y205439D02*
G01X378239Y205833D01*
X378633Y205046D02*
G01Y205439D01*
X378239Y204652D02*
G01X378633Y205046D01*
G54D17*
X330502Y296260D02*
G01X331290Y297047D01*
D02*
G01Y300196D01*
D02*
G01X330502Y300983D01*
D02*
G01X328141D01*
X328928Y284356D02*
G01Y287505D01*
X329715Y283569D02*
G01X328928Y284356D01*
X331290Y283569D02*
G01X329715D01*
X332077Y284356D02*
G01X331290Y283569D01*
X332077Y287505D02*
G01Y284356D01*
X331290Y288292D02*
G01X332077Y287505D01*
X329715Y288292D02*
G01X331290D01*
X328928Y287505D02*
G01X329715Y288292D01*
X328141Y296260D02*
G01X330502D01*
X328141Y300983D02*
G01Y296260D01*
G54D12*
X346457Y214746D02*
G01X348425D01*
X346457D02*
G01Y216715D01*
G54D15*
X349607Y193634D02*
G01Y192059D01*
G54D12*
X340315Y110237D02*
G01X340561Y110255D01*
X340798Y110323D01*
X341016Y110439D01*
X341205Y110598D01*
X341356Y110793D01*
X341464Y111015D01*
X341524Y111255D01*
X341535Y111417D01*
D03*
X340354Y158661D02*
G01Y165354D01*
Y111417D02*
G01Y142756D01*
G54D15*
X342610Y204031D02*
G01X341036D01*
D02*
G01X342610Y205606D01*
D02*
G01Y205999D01*
D02*
G01X342216Y206393D01*
X341429D02*
G01X341036Y205999D01*
X342216Y206393D02*
G01X341429D01*
G54D12*
X341535Y111417D02*
G01X343898D01*
G54D15*
X333374Y177468D02*
G01X332981Y177861D01*
Y175500D02*
G01X333374Y175894D01*
X334161Y175500D02*
G01X334949D01*
D02*
G01X334555D01*
D02*
G01Y177861D01*
D02*
G01X334161Y177468D01*
X333359Y208163D02*
G01X333752Y207769D01*
D02*
G01Y206982D01*
X334933Y208163D02*
G01X334540Y207769D01*
X334933Y205802D02*
G01Y208163D01*
X335327Y205802D02*
G01X334933D01*
X334540D02*
G01X335327D01*
X332965Y206589D02*
G01X333752Y205802D01*
Y206982D02*
G01X333359Y206589D01*
X333956Y238565D02*
G01Y238171D01*
X337704Y177861D02*
G01X336129D01*
D02*
G01Y176681D01*
D02*
G01X336916Y177074D01*
X336523Y175500D02*
G01X336129Y175894D01*
X209164Y179953D02*
G01Y185465D01*
X206298Y179741D02*
G01X206692Y179348D01*
D02*
G01Y177773D01*
D02*
G01X206298Y177380D01*
X210739Y187237D02*
G01X210345Y186843D01*
Y191566D02*
G01X210739Y191960D01*
X210345Y190779D02*
G01Y191566D01*
X210739Y190385D02*
G01X210345Y190779D01*
X210739Y189598D02*
G01X211132D01*
X210345Y189205D02*
G01X210739Y189598D01*
X210345Y188418D02*
G01Y189205D01*
X210739Y188024D02*
G01X210345Y188418D01*
Y186056D02*
G01X210739Y185662D01*
X210345Y186843D02*
G01Y186056D01*
X207786Y192354D02*
G01Y204166D01*
X207915Y218651D02*
G01X207522Y219044D01*
D02*
G01X206734D01*
D02*
G01X206341Y218651D01*
D02*
G01Y217076D01*
D02*
G01X206734Y216683D01*
D02*
G01X207522D01*
D02*
G01X207915Y217076D01*
X211064Y218651D02*
G01Y218257D01*
X209096Y219044D02*
G01X208702Y218651D01*
X209883Y219044D02*
G01X209096D01*
X210277Y218651D02*
G01X209883Y219044D01*
X210277Y218257D02*
G01Y218651D01*
X208702Y216683D02*
G01X210277Y218257D01*
Y216683D02*
G01X208702D01*
X174016Y180315D02*
G01X179528D01*
X174016Y169291D02*
G01X179528D01*
X176275Y222624D02*
G01X175881D01*
D02*
G01X176275D01*
Y221443D02*
G01X175487D01*
X174804Y183985D02*
G01X175985D01*
D02*
G01X176378Y183591D01*
Y182804D02*
G01X175985Y182410D01*
D02*
G01X174804D01*
X175591D02*
G01X176378Y181623D01*
X264961Y235827D02*
G01X264567Y235434D01*
D02*
G01Y234647D01*
Y237008D02*
G01X264961Y236614D01*
Y238582D02*
G01X264567Y238976D01*
D02*
G01Y239763D01*
D02*
G01X264961Y240157D01*
X264567Y234647D02*
G01X264961Y234253D01*
X259055Y231890D02*
G01X258662Y231497D01*
D02*
G01Y230710D01*
D02*
G01X259055Y230316D01*
X261023Y231497D02*
G01X260630Y231890D01*
X261023Y230710D02*
G01Y231497D01*
X260630Y230316D02*
G01X261023Y230710D01*
X259055Y230316D02*
G01X260630D01*
X258662Y233071D02*
G01X259055Y232677D01*
X261023Y233071D02*
G01X258662D01*
X261023Y233465D02*
G01Y233071D01*
Y232677D02*
G01Y233465D01*
X258662Y236220D02*
G01X259055Y235432D01*
D02*
G01X259842Y234645D01*
D02*
G01X260630D01*
D02*
G01X261023Y235039D01*
D02*
G01Y235826D01*
D02*
G01X260630Y236220D01*
D02*
G01X260236D01*
D02*
G01X259842Y235826D01*
D02*
G01Y234645D01*
X266535Y234253D02*
G01X266929Y234647D01*
D02*
G01Y235434D01*
Y238976D02*
G01X266535Y238582D01*
X266929Y239763D02*
G01Y238976D01*
X266535Y240157D02*
G01X266929Y239763D01*
Y237402D02*
G01Y237008D01*
Y236614D02*
G01Y237402D01*
Y235434D02*
G01X266535Y235827D01*
X270866D02*
G01X270473Y235434D01*
D02*
G01Y234647D01*
D02*
G01X270866Y234253D01*
D02*
G01X272441D01*
D02*
G01X272834Y234647D01*
D02*
G01Y235434D01*
X272441Y238582D02*
G01X272834D01*
X270866Y240157D02*
G01X272441Y238582D01*
X270473Y240157D02*
G01X270866D01*
X270473Y238582D02*
G01Y240157D01*
Y237008D02*
G01X270866Y236614D01*
X272834Y237008D02*
G01X270473D01*
X272834Y237402D02*
G01Y237008D01*
Y236614D02*
G01Y237402D01*
Y235434D02*
G01X272441Y235827D01*
G54D17*
X315547Y283569D02*
G01X317908D01*
X319482D02*
G01Y288292D01*
Y285143D02*
G01X321844Y286718D01*
X319482Y285143D02*
G01X321844Y283569D01*
X314759Y284356D02*
G01X315547Y283569D01*
X314759Y285930D02*
G01Y284356D01*
X315547Y286718D02*
G01X314759Y285930D01*
X317908Y286718D02*
G01X315547D01*
G54D12*
X309646Y110236D02*
G01Y111417D01*
G54D15*
X309449Y167126D02*
G01X309056Y167520D01*
X309843Y167126D02*
G01X309449D01*
X310237Y167520D02*
G01X309843Y167126D01*
X310237Y169488D02*
G01Y167520D01*
X309843Y169488D02*
G01X310237D01*
X310630D02*
G01X309843D01*
G54D12*
X309646Y111417D02*
G01X312008D01*
G54D15*
X311811Y167126D02*
G01X311417Y167520D01*
Y168307D02*
G01X312204Y168701D01*
X311417Y169488D02*
G01Y168307D01*
X312991Y169488D02*
G01X311417D01*
G54D12*
X312008Y111417D02*
G01X312034Y111171D01*
X312110Y110937D01*
X312234Y110723D01*
X312399Y110539D01*
X312599Y110394D01*
X312824Y110294D01*
X313066Y110242D01*
X313228Y110237D01*
D03*
X313189Y111417D02*
G01Y142756D01*
Y158661D02*
G01Y165354D01*
G54D15*
X313650Y220985D02*
G01X313256Y221379D01*
D02*
G01X312469D01*
D02*
G01X312076Y220985D01*
D02*
G01Y219411D01*
D02*
G01X312469Y219018D01*
X312991Y168307D02*
G01Y167520D01*
D02*
G01X312598Y167126D01*
D02*
G01X311811D01*
X312598Y168701D02*
G01X312991Y168307D01*
X312204Y168701D02*
G01X312598D01*
X313256Y219018D02*
G01X313650Y219411D01*
X312469Y219018D02*
G01X313256D01*
G54D10*
X603642Y200197D02*
G01X628642D01*
X603642Y162008D02*
G01X628642D01*
X653570Y149606D02*
G01X653530Y150580D01*
X653410Y151548D01*
X653210Y152502D01*
X652933Y153437D01*
X652580Y154346D01*
X652153Y155222D01*
X651655Y156061D01*
X651090Y156856D01*
X650462Y157601D01*
X649774Y158292D01*
X649032Y158925D01*
X648240Y159494D01*
X647405Y159996D01*
X646530Y160427D01*
X645623Y160785D01*
X644690Y161068D01*
X643737Y161272D01*
X642770Y161398D01*
X641796Y161443D01*
X640821Y161408D01*
X639853Y161293D01*
X638898Y161098D01*
X637961Y160826D01*
X637051Y160478D01*
X636172Y160055D01*
X635331Y159562D01*
X634533Y159002D01*
X633784Y158377D01*
X633089Y157693D01*
X632453Y156954D01*
X631880Y156166D01*
X631373Y155332D01*
X630937Y154460D01*
X630574Y153555D01*
X630287Y152624D01*
X630078Y151671D01*
X629947Y150705D01*
X629897Y149731D01*
X629927Y148757D01*
X630036Y147788D01*
X630226Y146832D01*
X630493Y145894D01*
X630837Y144981D01*
X631254Y144100D01*
X631743Y143257D01*
X632299Y142456D01*
X632920Y141704D01*
X633600Y141005D01*
X634336Y140365D01*
X635121Y139788D01*
X635952Y139277D01*
X636821Y138836D01*
X637725Y138468D01*
X638655Y138176D01*
X639606Y137962D01*
X640571Y137826D01*
X641545Y137770D01*
X642520Y137795D01*
X643489Y137900D01*
X644446Y138084D01*
X645386Y138347D01*
X646300Y138685D01*
X647183Y139098D01*
X648029Y139582D01*
X648833Y140135D01*
X649588Y140751D01*
X650291Y141428D01*
X650935Y142160D01*
X651516Y142942D01*
X652031Y143770D01*
X652477Y144637D01*
X652849Y145539D01*
X653146Y146467D01*
X653366Y147417D01*
X653507Y148382D01*
X653567Y149355D01*
X653570Y149606D01*
D03*
X628642Y162008D02*
G01Y200197D01*
G54D12*
X618504Y227264D02*
G01X621654D01*
G54D15*
X620079Y221457D02*
G01X620866D01*
D02*
G01X620472D01*
D02*
G01Y223818D01*
D02*
G01X620079Y223425D01*
X647637Y227166D02*
G01X648424D01*
D02*
G01X648031D01*
X646850D02*
G01X645276D01*
X644095D02*
G01X644489Y227559D01*
X643308Y227166D02*
G01X644095D01*
X642914Y227559D02*
G01X643308Y227166D01*
X648031D02*
G01Y229527D01*
X645276Y227166D02*
G01X646850Y228740D01*
X642914Y229134D02*
G01Y227559D01*
X235630Y214961D02*
G01X247441D01*
X235630Y220472D02*
G01X247441D01*
G54D11*
X245203Y192158D02*
G01X245192Y192260D01*
X245160Y192358D01*
X245109Y192447D01*
X245040Y192524D01*
X244957Y192584D01*
X244863Y192626D01*
X244762Y192647D01*
X244660D01*
X244559Y192626D01*
X244465Y192584D01*
X244382Y192524D01*
X244313Y192447D01*
X244262Y192358D01*
X244230Y192260D01*
X244219Y192158D01*
X244230Y192056D01*
X244262Y191958D01*
X244313Y191869D01*
X244382Y191792D01*
X244465Y191732D01*
X244559Y191690D01*
X244660Y191669D01*
X244762D01*
X244863Y191690D01*
X244957Y191732D01*
X245040Y191792D01*
X245109Y191869D01*
X245160Y191958D01*
X245192Y192056D01*
X245203Y192158D01*
D03*
G54D12*
X245866Y163386D02*
G01Y165354D01*
G54D15*
X247441Y214961D02*
G01Y220472D01*
X246369Y188615D02*
G01X247156D01*
D02*
G01X247550Y189008D01*
D02*
G01Y190976D01*
X245975Y189008D02*
G01X246369Y188615D01*
X245975Y190976D02*
G01Y189008D01*
X247354Y184018D02*
G01X247747Y183625D01*
X247354Y185593D02*
G01Y184018D01*
X247747Y185986D02*
G01X247354Y185593D01*
G54D12*
X330913Y163386D02*
G01Y165354D01*
G54D15*
X332194Y177861D02*
G01X331800Y177468D01*
D02*
G01Y175894D01*
D02*
G01X332194Y175500D01*
X327049Y174700D02*
G01X326655D01*
D02*
G01Y177061D01*
X328229Y175881D02*
G01X329804D01*
X329410Y177061D02*
G01X328229Y175881D01*
X329410Y174700D02*
G01Y177061D01*
X332178Y205802D02*
G01Y208163D01*
X330807Y209909D02*
G01Y221720D01*
X331102Y209628D02*
G01Y220652D01*
X331201Y238565D02*
G01X330414D01*
D02*
G01X330020Y238171D01*
X331594D02*
G01X331201Y238565D01*
X331594Y237777D02*
G01Y238171D01*
X330020Y236203D02*
G01X331594Y237777D01*
Y236203D02*
G01X330020D01*
X328839D02*
G01X329233Y236597D01*
X328052Y236203D02*
G01X328839D01*
X327659Y236597D02*
G01X328052Y236203D01*
X327659Y238171D02*
G01Y236597D01*
X328052Y238565D02*
G01X327659Y238171D01*
X328839Y238565D02*
G01X328052D01*
X329233Y238171D02*
G01X328839Y238565D01*
X320178Y226382D02*
G01X319391D01*
Y224020D02*
G01X320178D01*
X411418Y174410D02*
G01X411812Y174016D01*
D02*
G01X412599D01*
D02*
G01X412993Y174410D01*
X413780Y174016D02*
G01X414567D01*
D02*
G01X414173D01*
D02*
G01Y176378D01*
X415748Y174410D02*
G01X416141Y174016D01*
D02*
G01X416928D01*
D02*
G01X417322Y174410D01*
X403544Y175000D02*
G01Y173425D01*
X408267Y174213D02*
G01X409054D01*
X408267D02*
G01X407874Y174606D01*
Y173819D02*
G01X408267Y174213D01*
X409054D02*
G01X409448Y173819D01*
Y174606D02*
G01X409054Y174213D01*
X406299Y173032D02*
G01Y175393D01*
G54D12*
X186215Y235419D02*
G01X205901D01*
X186215Y229120D02*
G01X205901D01*
D02*
G01Y235419D01*
G54D15*
X216511Y244412D02*
G01X216904Y244018D01*
X216511Y245986D02*
G01Y244412D01*
X216904Y246380D02*
G01X216511Y245986D01*
X174408Y230118D02*
G01X172834D01*
D02*
G01X174408Y231693D01*
X174015Y232480D02*
G01X173228D01*
D02*
G01X172834Y232086D01*
X173913Y223805D02*
G01X173126D01*
X173586Y239356D02*
G01X172799D01*
Y236995D02*
G01X173586D01*
G54D12*
X186215Y229120D02*
G01Y235419D01*
G54D15*
X179916Y228726D02*
G01X185428D01*
Y229120D02*
G01Y240931D01*
X179916Y229120D02*
G01X185428D01*
X179916D02*
G01Y240931D01*
D02*
G01X185428D01*
X177522Y236995D02*
G01X177128Y237388D01*
X178309Y236995D02*
G01X177522D01*
X178703Y237388D02*
G01X178309Y236995D01*
X178703Y238175D02*
G01Y237388D01*
X178309Y238569D02*
G01X178703Y238175D01*
X177916Y238569D02*
G01X178309D01*
X177128Y238175D02*
G01X177916Y238569D01*
X177128Y239356D02*
G01Y238175D01*
X178703Y239356D02*
G01X177128D01*
G54D12*
X186022Y196957D02*
G01Y202764D01*
X448386Y174236D02*
G01X455158D01*
X448386Y168283D02*
G01X455158D01*
G54D10*
X603642Y162008D02*
G01Y200197D01*
G54D13*
X601429Y163102D02*
G01X601412Y163266D01*
X601361Y163422D01*
X601279Y163565D01*
X601169Y163687D01*
X601036Y163784D01*
X600885Y163851D01*
X600724Y163885D01*
X600560D01*
X600399Y163851D01*
X600249Y163784D01*
X600115Y163687D01*
X600005Y163565D01*
X599923Y163422D01*
X599872Y163266D01*
X599855Y163102D01*
X599872Y162938D01*
X599923Y162782D01*
X600005Y162639D01*
X600115Y162517D01*
X600249Y162420D01*
X600399Y162354D01*
X600560Y162319D01*
X600724D01*
X600885Y162354D01*
X601036Y162420D01*
X601169Y162517D01*
X601279Y162639D01*
X601361Y162782D01*
X601412Y162938D01*
X601429Y163102D01*
D03*
G54D15*
X606299Y159645D02*
G01X605512D01*
D02*
G01X605906D01*
D02*
G01Y157677D01*
D02*
G01X605512Y157284D01*
D02*
G01X605119D01*
X607480Y159645D02*
G01X607086Y159252D01*
X607480Y157284D02*
G01Y159645D01*
X607873Y157284D02*
G01X607480D01*
X607086D02*
G01X607873D01*
X605119D02*
G01X604725Y157677D01*
G54D12*
X434606Y168283D02*
G01X441378D01*
X434606Y174236D02*
G01X441378D01*
G54D15*
X437425Y194356D02*
G01X437819Y193963D01*
D02*
G01Y193569D01*
D02*
G01X437425Y193176D01*
D02*
G01X437819Y192782D01*
D02*
G01Y192388D01*
D02*
G01X437425Y191995D01*
X437795Y207612D02*
G01X438583D01*
D02*
G01X438189D01*
D02*
G01Y209974D01*
D02*
G01X437795Y209580D01*
Y231496D02*
G01X437402Y231889D01*
X437795Y229922D02*
G01Y231496D01*
X437402Y229528D02*
G01X437795Y229922D01*
G54D12*
X391968Y110237D02*
G01X394685Y110236D01*
X391929Y111417D02*
G01X394685D01*
G54D15*
X391929Y220947D02*
G01X397441D01*
X394020Y214550D02*
G01X394807D01*
X394414Y216911D02*
G01X394020Y216518D01*
G54D12*
X398158Y226656D02*
G01X398847D01*
X394685Y110236D02*
G01Y111417D01*
G54D15*
X394807Y214550D02*
G01X394414D01*
D02*
G01Y216911D01*
X394625Y217404D02*
G01X395413D01*
D02*
G01X395019D01*
D02*
G01Y219765D01*
D02*
G01X394625Y219372D01*
X396593Y219765D02*
G01X398168D01*
D02*
G01Y219372D01*
X396593Y217798D02*
G01Y217404D01*
X398168Y219372D02*
G01X396593Y217798D01*
G54D12*
X390748Y111417D02*
G01X390774Y111171D01*
X390850Y110937D01*
X390974Y110723D01*
X391139Y110539D01*
X391339Y110394D01*
X391564Y110294D01*
X391806Y110242D01*
X391968Y110237D01*
D03*
X391929Y111417D02*
G01Y142756D01*
Y158661D02*
G01Y165354D01*
G54D15*
X393233Y216911D02*
G01X391659D01*
Y215730D02*
G01X392446Y216124D01*
X392839Y214550D02*
G01X392052D01*
D02*
G01X391659Y214943D01*
X392446Y216124D02*
G01X392839D01*
D02*
G01X393233Y215730D01*
D02*
G01Y214943D01*
D02*
G01X392839Y214550D01*
X392264Y217404D02*
G01Y219765D01*
D02*
G01X393445D01*
D02*
G01X393838Y219372D01*
D02*
G01Y218585D01*
D02*
G01X393445Y218191D01*
X393051D02*
G01X393838Y217404D01*
X393445Y218191D02*
G01X392264D01*
G54D10*
X423976Y200702D02*
G01X423973Y200732D01*
X423964Y200760D01*
X423949Y200785D01*
X423929Y200808D01*
X423905Y200825D01*
X423878Y200837D01*
X423849Y200843D01*
X423819D01*
X423790Y200837D01*
X423763Y200825D01*
X423739Y200808D01*
X423719Y200786D01*
X423704Y200760D01*
X423695Y200732D01*
X423692Y200702D01*
X423695Y200673D01*
X423704Y200644D01*
X423719Y200619D01*
X423739Y200597D01*
X423763Y200579D01*
X423790Y200567D01*
X423819Y200561D01*
X423849D01*
X423878Y200567D01*
X423905Y200579D01*
X423929Y200596D01*
X423949Y200619D01*
X423964Y200644D01*
X423973Y200672D01*
X423976Y200702D01*
D03*
X402574Y200787D03*
X422047Y208793D02*
G01Y211352D01*
G54D15*
X410630Y216124D02*
G01X416142D01*
X404760Y218191D02*
G01X403579D01*
X404366D02*
G01X405153Y217404D01*
X405940D02*
G01X406728D01*
D02*
G01X406334D01*
X409482Y217798D02*
G01X409089Y217404D01*
D02*
G01X408302D01*
D02*
G01X407908Y217798D01*
D02*
G01Y218191D01*
X409482D02*
G01Y217798D01*
X410630Y216124D02*
G01Y227148D01*
X416142Y216124D02*
G01Y227148D01*
X403579Y217404D02*
G01Y219765D01*
X405153Y219372D02*
G01Y218585D01*
D02*
G01X404760Y218191D01*
X407908D02*
G01X408302Y218585D01*
D02*
G01X407908Y218978D01*
X408302Y218585D02*
G01X409089D01*
D02*
G01X409482Y218191D01*
Y218978D02*
G01X409089Y218585D01*
X406334Y217404D02*
G01Y219765D01*
G54D10*
X424173Y221568D02*
G01X424170Y221598D01*
X424161Y221626D01*
X424146Y221651D01*
X424126Y221674D01*
X424102Y221691D01*
X424075Y221703D01*
X424046Y221709D01*
X424016D01*
X423987Y221703D01*
X423960Y221691D01*
X423936Y221674D01*
X423916Y221651D01*
X423901Y221626D01*
X423892Y221598D01*
X423889Y221568D01*
X423892Y221538D01*
X423901Y221510D01*
X423916Y221485D01*
X423936Y221462D01*
X423960Y221445D01*
X423987Y221433D01*
X424016Y221427D01*
X424046D01*
X424075Y221433D01*
X424102Y221445D01*
X424126Y221462D01*
X424146Y221485D01*
X424161Y221510D01*
X424170Y221538D01*
X424173Y221568D01*
D03*
G54D12*
X410658Y226656D02*
G01X411346D01*
G54D15*
X410630Y227148D02*
G01X416142D01*
X403579Y219765D02*
G01X404760D01*
D02*
G01X405153Y219372D01*
X407908Y218978D02*
G01Y219372D01*
X409482D02*
G01Y218978D01*
X409089Y219765D02*
G01X409482Y219372D01*
X408302Y219765D02*
G01X409089D01*
X407908Y219372D02*
G01X408302Y219765D01*
X406334D02*
G01X405940Y219372D01*
G54D11*
X654429Y239272D02*
G01X654418Y239374D01*
X654386Y239472D01*
X654335Y239561D01*
X654266Y239638D01*
X654183Y239698D01*
X654089Y239740D01*
X653988Y239761D01*
X653886D01*
X653785Y239740D01*
X653691Y239698D01*
X653608Y239638D01*
X653539Y239561D01*
X653488Y239472D01*
X653456Y239374D01*
X653445Y239272D01*
X653456Y239170D01*
X653488Y239072D01*
X653539Y238983D01*
X653608Y238906D01*
X653691Y238846D01*
X653785Y238804D01*
X653886Y238783D01*
X653988D01*
X654089Y238804D01*
X654183Y238846D01*
X654266Y238906D01*
X654335Y238983D01*
X654386Y239072D01*
X654418Y239170D01*
X654429Y239272D01*
D03*
G54D12*
X643898Y237008D02*
G01X647441D01*
G54D15*
X644489Y229134D02*
G01X644095Y229527D01*
D02*
G01X643308D01*
D02*
G01X642914Y229134D01*
X646850Y228740D02*
G01Y229134D01*
D02*
G01X646456Y229527D01*
D02*
G01X645669D01*
X648031D02*
G01X647637Y229134D01*
X645669Y229527D02*
G01X645276Y229134D01*
G54D12*
X647441Y237008D02*
G01Y249213D01*
X643898Y237008D02*
G01Y249213D01*
X627953Y238779D02*
G01Y244488D01*
G54D10*
X653543Y330709D02*
G01X653503Y331682D01*
X653383Y332649D01*
X653183Y333602D01*
X652906Y334536D01*
X652553Y335443D01*
X652126Y336319D01*
X651628Y337156D01*
X651063Y337949D01*
X650435Y338694D01*
X649748Y339384D01*
X649006Y340015D01*
X648214Y340582D01*
X647379Y341083D01*
X646505Y341513D01*
X645599Y341869D01*
X644666Y342150D01*
X643713Y342353D01*
X642747Y342476D01*
X641774Y342520D01*
X640801Y342483D01*
X639834Y342366D01*
X638880Y342170D01*
X637945Y341896D01*
X637036Y341546D01*
X636159Y341123D01*
X635320Y340628D01*
X634525Y340066D01*
X633778Y339441D01*
X633086Y338756D01*
X632453Y338016D01*
X631882Y337226D01*
X631379Y336393D01*
X630945Y335520D01*
X630586Y334615D01*
X630302Y333684D01*
X630096Y332732D01*
X629968Y331766D01*
X629921Y330793D01*
X629955Y329820D01*
X630068Y328852D01*
X630261Y327898D01*
X630531Y326962D01*
X630878Y326052D01*
X631299Y325174D01*
X631790Y324333D01*
X632349Y323535D01*
X632972Y322787D01*
X633655Y322092D01*
X634392Y321456D01*
X635180Y320882D01*
X636012Y320376D01*
X636882Y319940D01*
X637786Y319577D01*
X638717Y319289D01*
X639668Y319080D01*
X640633Y318949D01*
X641606Y318899D01*
X642579Y318928D01*
X643547Y319038D01*
X644502Y319227D01*
X645439Y319495D01*
X646350Y319838D01*
X647230Y320256D01*
X648073Y320744D01*
X648872Y321301D01*
X649623Y321921D01*
X650320Y322601D01*
X650959Y323336D01*
X651535Y324122D01*
X652045Y324952D01*
X652484Y325821D01*
X652850Y326723D01*
X653141Y327653D01*
X653354Y328603D01*
X653488Y329568D01*
X653542Y330541D01*
X653543Y330709D01*
D03*
G54D12*
X643898Y249213D02*
G01X647441D01*
X632185Y244488D02*
G01Y249114D01*
X627953Y244488D02*
G01X632185D01*
G54D15*
X643701Y253149D02*
G01Y251181D01*
D02*
G01X644095Y250788D01*
X646456Y253149D02*
G01X646063Y252756D01*
X647244Y253149D02*
G01X646456D01*
X647637Y252756D02*
G01X647244Y253149D01*
X647637Y252362D02*
G01Y252756D01*
X646063Y250788D02*
G01X647637Y252362D01*
Y250788D02*
G01X646063D01*
X645276Y251181D02*
G01Y253149D01*
X644882Y250788D02*
G01X645276Y251181D01*
X644095Y250788D02*
G01X644882D01*
X177455Y222624D02*
G01Y221837D01*
D02*
G01X177849Y221443D01*
D02*
G01X178636D01*
D02*
G01X179030Y221837D01*
D02*
G01Y222231D01*
D02*
G01X178636Y222624D01*
D02*
G01X177455D01*
X176668Y221837D02*
G01X176275Y221443D01*
X176668Y222231D02*
G01Y221837D01*
X176275Y222624D02*
G01X176668Y222231D01*
Y223018D02*
G01X176275Y222624D01*
X179916Y216915D02*
G01X185428D01*
G54D12*
X398158Y234037D02*
G01Y239845D01*
D02*
G01X398847D01*
G54D15*
X391929Y231971D02*
G01X397441D01*
G54D17*
X388376Y293896D02*
G01X387589Y294684D01*
D02*
G01X385227D01*
X389950Y292322D02*
G01X393098D01*
X391524Y293896D02*
G01Y290748D01*
X388376D02*
G01Y293896D01*
X387589Y289961D02*
G01X388376Y290748D01*
X385227Y289961D02*
G01X387589D01*
X385227Y294684D02*
G01Y289961D01*
G54D12*
X411346Y234037D02*
G01Y239845D01*
X410658D02*
G01X411346D01*
G54D15*
X412402Y241518D02*
G01X412796Y241125D01*
D02*
G01X413583D01*
X416338Y241912D02*
G01Y241518D01*
D02*
G01X415944Y241125D01*
D02*
G01X415157D01*
D02*
G01X414764Y241518D01*
D02*
G01Y241912D01*
X413583Y241125D02*
G01X413976Y241518D01*
G54D11*
X411248Y242404D02*
G01X411237Y242506D01*
X411206Y242604D01*
X411154Y242693D01*
X411085Y242770D01*
X411002Y242830D01*
X410908Y242872D01*
X410807Y242893D01*
X410705D01*
X410604Y242872D01*
X410510Y242830D01*
X410427Y242770D01*
X410358Y242693D01*
X410307Y242604D01*
X410275Y242506D01*
X410264Y242404D01*
X410275Y242302D01*
X410307Y242204D01*
X410358Y242115D01*
X410427Y242038D01*
X410510Y241978D01*
X410604Y241936D01*
X410705Y241915D01*
X410807D01*
X410908Y241936D01*
X411002Y241978D01*
X411085Y242038D01*
X411154Y242115D01*
X411205Y242204D01*
X411237Y242302D01*
X411248Y242404D01*
D03*
G54D15*
X412402Y243486D02*
G01Y241518D01*
X414764Y241912D02*
G01X415157Y242305D01*
D02*
G01X414764Y242699D01*
X415157Y242305D02*
G01X415944D01*
D02*
G01X416338Y241912D01*
Y242699D02*
G01X415944Y242305D01*
X413976Y241518D02*
G01Y243486D01*
G54D17*
X303739Y285930D02*
G01X301378D01*
D02*
G01X303739D01*
D02*
G01X304526Y286718D01*
D02*
G01Y287505D01*
D02*
G01X303739Y288292D01*
D02*
G01X301378D01*
X306888D02*
G01X306101D01*
X306888Y283569D02*
G01Y288292D01*
X304526Y285143D02*
G01X303739Y285930D01*
X304526Y284356D02*
G01Y285143D01*
X303739Y283569D02*
G01X304526Y284356D01*
X301378Y283569D02*
G01X303739D01*
X301378Y288292D02*
G01Y283569D01*
G54D15*
X405119Y175000D02*
G01X404725Y175393D01*
D02*
G01X403938D01*
D02*
G01X403544Y175000D01*
X407874Y174606D02*
G01Y175000D01*
X409448D02*
G01Y174606D01*
X409054Y175393D02*
G01X409448Y175000D01*
X408267Y175393D02*
G01X409054D01*
X407874Y175000D02*
G01X408267Y175393D01*
X406299D02*
G01X405906Y175000D01*
X412993Y175984D02*
G01X412599Y176378D01*
D02*
G01X411812D01*
D02*
G01X411418Y175984D01*
D02*
G01Y174410D01*
X416141Y175197D02*
G01X417322D01*
X415748Y175590D02*
G01X416141Y175197D01*
X415748Y175984D02*
G01Y175590D01*
X416141Y176378D02*
G01X415748Y175984D01*
X416928Y176378D02*
G01X416141D01*
X417322Y175984D02*
G01X416928Y176378D01*
X417322Y174410D02*
G01Y175984D01*
X414173Y176378D02*
G01X413780Y175984D01*
G54D12*
X258858Y110236D02*
G01Y111417D01*
G54D15*
X256058Y217036D02*
G01X254483D01*
D02*
G01X256058Y218610D01*
D02*
G01Y219004D01*
X254877Y219397D02*
G01X254483Y219004D01*
X255664Y219397D02*
G01X254877D01*
X256058Y219004D02*
G01X255664Y219397D01*
G54D12*
X258858Y111417D02*
G01X261614D01*
X258858Y110236D02*
G01X261575Y110237D01*
G54D17*
X126963Y312008D02*
G01Y315550D01*
X125782Y314960D02*
G01Y313189D01*
X125192Y315550D02*
G01X125782Y314960D01*
X124601D02*
G01X125192Y315550D01*
X124601Y313189D02*
G01Y314960D01*
D02*
G01Y313189D01*
X124011Y315550D02*
G01X124601Y314960D01*
X123421Y315550D02*
G01X124011D01*
X123421Y313189D02*
G01Y315550D01*
X122240Y313189D02*
G01Y315550D01*
X162200Y313189D02*
G01Y316731D01*
D02*
G01X161610D01*
X164561Y315550D02*
G01X165742Y313189D01*
D02*
G01X166923Y315550D01*
X162790Y313189D02*
G01X162200D01*
X161610D02*
G01X162790D01*
G54D12*
X470669Y111417D02*
G01X473425D01*
X470709Y110237D02*
G01X473425Y110236D01*
X470177Y302264D02*
G01X478642D01*
X470177Y233169D02*
G01X478642D01*
G54D15*
X99414Y271566D02*
G01X101776D01*
D02*
G01Y272747D01*
D02*
G01X101382Y273140D01*
X101776Y273927D02*
G01Y274714D01*
D02*
G01Y274321D01*
D02*
G01X99414D01*
X101776Y277469D02*
G01Y275895D01*
D02*
G01X100202Y277469D01*
X88028Y283349D02*
G01X99839D01*
X88028Y277837D02*
G01X99839D01*
X88028Y258573D02*
G01X99839D01*
X88028Y253061D02*
G01X99839D01*
X96599Y242611D02*
G01X95025D01*
D02*
G01X96599Y244185D01*
D02*
G01Y244579D01*
D02*
G01X96205Y244972D01*
X95902Y286821D02*
G01X96689D01*
D02*
G01X97083Y286427D01*
Y286033D02*
G01X96689Y285640D01*
D02*
G01X97083Y285246D01*
Y284853D02*
G01X96689Y284459D01*
D02*
G01X95902D01*
Y285640D02*
G01X96689D01*
G54D17*
X95857Y314107D02*
G01X97169Y312795D01*
G54D15*
X98960Y244972D02*
G01X98173Y244579D01*
X98567Y242611D02*
G01X98960Y243004D01*
D02*
G01Y243398D01*
D02*
G01X98567Y243791D01*
X124804Y300000D02*
G01Y298426D01*
X88028Y277837D02*
G01Y283349D01*
X89322Y251706D02*
G01Y250132D01*
X95619Y251706D02*
G01X94045Y250132D01*
X92864Y250919D02*
G01X93257Y250525D01*
X92470Y250919D02*
G01X92864D01*
D02*
G01X92470D01*
X93257Y251312D02*
G01X92864Y250919D01*
G54D11*
X95804Y278848D02*
G01X95793Y278950D01*
X95761Y279048D01*
X95710Y279137D01*
X95641Y279214D01*
X95558Y279274D01*
X95464Y279316D01*
X95363Y279337D01*
X95261D01*
X95160Y279316D01*
X95066Y279274D01*
X94983Y279214D01*
X94914Y279137D01*
X94863Y279048D01*
X94831Y278950D01*
X94820Y278848D01*
X94831Y278746D01*
X94863Y278648D01*
X94914Y278559D01*
X94983Y278482D01*
X95066Y278422D01*
X95160Y278380D01*
X95261Y278359D01*
X95363D01*
X95464Y278380D01*
X95558Y278422D01*
X95641Y278482D01*
X95710Y278559D01*
X95761Y278648D01*
X95793Y278746D01*
X95804Y278848D01*
D03*
G54D12*
X91965Y266348D02*
G01Y269695D01*
G54D15*
X88028Y253061D02*
G01Y258573D01*
X90896Y251706D02*
G01X90502Y252100D01*
D02*
G01X89715D01*
D02*
G01X89322Y251706D01*
X94045Y252100D02*
G01X95619D01*
D02*
G01Y251706D01*
X93257D02*
G01Y251312D01*
X92864Y252100D02*
G01X93257Y251706D01*
X92077Y252100D02*
G01X92864D01*
X91683Y251706D02*
G01X92077Y252100D01*
G54D17*
X91922Y316075D02*
G01X92577Y316731D01*
D02*
G01X93889D01*
D02*
G01X94545Y316075D01*
D02*
G01Y313451D01*
D02*
G01X93889Y312795D01*
D02*
G01X92577D01*
D02*
G01X91922Y313451D01*
D02*
G01Y316075D01*
X95857Y316731D02*
G01Y314107D01*
G54D15*
X92360Y286427D02*
G01X91966Y286821D01*
D02*
G01X91179D01*
D02*
G01X90785Y286427D01*
D02*
G01Y284853D01*
D02*
G01X91179Y284459D01*
D02*
G01X91966D01*
D02*
G01X92360Y284853D01*
X93147Y286427D02*
G01X93540Y286821D01*
X94327Y284459D02*
G01X93540D01*
D02*
G01X93147Y284853D01*
X93934Y285640D02*
G01X94327D01*
D02*
G01X93934D01*
X93540Y286821D02*
G01X94327D01*
X94721Y284853D02*
G01X94327Y284459D01*
X94721Y285246D02*
G01Y284853D01*
X94327Y285640D02*
G01X94721Y285246D01*
Y286033D02*
G01X94327Y285640D01*
X94721Y286427D02*
G01Y286033D01*
X94327Y286821D02*
G01X94721Y286427D01*
X95508D02*
G01X95902Y286821D01*
Y284459D02*
G01X95508Y284853D01*
D02*
G01Y285246D01*
D02*
G01X95902Y285640D01*
D02*
G01X95508Y286033D01*
D02*
G01Y286427D01*
X72280Y291349D02*
G01X73067D01*
D02*
G01X72673D01*
X75627Y283868D02*
G01Y283475D01*
X77201Y285443D02*
G01X75627Y283868D01*
X77201Y285836D02*
G01Y285443D01*
X75627Y285836D02*
G01X77201D01*
X74840Y283868D02*
G01Y285836D01*
X74446Y283475D02*
G01X74840Y283868D01*
X73659Y283475D02*
G01X74446D01*
X73265Y283868D02*
G01X73659Y283475D01*
X73265Y285836D02*
G01Y283868D01*
X72673Y293710D02*
G01X72280Y293317D01*
X72673Y291349D02*
G01Y293710D01*
X57517Y283868D02*
G01X69328D01*
X57517Y289380D02*
G01X69328D01*
G54D11*
X69980Y301378D02*
G01X69969Y301480D01*
X69937Y301578D01*
X69886Y301667D01*
X69817Y301744D01*
X69734Y301804D01*
X69640Y301846D01*
X69539Y301867D01*
X69437D01*
X69336Y301846D01*
X69242Y301804D01*
X69159Y301744D01*
X69090Y301667D01*
X69039Y301578D01*
X69007Y301480D01*
X68996Y301378D01*
X69007Y301276D01*
X69039Y301178D01*
X69090Y301089D01*
X69159Y301012D01*
X69242Y300952D01*
X69336Y300910D01*
X69437Y300889D01*
X69539D01*
X69640Y300910D01*
X69734Y300952D01*
X69817Y301012D01*
X69886Y301089D01*
X69937Y301178D01*
X69969Y301276D01*
X69980Y301378D01*
D03*
G54D15*
X69328Y283868D02*
G01Y289380D01*
X70670Y307874D02*
G01Y305512D01*
X69131Y293317D02*
G01X68738Y293710D01*
D02*
G01X67950D01*
D02*
G01X67557Y293317D01*
D02*
G01Y291742D01*
G54D17*
X68307Y314763D02*
G01X70931D01*
X69619Y316075D02*
G01Y313451D01*
G54D15*
X71099Y293710D02*
G01X69918Y292530D01*
X71099Y291349D02*
G01Y293710D01*
X68738Y291349D02*
G01X69131Y291742D01*
X67950Y291349D02*
G01X68738D01*
X67557Y291742D02*
G01X67950Y291349D01*
X131890Y296457D02*
G01X143701D01*
X131890Y301969D02*
G01X143701D01*
X126379Y300000D02*
G01X125985Y300393D01*
X122047Y301053D02*
G01X122441Y301446D01*
X123622Y301053D02*
G01X123228Y301446D01*
X124409Y301053D02*
G01X123622D01*
X124802Y301446D02*
G01X124409Y301053D01*
X125198Y300393D02*
G01X124804Y300000D01*
X125985Y300393D02*
G01X125198D01*
X122441Y301446D02*
G01Y303021D01*
X124802Y301840D02*
G01Y301446D01*
X124409Y302234D02*
G01X124802Y301840D01*
X122441Y303021D02*
G01X122047Y303414D01*
X123228Y303021D02*
G01X123622Y303414D01*
D02*
G01X124409D01*
D02*
G01X124802Y303021D01*
D02*
G01Y302627D01*
D02*
G01X124409Y302234D01*
X124015D02*
G01X124409D01*
D02*
G01X124015D01*
X38225Y253947D02*
G01X49249D01*
X38225Y248435D02*
G01X49249D01*
X37241Y242726D02*
G01X48265D01*
X37241Y248238D02*
G01X48265D01*
X37832Y254341D02*
G01X49643D01*
X37832Y259852D02*
G01X49643D01*
X39209Y270088D02*
G01X38029Y268907D01*
D02*
G01X39603D01*
X38029Y263002D02*
G01X39603D01*
X39209Y264183D02*
G01X38029Y263002D01*
X42753Y260443D02*
G01Y265955D01*
X36061Y264183D02*
G01X35667Y263789D01*
X36848Y264183D02*
G01X36061D01*
X37242Y263789D02*
G01X36848Y264183D01*
X37832Y254341D02*
G01Y259852D01*
X34646Y260245D02*
G01X36220Y258671D01*
X34252D02*
G01Y260245D01*
D02*
G01X34646D01*
X36848Y261821D02*
G01X37242Y262215D01*
X36061Y261821D02*
G01X36848D01*
X35667Y262215D02*
G01X36061Y261821D01*
X35667Y263789D02*
G01Y262215D01*
X57517Y283868D02*
G01Y289380D01*
X56336Y279144D02*
G01Y290167D01*
G54D11*
X61158Y282687D02*
G01X61147Y282789D01*
X61115Y282887D01*
X61064Y282976D01*
X60995Y283053D01*
X60912Y283113D01*
X60818Y283155D01*
X60717Y283176D01*
X60615D01*
X60514Y283155D01*
X60420Y283113D01*
X60337Y283053D01*
X60268Y282976D01*
X60217Y282887D01*
X60185Y282789D01*
X60174Y282687D01*
X60185Y282585D01*
X60217Y282487D01*
X60268Y282398D01*
X60337Y282321D01*
X60420Y282261D01*
X60514Y282219D01*
X60615Y282198D01*
X60717D01*
X60818Y282219D01*
X60912Y282261D01*
X60995Y282321D01*
X61064Y282398D01*
X61115Y282487D01*
X61147Y282585D01*
X61158Y282687D01*
G54D15*
X173586Y236995D02*
G01X173980Y237388D01*
Y238962D02*
G01X173586Y239356D01*
X174408Y232086D02*
G01X174015Y232480D01*
X174408Y231693D02*
G01Y232086D01*
X175160Y236995D02*
G01X174767Y237388D01*
X175948Y236995D02*
G01X175160D01*
Y239356D02*
G01X175948D01*
X174767Y238962D02*
G01X175160Y239356D01*
X176341Y238569D02*
G01X175948Y238175D01*
D02*
G01X175554D01*
D02*
G01X175948D01*
D02*
G01X176341Y237782D01*
Y237388D02*
G01X175948Y236995D01*
X176341Y237782D02*
G01Y237388D01*
Y238962D02*
G01Y238569D01*
X175948Y239356D02*
G01X176341Y238962D01*
X175487Y223805D02*
G01X176275D01*
G54D17*
X168110Y225984D02*
G01Y227559D01*
Y237008D02*
G01Y238583D01*
X169488Y226181D02*
G01Y227362D01*
X168898Y226772D02*
G01X170079D01*
G54D15*
X169292Y230118D02*
G01X169685Y230512D01*
X168505Y230118D02*
G01X169292D01*
X168111Y230512D02*
G01X168505Y230118D01*
X168111Y232086D02*
G01Y230512D01*
X168505Y232480D02*
G01X168111Y232086D01*
X169292Y232480D02*
G01X168505D01*
X169685Y232086D02*
G01X169292Y232480D01*
X170473Y231299D02*
G01X172047D01*
X171653Y232480D02*
G01X170473Y231299D01*
X172405Y237388D02*
G01X172799Y236995D01*
X172405Y238962D02*
G01Y237388D01*
X172799Y239356D02*
G01X172405Y238962D01*
X171653Y230118D02*
G01Y232480D01*
X403608Y244094D02*
G01X415419D01*
X414764Y243092D02*
G01X415157Y243486D01*
D02*
G01X415944D01*
D02*
G01X416338Y243092D01*
D02*
G01Y242699D01*
X414764D02*
G01Y243092D01*
X415419Y244094D02*
G01Y249606D01*
X403608Y244094D02*
G01Y249606D01*
D02*
G01X415419D01*
X413844Y253937D02*
G01X412663Y252756D01*
D02*
G01X414237D01*
X415024Y251969D02*
G01X415418Y251575D01*
D02*
G01X416205D01*
D02*
G01X416599Y251969D01*
D02*
G01Y253543D01*
D02*
G01X416205Y253937D01*
D02*
G01X415418D01*
D02*
G01X415024Y253543D01*
D02*
G01Y253150D01*
D02*
G01X415418Y252756D01*
D02*
G01X416599D01*
X413844Y251575D02*
G01Y253937D01*
X163386Y303937D02*
G01X163779Y304330D01*
D02*
G01X164566D01*
D02*
G01X164960Y303937D01*
D02*
G01Y303543D01*
X163779Y303150D02*
G01X164566D01*
X163386Y303543D02*
G01Y303937D01*
X163779Y303150D02*
G01X163386Y303543D01*
Y302756D02*
G01X163779Y303150D01*
X163386Y302362D02*
G01Y302756D01*
X163779Y301969D02*
G01X163386Y302362D01*
X164566Y301969D02*
G01X163779D01*
X164960Y302362D02*
G01X164566Y301969D01*
X164960Y302756D02*
G01Y302362D01*
X164566Y303150D02*
G01X164960Y302756D01*
Y303543D02*
G01X164566Y303150D01*
X164567Y157087D02*
G01Y162598D01*
X163680Y211032D02*
G01X163286Y211425D01*
X164467Y211032D02*
G01X163680D01*
X164860Y211425D02*
G01X164467Y211032D01*
X164860Y212213D02*
G01Y211425D01*
X164467Y212606D02*
G01X164860Y212213D01*
X164073Y212606D02*
G01X164467D01*
X163286Y212213D02*
G01X164073Y212606D01*
X163286Y213393D02*
G01Y212213D01*
X164860Y213393D02*
G01X163286D01*
X165946Y154252D02*
G01Y156614D01*
D02*
G01X167127D01*
D02*
G01X167520Y156220D01*
D02*
G01Y155433D01*
D02*
G01X167127Y155040D01*
D02*
G01X165946D01*
X166733D02*
G01X167520Y154252D01*
X166041Y211032D02*
G01X165647Y211425D01*
D02*
G01Y213000D01*
X166828Y211032D02*
G01X166041D01*
X167222Y211425D02*
G01X166828Y211032D01*
X167222Y213000D02*
G01Y211425D01*
X166828Y213393D02*
G01X167222Y213000D01*
X166041Y213393D02*
G01X166828D01*
X165647Y213000D02*
G01X166041Y213393D01*
X99839Y277837D02*
G01Y283349D01*
Y253061D02*
G01Y258573D01*
X101382Y273140D02*
G01X99808D01*
D02*
G01X99414Y272747D01*
D02*
G01Y271566D01*
Y276289D02*
G01X99808Y275895D01*
X99414Y277076D02*
G01Y276289D01*
X99808Y277469D02*
G01X99414Y277076D01*
X100202Y277469D02*
G01X99808D01*
X99414Y274321D02*
G01X99808Y273927D01*
X99607Y297638D02*
G01X100000Y298031D01*
D02*
G01X100787D01*
D02*
G01X101181Y297638D01*
D02*
G01Y297244D01*
D02*
G01X100787Y296850D01*
D02*
G01X100394D01*
D02*
G01X100787D01*
X100000Y295670D02*
G01X99607Y296063D01*
X100787Y295670D02*
G01X100000D01*
X101181Y296063D02*
G01X100787Y295670D01*
X101181Y296457D02*
G01Y296063D01*
X100787Y296850D02*
G01X101181Y296457D01*
G54D12*
X277126Y168283D02*
G01X283898D01*
X277126Y174236D02*
G01X283898D01*
G54D15*
X292323Y177362D02*
G01Y175000D01*
X278938Y177362D02*
G01Y175000D01*
D02*
G01X280118D01*
X281693Y177362D02*
G01X281299Y176968D01*
X281693Y175000D02*
G01Y177362D01*
X282086Y175000D02*
G01X281693D01*
X281299D02*
G01X282086D01*
X280118Y177362D02*
G01X278938D01*
X280512Y176968D02*
G01X280118Y177362D01*
X280512Y175394D02*
G01Y176968D01*
X280118Y175000D02*
G01X280512Y175394D01*
X277639Y203377D02*
G01X278033Y203771D01*
X281969Y203377D02*
G01X281575D01*
X281182D02*
G01X281969D01*
X279214D02*
G01X278820Y203771D01*
X280001Y203377D02*
G01X279214D01*
X280395Y203771D02*
G01X280001Y203377D01*
X280395Y204164D02*
G01Y203771D01*
X276852Y203377D02*
G01X277639D01*
X276459Y203771D02*
G01X276852Y203377D01*
G54D17*
X373420Y289961D02*
G01X371846D01*
D02*
G01X371058Y290748D01*
D02*
G01Y292322D01*
D02*
G01X371846Y293109D01*
D02*
G01X373420D01*
D02*
G01X374207Y292322D01*
D02*
G01Y291535D01*
D02*
G01X371058D01*
Y302953D02*
G01X374207Y306101D01*
G54D15*
X371064Y177362D02*
G01Y175000D01*
X373819D02*
G01X373425Y175394D01*
X374606Y175000D02*
G01X373819D01*
X374212Y176575D02*
G01X374606D01*
X373425Y176181D02*
G01X374212Y176575D01*
X373425Y177362D02*
G01Y176181D01*
X372244Y177362D02*
G01X371064D01*
X372638Y176968D02*
G01X372244Y177362D01*
X372638Y175394D02*
G01Y176968D01*
X372244Y175000D02*
G01X372638Y175394D01*
X371064Y175000D02*
G01X372244D01*
X373228Y208053D02*
G01Y219864D01*
X373910Y206620D02*
G01X373516Y207014D01*
D02*
G01X372729D01*
D02*
G01X372336Y206620D01*
D02*
G01Y205046D01*
D02*
G01X372729Y204652D01*
D02*
G01X373516D01*
D02*
G01X373910Y205046D01*
X435458Y191995D02*
G01X433883D01*
D02*
G01X435458Y193569D01*
D02*
G01Y193963D01*
D02*
G01X435064Y194356D01*
X435434Y209974D02*
G01Y207612D01*
D02*
G01X436615D01*
Y209974D02*
G01X435434D01*
X446653Y191995D02*
G01X445079D01*
D02*
G01X446653Y193569D01*
Y193963D02*
G01X446260Y194356D01*
D02*
G01X445473D01*
X200788Y179741D02*
G01Y177380D01*
D02*
G01X201969D01*
D02*
G01X202363Y177773D01*
X205118D02*
G01Y179348D01*
X205511Y177380D02*
G01X205118Y177773D01*
Y179348D02*
G01X205511Y179741D01*
X203543D02*
G01X203150Y179348D01*
X203543Y177380D02*
G01Y179741D01*
X203937Y177380D02*
G01X203543D01*
X203150D02*
G01X203937D01*
X201969Y179741D02*
G01X200788D01*
X202363Y179348D02*
G01X201969Y179741D01*
X202363Y177773D02*
G01Y179348D01*
X201515Y186646D02*
G01X199153D01*
D02*
G01Y187827D01*
D02*
G01X199547Y188221D01*
D02*
G01X200334D01*
D02*
G01X200728Y187827D01*
D02*
G01Y186646D01*
Y187434D02*
G01X201515Y188221D01*
X40390Y268907D02*
G01Y268120D01*
D02*
G01X40784Y267727D01*
D02*
G01X41571D01*
D02*
G01X41964Y268120D01*
D02*
G01Y268514D01*
D02*
G01X41571Y268907D01*
D02*
G01X40390D01*
X41177Y269695D02*
G01X40390Y268907D01*
X41964Y270088D02*
G01X41177Y269695D01*
X39209Y267727D02*
G01Y270088D01*
X42753Y266348D02*
G01Y271860D01*
G54D10*
X62992Y330709D03*
G54D12*
X62933Y307382D02*
G01Y309134D01*
X64016Y318307D02*
G01Y350197D01*
G54D15*
X59449Y318897D02*
G01X58662D01*
D02*
G01X59055D01*
D02*
G01Y316929D01*
D02*
G01X58662Y316536D01*
D02*
G01X58268D01*
D02*
G01X57875Y316929D01*
X60236Y318897D02*
G01X61810D01*
D02*
G01Y318504D01*
X60236Y316929D02*
G01Y316536D01*
X61810Y318504D02*
G01X60236Y316929D01*
X52171Y290932D02*
G01Y293294D01*
D02*
G01X53351D01*
D02*
G01X53745Y292900D01*
X52958Y291720D02*
G01X53745Y290932D01*
X53351Y291720D02*
G01X52171D01*
X53745Y292113D02*
G01X53351Y291720D01*
X53745Y292900D02*
G01Y292113D01*
X54926Y293294D02*
G01X54532Y292900D01*
X54926Y290932D02*
G01Y293294D01*
X55319Y290932D02*
G01X54926D01*
X54532D02*
G01X55319D01*
G54D12*
X62933Y293622D02*
G01Y295374D01*
G54D15*
X56500Y292113D02*
G01Y291326D01*
D02*
G01X56893Y290932D01*
D02*
G01X57681D01*
D02*
G01X58074Y291326D01*
D02*
G01Y291720D01*
D02*
G01X57681Y292113D01*
D02*
G01X56500D01*
X57287Y292900D02*
G01X56500Y292113D01*
X58074Y293294D02*
G01X57287Y292900D01*
X33465Y248032D02*
G01Y249213D01*
D02*
G01X33858Y249607D01*
D02*
G01X34646D01*
X34252Y251968D02*
G01X33858D01*
D02*
G01X33465Y251574D01*
X34252Y255129D02*
G01Y254341D01*
D02*
G01X34646Y253948D01*
Y255522D02*
G01X34252Y255129D01*
X33465Y253149D02*
G01X33858Y252755D01*
X33465Y250787D02*
G01X33858Y250394D01*
X33465Y251574D02*
G01Y250787D01*
X35826Y248032D02*
G01X33465D01*
X34646Y249607D02*
G01X35039Y249213D01*
D02*
G01Y248032D01*
Y248819D02*
G01X35826Y249607D01*
Y250394D02*
G01X34252Y251968D01*
X34646Y253948D02*
G01X36220D01*
X36614Y257490D02*
G01X34252D01*
D02*
G01X35433Y256309D01*
X35826Y253149D02*
G01X33465D01*
X38225Y248435D02*
G01Y253947D01*
X37241Y242726D02*
G01Y248238D01*
X35826Y251968D02*
G01Y250394D01*
X36220Y253948D02*
G01X36614Y254341D01*
D02*
G01Y255129D01*
D02*
G01X36220Y255522D01*
X35433Y256309D02*
G01Y257884D01*
X36220Y258671D02*
G01X36614D01*
X35826Y253542D02*
G01Y253149D01*
Y252755D02*
G01Y253542D01*
G54D12*
X44941Y307382D02*
G01Y309134D01*
Y293622D02*
G01Y295374D01*
G54D15*
X44918Y279144D02*
G01Y290167D01*
D02*
G01X50430D01*
X44918Y279144D02*
G01X50430D01*
X44526Y293513D02*
G01X45706D01*
Y291939D02*
G01X44526D01*
X195760Y180686D02*
G01X195367Y180293D01*
X195760Y178325D02*
G01Y180686D01*
X196154Y178325D02*
G01X195760D01*
X195367D02*
G01X196154D01*
X193792Y180686D02*
G01X193399Y180293D01*
X193792Y178325D02*
G01Y180686D01*
X194186Y178325D02*
G01X193792D01*
X193399D02*
G01X194186D01*
X192611Y178719D02*
G01Y180293D01*
X197972Y192551D02*
G01Y203575D01*
X194629Y216925D02*
G01X193842Y216531D01*
D02*
G01X193055Y215744D01*
D02*
G01Y214957D01*
D02*
G01X193448Y214563D01*
D02*
G01X194236D01*
D02*
G01X194629Y214957D01*
D02*
G01Y215351D01*
D02*
G01X194236Y215744D01*
D02*
G01X193055D01*
X195976Y205650D02*
G01Y208012D01*
D02*
G01X197156D01*
X196763Y206437D02*
G01X197550Y205650D01*
X197156Y206437D02*
G01X195976D01*
X197550Y206831D02*
G01X197156Y206437D01*
X197550Y207618D02*
G01Y206831D01*
X197156Y208012D02*
G01X197550Y207618D01*
X193995Y195776D02*
G01X194782Y194989D01*
X194389Y195776D02*
G01X193208D01*
X194782Y196169D02*
G01X194389Y195776D01*
X194782Y196956D02*
G01Y196169D01*
X194389Y197350D02*
G01X194782Y196956D01*
X193208Y197350D02*
G01X194389D01*
X193208Y194989D02*
G01Y197350D01*
X195569Y194989D02*
G01X196356D01*
D02*
G01X195963D01*
D02*
G01Y197350D01*
D02*
G01X195569Y196956D01*
X197537Y195382D02*
G01X197931Y194989D01*
D02*
G01X198718D01*
Y197350D02*
G01X197931D01*
D02*
G01X197537Y196956D01*
D02*
G01Y196563D01*
D02*
G01X197931Y196169D01*
X59682Y242726D02*
G01Y248238D01*
X55351D02*
G01Y260049D01*
X54564Y260443D02*
G01Y265955D01*
Y266348D02*
G01Y271860D01*
X54170Y272254D02*
G01Y277766D01*
X59879Y252175D02*
G01X58698Y250994D01*
D02*
G01X60272D01*
X59879Y249813D02*
G01Y252175D01*
X57517Y249813D02*
G01X57911Y250207D01*
X56730Y249813D02*
G01X57517D01*
X56336Y250207D02*
G01X56730Y249813D01*
X56336Y251781D02*
G01Y250207D01*
X56730Y252175D02*
G01X56336Y251781D01*
X57517Y252175D02*
G01X56730D01*
X57911Y251781D02*
G01X57517Y252175D01*
X53186Y241545D02*
G01X52792Y241151D01*
X52005Y240364D02*
G01X51612Y239971D01*
X52005Y241151D02*
G01Y240364D01*
X51612Y241545D02*
G01X52005Y241151D01*
X53973Y241545D02*
G01X53186D01*
X54367Y241151D02*
G01X53973Y241545D01*
X54367Y240758D02*
G01Y241151D01*
X52792Y239183D02*
G01X54367Y240758D01*
Y239183D02*
G01X52792D01*
X55547Y241545D02*
G01X56335D01*
D02*
G01X56728Y241151D01*
D02*
G01Y239577D01*
D02*
G01X56335Y239183D01*
D02*
G01X55547D01*
D02*
G01X55154Y239577D01*
D02*
G01Y241151D01*
D02*
G01X55547Y241545D01*
X161023Y216535D02*
G01X162597D01*
X162204Y217716D02*
G01X161023Y216535D01*
X162204Y215355D02*
G01Y217716D01*
X162105Y211032D02*
G01X162499Y211425D01*
X161318Y211032D02*
G01X162105D01*
X160924Y211425D02*
G01X161318Y211032D01*
X160924Y213000D02*
G01Y211425D01*
X161318Y213393D02*
G01X160924Y213000D01*
X162105Y213393D02*
G01X161318D01*
X162499Y213000D02*
G01X162105Y213393D01*
X162204Y298032D02*
G01Y300393D01*
D02*
G01X161023Y299213D01*
X162599Y303937D02*
G01X162205Y304330D01*
D02*
G01X161024D01*
X162599Y302362D02*
G01Y303937D01*
X162205Y301969D02*
G01X162599Y302362D01*
X161024Y301969D02*
G01X162205D01*
X161024Y304330D02*
G01Y301969D01*
X161023Y299213D02*
G01X162597D01*
X155118Y296457D02*
G01Y301969D01*
X156300Y298032D02*
G01Y300393D01*
D02*
G01X157481D01*
D02*
G01X157875Y300000D01*
X159055Y300393D02*
G01X158662Y300000D01*
X159842Y300393D02*
G01X159055D01*
X160236Y300000D02*
G01X159842Y300393D01*
X160236Y299606D02*
G01Y300000D01*
X158662Y298032D02*
G01X160236Y299606D01*
Y298032D02*
G01X158662D01*
X157087Y298819D02*
G01X157875Y298032D01*
X157481Y298819D02*
G01X156300D01*
X157875Y299213D02*
G01X157481Y298819D01*
X157875Y300000D02*
G01Y299213D01*
G54D11*
X157776Y308268D02*
G01X157765Y308370D01*
X157733Y308468D01*
X157682Y308557D01*
X157613Y308634D01*
X157530Y308694D01*
X157436Y308736D01*
X157335Y308757D01*
X157233D01*
X157132Y308736D01*
X157038Y308694D01*
X156955Y308634D01*
X156886Y308557D01*
X156835Y308468D01*
X156803Y308370D01*
X156792Y308268D01*
X156803Y308166D01*
X156835Y308068D01*
X156886Y307979D01*
X156955Y307902D01*
X157038Y307842D01*
X157132Y307800D01*
X157233Y307779D01*
X157335D01*
X157436Y307800D01*
X157530Y307842D01*
X157613Y307902D01*
X157682Y307979D01*
X157733Y308068D01*
X157765Y308166D01*
X157776Y308268D01*
D03*
G54D17*
X158067Y313779D02*
G01X158658Y314370D01*
Y313189D02*
G01X158067Y313779D01*
X158658Y315550D02*
G01X159838D01*
X156887Y314370D02*
G01Y316731D01*
X155706Y313189D02*
G01X156887Y314370D01*
X154525D02*
G01X155706Y313189D01*
X154525Y316731D02*
G01Y314370D01*
G54D15*
X46493Y239183D02*
G01X44918D01*
D02*
G01X46493Y240758D01*
X45312Y241545D02*
G01X44918Y241151D01*
X43344Y239971D02*
G01X44131Y239183D01*
X43738Y239971D02*
G01X42557D01*
X44131Y240364D02*
G01X43738Y239971D01*
X44131Y241151D02*
G01Y240364D01*
X43738Y241545D02*
G01X44131Y241151D01*
X42557Y241545D02*
G01X43738D01*
X42557Y239183D02*
G01Y241545D01*
X39209Y261821D02*
G01Y264183D01*
X41964D02*
G01X40390D01*
D02*
G01Y263002D01*
X40784Y261821D02*
G01X40390Y262215D01*
X41571Y261821D02*
G01X40784D01*
X41964Y262215D02*
G01X41571Y261821D01*
X41964Y263002D02*
G01Y262215D01*
X41571Y263396D02*
G01X41964Y263002D01*
X41177Y263396D02*
G01X41571D01*
X40390Y263002D02*
G01X41177Y263396D01*
X37242Y269695D02*
G01X36848Y270088D01*
D02*
G01X36061D01*
D02*
G01X35667Y269695D01*
D02*
G01Y268120D01*
D02*
G01X36061Y267727D01*
D02*
G01X36848D01*
D02*
G01X37242Y268120D01*
X37635Y275404D02*
G01X38423Y274617D01*
X38029Y275404D02*
G01X36848D01*
X38423Y275797D02*
G01X38029Y275404D01*
X38423Y276584D02*
G01Y275797D01*
X38029Y276978D02*
G01X38423Y276584D01*
X36848Y276978D02*
G01X38029D01*
X36848Y274617D02*
G01Y276978D01*
X37007Y284558D02*
G01X34646D01*
D02*
G01Y285739D01*
D02*
G01X35040Y286132D01*
D02*
G01X35827D01*
D02*
G01X36220Y285739D01*
D02*
G01Y284558D01*
Y285345D02*
G01X37007Y286132D01*
Y288494D02*
G01Y286919D01*
X34646Y287313D02*
G01X35040Y286919D01*
X34646Y288100D02*
G01Y287313D01*
X35040Y288494D02*
G01X34646Y288100D01*
X35433Y288494D02*
G01X35040D01*
X37007Y286919D02*
G01X35433Y288494D01*
X36614Y290855D02*
G01X37007Y290462D01*
D02*
G01Y289674D01*
D02*
G01X36614Y289281D01*
X36220Y290855D02*
G01X36614D01*
X35827Y290462D02*
G01X36220Y290855D01*
X35827Y290068D02*
G01Y290462D01*
D02*
G01Y290068D01*
X35433Y290855D02*
G01X35827Y290462D01*
X35040Y290855D02*
G01X35433D01*
X34646Y290462D02*
G01X35040Y290855D01*
X34646Y289674D02*
G01Y290462D01*
X35040Y289281D02*
G01X34646Y289674D01*
X154724Y197381D02*
G01X154331Y197775D01*
X155905D02*
G01X155512Y197381D01*
X155905Y195413D02*
G01Y197775D01*
X156299Y195413D02*
G01X155905D01*
X155512D02*
G01X156299D01*
X154331D02*
G01X154724Y195807D01*
X153544Y195413D02*
G01X154331D01*
Y197775D02*
G01X153544D01*
X160136Y204535D02*
G01Y210047D01*
X156299Y199803D02*
G01Y211614D01*
G54D12*
X158071Y242165D03*
G54D15*
X157875Y217323D02*
G01X157481Y217716D01*
D02*
G01X156694D01*
D02*
G01X156300Y217323D01*
D02*
G01Y215748D01*
D02*
G01X156694Y215355D01*
D02*
G01X157481D01*
D02*
G01X157875Y215748D01*
X159842Y215355D02*
G01Y217716D01*
D02*
G01X158662Y216535D01*
D02*
G01X160236D01*
X144882Y211221D02*
G01X150394D01*
X144882Y200197D02*
G01X150394D01*
X146850Y155905D02*
G01X152362D01*
X146850Y166929D02*
G01X152362D01*
G54D17*
X147441Y314960D02*
G01X149802D01*
G54D15*
X150394Y200197D02*
G01Y211221D01*
X150787Y199803D02*
G01Y211614D01*
X152362Y155905D02*
G01Y166929D01*
G54D17*
X150787Y238583D02*
G01X152362D01*
X150787Y237008D02*
G01Y238583D01*
Y225984D02*
G01Y227559D01*
Y225984D02*
G01X152362D01*
G54D15*
X150806Y154363D02*
G01X150406Y153976D01*
X150768Y152002D02*
G01X150806Y154363D01*
X151161Y151996D02*
G01X150768Y152002D01*
X150374Y152008D02*
G01X151161Y151996D01*
G54D10*
X141732Y105905D02*
G01Y237795D01*
G54D12*
X143504Y293268D03*
G54D15*
X144095Y296457D02*
G01Y301969D01*
X143701Y296457D02*
G01Y301969D01*
G54D17*
X148622Y316141D02*
G01Y313779D01*
G54D15*
X146850Y155905D02*
G01Y166929D01*
X148813Y152821D02*
G01X149587Y152021D01*
X149206Y152814D02*
G01X148026Y152834D01*
X149606Y153202D02*
G01X149206Y152814D01*
X149619Y153989D02*
G01X149606Y153202D01*
X149232Y154389D02*
G01X149619Y153989D01*
X148051Y154408D02*
G01X149232Y154389D01*
X148013Y152047D02*
G01X148051Y154408D01*
X144882Y200197D02*
G01Y211221D01*
X145375Y195329D02*
G01Y197691D01*
D02*
G01X146555D01*
X146162Y196116D02*
G01X146949Y195329D01*
X146555Y196116D02*
G01X145375D01*
X146949Y196510D02*
G01X146555Y196116D01*
X146949Y197297D02*
G01Y196510D01*
X146555Y197691D02*
G01X146949Y197297D01*
X148917Y197691D02*
G01X149310Y197297D01*
X148130Y195329D02*
G01X147736Y195723D01*
X148917Y195329D02*
G01X148130D01*
X149310Y195723D02*
G01X148917Y195329D01*
X149310Y196116D02*
G01Y195723D01*
X148917Y196510D02*
G01X149310Y196116D01*
X148523Y196510D02*
G01X148917D01*
D02*
G01X148523D01*
X149310Y196903D02*
G01X148917Y196510D01*
X149310Y197297D02*
G01Y196903D01*
X148130Y197691D02*
G01X148917D01*
X147736Y197297D02*
G01X148130Y197691D01*
X95418Y244972D02*
G01X95025Y244579D01*
X96205Y244972D02*
G01X95418D01*
X93450Y243398D02*
G01X94238Y242611D01*
X93844Y243398D02*
G01X92663D01*
X94238Y243791D02*
G01X93844Y243398D01*
X94238Y244579D02*
G01Y243791D01*
X93844Y244972D02*
G01X94238Y244579D01*
X92663Y244972D02*
G01X93844D01*
X92663Y242611D02*
G01Y244972D01*
X90502Y249738D02*
G01X90896Y250132D01*
X94045D02*
G01Y249738D01*
X92077D02*
G01X91683Y250132D01*
X92864Y249738D02*
G01X92077D01*
X93257Y250132D02*
G01X92864Y249738D01*
X93257Y250525D02*
G01Y250132D01*
X89715Y249738D02*
G01X90502D01*
X89322Y250132D02*
G01X89715Y249738D01*
X123031Y284252D02*
G01Y283858D01*
D02*
G01X122637Y283465D01*
D02*
G01X122244D01*
D02*
G01X122637D01*
Y270473D02*
G01Y272834D01*
Y282284D02*
G01X121850D01*
X123031Y282677D02*
G01X122637Y282284D01*
X123031Y283071D02*
G01Y282677D01*
X122637Y283465D02*
G01X123031Y283071D01*
X121850Y284645D02*
G01X122637D01*
D02*
G01X123031Y284252D01*
X124409Y294489D02*
G01X124015Y294882D01*
D02*
G01Y296456D01*
X125196Y294489D02*
G01X124409D01*
X125590Y294882D02*
G01X125196Y294489D01*
X125590Y296456D02*
G01Y294882D01*
X125196Y296850D02*
G01X125590Y296456D01*
X124409Y296850D02*
G01X125196D01*
X124015Y296456D02*
G01X124409Y296850D01*
X122835Y294489D02*
G01Y296850D01*
X125985Y298032D02*
G01X126379Y298426D01*
X125198Y298032D02*
G01X125985D01*
X124804Y298426D02*
G01X125198Y298032D01*
G54D12*
X118307Y257283D02*
G01Y270276D01*
X117894D02*
G01X118307D01*
X117894Y257283D02*
G01X118307D01*
X117894Y273819D02*
G01X118307D01*
G54D15*
X120276Y270473D02*
G01X120669Y270866D01*
X119882Y271260D02*
G01X120669Y270473D01*
X119489D02*
G01X120276D01*
X119095Y270866D02*
G01X119489Y270473D01*
X119095Y272441D02*
G01Y270866D01*
X119489Y272834D02*
G01X119095Y272441D01*
X120276Y272834D02*
G01X119489D01*
X120669Y272441D02*
G01X120276Y272834D01*
X120669Y270866D02*
G01Y272441D01*
G54D12*
X118307Y273819D02*
G01Y286811D01*
X117894D02*
G01X118307D01*
G54D15*
X120669Y282677D02*
G01Y284252D01*
X120276Y282284D02*
G01X120669Y282677D01*
X119882Y283071D02*
G01X120669Y282284D01*
X119489D02*
G01X120276D01*
X119095Y282677D02*
G01X119489Y282284D01*
X119095Y284252D02*
G01Y282677D01*
X119489Y284645D02*
G01X119095Y284252D01*
X120276Y284645D02*
G01X119489D01*
X120669Y284252D02*
G01X120276Y284645D01*
X208385Y287900D02*
G01X207992Y288294D01*
D02*
G01X207205D01*
D02*
G01X206811Y287900D01*
X209566Y288294D02*
G01X209172Y287900D01*
G54D16*
X184118Y287503D02*
G01X195929D01*
G54D15*
X212715Y287900D02*
G01Y287507D01*
X212321Y288294D02*
G01X212715Y287900D01*
X211534Y288294D02*
G01X212321D01*
X211140Y287900D02*
G01X211534Y288294D01*
G54D12*
X199866Y290806D02*
G01X199857Y290888D01*
X199832Y290966D01*
X199791Y291038D01*
X199736Y291099D01*
X199669Y291147D01*
X199594Y291181D01*
X199513Y291198D01*
X199431D01*
X199350Y291181D01*
X199275Y291147D01*
X199208Y291099D01*
X199153Y291038D01*
X199112Y290966D01*
X199087Y290888D01*
X199078Y290806D01*
X199087Y290724D01*
X199112Y290646D01*
X199153Y290575D01*
X199208Y290513D01*
X199275Y290465D01*
X199350Y290431D01*
X199431Y290414D01*
X199513D01*
X199594Y290431D01*
X199669Y290465D01*
X199736Y290513D01*
X199791Y290574D01*
X199832Y290646D01*
X199857Y290724D01*
X199866Y290806D01*
D03*
G54D15*
X203953Y291298D02*
G01Y292873D01*
D02*
G01X203559Y293266D01*
D02*
G01X202772D01*
D02*
G01X202378Y292873D01*
D02*
G01Y291298D01*
X205133Y293266D02*
G01X204740Y292873D01*
X205133Y290905D02*
G01Y293266D01*
X205527Y290905D02*
G01X205133D01*
X204740D02*
G01X205527D01*
X203559D02*
G01X203953Y291298D01*
X203166Y291692D02*
G01X203953Y290905D01*
X202772D02*
G01X203559D01*
X202378Y291298D02*
G01X202772Y290905D01*
X198246Y331204D02*
G01Y331598D01*
D02*
G01X197853Y331991D01*
X199427D02*
G01X199033Y331598D01*
X200214Y331991D02*
G01X199427D01*
X200608Y331598D02*
G01X200214Y331991D01*
X200608Y331204D02*
G01Y331598D01*
X199033Y329630D02*
G01X200608Y331204D01*
Y329630D02*
G01X199033D01*
G54D12*
X201938Y328665D02*
G01X215914D01*
G54D15*
X410301Y253543D02*
G01Y251969D01*
D02*
G01X410695Y251575D01*
D02*
G01X411482D01*
D02*
G01X411876Y251969D01*
X410695Y253937D02*
G01X410301Y253543D01*
X411482Y253937D02*
G01X410695D01*
X411876Y253543D02*
G01X411482Y253937D01*
G54D10*
X402639Y334646D03*
G54D15*
X402560Y337796D02*
G01Y340157D01*
D02*
G01X403347Y339370D01*
D02*
G01X404135Y340157D01*
D02*
G01Y337796D01*
X406103Y340157D02*
G01X405315D01*
X407283D02*
G01Y337796D01*
X406496Y339763D02*
G01X406103Y340157D01*
X406496Y338189D02*
G01Y339763D01*
X406103Y337796D02*
G01X406496Y338189D01*
X405315Y337796D02*
G01X406103D01*
X404922Y338189D02*
G01X405315Y337796D01*
X404922Y339763D02*
G01Y338189D01*
X405315Y340157D02*
G01X404922Y339763D01*
X407283Y337796D02*
G01X408464D01*
Y340157D02*
G01X407283D01*
X408464Y337796D02*
G01X408857Y338189D01*
D02*
G01Y339763D01*
D02*
G01X408464Y340157D01*
X409645Y337796D02*
G01X410432D01*
D02*
G01X410038D01*
D02*
G01Y340157D01*
D02*
G01X409645Y339763D01*
X390551Y167126D02*
G01X390157Y167520D01*
D02*
G01Y167913D01*
D02*
G01X390551Y168307D01*
D02*
G01X390157Y168701D01*
D02*
G01Y169094D01*
D02*
G01X390551Y169488D01*
X390872Y216518D02*
G01X390478Y216911D01*
X391338Y167126D02*
G01X390551D01*
Y168307D02*
G01X391338D01*
X390551Y169488D02*
G01X391338D01*
X390478Y214550D02*
G01X390872Y214943D01*
X391732Y167913D02*
G01Y167520D01*
D02*
G01X391338Y167126D01*
Y168307D02*
G01X391732Y167913D01*
Y168701D02*
G01X391338Y168307D01*
X391732Y169094D02*
G01Y168701D01*
X391338Y169488D02*
G01X391732Y169094D01*
X391659Y216911D02*
G01Y215730D01*
G54D12*
X324614Y163386D02*
G01Y165354D01*
G54D15*
X323900Y175094D02*
G01X324294Y174700D01*
D02*
G01X325081D01*
D02*
G01X325474Y175094D01*
X323900Y176668D02*
G01Y175094D01*
X324294Y177061D02*
G01X323900Y176668D01*
X325081Y177061D02*
G01X324294D01*
X325474Y176668D02*
G01X325081Y177061D01*
G54D10*
X324606Y181640D02*
G01Y211167D01*
X322047Y182230D02*
G01Y210577D01*
G54D12*
X315945Y110236D02*
G01Y111417D01*
G54D15*
X316012Y219018D02*
G01X314437D01*
D02*
G01X316012Y220592D01*
D02*
G01Y220985D01*
D02*
G01X315618Y221379D01*
D02*
G01X314831D01*
D02*
G01X314437Y220985D01*
X316799Y219411D02*
G01Y220985D01*
X317192Y219018D02*
G01X316799Y219411D01*
Y220985D02*
G01X317192Y221379D01*
X317979Y219018D02*
G01X317192D01*
X318373Y219411D02*
G01X317979Y219018D01*
X318373Y220985D02*
G01Y219411D01*
X317979Y221379D02*
G01X318373Y220985D01*
X317192Y221379D02*
G01X317979D01*
X318997Y224414D02*
G01X319391Y224020D01*
X318997Y225988D02*
G01Y224414D01*
X319391Y226382D02*
G01X318997Y225988D01*
X325295Y209909D02*
G01Y221720D01*
X322933Y224414D02*
G01X322539Y224020D01*
D02*
G01X321752D01*
D02*
G01X321358Y224414D01*
X325294Y224020D02*
G01X323720D01*
X320178D02*
G01X320571Y224414D01*
X322933Y225201D02*
G01Y224414D01*
X323720Y224020D02*
G01X325294Y225595D01*
X322539D02*
G01X322933Y225201D01*
X321358D02*
G01X322146Y225595D01*
X321358Y226382D02*
G01Y225201D01*
X325294Y225595D02*
G01Y225988D01*
D02*
G01X324901Y226382D01*
D02*
G01X324113D01*
D02*
G01X323720Y225988D01*
X322146Y225595D02*
G01X322539D01*
X322933Y226382D02*
G01X321358D01*
X320571Y225988D02*
G01X320178Y226382D01*
X218898Y224902D02*
G01X230709D01*
X223750Y228248D02*
G01X222963D01*
Y225886D02*
G01X223750D01*
X224143Y227854D02*
G01X223750Y228248D01*
Y225886D02*
G01X224143Y226280D01*
X226505Y228248D02*
G01X224931D01*
D02*
G01Y227067D01*
D02*
G01X225718Y227461D01*
D02*
G01X226111D01*
X225324Y225886D02*
G01X224931Y226280D01*
X226111Y225886D02*
G01X225324D01*
X226505Y226280D02*
G01X226111Y225886D01*
X226505Y227067D02*
G01Y226280D01*
X226111Y227461D02*
G01X226505Y227067D01*
X228866Y226280D02*
G01X228473Y225886D01*
D02*
G01X227686D01*
D02*
G01X227292Y226280D01*
X228866Y226673D02*
G01Y226280D01*
X228473Y227067D02*
G01X228866Y226673D01*
X228079Y227067D02*
G01X228473D01*
D02*
G01X228079D01*
X228866Y227461D02*
G01X228473Y227067D01*
X228866Y227854D02*
G01Y227461D01*
X228473Y228248D02*
G01X228866Y227854D01*
X227686Y228248D02*
G01X228473D01*
X227292Y227854D02*
G01X227686Y228248D01*
X222569Y226280D02*
G01X222963Y225886D01*
X222569Y227854D02*
G01Y226280D01*
X222963Y228248D02*
G01X222569Y227854D01*
X218085Y245986D02*
G01X217691Y246380D01*
Y244018D02*
G01X218085Y244412D01*
X218872Y245986D02*
G01X219266Y246380D01*
D02*
G01X220053D01*
X219266Y244018D02*
G01X218872Y244412D01*
X220053Y244018D02*
G01X219266D01*
X220446Y244412D02*
G01X220053Y244018D01*
X220446Y244806D02*
G01Y244412D01*
X220053Y245199D02*
G01X220446Y244806D01*
X219659Y245199D02*
G01X220053D01*
D02*
G01X219659D01*
X220446Y245593D02*
G01X220053Y245199D01*
X220446Y245986D02*
G01Y245593D01*
X220053Y246380D02*
G01X220446Y245986D01*
X218898Y219390D02*
G01X230709D01*
X218406Y153268D02*
G01X229429D01*
X218406Y158780D02*
G01X229429D01*
X223549Y177378D02*
G01X222762D01*
Y175016D02*
G01X223549D01*
X168307Y154252D02*
G01X169094D01*
D02*
G01X168701D01*
D02*
G01Y156614D01*
D02*
G01X168307Y156220D01*
X170275D02*
G01X170669Y156614D01*
D02*
G01X171456D01*
Y155433D02*
G01X171062D01*
D02*
G01X171456D01*
X169823Y148819D02*
G01X170216D01*
D02*
G01Y146851D01*
D02*
G01X169823Y146457D01*
D02*
G01X169429D01*
D02*
G01X169036Y146851D01*
X170610Y148819D02*
G01X169823D01*
X170669Y154252D02*
G01X170275Y154646D01*
X171456Y154252D02*
G01X170669D01*
X168110Y169291D02*
G01Y180315D01*
X171260Y182017D02*
G01X171653Y181623D01*
X171260Y182804D02*
G01Y182017D01*
X169685Y182410D02*
G01X170473Y181623D01*
X170079Y182410D02*
G01X168898D01*
X170473Y182804D02*
G01X170079Y182410D01*
X170473Y183591D02*
G01Y182804D01*
X170079Y183985D02*
G01X170473Y183591D01*
X168898Y183985D02*
G01X170079D01*
X168898Y181623D02*
G01Y183985D01*
X229429Y153268D02*
G01Y158780D01*
X223327Y149483D02*
G01X224114D01*
D02*
G01X223721D01*
D02*
G01Y151844D01*
D02*
G01X223327Y151451D01*
X225295Y150664D02*
G01X226869D01*
X226476Y151844D02*
G01X225295Y150664D01*
X226476Y149483D02*
G01Y151844D01*
X229028Y169095D02*
G01Y180905D01*
X225795Y213916D02*
G01Y219427D01*
X225517Y176590D02*
G01X225911D01*
D02*
G01X226304Y176197D01*
D02*
G01Y175410D01*
D02*
G01X225911Y175016D01*
D02*
G01X225123D01*
D02*
G01X224730Y175410D01*
X228272Y175016D02*
G01Y177378D01*
D02*
G01X227091Y176197D01*
D02*
G01X228666D01*
X224730D02*
G01X225517Y176590D01*
X224730Y177378D02*
G01Y176197D01*
X226304Y177378D02*
G01X224730D01*
X223549Y175016D02*
G01X223943Y175410D01*
Y176984D02*
G01X223549Y177378D01*
G54D12*
X217431Y211843D02*
G01X219400D01*
X217431Y209874D02*
G01Y211843D01*
Y188221D02*
G01X219400D01*
X217431D02*
G01Y190189D01*
G54D15*
X218406Y153268D02*
G01Y158780D01*
X217824Y177394D02*
G01X217431D01*
D02*
G01X217824D01*
D02*
G01X218218Y177000D01*
D02*
G01Y176607D01*
D02*
G01X217824Y176213D01*
X218218Y177787D02*
G01X217824Y177394D01*
X218218Y178181D02*
G01Y177787D01*
X217824Y178575D02*
G01X218218Y178181D01*
X220975Y179953D02*
G01Y185465D01*
X220966Y149483D02*
G01Y151844D01*
X222368Y175410D02*
G01X222762Y175016D01*
X222368Y176984D02*
G01Y175410D01*
X222762Y177378D02*
G01X222368Y176984D01*
X221753Y150270D02*
G01X222540Y149483D01*
X222146Y150270D02*
G01X220966D01*
X222540Y150664D02*
G01X222146Y150270D01*
X222540Y151451D02*
G01Y150664D01*
X222146Y151844D02*
G01X222540Y151451D01*
X220966Y151844D02*
G01X222146D01*
X234472Y169726D02*
G01X239984D01*
X234472Y180749D02*
G01X239984D01*
X237447Y165157D02*
G01X236660Y164370D01*
Y163583D02*
G01X237053Y163189D01*
D02*
G01X237840D01*
Y164370D02*
G01X236660D01*
G54D17*
X74867Y312795D02*
G01X72243D01*
D02*
G01X74867Y315419D01*
D02*
G01Y316075D01*
D02*
G01X74211Y316731D01*
D02*
G01X72899D01*
D02*
G01X72243Y316075D01*
G54D15*
X71851Y305512D02*
G01X72245Y305906D01*
D02*
G01Y307480D01*
X73425Y307874D02*
G01X73032Y307480D01*
X73425Y305512D02*
G01Y307874D01*
X73819Y305512D02*
G01X73425D01*
X73032D02*
G01X73819D01*
X72245Y307480D02*
G01X71851Y307874D01*
X75393D02*
G01X76180D01*
D02*
G01X76574Y307480D01*
D02*
G01Y307086D01*
D02*
G01X76180Y306693D01*
D02*
G01X75787D01*
D02*
G01X76180D01*
D02*
G01X76574Y306299D01*
D02*
G01Y305906D01*
D02*
G01X76180Y305512D01*
D02*
G01X75393D01*
D02*
G01X75000Y305906D01*
Y307480D02*
G01X75393Y307874D01*
X200680Y249482D02*
G01X200681Y249088D01*
X202247Y251063D02*
G01X200680Y249482D01*
X202245Y251456D02*
G01X202247Y251063D01*
X200671Y251450D02*
G01X202245Y251456D01*
X199490Y251445D02*
G01X198703Y251441D01*
X199886Y251053D02*
G01X199490Y251445D01*
X199887Y250659D02*
G01X199886Y251053D01*
X206015Y249666D02*
G01X213810Y257460D01*
X202118Y253563D02*
G01X206015Y249666D01*
X198700Y254892D02*
G01Y254499D01*
D02*
G01X199094Y254105D01*
D02*
G01X200274D01*
X199094Y255286D02*
G01X198700Y254892D01*
X199881Y255286D02*
G01X199094D01*
X200274Y254892D02*
G01X199881Y255286D01*
X200274Y253318D02*
G01Y254892D01*
X199881Y252924D02*
G01X200274Y253318D01*
X199094Y252924D02*
G01X199881D01*
X198700Y253318D02*
G01X199094Y252924D01*
G54D12*
X467126Y111417D02*
G01X469488D01*
G54D15*
X468109Y230840D02*
G01X467322Y230446D01*
X467716Y228478D02*
G01X468109Y228872D01*
D02*
G01Y229265D01*
D02*
G01X467716Y229659D01*
X468110Y169488D02*
G01X467323D01*
G54D12*
X469488Y111417D02*
G01X469514Y111171D01*
X469590Y110937D01*
X469714Y110723D01*
X469879Y110539D01*
X470079Y110394D01*
X470304Y110294D01*
X470546Y110242D01*
X470709Y110237D01*
D03*
X470669Y158661D02*
G01Y165354D01*
Y111417D02*
G01Y142756D01*
X470177Y295079D02*
G01Y302264D01*
Y233169D02*
G01Y240354D01*
G54D15*
X468897Y167520D02*
G01X469291Y167126D01*
Y168307D02*
G01X470472D01*
X468897Y168701D02*
G01X469291Y168307D01*
X468897Y169094D02*
G01Y168701D01*
X469291Y169488D02*
G01X468897Y169094D01*
X470078Y169488D02*
G01X469291D01*
X470472Y169094D02*
G01X470078Y169488D01*
X470472Y167520D02*
G01Y169094D01*
X470078Y167126D02*
G01X470472Y167520D01*
X469291Y167126D02*
G01X470078D01*
G54D12*
X467126Y110236D02*
G01Y111417D01*
G54D15*
X466930Y167126D02*
G01X466536Y167520D01*
X467323Y167126D02*
G01X466930D01*
X467717Y167520D02*
G01X467323Y167126D01*
X467717Y169488D02*
G01Y167520D01*
X467323Y169488D02*
G01X467717D01*
G54D11*
X464567Y288386D02*
G01X464556Y288488D01*
X464525Y288586D01*
X464473Y288675D01*
X464404Y288752D01*
X464321Y288812D01*
X464227Y288854D01*
X464126Y288875D01*
X464024D01*
X463923Y288854D01*
X463829Y288812D01*
X463746Y288752D01*
X463677Y288675D01*
X463626Y288586D01*
X463594Y288488D01*
X463583Y288386D01*
X463594Y288284D01*
X463626Y288186D01*
X463677Y288097D01*
X463746Y288020D01*
X463829Y287960D01*
X463923Y287918D01*
X464024Y287897D01*
X464126D01*
X464227Y287918D01*
X464321Y287960D01*
X464404Y288020D01*
X464473Y288097D01*
X464525Y288186D01*
X464556Y288284D01*
X464567Y288386D01*
D03*
G54D15*
Y228478D02*
G01X465354D01*
X464961Y230840D02*
G01X464567Y230446D01*
X464764Y209055D02*
G01X464370D01*
D02*
G01Y211417D01*
D02*
G01X463977Y211023D01*
Y209055D02*
G01X464764D01*
X465354Y228478D02*
G01X464961D01*
D02*
G01Y230840D01*
X467322Y230446D02*
G01X466535Y229659D01*
D02*
G01Y228872D01*
D02*
G01X466929Y228478D01*
D02*
G01X467716D01*
Y229659D02*
G01X466535D01*
X467519Y211417D02*
G01X465944D01*
D02*
G01Y210236D01*
D02*
G01X466732Y210630D01*
D02*
G01X467125D01*
D02*
G01X467519Y210236D01*
D02*
G01Y209449D01*
D02*
G01X467125Y209055D01*
D02*
G01X466338D01*
D02*
G01X465944Y209449D01*
X436245Y193963D02*
G01X436638Y194356D01*
D02*
G01X437425D01*
Y191995D02*
G01X436638D01*
D02*
G01X436245Y192388D01*
D02*
G01Y192782D01*
D02*
G01X436638Y193176D01*
D02*
G01X436245Y193569D01*
X437205Y175000D02*
G01X437599Y175394D01*
D02*
G01Y176968D01*
D02*
G01X437205Y177362D01*
D02*
G01X436024D01*
Y175000D02*
G01X437205D01*
X436024Y177362D02*
G01Y175000D01*
X436638Y193176D02*
G01X437425D01*
X436245Y193569D02*
G01Y193963D01*
X437007Y213398D02*
G01Y215759D01*
D02*
G01X435827Y214579D01*
X437402Y231889D02*
G01X436221D01*
Y229528D02*
G01X437402D01*
X436221Y231889D02*
G01Y229528D01*
X435827Y214579D02*
G01X437401D01*
X437008Y209580D02*
G01X436615Y209974D01*
X437008Y208006D02*
G01Y209580D01*
X436615Y207612D02*
G01X437008Y208006D01*
X450984Y175000D02*
G01X451378Y175394D01*
D02*
G01Y176968D01*
D02*
G01X450984Y177362D01*
D02*
G01X449804D01*
X452165D02*
G01X453740D01*
D02*
G01Y176968D01*
D02*
G01X452165Y175394D01*
D02*
G01Y175000D01*
X449804D02*
G01X450984D01*
X449804Y177362D02*
G01Y175000D01*
G54D10*
X449370Y200702D02*
G01X449367Y200732D01*
X449358Y200760D01*
X449343Y200785D01*
X449323Y200808D01*
X449299Y200825D01*
X449272Y200837D01*
X449243Y200843D01*
X449213D01*
X449184Y200837D01*
X449157Y200825D01*
X449133Y200808D01*
X449113Y200786D01*
X449098Y200760D01*
X449089Y200732D01*
X449086Y200702D01*
X449089Y200673D01*
X449098Y200644D01*
X449113Y200619D01*
X449133Y200597D01*
X449157Y200579D01*
X449184Y200567D01*
X449213Y200561D01*
X449243D01*
X449272Y200567D01*
X449299Y200579D01*
X449323Y200596D01*
X449343Y200619D01*
X449358Y200644D01*
X449367Y200672D01*
X449370Y200702D01*
D03*
G54D15*
X446653Y193569D02*
G01Y193963D01*
X447440Y192388D02*
G01X447834Y191995D01*
D02*
G01X448621D01*
D02*
G01X449015Y192388D01*
X447834Y193176D02*
G01X449015D01*
X447440Y193569D02*
G01X447834Y193176D01*
X447440Y193963D02*
G01Y193569D01*
X447834Y194356D02*
G01X447440Y193963D01*
X448621Y194356D02*
G01X447834D01*
X449015Y193963D02*
G01X448621Y194356D01*
X449015Y192388D02*
G01Y193963D01*
X439960Y177362D02*
G01X439173Y176968D01*
D02*
G01X438386Y176181D01*
X439566D02*
G01X438386D01*
X439960Y175787D02*
G01X439566Y176181D01*
X439960Y175394D02*
G01Y175787D01*
X439566Y175000D02*
G01X439960Y175394D01*
X438779Y175000D02*
G01X439566D01*
X438386Y175394D02*
G01X438779Y175000D01*
X438386Y176181D02*
G01Y175394D01*
X445473Y194356D02*
G01X445079Y193963D01*
X443505Y192782D02*
G01X444292Y191995D01*
X443898Y192782D02*
G01X442718D01*
X444292Y193176D02*
G01X443898Y192782D01*
X444292Y193963D02*
G01Y193176D01*
X443898Y194356D02*
G01X444292Y193963D01*
X442718Y194356D02*
G01X443898D01*
X442718Y191995D02*
G01Y194356D01*
G54D10*
X449370Y221568D02*
G01X449367Y221598D01*
X449358Y221626D01*
X449343Y221651D01*
X449323Y221674D01*
X449299Y221691D01*
X449272Y221703D01*
X449243Y221709D01*
X449213D01*
X449184Y221703D01*
X449157Y221691D01*
X449133Y221674D01*
X449113Y221651D01*
X449098Y221626D01*
X449089Y221598D01*
X449086Y221568D01*
X449089Y221538D01*
X449098Y221510D01*
X449113Y221485D01*
X449133Y221462D01*
X449157Y221445D01*
X449184Y221433D01*
X449213Y221427D01*
X449243D01*
X449272Y221433D01*
X449299Y221445D01*
X449323Y221462D01*
X449343Y221485D01*
X449358Y221510D01*
X449367Y221538D01*
X449370Y221568D01*
D03*
X452559Y227100D02*
G01X454134D01*
X447441Y229659D02*
G01Y232218D01*
G54D15*
X438976Y230709D02*
G01X440157D01*
X438583Y231102D02*
G01X438976Y230709D01*
X438583Y231496D02*
G01Y231102D01*
X438976Y231889D02*
G01X438583Y231496D01*
X439763Y231889D02*
G01X438976D01*
X440157Y231496D02*
G01X439763Y231889D01*
X440157Y229922D02*
G01Y231496D01*
X439763Y229528D02*
G01X440157Y229922D01*
X438976Y229528D02*
G01X439763D01*
X438583Y229922D02*
G01X438976Y229528D01*
X441839Y213019D02*
G01Y215380D01*
D02*
G01X443020D01*
D02*
G01X443414Y214987D01*
D02*
G01Y214200D01*
D02*
G01X443020Y213806D01*
D02*
G01X441839D01*
X442626D02*
G01X443414Y213019D01*
X440944Y207612D02*
G01Y209974D01*
D02*
G01X439763Y208793D01*
D02*
G01X441338D01*
X444201Y214987D02*
G01X444594Y215380D01*
D02*
G01X445381D01*
D02*
G01X445775Y214987D01*
X444988Y214200D02*
G01X445381D01*
D02*
G01X445775Y213806D01*
D02*
G01Y213412D01*
D02*
G01X445381Y213019D01*
D02*
G01X444594D01*
D02*
G01X444201Y213412D01*
X445381Y214200D02*
G01X444988D01*
X445775Y214593D02*
G01X445381Y214200D01*
X445775Y214987D02*
G01Y214593D01*
G54D10*
X452559Y206234D02*
G01X454134D01*
X447441Y208793D02*
G01Y211352D01*
G54D15*
X446562Y214987D02*
G01X446956Y215380D01*
D02*
G01X447743D01*
D02*
G01X448137Y214987D01*
D02*
G01Y213412D01*
X446562D02*
G01Y214987D01*
X446956Y213019D02*
G01X446562Y213412D01*
X447743Y213019D02*
G01X446956D01*
X448137Y213412D02*
G01X447743Y213019D01*
G36*
X493056Y187574D02*
G01X493660D01*
Y187527D01*
X493986D01*
Y187481D01*
X494218D01*
Y187434D01*
X494405D01*
Y187388D01*
X494591D01*
Y187341D01*
X494730D01*
Y187295D01*
X494870D01*
Y187248D01*
X495009D01*
Y187202D01*
X495149D01*
Y187155D01*
X495241D01*
Y187109D01*
X495381D01*
Y187062D01*
X495474D01*
Y187016D01*
X495567D01*
Y186969D01*
X495660D01*
Y186923D01*
X495753D01*
Y186876D01*
X495846D01*
Y186830D01*
X495939D01*
Y186783D01*
X496032D01*
Y186737D01*
X496078D01*
Y186690D01*
X496172D01*
Y186644D01*
X496265D01*
Y186597D01*
X496311D01*
Y186551D01*
X496404D01*
Y186504D01*
X496451D01*
Y186458D01*
X496544D01*
Y186411D01*
X496590D01*
Y186365D01*
X496683D01*
Y186318D01*
X496730D01*
Y186272D01*
X496776D01*
Y186225D01*
X496823D01*
Y186179D01*
X496915D01*
Y186132D01*
X496962D01*
Y186086D01*
X497009D01*
Y186039D01*
X497055D01*
Y185993D01*
X497101D01*
Y185946D01*
X497148D01*
Y185900D01*
X497241D01*
Y185853D01*
X497288D01*
Y185807D01*
X497334D01*
Y185760D01*
X497380D01*
Y185714D01*
X497427D01*
Y185667D01*
X497473D01*
Y185621D01*
X497520D01*
Y185574D01*
X497567D01*
Y185481D01*
X497613D01*
Y185435D01*
X497659D01*
Y185388D01*
X497706D01*
Y185342D01*
X497753D01*
Y185295D01*
X497799D01*
Y185249D01*
X497846D01*
Y185156D01*
X497892D01*
Y185109D01*
X497938D01*
Y185063D01*
X497985D01*
Y185016D01*
X498032D01*
Y184923D01*
X498078D01*
Y184877D01*
X498125D01*
Y184784D01*
X498171D01*
Y184737D01*
X498217D01*
Y184644D01*
X498264D01*
Y184598D01*
X498311D01*
Y184505D01*
X498357D01*
Y184458D01*
X498404D01*
Y184365D01*
X498450D01*
Y184272D01*
X498496D01*
Y184179D01*
X498543D01*
Y184086D01*
X498590D01*
Y183993D01*
X498636D01*
Y183900D01*
X498682D01*
Y183807D01*
X498729D01*
Y183714D01*
X498775D01*
Y183621D01*
X498822D01*
Y183482D01*
X498869D01*
Y183342D01*
X498915D01*
Y183249D01*
X498961D01*
Y183110D01*
X499008D01*
Y183063D01*
Y183017D01*
Y182924D01*
X499054D01*
Y182784D01*
X499101D01*
Y182552D01*
X499148D01*
Y182319D01*
X499194D01*
Y182040D01*
X499240D01*
Y181575D01*
X499287D01*
Y180738D01*
X499240D01*
Y180273D01*
X499194D01*
Y179948D01*
X499148D01*
Y179715D01*
X499101D01*
Y179529D01*
X499054D01*
Y179390D01*
X499008D01*
Y179204D01*
X498961D01*
Y179064D01*
X498915D01*
Y178925D01*
X498869D01*
Y178832D01*
X498822D01*
Y178692D01*
X498775D01*
Y178599D01*
X498729D01*
Y178506D01*
X498682D01*
Y178367D01*
X498636D01*
Y178274D01*
X498590D01*
Y178181D01*
X498543D01*
Y178134D01*
X498496D01*
Y178041D01*
X498450D01*
Y177948D01*
X498404D01*
Y177855D01*
X498357D01*
Y177809D01*
X498311D01*
Y177716D01*
X498264D01*
Y177623D01*
X498217D01*
Y177576D01*
X498171D01*
Y177483D01*
X498125D01*
Y177437D01*
X498078D01*
Y177390D01*
X498032D01*
Y177297D01*
X497985D01*
Y177251D01*
X497938D01*
Y177204D01*
X497892D01*
Y177111D01*
X497846D01*
Y177065D01*
X497799D01*
Y177018D01*
X497753D01*
Y176972D01*
X497706D01*
Y176925D01*
X497659D01*
Y176832D01*
X497613D01*
Y176786D01*
X497567D01*
Y176739D01*
X497520D01*
Y176693D01*
X497473D01*
Y176646D01*
X497427D01*
Y176600D01*
X497380D01*
Y176553D01*
X497334D01*
Y176507D01*
X497288D01*
Y176460D01*
X497241D01*
Y176414D01*
X497194D01*
Y176367D01*
X497148D01*
Y176321D01*
X497055D01*
Y176274D01*
X497009D01*
Y176228D01*
X496962D01*
Y176181D01*
X496915D01*
Y176135D01*
X496869D01*
Y176088D01*
X496776D01*
Y176042D01*
X496730D01*
Y175995D01*
X496683D01*
Y175949D01*
X496590D01*
Y175902D01*
X496544D01*
Y175856D01*
X496497D01*
Y175809D01*
X496404D01*
Y175763D01*
X496357D01*
Y175716D01*
X496265D01*
Y175670D01*
X496172D01*
Y175623D01*
X496125D01*
Y175577D01*
X496032D01*
Y175530D01*
X495939D01*
Y175484D01*
X495846D01*
Y175437D01*
X495799D01*
Y175391D01*
X495707D01*
Y175344D01*
X495613D01*
Y175298D01*
X495474D01*
Y175251D01*
X495381D01*
Y175205D01*
X495288D01*
Y175158D01*
X495149D01*
Y175112D01*
X495055D01*
Y175065D01*
X494916D01*
Y175019D01*
X494776D01*
Y174972D01*
X494637D01*
Y174926D01*
X494451D01*
Y174879D01*
X494265D01*
Y174833D01*
X494032D01*
Y174786D01*
X493753D01*
Y174740D01*
X493289D01*
Y174693D01*
X492358D01*
Y174740D01*
X491940D01*
Y174786D01*
X491614D01*
Y174833D01*
X491382D01*
Y174879D01*
X491196D01*
Y174926D01*
X491056D01*
Y174972D01*
X490871D01*
Y175019D01*
X490731D01*
Y175065D01*
X490591D01*
Y175112D01*
X490498D01*
Y175158D01*
X490359D01*
Y175205D01*
X490266D01*
Y175251D01*
X490173D01*
Y175298D01*
X490080D01*
Y175344D01*
X489987D01*
Y175391D01*
X489894D01*
Y175437D01*
X489801D01*
Y175484D01*
X489708D01*
Y175530D01*
X489615D01*
Y175577D01*
X489522D01*
Y175623D01*
X489475D01*
Y175670D01*
X489383D01*
Y175716D01*
X489290D01*
Y175763D01*
X489243D01*
Y175809D01*
X489196D01*
Y175856D01*
X489104D01*
Y175902D01*
X489057D01*
Y175949D01*
X488964D01*
Y175995D01*
X488917D01*
Y176042D01*
X488871D01*
Y176088D01*
X488778D01*
Y176135D01*
X488731D01*
Y176181D01*
X488685D01*
Y176228D01*
X488638D01*
Y176274D01*
X488592D01*
Y176321D01*
X488546D01*
Y176367D01*
X488452D01*
Y176414D01*
X488406D01*
Y176460D01*
X488359D01*
Y176507D01*
X488313D01*
Y176553D01*
X488267D01*
Y176600D01*
X488220D01*
Y176646D01*
X488173D01*
Y176693D01*
X488127D01*
Y176739D01*
X488081D01*
Y176786D01*
X488034D01*
Y176879D01*
X487988D01*
Y176925D01*
X487941D01*
Y176972D01*
X487894D01*
Y177018D01*
X487848D01*
Y177065D01*
X487802D01*
Y177111D01*
X487755D01*
Y177204D01*
X487709D01*
Y177251D01*
X487662D01*
Y177297D01*
X487615D01*
Y177390D01*
X487569D01*
Y177437D01*
X487523D01*
Y177530D01*
X487476D01*
Y177576D01*
X487430D01*
Y177669D01*
X487383D01*
Y177716D01*
X487336D01*
Y177809D01*
X487290D01*
Y177855D01*
X487244D01*
Y177948D01*
X487197D01*
Y178041D01*
X487150D01*
Y178134D01*
X487104D01*
Y178227D01*
X487057D01*
Y178320D01*
X487011D01*
Y178413D01*
X486965D01*
Y178506D01*
X486918D01*
Y178599D01*
X486871D01*
Y178692D01*
X486825D01*
Y178832D01*
X486778D01*
Y178971D01*
X486732D01*
Y179064D01*
X486686D01*
Y179250D01*
X486639D01*
Y179390D01*
X486592D01*
Y179576D01*
X486546D01*
Y179762D01*
X486500D01*
Y179994D01*
X486453D01*
Y180320D01*
X486407D01*
Y180831D01*
X486360D01*
Y181482D01*
X486407D01*
Y181994D01*
X486453D01*
Y182319D01*
X486500D01*
Y182552D01*
X486546D01*
Y182738D01*
X486592D01*
Y182924D01*
X486639D01*
Y183063D01*
X486686D01*
Y183203D01*
X486732D01*
Y183342D01*
X486778D01*
Y183482D01*
X486825D01*
Y183575D01*
X486871D01*
Y183714D01*
X486918D01*
Y183807D01*
X486965D01*
Y183900D01*
X487011D01*
Y183993D01*
X487057D01*
Y184086D01*
X487104D01*
Y184179D01*
X487150D01*
Y184272D01*
X487197D01*
Y184365D01*
X487244D01*
Y184412D01*
X487290D01*
Y184505D01*
X487336D01*
Y184598D01*
X487383D01*
Y184644D01*
X487430D01*
Y184737D01*
X487476D01*
Y184784D01*
X487523D01*
Y184877D01*
X487569D01*
Y184923D01*
X487615D01*
Y184970D01*
X487662D01*
Y185063D01*
X487709D01*
Y185109D01*
X487755D01*
Y185156D01*
X487802D01*
Y185249D01*
X487848D01*
Y185295D01*
X487894D01*
Y185342D01*
X487941D01*
Y185388D01*
X487988D01*
Y185435D01*
X488034D01*
Y185481D01*
X488081D01*
Y185528D01*
X488127D01*
Y185621D01*
X488173D01*
Y185667D01*
X488220D01*
Y185714D01*
X488267D01*
Y185760D01*
X488313D01*
Y185807D01*
X488359D01*
Y185853D01*
X488452D01*
Y185900D01*
X488499D01*
Y185946D01*
X488546D01*
Y185993D01*
X488592D01*
Y186039D01*
X488638D01*
Y186086D01*
X488685D01*
Y186132D01*
X488731D01*
Y186179D01*
X488825D01*
Y186225D01*
X488871D01*
Y186272D01*
X488917D01*
Y186318D01*
X489010D01*
Y186365D01*
X489057D01*
Y186411D01*
X489104D01*
Y186458D01*
X489196D01*
Y186504D01*
X489243D01*
Y186551D01*
X489336D01*
Y186597D01*
X489383D01*
Y186644D01*
X489475D01*
Y186690D01*
X489569D01*
Y186737D01*
X489615D01*
Y186783D01*
X489708D01*
Y186830D01*
X489801D01*
Y186876D01*
X489894D01*
Y186923D01*
X489987D01*
Y186969D01*
X490080D01*
Y187016D01*
X490173D01*
Y187062D01*
X490266D01*
Y187109D01*
X490406D01*
Y187155D01*
X490498D01*
Y187202D01*
X490638D01*
Y187248D01*
X490777D01*
Y187295D01*
X490917D01*
Y187341D01*
X491056D01*
Y187388D01*
X491243D01*
Y187434D01*
X491429D01*
Y187481D01*
X491708D01*
Y187527D01*
X491987D01*
Y187574D01*
X492591D01*
Y187620D01*
X493056D01*
Y187574D01*
G37*
G54D10*
X494249Y144456D02*
G01X492250D01*
Y148455D02*
G01X494249D01*
D02*
G01X495249Y147455D01*
Y146455D02*
G01X491250D01*
Y140856D02*
G01X494249D01*
D02*
G01X495249Y139857D01*
Y137857D02*
G01X494249Y136858D01*
D02*
G01X491250D01*
G54D15*
X206087Y329988D02*
G01X206874Y330004D01*
D02*
G01X206480Y329996D01*
D02*
G01X206434Y332357D01*
D02*
G01X206048Y331956D01*
X208447Y333685D02*
G01Y336047D01*
X206479Y333685D02*
G01X206085Y334079D01*
X206872Y333685D02*
G01X206479D01*
X207266Y334079D02*
G01X206872Y333685D01*
X207266Y336047D02*
G01Y334079D01*
X206872Y336047D02*
G01X207266D01*
X207660D02*
G01X206872D01*
X208447D02*
G01X209627D01*
D02*
G01X210021Y335653D01*
Y334866D02*
G01X209627Y334472D01*
D02*
G01X208447D01*
G54D10*
X268742Y334646D03*
G54D12*
X224007Y342717D02*
G01X236605D01*
G54D15*
X213129Y329982D02*
G01X211555Y330010D01*
D02*
G01X213157Y331557D01*
D02*
G01X213163Y331950D01*
D02*
G01X212776Y332350D01*
X210021Y335653D02*
G01Y334866D01*
X211989Y333685D02*
G01Y336047D01*
D02*
G01X210808Y334866D01*
D02*
G01X212382D01*
X211989Y332364D02*
G01X211589Y331977D01*
X212776Y332350D02*
G01X211989Y332364D01*
X170079Y299212D02*
G01Y296851D01*
D02*
G01X171653D01*
X172441D02*
G01X173228D01*
D02*
G01X172834D01*
D02*
G01Y299212D01*
D02*
G01X172441Y298819D01*
G54D16*
X184118Y301786D02*
G01X195929D01*
G54D15*
X205617Y299534D02*
G01X205999Y299130D01*
D02*
G01X206786Y299108D01*
D02*
G01X207190Y299490D01*
D02*
G01X207235Y301064D01*
D02*
G01X206852Y301468D01*
X206032Y300310D02*
G01X207212Y300277D01*
X205650Y300714D02*
G01X206032Y300310D01*
X205661Y301108D02*
G01X205650Y300714D01*
X206065Y301490D02*
G01X205661Y301108D01*
X206852Y301468D02*
G01X206065Y301490D01*
X210322Y299324D02*
G01X210320Y301685D01*
D02*
G01X209927Y301291D01*
X211895Y301293D02*
G01X212288Y301687D01*
D02*
G01X213075Y301688D01*
D02*
G01X213469Y301295D01*
D02*
G01X213471Y299720D01*
D02*
G01X213077Y299326D01*
D02*
G01X212290D01*
D02*
G01X211896Y299719D01*
D02*
G01X211895Y301293D01*
X210716Y299324D02*
G01X210322D01*
X209929Y299323D02*
G01X210716Y299324D01*
G54D12*
X460630Y232283D02*
G01Y303150D01*
G54D15*
X462796Y209055D02*
G01X463189Y209449D01*
D02*
G01Y211023D01*
D02*
G01X462796Y211417D01*
D02*
G01X461615D01*
Y209055D02*
G01X462796D01*
X461615Y211417D02*
G01Y209055D01*
X463386Y230840D02*
G01X462206D01*
X463780Y230446D02*
G01X463386Y230840D01*
X463780Y228872D02*
G01Y230446D01*
X463386Y228478D02*
G01X463780Y228872D01*
X462206Y228478D02*
G01X463386D01*
X462206Y230840D02*
G01Y228478D01*
X455906Y276769D02*
G01Y277556D01*
Y279130D02*
G01X456299Y278737D01*
X455512Y281492D02*
G01X455906D01*
D02*
G01Y281098D01*
D02*
G01Y281885D01*
D02*
G01Y281492D01*
Y283460D02*
G01Y284640D01*
X456299Y283066D02*
G01X455906Y283460D01*
Y280311D02*
G01Y279130D01*
Y277556D02*
G01X456299Y277950D01*
Y273620D02*
G01X457480D01*
X456299Y278737D02*
G01X457086D01*
X455906Y281492D02*
G01X457086D01*
X456693Y283460D02*
G01X456299Y283066D01*
X456693Y284247D02*
G01Y283460D01*
X457086Y284640D02*
G01X456693Y284247D01*
Y276769D02*
G01Y277950D01*
X457086Y276375D02*
G01X456693Y276769D01*
X456299Y277950D02*
G01X457480D01*
X455906Y274801D02*
G01X457086D01*
X457480Y270865D02*
G01X457086Y271259D01*
Y278737D02*
G01X457480Y279130D01*
D02*
G01Y280311D01*
X457086Y281492D02*
G01X457480Y281885D01*
Y283066D02*
G01Y284247D01*
D02*
G01X457086Y284640D01*
X457480Y276769D02*
G01X457086Y276375D01*
X457480Y277950D02*
G01Y276769D01*
X457086Y274801D02*
G01X457480Y275195D01*
X455906Y252367D02*
G01Y251187D01*
D02*
G01X456299Y250793D01*
Y254729D02*
G01X455906Y254335D01*
D02*
G01Y253548D01*
D02*
G01X456299Y253154D01*
X455906Y255516D02*
G01Y256697D01*
D02*
G01X456299Y257090D01*
X455906Y257877D02*
G01Y259058D01*
Y263387D02*
G01Y263781D01*
X456299Y262994D02*
G01X455906Y263387D01*
Y261420D02*
G01X456299Y261813D01*
X455906Y260632D02*
G01Y261420D01*
X456299Y260239D02*
G01X455906Y260632D01*
Y259058D02*
G01X456299Y259452D01*
X455906Y267717D02*
G01X456299Y267323D01*
X455906Y270078D02*
G01X456299Y269685D01*
X455906Y272046D02*
G01Y273227D01*
D02*
G01X456299Y273620D01*
X455512Y274801D02*
G01X455906D01*
D02*
G01Y274408D01*
D02*
G01Y275195D01*
D02*
G01Y274801D01*
Y270865D02*
G01Y270078D01*
X456299Y271259D02*
G01X455906Y270865D01*
Y268897D02*
G01Y267717D01*
X457086Y260239D02*
G01X456299D01*
Y259452D02*
G01X457086D01*
X458267Y257877D02*
G01X455906D01*
X456299Y257090D02*
G01X457086D01*
X458267Y255516D02*
G01X455906D01*
X456299Y253154D02*
G01X457086D01*
Y254729D02*
G01X456299D01*
Y250793D02*
G01X457086D01*
X456693Y261813D02*
G01Y260239D01*
X455906Y262600D02*
G01X457480D01*
D02*
G01X456693D01*
D02*
G01X456299Y262994D01*
Y267323D02*
G01X457086D01*
Y271259D02*
G01X456299D01*
Y269685D02*
G01X457086D01*
X457480Y272046D02*
G01X455906D01*
X456299Y261813D02*
G01X456693D01*
X39210Y274617D02*
G01X39997D01*
D02*
G01X39603D01*
D02*
G01Y276978D01*
D02*
G01X39210Y276584D01*
X41178Y276978D02*
G01Y275797D01*
X41571Y274617D02*
G01X41178Y275010D01*
X39013Y279144D02*
G01Y290167D01*
Y279144D02*
G01X44524D01*
X42752Y276978D02*
G01X41178D01*
X42358Y274617D02*
G01X41571D01*
X41965Y276191D02*
G01X42358D01*
X41178Y275797D02*
G01X41965Y276191D01*
X39013Y290167D02*
G01X44524D01*
X43146Y272254D02*
G01Y277766D01*
X42752Y275010D02*
G01X42358Y274617D01*
X42752Y275797D02*
G01Y275010D01*
X42358Y276191D02*
G01X42752Y275797D01*
X44526Y291152D02*
G01Y293513D01*
X44524Y279144D02*
G01Y290167D01*
X47280Y293513D02*
G01X46887Y293120D01*
X45313Y291939D02*
G01X46100Y291152D01*
Y292333D02*
G01X45706Y291939D01*
X46100Y293120D02*
G01Y292333D01*
X45706Y293513D02*
G01X46100Y293120D01*
X48068Y293513D02*
G01X47280D01*
X48461Y293120D02*
G01X48068Y293513D01*
X46887Y291152D02*
G01X48461Y292726D01*
Y291152D02*
G01X46887D01*
X50824Y279144D02*
G01Y290167D01*
X50823Y292726D02*
G01Y293120D01*
D02*
G01X50429Y293513D01*
D02*
G01X49642D01*
D02*
G01X49248Y293120D01*
Y291152D02*
G01X50823Y292726D01*
Y291152D02*
G01X49248D01*
X48461Y292726D02*
G01Y293120D01*
X50430Y279144D02*
G01Y290167D01*
X47673Y239183D02*
G01X47280Y239577D01*
Y241545D02*
G01Y240364D01*
X46099Y241545D02*
G01X45312D01*
X46493Y241151D02*
G01X46099Y241545D01*
X46493Y240758D02*
G01Y241151D01*
X48067Y240758D02*
G01X48461D01*
Y239183D02*
G01X47673D01*
X47280Y240364D02*
G01X48067Y240758D01*
X48854Y241545D02*
G01X47280D01*
X49249Y248435D02*
G01Y253947D01*
X48461Y240758D02*
G01X48854Y240364D01*
D02*
G01Y239577D01*
D02*
G01X48461Y239183D01*
X50431D02*
G01Y241545D01*
X49643Y254341D02*
G01Y259852D01*
X49839Y248238D02*
G01Y260049D01*
X48658Y242726D02*
G01Y248238D01*
X48265Y242726D02*
G01Y248238D01*
X130708Y299213D02*
G01X130314D01*
D02*
G01X130708D01*
D02*
G01X131101Y298819D01*
D02*
G01Y298426D01*
D02*
G01X130708Y298032D01*
D02*
G01X129921D01*
D02*
G01X129527Y298426D01*
X131101Y299606D02*
G01X130708Y299213D01*
X131101Y300000D02*
G01Y299606D01*
X130708Y300393D02*
G01X131101Y300000D01*
X129921Y300393D02*
G01X130708D01*
X129527Y300000D02*
G01X129921Y300393D01*
X131890Y296457D02*
G01Y301969D01*
G54D17*
X134047Y314960D02*
G01X136408D01*
X129324Y313779D02*
G01X128734Y313189D01*
X129324Y314960D02*
G01Y313779D01*
X128734Y315550D02*
G01X129324Y314960D01*
G54D15*
X175591Y157087D02*
G01Y162598D01*
X174016Y169291D02*
G01Y180315D01*
X173365Y148425D02*
G01X173758Y148819D01*
D02*
G01X174546D01*
D02*
G01X174939Y148425D01*
D02*
G01Y146851D01*
D02*
G01X174546Y146457D01*
X173365Y146851D02*
G01Y148425D01*
X173758Y146457D02*
G01X173365Y146851D01*
X174546Y146457D02*
G01X173758D01*
X172834Y182410D02*
G01X172440Y182804D01*
X172834Y182017D02*
G01Y182410D01*
X172440Y181623D02*
G01X172834Y182017D01*
X173622Y169291D02*
G01Y180315D01*
X174804Y181623D02*
G01Y183985D01*
G54D12*
X172833Y189575D02*
G01X173522D01*
X172833D02*
G01Y195382D01*
Y202764D02*
G01X173522D01*
X172833Y196957D02*
G01Y202764D01*
G54D15*
X175487Y221443D02*
G01X175094Y221837D01*
X173913Y221443D02*
G01X174307Y221837D01*
X173126Y221443D02*
G01X173913D01*
X172732Y221837D02*
G01X173126Y221443D01*
X171397Y146457D02*
G01X172184D01*
D02*
G01X171791D01*
D02*
G01Y148819D01*
D02*
G01X171397Y148425D01*
X171849Y154646D02*
G01X171456Y154252D01*
X171849Y155040D02*
G01Y154646D01*
X171456Y155433D02*
G01X171849Y155040D01*
Y155827D02*
G01X171456Y155433D01*
X171849Y156220D02*
G01Y155827D01*
X171456Y156614D02*
G01X171849Y156220D01*
X168110Y169291D02*
G01X173622D01*
X172440Y182804D02*
G01X171260D01*
X171653Y181623D02*
G01X172440D01*
X172047Y183591D02*
G01X171260Y182804D01*
X172834Y183985D02*
G01X172047Y183591D01*
X171947Y204535D02*
G01Y210047D01*
X168110Y180315D02*
G01X173622D01*
X235873Y165157D02*
G01X235479Y165551D01*
D02*
G01X234692D01*
D02*
G01X234298Y165157D01*
D02*
G01Y163583D01*
D02*
G01X234692Y163189D01*
D02*
G01X235479D01*
D02*
G01X235873Y163583D01*
X236660Y164370D02*
G01Y163583D01*
X234472Y169726D02*
G01Y180749D01*
X234539Y169095D02*
G01Y180905D01*
X235630Y214961D02*
G01Y220472D01*
X235879Y182444D02*
G01X236666Y181657D01*
X236273Y182444D02*
G01X235092D01*
X236666Y182838D02*
G01X236273Y182444D01*
X236666Y183625D02*
G01Y182838D01*
X236273Y184019D02*
G01X236666Y183625D01*
X235092Y184019D02*
G01X236273D01*
X235092Y181657D02*
G01Y184019D01*
G54D12*
X209744Y162795D02*
G01X216024D01*
G54D15*
X207786Y192354D02*
G01X213298D01*
X212313Y190385D02*
G01X210739D01*
Y191960D02*
G01X212313D01*
X211526Y189205D02*
G01X211919Y189598D01*
X211526Y188811D02*
G01Y189205D01*
D02*
G01Y188811D01*
X211132Y189598D02*
G01X211526Y189205D01*
X210739Y185662D02*
G01X212313D01*
X209164Y185465D02*
G01X220975D01*
X209164Y179953D02*
G01X220975D01*
X207786Y204166D02*
G01X213298D01*
X211457Y217863D02*
G01X212638D01*
X211064Y218257D02*
G01X211457Y217863D01*
Y219044D02*
G01X211064Y218651D01*
X212245Y219044D02*
G01X211457D01*
Y216683D02*
G01X212245D01*
X211064Y217076D02*
G01X211457Y216683D01*
X202471Y210374D02*
G01X213494D01*
X202471Y204862D02*
G01X213494D01*
X342048Y248514D02*
G01X341655Y248907D01*
D02*
G01X340868D01*
D02*
G01X340474Y248514D01*
D02*
G01Y246939D01*
D02*
G01X340868Y246546D01*
D02*
G01X341655D01*
D02*
G01X342048Y246939D01*
X343229Y248907D02*
G01X342835Y248514D01*
X342323Y231479D02*
G01Y243289D01*
X344410Y246546D02*
G01X342835D01*
D02*
G01X344410Y248120D01*
X344016Y248907D02*
G01X343229D01*
G54D12*
X346457Y238368D02*
G01X348425D01*
X346457Y236400D02*
G01Y238368D01*
G54D15*
X344410Y248120D02*
G01Y248514D01*
D02*
G01X344016Y248907D01*
X345197Y247726D02*
G01X346771D01*
X346378Y248907D02*
G01X345197Y247726D01*
X346378Y246546D02*
G01Y248907D01*
G54D12*
X337598Y110236D02*
G01Y111417D01*
G54D15*
X338674Y205999D02*
G01Y204425D01*
D02*
G01X339068Y204031D01*
X338082Y205802D02*
G01X336507D01*
D02*
G01X338082Y207376D01*
D02*
G01Y207769D01*
D02*
G01X337688Y208163D01*
D02*
G01X336901D01*
D02*
G01X336507Y207769D01*
X339068Y206393D02*
G01X338674Y205999D01*
X337310Y175500D02*
G01X336523D01*
X337704Y175894D02*
G01X337310Y175500D01*
X337704Y176681D02*
G01Y175894D01*
X337310Y177074D02*
G01X337704Y176681D01*
X336916Y177074D02*
G01X337310D01*
X338976Y207266D02*
G01Y219077D01*
X336811Y231479D02*
G01Y243289D01*
X336614Y209628D02*
G01Y220652D01*
X295078Y177362D02*
G01X294685Y176968D01*
X295866Y177362D02*
G01X295078D01*
X296259Y176968D02*
G01X295866Y177362D01*
X296259Y176575D02*
G01Y176968D01*
X294685Y175000D02*
G01X296259Y176575D01*
Y175000D02*
G01X294685D01*
X293898Y176968D02*
G01X293504Y177362D01*
X293898Y175394D02*
G01Y176968D01*
X293504Y175000D02*
G01X293898Y175394D01*
G54D10*
X299016Y181640D02*
G01Y211167D01*
X301575Y182230D02*
G01Y210577D01*
G54D15*
X297018Y214961D02*
G01X297805D01*
D02*
G01X297412D01*
D02*
G01Y217322D01*
D02*
G01X297018Y216929D01*
X296231Y217322D02*
G01X294657Y214961D01*
Y217322D02*
G01X296231Y214961D01*
G54D13*
X296850Y211167D03*
D02*
G01X296833Y211331D01*
X296782Y211487D01*
X296700Y211630D01*
X296590Y211752D01*
X296457Y211849D01*
X296306Y211916D01*
X296145Y211950D01*
X295981D01*
X295820Y211916D01*
X295670Y211849D01*
X295536Y211752D01*
X295426Y211630D01*
X295344Y211487D01*
X295293Y211331D01*
X295276Y211167D01*
X295293Y211003D01*
X295344Y210847D01*
X295426Y210704D01*
X295536Y210582D01*
X295670Y210485D01*
X295820Y210419D01*
X295981Y210384D01*
X296145D01*
X296306Y210419D01*
X296457Y210485D01*
X296590Y210582D01*
X296700Y210704D01*
X296782Y210847D01*
X296833Y211003D01*
X296850Y211167D01*
G54D12*
X177677Y158976D02*
G01Y162795D01*
Y140256D02*
G01Y149626D01*
G54D15*
X176378Y183591D02*
G01Y182804D01*
X177559Y181623D02*
G01X177165Y182017D01*
X178346Y181623D02*
G01X177559D01*
X178740Y182017D02*
G01X178346Y181623D01*
X178740Y182804D02*
G01Y182017D01*
X178346Y183197D02*
G01X178740Y182804D01*
X177952Y183197D02*
G01X178346D01*
X177165Y182804D02*
G01X177952Y183197D01*
X177165Y183985D02*
G01Y182804D01*
X178740Y183985D02*
G01X177165D01*
X179528Y169291D02*
G01Y180315D01*
G54D12*
X177677Y162795D02*
G01X183957D01*
G54D11*
X186535Y168524D02*
G01X186524Y168626D01*
X186492Y168724D01*
X186441Y168813D01*
X186372Y168890D01*
X186289Y168950D01*
X186195Y168992D01*
X186094Y169013D01*
X185992D01*
X185891Y168992D01*
X185797Y168950D01*
X185714Y168890D01*
X185645Y168813D01*
X185594Y168724D01*
X185562Y168626D01*
X185551Y168524D01*
X185562Y168422D01*
X185594Y168324D01*
X185645Y168235D01*
X185714Y168158D01*
X185797Y168098D01*
X185891Y168056D01*
X185992Y168035D01*
X186094D01*
X186195Y168056D01*
X186289Y168098D01*
X186372Y168158D01*
X186441Y168235D01*
X186492Y168324D01*
X186524Y168422D01*
X186535Y168524D01*
D03*
G54D12*
X186022Y189575D02*
G01Y195382D01*
X185333Y189575D02*
G01X186022D01*
G54D15*
X191037Y180686D02*
G01Y178325D01*
X192026Y186524D02*
G01Y197547D01*
X186514Y186524D02*
G01X192026D01*
X186514D02*
G01Y197547D01*
D02*
G01X192026D01*
X98567Y243791D02*
G01X97386D01*
X97780Y242611D02*
G01X98567D01*
X97386Y243004D02*
G01X97780Y242611D01*
X97386Y243791D02*
G01Y243004D01*
X98173Y244579D02*
G01X97386Y243791D01*
G54D12*
X98658Y266348D02*
G01Y269695D01*
G54D15*
X97245Y296063D02*
G01X97639Y295670D01*
D02*
G01X98426D01*
D02*
G01X98819Y296063D01*
G54D17*
X97169Y312795D02*
G01X98481Y314107D01*
D02*
G01Y316731D01*
G54D15*
X97245Y297638D02*
G01Y296063D01*
X97639Y298031D02*
G01X97245Y297638D01*
X98426Y298031D02*
G01X97639D01*
X98819Y297638D02*
G01X98426Y298031D01*
X97083Y285246D02*
G01Y284853D01*
Y286427D02*
G01Y286033D01*
G54D10*
X268716Y200787D03*
G54D15*
X269719Y200910D02*
G01X275231D01*
D02*
G01Y212721D01*
X269719D02*
G01X275231D01*
X269719Y200910D02*
G01Y212721D01*
G54D10*
X485252Y150454D02*
G01Y144456D01*
D02*
G01X488251D01*
Y150454D02*
G01X485252D01*
Y138857D02*
G01Y135858D01*
D02*
G01X486252Y134858D01*
G54D12*
X485925Y244488D02*
G01Y249114D01*
G54D15*
X485039Y290157D02*
G01X484646Y289763D01*
X485039Y287795D02*
G01Y290157D01*
X485433Y287795D02*
G01X485039D01*
X484646D02*
G01X485433D01*
G54D10*
X488251Y144456D02*
G01X489251Y145456D01*
D02*
G01Y149454D01*
D02*
G01X488251Y150454D01*
X486252Y134858D02*
G01X489251D01*
D02*
G01Y138857D01*
G54D12*
X485925Y244488D02*
G01X490157D01*
X473425Y110236D02*
G01Y111417D01*
G54D15*
X474016Y230511D02*
G01X473229D01*
D02*
G01X473622D01*
D02*
G01Y228544D01*
D02*
G01X473229Y228150D01*
D02*
G01X472835D01*
D02*
G01X472442Y228544D01*
X474803Y229331D02*
G01Y228544D01*
D02*
G01X475197Y228150D01*
X476377Y230511D02*
G01X475590Y230118D01*
D02*
G01X474803Y229331D01*
X475197Y228150D02*
G01X475984D01*
Y229331D02*
G01X474803D01*
X475984Y228150D02*
G01X476377Y228544D01*
D02*
G01Y228937D01*
D02*
G01X475984Y229331D01*
G54D12*
X478642Y233169D02*
G01Y240354D01*
Y295079D02*
G01Y302264D01*
X409646Y163386D02*
G01Y165354D01*
X403346Y163386D02*
G01Y165354D01*
G54D15*
X409448Y173819D02*
G01Y173425D01*
D02*
G01X409054Y173032D01*
D02*
G01X408267D01*
D02*
G01X407874Y173425D01*
D02*
G01Y173819D01*
X406693Y173032D02*
G01X406299D01*
X405906D02*
G01X406693D01*
X404725D02*
G01X405119Y173425D01*
X403938Y173032D02*
G01X404725D01*
X403544Y173425D02*
G01X403938Y173032D01*
G54D12*
X419055Y110237D02*
G01X419301Y110255D01*
X419538Y110323D01*
X419756Y110439D01*
X419945Y110598D01*
X420096Y110793D01*
X420204Y111015D01*
X420264Y111255D01*
X420276Y111417D01*
D03*
X422638D02*
G01Y110236D01*
X416339D02*
G01Y111417D01*
D02*
G01X419095D01*
X416339Y110236D02*
G01X419055Y110237D01*
X420276Y111417D02*
G01X422638D01*
X419095Y158661D02*
G01Y165354D01*
Y111417D02*
G01Y142756D01*
G54D15*
X343397Y205606D02*
G01Y205999D01*
X343791Y205212D02*
G01X343397Y205606D01*
Y204819D02*
G01X343791Y205212D01*
X343397Y204425D02*
G01Y204819D01*
X343791Y204031D02*
G01X343397Y204425D01*
Y205999D02*
G01X343791Y206393D01*
Y205212D02*
G01X344578D01*
Y204031D02*
G01X343791D01*
Y206393D02*
G01X344578D01*
G54D12*
X343898Y111417D02*
G01Y110236D01*
G54D15*
X344971Y204425D02*
G01X344578Y204031D01*
X344971Y204819D02*
G01Y204425D01*
X344578Y205212D02*
G01X344971Y204819D01*
Y205606D02*
G01X344578Y205212D01*
X344971Y205999D02*
G01Y205606D01*
X344578Y206393D02*
G01X344971Y205999D01*
X344488Y207266D02*
G01Y219077D01*
G54D12*
X105315Y257283D02*
G01Y270276D01*
G54D15*
X101968Y297638D02*
G01Y297244D01*
D02*
G01X102362Y296850D01*
D02*
G01X103542D01*
X102362Y298031D02*
G01X101968Y297638D01*
X103149Y298031D02*
G01X102362D01*
X103542Y297638D02*
G01X103149Y298031D01*
X103542Y296063D02*
G01Y297638D01*
X103149Y295670D02*
G01X103542Y296063D01*
X102362Y295670D02*
G01X103149D01*
X101968Y296063D02*
G01X102362Y295670D01*
G54D12*
X105315Y273819D02*
G01X105728D01*
X105315Y286811D02*
G01X105728D01*
X105315Y273819D02*
G01Y286811D01*
Y257283D02*
G01X105728D01*
X105315Y270276D02*
G01X105728D01*
G54D11*
X108465Y254134D02*
G01X108454Y254236D01*
X108422Y254334D01*
X108371Y254423D01*
X108302Y254500D01*
X108219Y254560D01*
X108125Y254602D01*
X108024Y254623D01*
X107922D01*
X107821Y254602D01*
X107727Y254560D01*
X107644Y254500D01*
X107575Y254423D01*
X107524Y254334D01*
X107492Y254236D01*
X107481Y254134D01*
X107492Y254032D01*
X107524Y253934D01*
X107575Y253845D01*
X107644Y253768D01*
X107727Y253708D01*
X107821Y253666D01*
X107922Y253645D01*
X108024D01*
X108125Y253666D01*
X108219Y253708D01*
X108302Y253768D01*
X108371Y253845D01*
X108422Y253934D01*
X108454Y254032D01*
X108465Y254134D01*
D03*
Y270669D02*
G01X108454Y270771D01*
X108422Y270869D01*
X108371Y270958D01*
X108302Y271035D01*
X108219Y271095D01*
X108125Y271137D01*
X108024Y271158D01*
X107922D01*
X107821Y271137D01*
X107727Y271095D01*
X107644Y271035D01*
X107575Y270958D01*
X107524Y270869D01*
X107492Y270771D01*
X107481Y270669D01*
X107492Y270567D01*
X107524Y270469D01*
X107575Y270380D01*
X107644Y270303D01*
X107727Y270243D01*
X107821Y270201D01*
X107922Y270180D01*
X108024D01*
X108125Y270201D01*
X108219Y270243D01*
X108302Y270303D01*
X108371Y270380D01*
X108422Y270469D01*
X108454Y270567D01*
X108465Y270669D01*
D03*
G54D17*
X109252Y314960D02*
G01X111613D01*
X110433Y316141D02*
G01Y313779D01*
G54D10*
X62999Y149606D02*
G01X62959Y150579D01*
X62839Y151546D01*
X62639Y152500D01*
X62362Y153434D01*
X62009Y154342D01*
X61582Y155217D01*
X61084Y156055D01*
X60519Y156849D01*
X59891Y157593D01*
X59204Y158284D01*
X58462Y158915D01*
X57670Y159483D01*
X56834Y159984D01*
X55960Y160414D01*
X55054Y160771D01*
X54121Y161052D01*
X53168Y161256D01*
X52202Y161380D01*
X51229Y161424D01*
X50255Y161388D01*
X49288Y161271D01*
X48333Y161076D01*
X47398Y160802D01*
X46489Y160453D01*
X45611Y160029D01*
X44772Y159535D01*
X43976Y158974D01*
X43229Y158348D01*
X42536Y157663D01*
X41901Y156924D01*
X41330Y156135D01*
X40826Y155301D01*
X40392Y154429D01*
X40031Y153524D01*
X39747Y152592D01*
X39539Y151640D01*
X39411Y150674D01*
X39363Y149701D01*
X39396Y148728D01*
X39508Y147760D01*
X39700Y146805D01*
X39970Y145869D01*
X40316Y144958D01*
X40735Y144079D01*
X41226Y143237D01*
X41785Y142439D01*
X42407Y141689D01*
X43089Y140993D01*
X43826Y140356D01*
X44613Y139782D01*
X45444Y139274D01*
X46315Y138836D01*
X47218Y138472D01*
X48149Y138184D01*
X49100Y137973D01*
X50065Y137841D01*
X51038Y137789D01*
X52012Y137817D01*
X52980Y137926D01*
X53936Y138114D01*
X54873Y138380D01*
X55785Y138722D01*
X56666Y139138D01*
X57510Y139625D01*
X58310Y140181D01*
X59063Y140800D01*
X59761Y141479D01*
X60401Y142213D01*
X60979Y142998D01*
X61490Y143827D01*
X61931Y144696D01*
X62299Y145598D01*
X62591Y146528D01*
X62806Y147478D01*
X62942Y148443D01*
X62997Y149415D01*
X62999Y149606D01*
G54D15*
X51218Y239971D02*
G01X52005Y239183D01*
X51612Y239971D02*
G01X50431D01*
Y241545D02*
G01X51612D01*
X43146Y272254D02*
G01X54170D01*
X42753Y266348D02*
G01X54564D01*
X42753Y271860D02*
G01X54564D01*
X42753Y260443D02*
G01X54564D01*
X42753Y265955D02*
G01X54564D01*
X49839Y260049D02*
G01X55351D01*
X49839Y248238D02*
G01X55351D01*
X48658D02*
G01X59682D01*
X48658Y242726D02*
G01X59682D01*
G54D10*
X62992Y330709D02*
G01X62952Y331682D01*
X62832Y332649D01*
X62632Y333602D01*
X62355Y334536D01*
X62002Y335443D01*
X61575Y336319D01*
X61077Y337156D01*
X60512Y337949D01*
X59884Y338694D01*
X59197Y339384D01*
X58455Y340015D01*
X57663Y340582D01*
X56828Y341083D01*
X55954Y341513D01*
X55047Y341869D01*
X54115Y342150D01*
X53162Y342353D01*
X52196Y342476D01*
X51223Y342520D01*
X50250Y342483D01*
X49283Y342366D01*
X48329Y342170D01*
X47394Y341896D01*
X46485Y341546D01*
X45608Y341123D01*
X44769Y340628D01*
X43974Y340066D01*
X43227Y339441D01*
X42535Y338756D01*
X41901Y338016D01*
X41331Y337226D01*
X40827Y336393D01*
X40394Y335520D01*
X40035Y334615D01*
X39751Y333684D01*
X39544Y332732D01*
X39417Y331766D01*
X39370Y330793D01*
X39404Y329820D01*
X39517Y328852D01*
X39709Y327898D01*
X39980Y326962D01*
X40327Y326052D01*
X40748Y325174D01*
X41239Y324333D01*
X41798Y323535D01*
X42421Y322787D01*
X43104Y322092D01*
X43841Y321456D01*
X44629Y320882D01*
X45460Y320376D01*
X46331Y319940D01*
X47235Y319577D01*
X48166Y319289D01*
X49117Y319080D01*
X50082Y318949D01*
X51055Y318899D01*
X52028Y318928D01*
X52996Y319038D01*
X53951Y319227D01*
X54888Y319495D01*
X55799Y319838D01*
X56679Y320256D01*
X57522Y320744D01*
X58321Y321301D01*
X59072Y321921D01*
X59769Y322601D01*
X60408Y323336D01*
X60984Y324122D01*
X61494Y324952D01*
X61933Y325821D01*
X62299Y326723D01*
X62590Y327653D01*
X62803Y328603D01*
X62937Y329568D01*
X62991Y330541D01*
X62992Y330709D01*
G54D15*
X50824Y290167D02*
G01X56336D01*
X50824Y279144D02*
G01X56336D01*
X43146Y277766D02*
G01X54170D01*
G54D12*
X44941Y309134D02*
G01X62933D01*
X44941Y293622D02*
G01X62933D01*
G54D15*
X238234Y163977D02*
G01X237840Y164370D01*
X238234Y163583D02*
G01Y163977D01*
X237840Y163189D02*
G01X238234Y163583D01*
Y165551D02*
G01X237447Y165157D01*
X237847Y184019D02*
G01X237453Y183625D01*
X237847Y181657D02*
G01Y184019D01*
X238240Y181657D02*
G01X237847D01*
X237453D02*
G01X238240D01*
G54D12*
X239085Y211843D02*
G01X241054D01*
G54D15*
X239815Y184019D02*
G01X239421Y183625D01*
Y181657D02*
G01X240208D01*
G54D12*
X239085Y188221D02*
G01X241054D01*
G54D15*
X239815Y181657D02*
G01Y184019D01*
X240208Y181657D02*
G01X239815D01*
X240069Y176606D02*
G01Y182118D01*
X239984Y169726D02*
G01Y180749D01*
G54D12*
X241054Y188221D02*
G01Y190189D01*
Y209874D02*
G01Y211843D01*
X262795Y111417D02*
G01X265157D01*
D02*
G01X265158Y110236D01*
X262795Y111417D03*
X261575Y110237D02*
G01X261821Y110255D01*
X262058Y110323D01*
X262276Y110439D01*
X262465Y110598D01*
X262616Y110793D01*
X262724Y111015D01*
X262783Y111255D01*
X262795Y111417D01*
X261614D02*
G01Y142756D01*
Y158661D02*
G01Y165354D01*
G54D15*
X263189Y169488D02*
G01Y169095D01*
X264763Y171063D02*
G01X263189Y169488D01*
X264763Y171456D02*
G01Y171063D01*
X263189Y171456D02*
G01X264763D01*
X262008Y169095D02*
G01X262402Y169488D01*
X261221Y169095D02*
G01X262008D01*
X260827Y169488D02*
G01X261221Y169095D01*
X260827Y171063D02*
G01Y169488D01*
X261221Y171456D02*
G01X260827Y171063D01*
X262008Y171456D02*
G01X261221D01*
X262402Y171063D02*
G01X262008Y171456D01*
X120867Y296456D02*
G01X120473Y296850D01*
D02*
G01X119686D01*
D02*
G01X119292Y296456D01*
D02*
G01Y294882D01*
D02*
G01X119686Y294489D01*
D02*
G01X120473D01*
D02*
G01X120867Y294882D01*
Y303414D02*
G01Y301053D01*
G54D11*
X118012Y307087D02*
G01X118001Y307189D01*
X117969Y307287D01*
X117918Y307376D01*
X117849Y307453D01*
X117766Y307513D01*
X117672Y307555D01*
X117571Y307576D01*
X117469D01*
X117368Y307555D01*
X117274Y307513D01*
X117191Y307453D01*
X117122Y307376D01*
X117071Y307287D01*
X117039Y307189D01*
X117028Y307087D01*
X117039Y306985D01*
X117071Y306887D01*
X117122Y306798D01*
X117191Y306721D01*
X117274Y306661D01*
X117368Y306619D01*
X117469Y306598D01*
X117571D01*
X117672Y306619D01*
X117766Y306661D01*
X117849Y306721D01*
X117918Y306798D01*
X117969Y306887D01*
X118001Y306985D01*
X118012Y307087D01*
G54D17*
X116336Y313189D02*
G01Y316731D01*
D02*
G01X118107D01*
X119878Y313779D02*
G01X120469Y313189D01*
X119878Y315550D02*
G01Y313779D01*
X118107Y314370D02*
G01X116336D01*
X118698Y314960D02*
G01X118107Y314370D01*
X118698Y316141D02*
G01Y314960D01*
X118107Y316731D02*
G01X118698Y316141D01*
G54D11*
X118012Y307087D03*
G54D15*
X190648Y206209D02*
G01X191041Y205815D01*
D02*
G01X191829D01*
Y208177D02*
G01X191041D01*
D02*
G01X190648Y207783D01*
D02*
G01Y207390D01*
D02*
G01X191041Y206996D01*
X189861Y206209D02*
G01Y208177D01*
X189467Y205815D02*
G01X189861Y206209D01*
X188680Y205815D02*
G01X189467D01*
X188286Y206209D02*
G01X188680Y205815D01*
X188286Y208177D02*
G01Y206209D01*
G54D12*
X185333Y202764D02*
G01X186022D01*
G54D11*
X185924Y205323D03*
D02*
G01X185913Y205425D01*
X185881Y205523D01*
X185830Y205612D01*
X185761Y205689D01*
X185678Y205749D01*
X185584Y205791D01*
X185483Y205812D01*
X185381D01*
X185280Y205791D01*
X185186Y205749D01*
X185103Y205689D01*
X185034Y205612D01*
X184983Y205523D01*
X184951Y205425D01*
X184940Y205323D01*
X184951Y205221D01*
X184983Y205123D01*
X185034Y205034D01*
X185103Y204957D01*
X185186Y204897D01*
X185280Y204855D01*
X185381Y204834D01*
X185483D01*
X185584Y204855D01*
X185678Y204897D01*
X185761Y204957D01*
X185830Y205034D01*
X185881Y205123D01*
X185913Y205221D01*
X185924Y205323D01*
X185507Y222624D03*
G54D15*
X191087Y214563D02*
G01X191874D01*
X190693Y214957D02*
G01X191087Y214563D01*
X190693Y216925D02*
G01Y214957D01*
G54D10*
X573223Y140856D02*
G01Y136858D01*
D02*
G01X575223Y134858D01*
X579222Y137857D02*
G01X583220D01*
X582221Y140856D02*
G01X579222Y137857D01*
X582221Y134858D02*
G01Y140856D01*
X577222Y136858D02*
G01Y140856D01*
X575223Y134858D02*
G01X577222Y136858D01*
G54D15*
X572244Y211417D02*
G01X572638Y211811D01*
D02*
G01X573425D01*
D02*
G01X573818Y211417D01*
D02*
G01Y211023D01*
D02*
G01X573425Y210630D01*
D02*
G01X573031D01*
D02*
G01X573425D01*
D02*
G01X573818Y210236D01*
D02*
G01Y209843D01*
D02*
G01X573425Y209449D01*
D02*
G01X572638D01*
D02*
G01X572244Y209843D01*
G54D10*
X559228Y146455D02*
G01X561227Y144456D01*
D02*
G01X563227Y146455D01*
D02*
G01Y150454D01*
X565226Y144456D02*
G01Y145456D01*
D02*
G01X566226D01*
D02*
G01Y144456D01*
D02*
G01X565226D01*
G54D15*
X570670Y211811D02*
G01X571063D01*
D02*
G01Y209843D01*
D02*
G01X570670Y209449D01*
D02*
G01X570276D01*
D02*
G01X569882Y209843D01*
X571457Y211811D02*
G01X570670D01*
G54D10*
X565226Y137857D02*
G01Y134858D01*
X564226Y138857D02*
G01X565226Y137857D01*
X561227Y138857D02*
G01X564226D01*
X561227Y134858D02*
G01Y138857D01*
X546232D02*
G01X548232Y140856D01*
X505245Y138857D02*
G01X506245Y137857D01*
D02*
G01Y134858D01*
D02*
G01X503246D01*
Y136858D02*
G01X506245D01*
G54D12*
X496457Y227264D02*
G01X499606D01*
G54D15*
X494881Y220472D02*
G01X494487Y220866D01*
D02*
G01Y222440D01*
X495668Y220472D02*
G01X494881D01*
X496062Y220866D02*
G01X495668Y220472D01*
X496062Y222440D02*
G01Y220866D01*
X495668Y222834D02*
G01X496062Y222440D01*
X494881Y222834D02*
G01X495668D01*
X494487Y222440D02*
G01X494881Y222834D01*
G54D10*
X548232Y140856D02*
G01Y134858D01*
X551231Y138857D02*
G01X553230D01*
D02*
G01X554230Y137857D01*
D02*
G01Y134858D01*
D02*
G01X551231D01*
X557229Y138857D02*
G01X556229D01*
X557229Y134858D02*
G01Y138857D01*
X558228Y134858D02*
G01X557229D01*
X556229D02*
G01X558228D01*
X551231Y136858D02*
G01X554230D01*
X550231Y135858D02*
G01X551231Y136858D01*
Y134858D02*
G01X550231Y135858D01*
X548232Y150454D02*
G01Y144456D01*
D02*
G01X551231D01*
D02*
G01X552230Y145456D01*
D02*
G01Y146455D01*
D02*
G01X551231Y147455D01*
D02*
G01X548232D01*
D02*
G01X551231D01*
D02*
G01X552230Y148455D01*
D02*
G01Y149454D01*
D02*
G01X551231Y150454D01*
D02*
G01X548232D01*
X559228D02*
G01Y146455D01*
X555229Y144456D02*
G01X554230D01*
X555229Y145456D02*
G01Y144456D01*
X554230Y145456D02*
G01X555229D01*
X554230Y144456D02*
G01Y145456D01*
X531237Y148455D02*
G01X533236D01*
D02*
G01X532237D01*
Y145456D02*
G01X533236Y144456D01*
X532237Y137857D02*
G01X536236D01*
X537235Y144456D02*
G01X539234D01*
D02*
G01X540234Y145456D01*
D02*
G01Y147455D01*
X536236Y137857D02*
G01Y140856D01*
D02*
G01Y134858D01*
X544233D02*
G01Y140856D01*
D02*
G01X546232Y138857D01*
X536236Y145456D02*
G01X537235Y144456D01*
X536236Y147455D02*
G01Y145456D01*
X537235Y148455D02*
G01X536236Y147455D01*
X539234Y148455D02*
G01X537235D01*
X540234Y147455D02*
G01X539234Y148455D01*
X520241Y138857D02*
G01Y134858D01*
D02*
G01Y136858D01*
D02*
G01X521240Y137857D01*
D02*
G01X522240Y138857D01*
D02*
G01X523240D01*
X532237Y140856D02*
G01Y134858D01*
D02*
G01Y137857D01*
X520241Y147455D02*
G01X521240Y148455D01*
D02*
G01X522240D01*
X526239Y144456D02*
G01X528238D01*
X532237Y148455D02*
G01Y145456D01*
Y148455D02*
G01X531237D01*
X532237Y149454D02*
G01Y148455D01*
X525239Y145456D02*
G01X526239Y144456D01*
X525239Y147455D02*
G01Y145456D01*
X526239Y148455D02*
G01X525239Y147455D01*
X528238Y148455D02*
G01X526239D01*
X529238Y147455D02*
G01X528238Y148455D01*
X529238Y145456D02*
G01Y147455D01*
X528238Y144456D02*
G01X529238Y145456D01*
X508245Y148455D02*
G01X510244D01*
D02*
G01X511244Y147455D01*
D02*
G01Y144456D01*
D02*
G01X508245D01*
D02*
G01X507245Y145456D01*
D02*
G01X508245Y146455D01*
D02*
G01X511244D01*
X509244Y134858D02*
G01X512243D01*
X508245Y135858D02*
G01X509244Y134858D01*
X508245Y137857D02*
G01Y135858D01*
X509244Y138857D02*
G01X508245Y137857D01*
X512243Y138857D02*
G01X509244D01*
X513243Y144456D02*
G01Y150454D01*
D02*
G01X516242D01*
Y146455D02*
G01X513243D01*
X517242Y134858D02*
G01X515242D01*
D02*
G01X514243Y135858D01*
D02*
G01Y137857D01*
D02*
G01X515242Y138857D01*
D02*
G01X517242D01*
D02*
G01X518241Y137857D01*
D02*
G01Y136858D01*
D02*
G01X514243D01*
X517242Y147455D02*
G01X516242Y146455D01*
X517242Y149454D02*
G01Y147455D01*
X516242Y150454D02*
G01X517242Y149454D01*
X495249Y147455D02*
G01Y146455D01*
X497248Y144456D02*
G01X499247D01*
X495249Y139857D02*
G01Y137857D01*
X497248Y134858D02*
G01X499247D01*
D02*
G01X498248D01*
D02*
G01Y140856D01*
D02*
G01X497248D01*
X498248Y150454D02*
G01X497248D01*
X498248Y144456D02*
G01Y150454D01*
X499247Y144456D02*
G01X498248D01*
X503246Y138857D02*
G01X505245D01*
X503246Y134858D02*
G01X502247Y135858D01*
D02*
G01X503246Y136858D01*
Y145456D02*
G01X504246Y144456D01*
X503246Y148455D02*
G01Y145456D01*
X504246Y148455D02*
G01X503246D01*
X502247D02*
G01X504246D01*
X503246D02*
G01X502247D01*
X503246Y149454D02*
G01Y148455D01*
X491250Y134858D02*
G01Y140856D01*
Y147455D02*
G01X492250Y148455D01*
X491250Y145456D02*
G01Y147455D01*
X492250Y144456D02*
G01X491250Y145456D01*
G54D12*
X490157Y238779D02*
G01Y244488D01*
G54D15*
X492126Y222440D02*
G01X492520Y222834D01*
D02*
G01X493307D01*
D02*
G01X493700Y222440D01*
X492520Y220472D02*
G01X492126Y220866D01*
X493307Y220472D02*
G01X492520D01*
X493700Y220866D02*
G01X493307Y220472D01*
X493700Y221260D02*
G01Y220866D01*
X493307Y221653D02*
G01X493700Y221260D01*
X492913Y221653D02*
G01X493307D01*
D02*
G01X492913D01*
X493700Y222047D02*
G01X493307Y221653D01*
X493700Y222440D02*
G01Y222047D01*
G54D10*
X433858Y208793D02*
G01Y211352D01*
G54D15*
X434277Y194356D02*
G01X433883Y193963D01*
X435064Y194356D02*
G01X434277D01*
X432309Y192782D02*
G01X433096Y191995D01*
X432703Y192782D02*
G01X431522D01*
X433096Y193176D02*
G01X432703Y192782D01*
X433096Y193963D02*
G01Y193176D01*
X432703Y194356D02*
G01X433096Y193963D01*
X431522Y194356D02*
G01X432703D01*
X431522Y191995D02*
G01Y194356D01*
X433465Y213398D02*
G01Y215759D01*
D02*
G01X434646D01*
D02*
G01X435040Y215366D01*
D02*
G01Y214579D01*
D02*
G01X434646Y214185D01*
D02*
G01X433465D01*
X434252D02*
G01X435040Y213398D01*
G54D10*
X434055Y232218D02*
G01Y229659D01*
G54D15*
X457086Y259452D02*
G01X457480Y259058D01*
D02*
G01Y257877D01*
Y261420D02*
G01Y260632D01*
D02*
G01X457086Y260239D01*
Y267323D02*
G01X457480Y267717D01*
D02*
G01Y268897D01*
Y270078D02*
G01Y270865D01*
X457086Y269685D02*
G01X457480Y270078D01*
Y256697D02*
G01Y255516D01*
X457086Y257090D02*
G01X457480Y256697D01*
X457086Y253154D02*
G01X457480Y253548D01*
Y254335D02*
G01X457086Y254729D01*
X457480Y253548D02*
G01Y254335D01*
Y251187D02*
G01Y252367D01*
X457086Y250793D02*
G01X457480Y251187D01*
G54D10*
X459252Y208793D02*
G01Y211352D01*
Y229659D02*
G01Y232218D01*
X62999Y149606D03*
G54D15*
X61059Y251781D02*
G01X61453Y252175D01*
D02*
G01X62240D01*
D02*
G01X62634Y251781D01*
D02*
G01Y251388D01*
D02*
G01X62240Y250994D01*
D02*
G01X62634Y250601D01*
D02*
G01Y250207D01*
D02*
G01X62240Y249813D01*
X61453Y250994D02*
G01X62240D01*
X61059Y251388D02*
G01Y251781D01*
X61453Y250994D02*
G01X61059Y251388D01*
Y250601D02*
G01X61453Y250994D01*
X61059Y250207D02*
G01Y250601D01*
X61453Y249813D02*
G01X61059Y250207D01*
X62240Y249813D02*
G01X61453D01*
G54D11*
X61158Y282687D03*
M02*