G04 =========================================*
G04 Numerical Innovations - Layer Information*
G04 Units: English*
G04 Purpose: Internal*
G04 Physical Order: 2*
G04 Stackup Order: 2*
G04 =========================================*
G04 FAB 3000 Version 8.3.44 (64-bit) - Gerber/CAM Software*
G04 RS274-X Output*
%FSLAX35Y35*%
%MIA0B0*%
%MOIN*%
%SFA1.000000B1.000000*%

%IPPOS*%
%AMROUNDEDRECTD125*
4,1,4,0.019685,0.011810,
-0.019685,0.011810,
-0.019685,-0.011810,
0.019685,-0.011810,
0.019685,0.011810,0.0*
4,1,4,0.000500,0.031495,
-0.000500,0.031495,
-0.000500,-0.031495,
0.000500,-0.031495,
0.000500,0.031495,0.0*
1,1,0.039370,0.000000,-0.011810*
1,1,0.039370,0.000000,-0.011810*
1,1,0.039370,0.000000,0.011810*
1,1,0.039370,0.000000,0.011810*
%
%ADD125ROUNDEDRECTD125*%
%ADD126C,0.025590*%
%ADD133O,0.070870X0.059060*%
%ADD134C,0.076770*%
%ADD136C,0.041340*%
%ADD137C,0.055910*%
%ADD138C,0.135830*%
%ADD142C,0.031500*%
%ADD144C,0.019680*%
%LNuP-H Main PCBA Assy V04_0*%
%LPD*%
G36*
X661417Y129921D02*
G01X31496D01*
Y350394D01*
X31996D01*
X661417D01*
Y129921D01*
G37*
%LNuP-H Main PCBA Assy V04_1*%
%LPC*%
G36*
X75717Y275736D02*
G01X75214Y275528D01*
X74715Y275029D01*
X74514Y274543D01*
X73984D01*
X73782Y275029D01*
X73284Y275528D01*
X72780Y275736D01*
Y274026D01*
X71780D01*
Y275736D01*
X71277Y275528D01*
X70778Y275029D01*
X70577Y274543D01*
X70047D01*
X69845Y275029D01*
X69347Y275528D01*
X68843Y275736D01*
Y274026D01*
X68343D01*
Y273526D01*
X66633D01*
X66841Y273022D01*
X67340Y272524D01*
X67826Y272322D01*
Y271792D01*
X67340Y271590D01*
X66841Y271092D01*
X66633Y270589D01*
X68343D01*
Y269589D01*
X66633D01*
X66841Y269085D01*
X67340Y268587D01*
X67826Y268385D01*
Y267855D01*
X67340Y267653D01*
X66841Y267155D01*
X66633Y266652D01*
X68343D01*
Y265652D01*
X66633D01*
X66841Y265148D01*
X67340Y264650D01*
X67826Y264448D01*
Y263918D01*
X67340Y263717D01*
X66841Y263218D01*
X66633Y262715D01*
X68343D01*
Y262215D01*
X68843D01*
Y260504D01*
X69347Y260713D01*
X69845Y261211D01*
X70047Y261697D01*
X70577D01*
X70778Y261211D01*
X71277Y260713D01*
X71780Y260504D01*
Y262215D01*
X72780D01*
Y260504D01*
X73284Y260713D01*
X73782Y261211D01*
X73984Y261697D01*
X74514D01*
X74715Y261211D01*
X75214Y260713D01*
X75717Y260504D01*
Y262215D01*
X76217D01*
Y262715D01*
X77928D01*
X77719Y263218D01*
X77221Y263717D01*
X76735Y263918D01*
Y264448D01*
X77221Y264650D01*
X77719Y265148D01*
X77928Y265652D01*
X76217D01*
Y266652D01*
X77928D01*
X77719Y267155D01*
X77221Y267653D01*
X76735Y267855D01*
Y268385D01*
X77221Y268587D01*
X77719Y269085D01*
X77928Y269589D01*
X76217D01*
Y270589D01*
X77928D01*
X77719Y271092D01*
X77221Y271590D01*
X76735Y271792D01*
Y272322D01*
X77221Y272524D01*
X77719Y273022D01*
X77928Y273526D01*
X76217D01*
Y274026D01*
X75717D01*
Y275736D01*
G37*
G36*
X353718Y270609D02*
G01X352778D01*
X351910Y270250D01*
X351245Y269585D01*
X350886Y268717D01*
Y267777D01*
X351245Y266909D01*
X351910Y266245D01*
X352778Y265885D01*
X353718D01*
X354586Y266245D01*
X355251Y266909D01*
X355610Y267777D01*
Y268717D01*
X355251Y269585D01*
X354586Y270250D01*
X353718Y270609D01*
G37*
G36*
X95388Y270285D02*
G01X94448D01*
X93580Y269926D01*
X92916Y269261D01*
X92556Y268393D01*
Y267453D01*
X92916Y266585D01*
X93580Y265921D01*
X94448Y265561D01*
X95388D01*
X96256Y265921D01*
X96921Y266585D01*
X97280Y267453D01*
Y268393D01*
X96921Y269261D01*
X96256Y269926D01*
X95388Y270285D01*
G37*
G36*
X236002Y268702D02*
G01X235062D01*
X234194Y268342D01*
X233529Y267678D01*
X233170Y266809D01*
Y265870D01*
X233529Y265002D01*
X234194Y264337D01*
X235062Y263977D01*
X236002D01*
X236870Y264337D01*
X237535Y265002D01*
X237894Y265870D01*
Y266809D01*
X237535Y267678D01*
X236870Y268342D01*
X236002Y268702D01*
G37*
G36*
X203701Y267384D02*
G01X202762D01*
X201893Y267024D01*
X201229Y266360D01*
X200869Y265492D01*
Y264552D01*
X201229Y263684D01*
X201893Y263019D01*
X202762Y262659D01*
X203701D01*
X204570Y263019D01*
X205234Y263684D01*
X205594Y264552D01*
Y265492D01*
X205234Y266360D01*
X204570Y267024D01*
X203701Y267384D01*
G37*
G36*
X320615Y198766D02*
G01X319676D01*
X318808Y198406D01*
X318143Y197741D01*
X317783Y196873D01*
Y195933D01*
X318143Y195065D01*
X318808Y194401D01*
X319676Y194041D01*
X320615D01*
X321484Y194401D01*
X322148Y195065D01*
X322508Y195933D01*
Y196873D01*
X322148Y197741D01*
X321484Y198406D01*
X320615Y198766D01*
G37*
G36*
X205258Y197473D02*
G01X204318D01*
X203450Y197113D01*
X202785Y196448D01*
X202426Y195580D01*
Y194641D01*
X202785Y193772D01*
X203450Y193108D01*
X204318Y192748D01*
X205258D01*
X206126Y193108D01*
X206791Y193772D01*
X207150Y194641D01*
Y195580D01*
X206791Y196448D01*
X206126Y197113D01*
X205258Y197473D01*
G37*
G36*
X403748Y200787D02*
G01X402808D01*
X401940Y200428D01*
X401275Y199763D01*
X400916Y198895D01*
Y197955D01*
X401275Y197087D01*
X401940Y196423D01*
X402808Y196063D01*
X403748D01*
X404616Y196423D01*
X405280Y197087D01*
X405640Y197955D01*
Y198895D01*
X405280Y199763D01*
X404616Y200428D01*
X403748Y200787D01*
G37*
G36*
X642202Y219882D02*
G01X641262D01*
X640394Y219522D01*
X639730Y218858D01*
X639370Y217990D01*
Y217050D01*
X639730Y216182D01*
X640394Y215517D01*
X641262Y215158D01*
X642202D01*
X643070Y215517D01*
X643735Y216182D01*
X644095Y217050D01*
Y217990D01*
X643735Y218858D01*
X643070Y219522D01*
X642202Y219882D01*
G37*
G36*
X443233Y217483D02*
G01X442293D01*
X441425Y217124D01*
X440760Y216459D01*
X440401Y215591D01*
Y214651D01*
X440760Y213783D01*
X441425Y213119D01*
X442293Y212759D01*
X443233D01*
X444101Y213119D01*
X444765Y213783D01*
X445125Y214651D01*
Y215591D01*
X444765Y216459D01*
X444101Y217124D01*
X443233Y217483D01*
G37*
G36*
X413856Y216124D02*
G01X412916D01*
X412048Y215764D01*
X411383Y215100D01*
X411024Y214232D01*
Y213292D01*
X411383Y212424D01*
X412048Y211759D01*
X412916Y211400D01*
X413856D01*
X414724Y211759D01*
X415388Y212424D01*
X415748Y213292D01*
Y214232D01*
X415388Y215100D01*
X414724Y215764D01*
X413856Y216124D01*
G37*
G36*
X611687Y215158D02*
G01X610754D01*
X609853Y214916D01*
X609045Y214450D01*
X608385Y213790D01*
X607919Y212982D01*
X607677Y212081D01*
Y211148D01*
X607919Y210246D01*
X608385Y209438D01*
X609045Y208779D01*
X609853Y208312D01*
X610754Y208071D01*
X611687D01*
X612588Y208312D01*
X613396Y208779D01*
X614056Y209438D01*
X614522Y210246D01*
X614764Y211148D01*
Y212081D01*
X614522Y212982D01*
X614056Y213790D01*
X613396Y214450D01*
X612588Y214916D01*
X611687Y215158D01*
G37*
G36*
X408344Y205512D02*
G01X407404D01*
X406536Y205152D01*
X405871Y204488D01*
X405512Y203620D01*
Y202680D01*
X405871Y201812D01*
X406536Y201147D01*
X407404Y200787D01*
X408344D01*
X409212Y201147D01*
X409877Y201812D01*
X410236Y202680D01*
Y203620D01*
X409877Y204488D01*
X409212Y205152D01*
X408344Y205512D01*
G37*
G36*
X443383Y205250D02*
G01X442444D01*
X441575Y204890D01*
X440911Y204225D01*
X440551Y203357D01*
Y202418D01*
X440911Y201549D01*
X441575Y200885D01*
X442444Y200525D01*
X443383D01*
X444251Y200885D01*
X444916Y201549D01*
X445276Y202418D01*
Y203357D01*
X444916Y204225D01*
X444251Y204890D01*
X443383Y205250D01*
G37*
G36*
X314014Y158287D02*
G01X313768D01*
Y151209D01*
X320847D01*
Y151455D01*
X320555Y152919D01*
X319984Y154298D01*
X319155Y155540D01*
X318099Y156596D01*
X316858Y157425D01*
X315478Y157996D01*
X314014Y158287D01*
G37*
G36*
X320847Y150209D02*
G01X313768D01*
Y143130D01*
X314014D01*
X315478Y143421D01*
X316858Y143992D01*
X318099Y144822D01*
X319155Y145878D01*
X319984Y147119D01*
X320555Y148498D01*
X320847Y149962D01*
Y150209D01*
G37*
G36*
X77928Y261715D02*
G01X76717D01*
Y260504D01*
X77221Y260713D01*
X77719Y261211D01*
X77928Y261715D01*
G37*
G36*
X67843D02*
G01X66633D01*
X66841Y261211D01*
X67340Y260713D01*
X67843Y260504D01*
Y261715D01*
G37*
G36*
X69399Y251969D02*
G01X68459D01*
X67591Y251609D01*
X66927Y250944D01*
X66567Y250076D01*
Y249136D01*
X66927Y248268D01*
X67591Y247604D01*
X68459Y247244D01*
X69399D01*
X70267Y247604D01*
X70932Y248268D01*
X71291Y249136D01*
Y250076D01*
X70932Y250944D01*
X70267Y251609D01*
X69399Y251969D01*
G37*
G36*
X51879Y156693D02*
G01X50483D01*
X49114Y156421D01*
X47824Y155886D01*
X46664Y155111D01*
X45676Y154124D01*
X44901Y152963D01*
X44367Y151673D01*
X44094Y150304D01*
Y148908D01*
X44367Y147539D01*
X44901Y146249D01*
X45676Y145089D01*
X46664Y144102D01*
X47824Y143326D01*
X49114Y142792D01*
X50483Y142520D01*
X51879D01*
X53248Y142792D01*
X54538Y143326D01*
X55699Y144102D01*
X56686Y145089D01*
X57461Y146249D01*
X57995Y147539D01*
X58268Y148908D01*
Y150304D01*
X57995Y151673D01*
X57461Y152963D01*
X56686Y154124D01*
X55699Y155111D01*
X54538Y155886D01*
X53248Y156421D01*
X51879Y156693D01*
G37*
G36*
X90467Y263396D02*
G01X89527D01*
X88659Y263036D01*
X87994Y262371D01*
X87635Y261503D01*
Y260564D01*
X87994Y259695D01*
X88659Y259031D01*
X89527Y258671D01*
X90467D01*
X91335Y259031D01*
X92000Y259695D01*
X92359Y260564D01*
Y261503D01*
X92000Y262371D01*
X91335Y263036D01*
X90467Y263396D01*
G37*
G36*
X88416Y214764D02*
G01X87175D01*
X85958Y214522D01*
X84812Y214047D01*
X83780Y213357D01*
X82902Y212480D01*
X82213Y211448D01*
X81738Y210302D01*
X81496Y209085D01*
Y207844D01*
X81738Y206627D01*
X82213Y205481D01*
X82902Y204449D01*
X83780Y203572D01*
X84812Y202882D01*
X85958Y202407D01*
X87175Y202165D01*
X88416D01*
X89633Y202407D01*
X90779Y202882D01*
X91811Y203572D01*
X92688Y204449D01*
X93378Y205481D01*
X93852Y206627D01*
X94095Y207844D01*
Y209085D01*
X93852Y210302D01*
X93378Y211448D01*
X92688Y212480D01*
X91811Y213357D01*
X90779Y214047D01*
X89633Y214522D01*
X88416Y214764D01*
G37*
G36*
Y189764D02*
G01X87175D01*
X85958Y189522D01*
X84812Y189047D01*
X83780Y188357D01*
X82902Y187480D01*
X82213Y186448D01*
X81738Y185302D01*
X81496Y184085D01*
Y182844D01*
X81738Y181627D01*
X82213Y180481D01*
X82902Y179449D01*
X83780Y178572D01*
X84812Y177882D01*
X85958Y177407D01*
X87175Y177165D01*
X88416D01*
X89633Y177407D01*
X90779Y177882D01*
X91811Y178572D01*
X92688Y179449D01*
X93378Y180481D01*
X93852Y181627D01*
X94095Y182844D01*
Y184085D01*
X93852Y185302D01*
X93378Y186448D01*
X92688Y187480D01*
X91811Y188357D01*
X90779Y189047D01*
X89633Y189522D01*
X88416Y189764D01*
G37*
G36*
Y164764D02*
G01X87175D01*
X85958Y164522D01*
X84812Y164047D01*
X83780Y163357D01*
X82902Y162480D01*
X82213Y161448D01*
X81738Y160302D01*
X81496Y159085D01*
Y157844D01*
X81738Y156627D01*
X82213Y155481D01*
X82902Y154449D01*
X83780Y153572D01*
X84812Y152882D01*
X85958Y152407D01*
X87175Y152165D01*
X88416D01*
X89633Y152407D01*
X90779Y152882D01*
X91811Y153572D01*
X92688Y154449D01*
X93378Y155481D01*
X93852Y156627D01*
X94095Y157844D01*
Y159085D01*
X93852Y160302D01*
X93378Y161448D01*
X92688Y162480D01*
X91811Y163357D01*
X90779Y164047D01*
X89633Y164522D01*
X88416Y164764D01*
G37*
G36*
X119564Y260236D02*
G01X118625D01*
X117756Y259877D01*
X117092Y259212D01*
X116732Y258344D01*
Y257404D01*
X117092Y256536D01*
X117756Y255871D01*
X118625Y255512D01*
X119564D01*
X120433Y255871D01*
X121097Y256536D01*
X121457Y257404D01*
Y258344D01*
X121097Y259212D01*
X120433Y259877D01*
X119564Y260236D01*
G37*
G36*
X111089Y235354D02*
G01X109383D01*
X107710Y235021D01*
X106133Y234369D01*
X104715Y233421D01*
X103508Y232214D01*
X102561Y230796D01*
X101908Y229219D01*
X101575Y227546D01*
Y225840D01*
X101908Y224166D01*
X102561Y222590D01*
X103508Y221172D01*
X104715Y219965D01*
X106133Y219017D01*
X107710Y218364D01*
X109383Y218032D01*
X111089D01*
X112763Y218364D01*
X114339Y219017D01*
X115758Y219965D01*
X116964Y221172D01*
X117912Y222590D01*
X118565Y224166D01*
X118898Y225840D01*
Y227546D01*
X118565Y229219D01*
X117912Y230796D01*
X116964Y232214D01*
X115758Y233421D01*
X114339Y234369D01*
X112763Y235021D01*
X111089Y235354D01*
G37*
G36*
X133298Y214764D02*
G01X132057D01*
X130840Y214522D01*
X129693Y214047D01*
X128662Y213357D01*
X127784Y212480D01*
X127095Y211448D01*
X126620Y210302D01*
X126378Y209085D01*
Y207844D01*
X126620Y206627D01*
X127095Y205481D01*
X127784Y204449D01*
X128662Y203572D01*
X129693Y202882D01*
X130840Y202407D01*
X132057Y202165D01*
X133298D01*
X134515Y202407D01*
X135661Y202882D01*
X136693Y203572D01*
X137570Y204449D01*
X138259Y205481D01*
X138734Y206627D01*
X138976Y207844D01*
Y209085D01*
X138734Y210302D01*
X138259Y211448D01*
X137570Y212480D01*
X136693Y213357D01*
X135661Y214047D01*
X134515Y214522D01*
X133298Y214764D01*
G37*
G36*
Y189764D02*
G01X132057D01*
X130840Y189522D01*
X129693Y189047D01*
X128662Y188357D01*
X127784Y187480D01*
X127095Y186448D01*
X126620Y185302D01*
X126378Y184085D01*
Y182844D01*
X126620Y181627D01*
X127095Y180481D01*
X127784Y179449D01*
X128662Y178572D01*
X129693Y177882D01*
X130840Y177407D01*
X132057Y177165D01*
X133298D01*
X134515Y177407D01*
X135661Y177882D01*
X136693Y178572D01*
X137570Y179449D01*
X138259Y180481D01*
X138734Y181627D01*
X138976Y182844D01*
Y184085D01*
X138734Y185302D01*
X138259Y186448D01*
X137570Y187480D01*
X136693Y188357D01*
X135661Y189047D01*
X134515Y189522D01*
X133298Y189764D01*
G37*
G36*
Y164764D02*
G01X132057D01*
X130840Y164522D01*
X129693Y164047D01*
X128662Y163357D01*
X127784Y162480D01*
X127095Y161448D01*
X126620Y160302D01*
X126378Y159085D01*
Y157844D01*
X126620Y156627D01*
X127095Y155481D01*
X127784Y154449D01*
X128662Y153572D01*
X129693Y152882D01*
X130840Y152407D01*
X132057Y152165D01*
X133298D01*
X134515Y152407D01*
X135661Y152882D01*
X136693Y153572D01*
X137570Y154449D01*
X138259Y155481D01*
X138734Y156627D01*
X138976Y157844D01*
Y159085D01*
X138734Y160302D01*
X138259Y161448D01*
X137570Y162480D01*
X136693Y163357D01*
X135661Y164047D01*
X134515Y164522D01*
X133298Y164764D01*
G37*
G36*
X611687Y259449D02*
G01X610754D01*
X609853Y259207D01*
X609045Y258741D01*
X608385Y258081D01*
X607919Y257273D01*
X607677Y256372D01*
Y255439D01*
X607919Y254538D01*
X608385Y253730D01*
X609045Y253070D01*
X609853Y252604D01*
X610754Y252362D01*
X611687D01*
X612588Y252604D01*
X613396Y253070D01*
X614056Y253730D01*
X614522Y254538D01*
X614764Y255439D01*
Y256372D01*
X614522Y257273D01*
X614056Y258081D01*
X613396Y258741D01*
X612588Y259207D01*
X611687Y259449D01*
G37*
G36*
X397911Y234530D02*
G01X396971D01*
X396103Y234170D01*
X395438Y233506D01*
X395079Y232637D01*
Y231698D01*
X395438Y230829D01*
X396103Y230165D01*
X396971Y229805D01*
X397911D01*
X398779Y230165D01*
X399444Y230829D01*
X399803Y231698D01*
Y232637D01*
X399444Y233506D01*
X398779Y234170D01*
X397911Y234530D01*
G37*
G36*
X220475Y233542D02*
G01X219535D01*
X218667Y233182D01*
X218003Y232518D01*
X217643Y231650D01*
Y230710D01*
X218003Y229842D01*
X218667Y229177D01*
X219535Y228818D01*
X220475D01*
X221343Y229177D01*
X222008Y229842D01*
X222368Y230710D01*
Y231650D01*
X222008Y232518D01*
X221343Y233182D01*
X220475Y233542D01*
G37*
G36*
X376848Y232069D02*
G01X375908D01*
X375040Y231709D01*
X374375Y231045D01*
X374016Y230177D01*
Y229237D01*
X374375Y228369D01*
X375040Y227704D01*
X375908Y227345D01*
X376848D01*
X377716Y227704D01*
X378380Y228369D01*
X378740Y229237D01*
Y230177D01*
X378380Y231045D01*
X377716Y231709D01*
X376848Y232069D01*
G37*
G36*
X390846Y231872D02*
G01X389906D01*
X389038Y231512D01*
X388373Y230848D01*
X388014Y229980D01*
Y229040D01*
X388373Y228172D01*
X389038Y227507D01*
X389906Y227148D01*
X390846D01*
X391714Y227507D01*
X392378Y228172D01*
X392738Y229040D01*
Y229980D01*
X392378Y230848D01*
X391714Y231512D01*
X390846Y231872D01*
G37*
G36*
X642430Y337795D02*
G01X641034D01*
X639665Y337523D01*
X638376Y336989D01*
X637215Y336213D01*
X636228Y335226D01*
X635452Y334065D01*
X634918Y332776D01*
X634646Y331407D01*
Y330011D01*
X634918Y328642D01*
X635452Y327352D01*
X636228Y326191D01*
X637215Y325204D01*
X638376Y324429D01*
X639665Y323894D01*
X641034Y323622D01*
X642430D01*
X643799Y323894D01*
X645089Y324429D01*
X646250Y325204D01*
X647237Y326191D01*
X648012Y327352D01*
X648547Y328642D01*
X648819Y330011D01*
Y331407D01*
X648547Y332776D01*
X648012Y334065D01*
X647237Y335226D01*
X646250Y336213D01*
X645089Y336989D01*
X643799Y337523D01*
X642430Y337795D01*
G37*
G36*
X223356Y265067D02*
G01X222416D01*
X221548Y264707D01*
X220884Y264043D01*
X220524Y263175D01*
Y262235D01*
X220884Y261367D01*
X221548Y260702D01*
X222416Y260343D01*
X223356D01*
X224224Y260702D01*
X224889Y261367D01*
X225248Y262235D01*
Y263175D01*
X224889Y264043D01*
X224224Y264707D01*
X223356Y265067D01*
G37*
G36*
X232753Y255315D02*
G01X231814D01*
X230945Y254955D01*
X230281Y254291D01*
X229921Y253423D01*
Y252483D01*
X230281Y251615D01*
X230945Y250950D01*
X231814Y250591D01*
X232753D01*
X233622Y250950D01*
X234286Y251615D01*
X234646Y252483D01*
Y253423D01*
X234286Y254291D01*
X233622Y254955D01*
X232753Y255315D01*
G37*
G36*
X208434Y253147D02*
G01X207494D01*
X206626Y252788D01*
X205961Y252123D01*
X205602Y251255D01*
Y250315D01*
X205961Y249447D01*
X206626Y248782D01*
X207494Y248423D01*
X208434D01*
X209302Y248782D01*
X209967Y249447D01*
X210326Y250315D01*
Y251255D01*
X209967Y252123D01*
X209302Y252788D01*
X208434Y253147D01*
G37*
G36*
X185800Y244811D02*
G01X184860D01*
X183992Y244452D01*
X183327Y243787D01*
X182967Y242919D01*
Y241979D01*
X183327Y241111D01*
X183992Y240446D01*
X184860Y240087D01*
X185800D01*
X186668Y240446D01*
X187332Y241111D01*
X187692Y241979D01*
Y242919D01*
X187332Y243787D01*
X186668Y244452D01*
X185800Y244811D01*
G37*
G36*
X239643Y260236D02*
G01X238703D01*
X237835Y259877D01*
X237171Y259212D01*
X236811Y258344D01*
Y257404D01*
X237171Y256536D01*
X237835Y255871D01*
X238703Y255512D01*
X239643D01*
X240511Y255871D01*
X241176Y256536D01*
X241535Y257404D01*
Y258344D01*
X241176Y259212D01*
X240511Y259877D01*
X239643Y260236D01*
G37*
G36*
X236690Y239764D02*
G01X235751D01*
X234882Y239404D01*
X234218Y238740D01*
X233858Y237871D01*
Y236932D01*
X234218Y236064D01*
X234882Y235399D01*
X235751Y235039D01*
X236690D01*
X237559Y235399D01*
X238223Y236064D01*
X238583Y236932D01*
Y237871D01*
X238223Y238740D01*
X237559Y239404D01*
X236690Y239764D01*
G37*
G36*
X257641Y206496D02*
G01X256138D01*
X254686Y206107D01*
X253385Y205356D01*
X252322Y204293D01*
X251570Y202991D01*
X251181Y201539D01*
Y200036D01*
X251570Y198584D01*
X252322Y197282D01*
X253385Y196219D01*
X254686Y195468D01*
X256138Y195079D01*
X257641D01*
X259093Y195468D01*
X260395Y196219D01*
X261458Y197282D01*
X262209Y198584D01*
X262598Y200036D01*
Y201539D01*
X262209Y202991D01*
X261458Y204293D01*
X260395Y205356D01*
X259093Y206107D01*
X257641Y206496D01*
G37*
G36*
X407030Y254134D02*
G01X406090D01*
X405222Y253774D01*
X404558Y253110D01*
X404198Y252241D01*
Y251302D01*
X404558Y250434D01*
X405222Y249769D01*
X406090Y249410D01*
X407030D01*
X407898Y249769D01*
X408563Y250434D01*
X408922Y251302D01*
Y252241D01*
X408563Y253110D01*
X407898Y253774D01*
X407030Y254134D01*
G37*
G36*
X413856Y230826D02*
G01X412916D01*
X412048Y230467D01*
X411383Y229802D01*
X411024Y228934D01*
Y227994D01*
X411383Y227126D01*
X412048Y226461D01*
X412916Y226102D01*
X413856D01*
X414724Y226461D01*
X415388Y227126D01*
X415748Y227994D01*
Y228934D01*
X415388Y229802D01*
X414724Y230467D01*
X413856Y230826D01*
G37*
G36*
X459161Y164953D02*
G01Y161878D01*
X462236D01*
X462000Y162761D01*
X461528Y163578D01*
X460861Y164245D01*
X460044Y164716D01*
X459161Y164953D01*
G37*
G36*
X458161D02*
G01X457279Y164716D01*
X456462Y164245D01*
X455795Y163578D01*
X455323Y162761D01*
X455086Y161878D01*
X458161D01*
Y164953D01*
G37*
G36*
X380421D02*
G01Y161878D01*
X383496D01*
X383260Y162761D01*
X382788Y163578D01*
X382121Y164245D01*
X381304Y164716D01*
X380421Y164953D01*
G37*
G36*
X379421D02*
G01X378538Y164716D01*
X377722Y164245D01*
X377054Y163578D01*
X376583Y162761D01*
X376346Y161878D01*
X379421D01*
Y164953D01*
G37*
G36*
X618577Y165945D02*
G01X617644D01*
X616743Y165703D01*
X615935Y165237D01*
X615275Y164577D01*
X614808Y163769D01*
X614567Y162868D01*
Y161935D01*
X614808Y161034D01*
X615275Y160226D01*
X615935Y159566D01*
X616743Y159100D01*
X617644Y158858D01*
X618577D01*
X619478Y159100D01*
X620286Y159566D01*
X620946Y160226D01*
X621412Y161034D01*
X621654Y161935D01*
Y162868D01*
X621412Y163769D01*
X620946Y164577D01*
X620286Y165237D01*
X619478Y165703D01*
X618577Y165945D01*
G37*
G36*
X449291Y164961D02*
G01X448347D01*
X447436Y164716D01*
X446619Y164245D01*
X445952Y163578D01*
X445480Y162761D01*
X445236Y161850D01*
Y160906D01*
X445480Y159995D01*
X445952Y159178D01*
X446619Y158511D01*
X447436Y158039D01*
X448347Y157795D01*
X449291D01*
X450202Y158039D01*
X451019Y158511D01*
X451686Y159178D01*
X452157Y159995D01*
X452402Y160906D01*
Y161850D01*
X452157Y162761D01*
X451686Y163578D01*
X451019Y164245D01*
X450202Y164716D01*
X449291Y164961D01*
G37*
G36*
X441417D02*
G01X440473D01*
X439562Y164716D01*
X438745Y164245D01*
X438078Y163578D01*
X437606Y162761D01*
X437362Y161850D01*
Y160906D01*
X437606Y159995D01*
X438078Y159178D01*
X438745Y158511D01*
X439562Y158039D01*
X440473Y157795D01*
X441417D01*
X442328Y158039D01*
X443145Y158511D01*
X443812Y159178D01*
X444283Y159995D01*
X444527Y160906D01*
Y161850D01*
X444283Y162761D01*
X443812Y163578D01*
X443145Y164245D01*
X442328Y164716D01*
X441417Y164961D01*
G37*
G36*
X431574D02*
G01X430631D01*
X429719Y164716D01*
X428902Y164245D01*
X428235Y163578D01*
X427764Y162761D01*
X427520Y161850D01*
Y160906D01*
X427764Y159995D01*
X428235Y159178D01*
X428902Y158511D01*
X429719Y158039D01*
X430631Y157795D01*
X431574D01*
X432485Y158039D01*
X433302Y158511D01*
X433969Y159178D01*
X434441Y159995D01*
X434685Y160906D01*
Y161850D01*
X434441Y162761D01*
X433969Y163578D01*
X433302Y164245D01*
X432485Y164716D01*
X431574Y164961D01*
G37*
G36*
X370550D02*
G01X369607D01*
X368696Y164716D01*
X367879Y164245D01*
X367212Y163578D01*
X366740Y162761D01*
X366496Y161850D01*
Y160906D01*
X366740Y159995D01*
X367212Y159178D01*
X367879Y158511D01*
X368696Y158039D01*
X369607Y157795D01*
X370550D01*
X371462Y158039D01*
X372278Y158511D01*
X372946Y159178D01*
X373417Y159995D01*
X373661Y160906D01*
Y161850D01*
X373417Y162761D01*
X372946Y163578D01*
X372278Y164245D01*
X371462Y164716D01*
X370550Y164961D01*
G37*
G36*
X362676D02*
G01X361733D01*
X360822Y164716D01*
X360005Y164245D01*
X359338Y163578D01*
X358866Y162761D01*
X358622Y161850D01*
Y160906D01*
X358866Y159995D01*
X359338Y159178D01*
X360005Y158511D01*
X360822Y158039D01*
X361733Y157795D01*
X362676D01*
X363588Y158039D01*
X364405Y158511D01*
X365072Y159178D01*
X365543Y159995D01*
X365787Y160906D01*
Y161850D01*
X365543Y162761D01*
X365072Y163578D01*
X364405Y164245D01*
X363588Y164716D01*
X362676Y164961D01*
G37*
G36*
X352834D02*
G01X351890D01*
X350979Y164716D01*
X350162Y164245D01*
X349495Y163578D01*
X349024Y162761D01*
X348780Y161850D01*
Y160906D01*
X349024Y159995D01*
X349495Y159178D01*
X350162Y158511D01*
X350979Y158039D01*
X351890Y157795D01*
X352834D01*
X353745Y158039D01*
X354562Y158511D01*
X355229Y159178D01*
X355701Y159995D01*
X355945Y160906D01*
Y161850D01*
X355701Y162761D01*
X355229Y163578D01*
X354562Y164245D01*
X353745Y164716D01*
X352834Y164961D01*
G37*
G36*
X328431Y176643D02*
G01X327491D01*
X326623Y176284D01*
X325958Y175619D01*
X325598Y174751D01*
Y173811D01*
X325958Y172943D01*
X326623Y172279D01*
X327491Y171919D01*
X328431D01*
X329299Y172279D01*
X329963Y172943D01*
X330323Y173811D01*
Y174751D01*
X329963Y175619D01*
X329299Y176284D01*
X328431Y176643D01*
G37*
G36*
X406958Y176378D02*
G01X406018D01*
X405150Y176018D01*
X404486Y175354D01*
X404126Y174486D01*
Y173546D01*
X404486Y172678D01*
X405150Y172013D01*
X406018Y171653D01*
X406958D01*
X407826Y172013D01*
X408491Y172678D01*
X408850Y173546D01*
Y174486D01*
X408491Y175354D01*
X407826Y176018D01*
X406958Y176378D01*
G37*
G36*
X199710Y172789D02*
G01X198770D01*
X197902Y172429D01*
X197238Y171765D01*
X197073Y171732D01*
X196614Y172191D01*
X195746Y172550D01*
X194806D01*
X193938Y172191D01*
X193273Y171526D01*
X192913Y170658D01*
Y169718D01*
X193273Y168850D01*
X193938Y168186D01*
X194806Y167826D01*
X195746D01*
X196614Y168186D01*
X197278Y168850D01*
X197443Y168883D01*
X197902Y168424D01*
X198770Y168064D01*
X199710D01*
X200578Y168424D01*
X201243Y169088D01*
X201602Y169957D01*
Y170896D01*
X201243Y171765D01*
X200578Y172429D01*
X199710Y172789D01*
G37*
G36*
X201986Y160846D02*
G01X201164D01*
X200404Y160532D01*
X200000Y160128D01*
X199596Y160532D01*
X198836Y160846D01*
X198014D01*
X197254Y160532D01*
X196850Y160128D01*
X196446Y160532D01*
X195687Y160846D01*
X194864D01*
X194105Y160532D01*
X193701Y160128D01*
X193297Y160532D01*
X192537Y160846D01*
X191715D01*
X190955Y160532D01*
X190551Y160128D01*
X190147Y160532D01*
X189476Y160810D01*
Y158780D01*
X188476D01*
Y160810D01*
X187805Y160532D01*
X187402Y160128D01*
X186998Y160532D01*
X186327Y160810D01*
Y158780D01*
X185827D01*
Y158280D01*
X183797D01*
X184074Y157609D01*
X184656Y157027D01*
X184983Y156892D01*
X185335Y156435D01*
Y155613D01*
X185649Y154853D01*
X186231Y154271D01*
X186990Y153957D01*
X187813D01*
X188572Y154271D01*
X188976Y154675D01*
X189380Y154271D01*
X190140Y153957D01*
X190962D01*
X191722Y154271D01*
X192126Y154675D01*
X192530Y154271D01*
X193290Y153957D01*
X194112D01*
X194872Y154271D01*
X195453Y154853D01*
X195768Y155613D01*
Y156435D01*
X196120Y156892D01*
X196446Y157027D01*
X196850Y157431D01*
X197254Y157027D01*
X197581Y156892D01*
X197933Y156435D01*
Y155613D01*
X198248Y154853D01*
X198829Y154271D01*
X199589Y153957D01*
X200411D01*
X201171Y154271D01*
X201575Y154675D01*
X201979Y154271D01*
X202738Y153957D01*
X203561D01*
X204320Y154271D01*
X204724Y154675D01*
X205128Y154271D01*
X205888Y153957D01*
X206710D01*
X207470Y154271D01*
X208051Y154853D01*
X208366Y155613D01*
Y156435D01*
X208718Y156892D01*
X209045Y157027D01*
X209626Y157609D01*
X209904Y158280D01*
X207874D01*
Y158780D01*
X207374D01*
Y160810D01*
X206703Y160532D01*
X206299Y160128D01*
X205895Y160532D01*
X205224Y160810D01*
Y158780D01*
X204224D01*
Y160810D01*
X203554Y160532D01*
X203150Y160128D01*
X202746Y160532D01*
X201986Y160846D01*
G37*
G36*
X478327Y150209D02*
G01X471248D01*
Y143130D01*
X471494D01*
X472959Y143421D01*
X474338Y143992D01*
X475579Y144822D01*
X476635Y145878D01*
X477464Y147119D01*
X478035Y148498D01*
X478327Y149962D01*
Y150209D01*
G37*
G36*
X470248D02*
G01X463169D01*
Y149962D01*
X463460Y148498D01*
X464032Y147119D01*
X464861Y145878D01*
X465917Y144822D01*
X467158Y143992D01*
X468537Y143421D01*
X470002Y143130D01*
X470248D01*
Y150209D01*
G37*
G36*
X339776D02*
G01X332697D01*
Y149962D01*
X332988Y148498D01*
X333559Y147119D01*
X334389Y145878D01*
X335444Y144822D01*
X336686Y143992D01*
X338065Y143421D01*
X339529Y143130D01*
X339776D01*
Y150209D01*
G37*
G36*
X347854D02*
G01X340776D01*
Y143130D01*
X341022D01*
X342486Y143421D01*
X343865Y143992D01*
X345107Y144822D01*
X346162Y145878D01*
X346992Y147119D01*
X347563Y148498D01*
X347854Y149962D01*
Y150209D01*
G37*
G36*
X391508D02*
G01X384429D01*
Y149962D01*
X384720Y148498D01*
X385292Y147119D01*
X386121Y145878D01*
X387177Y144822D01*
X388418Y143992D01*
X389797Y143421D01*
X391261Y143130D01*
X391508D01*
Y150209D01*
G37*
G36*
X399587D02*
G01X392508D01*
Y143130D01*
X392754D01*
X394218Y143421D01*
X395598Y143992D01*
X396839Y144822D01*
X397895Y145878D01*
X398724Y147119D01*
X399295Y148498D01*
X399587Y149962D01*
Y150209D01*
G37*
G36*
X418516D02*
G01X411437D01*
Y149962D01*
X411728Y148498D01*
X412300Y147119D01*
X413129Y145878D01*
X414185Y144822D01*
X415426Y143992D01*
X416805Y143421D01*
X418269Y143130D01*
X418516D01*
Y150209D01*
G37*
G36*
X426594D02*
G01X419516D01*
Y143130D01*
X419762D01*
X421226Y143421D01*
X422606Y143992D01*
X423847Y144822D01*
X424902Y145878D01*
X425732Y147119D01*
X426303Y148498D01*
X426594Y149962D01*
Y150209D01*
G37*
G36*
X471494Y158287D02*
G01X471248D01*
Y151209D01*
X478327D01*
Y151455D01*
X478035Y152919D01*
X477464Y154298D01*
X476635Y155540D01*
X475579Y156596D01*
X474338Y157425D01*
X472959Y157996D01*
X471494Y158287D01*
G37*
G36*
X470248D02*
G01X470002D01*
X468537Y157996D01*
X467158Y157425D01*
X465917Y156596D01*
X464861Y155540D01*
X464032Y154298D01*
X463460Y152919D01*
X463169Y151455D01*
Y151209D01*
X470248D01*
Y158287D01*
G37*
G36*
X419762D02*
G01X419516D01*
Y151209D01*
X426594D01*
Y151455D01*
X426303Y152919D01*
X425732Y154298D01*
X424902Y155540D01*
X423847Y156596D01*
X422606Y157425D01*
X421226Y157996D01*
X419762Y158287D01*
G37*
G36*
X418516D02*
G01X418269D01*
X416805Y157996D01*
X415426Y157425D01*
X414185Y156596D01*
X413129Y155540D01*
X412300Y154298D01*
X411728Y152919D01*
X411437Y151455D01*
Y151209D01*
X418516D01*
Y158287D01*
G37*
G36*
X392754D02*
G01X392508D01*
Y151209D01*
X399587D01*
Y151455D01*
X399295Y152919D01*
X398724Y154298D01*
X397895Y155540D01*
X396839Y156596D01*
X395598Y157425D01*
X394218Y157996D01*
X392754Y158287D01*
G37*
G36*
X391508D02*
G01X391261D01*
X389797Y157996D01*
X388418Y157425D01*
X387177Y156596D01*
X386121Y155540D01*
X385292Y154298D01*
X384720Y152919D01*
X384429Y151455D01*
Y151209D01*
X391508D01*
Y158287D01*
G37*
G36*
X341022D02*
G01X340776D01*
Y151209D01*
X347854D01*
Y151455D01*
X347563Y152919D01*
X346992Y154298D01*
X346162Y155540D01*
X345107Y156596D01*
X343865Y157425D01*
X342486Y157996D01*
X341022Y158287D01*
G37*
G36*
X339776D02*
G01X339529D01*
X338065Y157996D01*
X336686Y157425D01*
X335444Y156596D01*
X334389Y155540D01*
X333559Y154298D01*
X332988Y152919D01*
X332697Y151455D01*
Y151209D01*
X339776D01*
Y158287D01*
G37*
G36*
X642430Y156693D02*
G01X641034D01*
X639665Y156421D01*
X638376Y155886D01*
X637215Y155111D01*
X636228Y154124D01*
X635452Y152963D01*
X634918Y151673D01*
X634646Y150304D01*
Y148908D01*
X634918Y147539D01*
X635452Y146249D01*
X636228Y145089D01*
X637215Y144102D01*
X638376Y143326D01*
X639665Y142792D01*
X641034Y142520D01*
X642430D01*
X643799Y142792D01*
X645089Y143326D01*
X646250Y144102D01*
X647237Y145089D01*
X648012Y146249D01*
X648547Y147539D01*
X648819Y148908D01*
Y150304D01*
X648547Y151673D01*
X648012Y152963D01*
X647237Y154124D01*
X646250Y155111D01*
X645089Y155886D01*
X643799Y156421D01*
X642430Y156693D01*
G37*
G36*
X462236Y160878D02*
G01X459161D01*
Y157803D01*
X460044Y158039D01*
X460861Y158511D01*
X461528Y159178D01*
X462000Y159995D01*
X462236Y160878D01*
G37*
G36*
X458161D02*
G01X455086D01*
X455323Y159995D01*
X455795Y159178D01*
X456462Y158511D01*
X457279Y158039D01*
X458161Y157803D01*
Y160878D01*
G37*
G36*
X383496D02*
G01X380421D01*
Y157803D01*
X381304Y158039D01*
X382121Y158511D01*
X382788Y159178D01*
X383260Y159995D01*
X383496Y160878D01*
G37*
G36*
X379421D02*
G01X376346D01*
X376583Y159995D01*
X377054Y159178D01*
X377722Y158511D01*
X378538Y158039D01*
X379421Y157803D01*
Y160878D01*
G37*
G36*
X243492Y185465D02*
G01X242552D01*
X241684Y185105D01*
X241019Y184441D01*
X240660Y183572D01*
Y182633D01*
X241019Y181764D01*
X241684Y181100D01*
X242552Y180740D01*
X243492D01*
X244360Y181100D01*
X245025Y181764D01*
X245384Y182633D01*
Y183572D01*
X245025Y184441D01*
X244360Y185105D01*
X243492Y185465D01*
G37*
G36*
X244036Y171555D02*
G01X243097D01*
X242228Y171195D01*
X241564Y170531D01*
X241204Y169663D01*
Y168723D01*
X241564Y167855D01*
X242228Y167190D01*
X243097Y166831D01*
X244036D01*
X244905Y167190D01*
X245569Y167855D01*
X245929Y168723D01*
Y169663D01*
X245569Y170531D01*
X244905Y171195D01*
X244036Y171555D01*
G37*
G36*
X261035Y150209D02*
G01X253957D01*
Y149962D01*
X254248Y148498D01*
X254819Y147119D01*
X255649Y145878D01*
X256704Y144822D01*
X257946Y143992D01*
X259325Y143421D01*
X260789Y143130D01*
X261035D01*
Y150209D01*
G37*
G36*
X269114D02*
G01X262035D01*
Y143130D01*
X262282D01*
X263746Y143421D01*
X265125Y143992D01*
X266367Y144822D01*
X267422Y145878D01*
X268252Y147119D01*
X268823Y148498D01*
X269114Y149962D01*
Y150209D01*
G37*
G36*
X261035Y158287D02*
G01X260789D01*
X259325Y157996D01*
X257946Y157425D01*
X256704Y156596D01*
X255649Y155540D01*
X254819Y154298D01*
X254248Y152919D01*
X253957Y151455D01*
Y151209D01*
X261035D01*
Y158287D01*
G37*
G36*
X262282D02*
G01X262035D01*
Y151209D01*
X269114D01*
Y151455D01*
X268823Y152919D01*
X268252Y154298D01*
X267422Y155540D01*
X266367Y156596D01*
X265125Y157425D01*
X263746Y157996D01*
X262282Y158287D01*
G37*
G36*
X274094Y164961D02*
G01X273150D01*
X272239Y164716D01*
X271422Y164245D01*
X270755Y163578D01*
X270284Y162761D01*
X270039Y161850D01*
Y160906D01*
X270284Y159995D01*
X270755Y159178D01*
X271422Y158511D01*
X272239Y158039D01*
X273150Y157795D01*
X274094D01*
X275005Y158039D01*
X275822Y158511D01*
X276489Y159178D01*
X276961Y159995D01*
X277205Y160906D01*
Y161850D01*
X276961Y162761D01*
X276489Y163578D01*
X275822Y164245D01*
X275005Y164716D01*
X274094Y164961D01*
G37*
G36*
X287084Y186614D02*
G01X286144D01*
X285276Y186255D01*
X284612Y185590D01*
X284252Y184722D01*
Y183782D01*
X284612Y182914D01*
X285276Y182249D01*
X286144Y181890D01*
X287084D01*
X287952Y182249D01*
X288617Y182914D01*
X288976Y183782D01*
Y184722D01*
X288617Y185590D01*
X287952Y186255D01*
X287084Y186614D01*
G37*
G36*
X301681Y164953D02*
G01Y161878D01*
X304756D01*
X304520Y162761D01*
X304048Y163578D01*
X303381Y164245D01*
X302564Y164716D01*
X301681Y164953D01*
G37*
G36*
X300681D02*
G01X299798Y164716D01*
X298981Y164245D01*
X298314Y163578D01*
X297843Y162761D01*
X297606Y161878D01*
X300681D01*
Y164953D01*
G37*
G36*
X304756Y160878D02*
G01X301681D01*
Y157803D01*
X302564Y158039D01*
X303381Y158511D01*
X304048Y159178D01*
X304520Y159995D01*
X304756Y160878D01*
G37*
G36*
X300681D02*
G01X297606D01*
X297843Y159995D01*
X298314Y159178D01*
X298981Y158511D01*
X299798Y158039D01*
X300681Y157803D01*
Y160878D01*
G37*
G36*
X291810Y164961D02*
G01X290867D01*
X289956Y164716D01*
X289139Y164245D01*
X288472Y163578D01*
X288000Y162761D01*
X287756Y161850D01*
Y160906D01*
X288000Y159995D01*
X288472Y159178D01*
X289139Y158511D01*
X289956Y158039D01*
X290867Y157795D01*
X291810D01*
X292722Y158039D01*
X293538Y158511D01*
X294205Y159178D01*
X294677Y159995D01*
X294921Y160906D01*
Y161850D01*
X294677Y162761D01*
X294205Y163578D01*
X293538Y164245D01*
X292722Y164716D01*
X291810Y164961D01*
G37*
G36*
X283936D02*
G01X282993D01*
X282082Y164716D01*
X281265Y164245D01*
X280598Y163578D01*
X280126Y162761D01*
X279882Y161850D01*
Y160906D01*
X280126Y159995D01*
X280598Y159178D01*
X281265Y158511D01*
X282082Y158039D01*
X282993Y157795D01*
X283936D01*
X284847Y158039D01*
X285664Y158511D01*
X286331Y159178D01*
X286803Y159995D01*
X287047Y160906D01*
Y161850D01*
X286803Y162761D01*
X286331Y163578D01*
X285664Y164245D01*
X284847Y164716D01*
X283936Y164961D01*
G37*
G36*
X312768Y150209D02*
G01X305689D01*
Y149962D01*
X305980Y148498D01*
X306552Y147119D01*
X307381Y145878D01*
X308437Y144822D01*
X309678Y143992D01*
X311057Y143421D01*
X312521Y143130D01*
X312768D01*
Y150209D01*
G37*
G36*
Y158287D02*
G01X312521D01*
X311057Y157996D01*
X309678Y157425D01*
X308437Y156596D01*
X307381Y155540D01*
X306552Y154298D01*
X305980Y152919D01*
X305689Y151455D01*
Y151209D01*
X312768D01*
Y158287D01*
G37*
G36*
X182032Y135130D02*
G01X179752D01*
Y131735D01*
X179971Y131764D01*
X180642Y132042D01*
X181218Y132483D01*
X181659Y133059D01*
X181937Y133729D01*
X182032Y134449D01*
Y135130D01*
G37*
G36*
X178752D02*
G01X176472D01*
Y134449D01*
X176567Y133729D01*
X176845Y133059D01*
X177286Y132483D01*
X177862Y132042D01*
X178533Y131764D01*
X178752Y131735D01*
Y135130D01*
G37*
G36*
Y139525D02*
G01X178533Y139496D01*
X177862Y139218D01*
X177286Y138777D01*
X176845Y138201D01*
X176567Y137530D01*
X176472Y136811D01*
Y136130D01*
X178752D01*
Y139525D01*
G37*
G36*
X179752D02*
G01Y136130D01*
X182032D01*
Y136811D01*
X181937Y137530D01*
X181659Y138201D01*
X181218Y138777D01*
X180642Y139218D01*
X179971Y139496D01*
X179752Y139525D01*
G37*
G36*
X178752Y153752D02*
G01X176472D01*
Y153071D01*
X176567Y152351D01*
X176845Y151681D01*
X177286Y151105D01*
X177862Y150664D01*
X178533Y150386D01*
X178752Y150357D01*
Y153752D01*
G37*
G36*
X182032D02*
G01X179752D01*
Y150357D01*
X179971Y150386D01*
X180642Y150664D01*
X181218Y151105D01*
X181659Y151681D01*
X181937Y152351D01*
X182032Y153071D01*
Y153752D01*
G37*
G36*
X178752Y158147D02*
G01X178533Y158118D01*
X177862Y157840D01*
X177286Y157399D01*
X176845Y156823D01*
X176567Y156152D01*
X176472Y155433D01*
Y154752D01*
X178752D01*
Y158147D01*
G37*
G36*
X179752D02*
G01Y154752D01*
X182032D01*
Y155433D01*
X181937Y156152D01*
X181659Y156823D01*
X181218Y157399D01*
X180642Y157840D01*
X179971Y158118D01*
X179752Y158147D01*
G37*
G36*
X185327Y160810D02*
G01X184656Y160532D01*
X184074Y159950D01*
X183797Y159280D01*
X185327D01*
Y160810D01*
G37*
G36*
X181177Y188056D02*
G01X180237D01*
X179369Y187696D01*
X178704Y187032D01*
X178345Y186163D01*
Y185224D01*
X178704Y184355D01*
X179369Y183691D01*
X180237Y183331D01*
X181177D01*
X182045Y183691D01*
X182710Y184355D01*
X183069Y185224D01*
Y186163D01*
X182710Y187032D01*
X182045Y187696D01*
X181177Y188056D01*
G37*
G36*
X177242Y169291D02*
G01X176302D01*
X175434Y168932D01*
X174769Y168267D01*
X174409Y167399D01*
Y166459D01*
X174769Y165591D01*
X175434Y164927D01*
X176302Y164567D01*
X177242D01*
X178110Y164927D01*
X178774Y165591D01*
X179134Y166459D01*
Y167399D01*
X178774Y168267D01*
X178110Y168932D01*
X177242Y169291D01*
G37*
G36*
X154013Y167717D02*
G01X153073D01*
X152205Y167357D01*
X151541Y166692D01*
X151181Y165824D01*
Y164884D01*
X151541Y164016D01*
X152205Y163352D01*
X153073Y162992D01*
X154013D01*
X154881Y163352D01*
X155546Y164016D01*
X155905Y164884D01*
Y165824D01*
X155546Y166692D01*
X154881Y167357D01*
X154013Y167717D01*
G37*
G36*
X213949Y135130D02*
G01X211669D01*
Y134449D01*
X211764Y133729D01*
X212042Y133059D01*
X212483Y132483D01*
X213059Y132042D01*
X213729Y131764D01*
X213949Y131735D01*
Y135130D01*
G37*
G36*
X217229D02*
G01X214949D01*
Y131735D01*
X215168Y131764D01*
X215839Y132042D01*
X216414Y132483D01*
X216856Y133059D01*
X217134Y133729D01*
X217229Y134449D01*
Y135130D01*
G37*
G36*
X213949Y139525D02*
G01X213729Y139496D01*
X213059Y139218D01*
X212483Y138777D01*
X212042Y138201D01*
X211764Y137530D01*
X211669Y136811D01*
Y136130D01*
X213949D01*
Y139525D01*
G37*
G36*
X214949D02*
G01Y136130D01*
X217229D01*
Y136811D01*
X217134Y137530D01*
X216856Y138201D01*
X216414Y138777D01*
X215839Y139218D01*
X215168Y139496D01*
X214949Y139525D01*
G37*
G36*
X213949Y153752D02*
G01X211669D01*
Y153071D01*
X211764Y152351D01*
X212042Y151681D01*
X212483Y151105D01*
X213059Y150664D01*
X213729Y150386D01*
X213949Y150357D01*
Y153752D01*
G37*
G36*
X217229D02*
G01X214949D01*
Y150357D01*
X215168Y150386D01*
X215839Y150664D01*
X216414Y151105D01*
X216856Y151681D01*
X217134Y152351D01*
X217229Y153071D01*
Y153752D01*
G37*
G36*
X213949Y158147D02*
G01X213729Y158118D01*
X213059Y157840D01*
X212483Y157399D01*
X212042Y156823D01*
X211764Y156152D01*
X211669Y155433D01*
Y154752D01*
X213949D01*
Y158147D01*
G37*
G36*
X214949D02*
G01Y154752D01*
X217229D01*
Y155433D01*
X217134Y156152D01*
X216856Y156823D01*
X216414Y157399D01*
X215839Y157840D01*
X215168Y158118D01*
X214949Y158147D01*
G37*
G36*
X211593Y192902D02*
G01X210653D01*
X209785Y192542D01*
X209121Y191877D01*
X208761Y191009D01*
Y190069D01*
X209121Y189201D01*
X209785Y188537D01*
X210653Y188177D01*
X211593D01*
X212461Y188537D01*
X213126Y189201D01*
X213486Y190069D01*
Y191009D01*
X213126Y191877D01*
X212461Y192542D01*
X211593Y192902D01*
G37*
G36*
X217901Y191437D02*
G01X216962D01*
X216093Y191077D01*
X215429Y190413D01*
X215069Y189544D01*
Y188605D01*
X215429Y187736D01*
X216093Y187072D01*
X216962Y186712D01*
X217901D01*
X218770Y187072D01*
X219434Y187736D01*
X219794Y188605D01*
Y189544D01*
X219434Y190413D01*
X218770Y191077D01*
X217901Y191437D01*
G37*
G36*
X230393Y186184D02*
G01X229454D01*
X228586Y185824D01*
X227921Y185160D01*
X227561Y184292D01*
Y183352D01*
X227921Y182484D01*
X228586Y181819D01*
X229454Y181459D01*
X230393D01*
X231262Y181819D01*
X231926Y182484D01*
X232286Y183352D01*
Y184292D01*
X231926Y185160D01*
X231262Y185824D01*
X230393Y186184D01*
G37*
G36*
X208374Y160810D02*
G01Y159280D01*
X209904D01*
X209626Y159950D01*
X209045Y160532D01*
X208374Y160810D01*
G37*
G36*
X221838Y185071D02*
G01X220899D01*
X220030Y184711D01*
X219366Y184047D01*
X219006Y183179D01*
Y182239D01*
X219366Y181371D01*
X220030Y180706D01*
X220899Y180347D01*
X221838D01*
X222707Y180706D01*
X223371Y181371D01*
X223731Y182239D01*
Y183179D01*
X223371Y184047D01*
X222707Y184711D01*
X221838Y185071D01*
G37*
G36*
X189028Y230312D02*
G01X188088D01*
X187220Y229953D01*
X186556Y229288D01*
X186196Y228420D01*
Y227480D01*
X186556Y226612D01*
X187220Y225948D01*
X188088Y225588D01*
X189028D01*
X189896Y225948D01*
X190561Y226612D01*
X190920Y227480D01*
Y228420D01*
X190561Y229288D01*
X189896Y229953D01*
X189028Y230312D01*
G37*
G36*
X171726Y225000D02*
G01X170793D01*
X169892Y224759D01*
X169084Y224292D01*
X168424Y223632D01*
X167958Y222824D01*
X167717Y221923D01*
Y220990D01*
X167958Y220089D01*
X168424Y219281D01*
X169084Y218621D01*
X169892Y218155D01*
X170793Y217913D01*
X171726D01*
X172627Y218155D01*
X173435Y218621D01*
X174095Y219281D01*
X174562Y220089D01*
X174803Y220990D01*
Y221923D01*
X174562Y222824D01*
X174095Y223632D01*
X173435Y224292D01*
X172627Y224759D01*
X171726Y225000D01*
G37*
G36*
X189028Y219731D02*
G01X188088D01*
X187220Y219372D01*
X186556Y218707D01*
X186196Y217839D01*
Y216899D01*
X186556Y216031D01*
X187220Y215367D01*
X188088Y215007D01*
X189028D01*
X189896Y215367D01*
X190561Y216031D01*
X190920Y216899D01*
Y217839D01*
X190561Y218707D01*
X189896Y219372D01*
X189028Y219731D01*
G37*
G36*
X181376Y217191D02*
G01X180436D01*
X179568Y216832D01*
X178904Y216167D01*
X178544Y215299D01*
Y214359D01*
X178904Y213491D01*
X179568Y212826D01*
X180436Y212467D01*
X181376D01*
X182244Y212826D01*
X182909Y213491D01*
X183268Y214359D01*
Y215299D01*
X182909Y216167D01*
X182244Y216832D01*
X181376Y217191D01*
G37*
G36*
X189641Y201484D02*
G01X188702D01*
X187833Y201125D01*
X187169Y200460D01*
X186809Y199592D01*
Y198652D01*
X187169Y197784D01*
X187833Y197119D01*
X188702Y196760D01*
X189641D01*
X190510Y197119D01*
X191174Y197784D01*
X191534Y198652D01*
Y199592D01*
X191174Y200460D01*
X190510Y201125D01*
X189641Y201484D01*
G37*
G36*
X173401Y209653D02*
G01X172461D01*
X171593Y209294D01*
X170929Y208629D01*
X170569Y207761D01*
Y206821D01*
X170929Y205953D01*
X171593Y205289D01*
X172461Y204929D01*
X173401D01*
X174269Y205289D01*
X174934Y205953D01*
X175294Y206821D01*
Y207761D01*
X174934Y208629D01*
X174269Y209294D01*
X173401Y209653D01*
G37*
G36*
X181177D02*
G01X180237D01*
X179369Y209294D01*
X178704Y208629D01*
X178345Y207761D01*
Y206821D01*
X178704Y205953D01*
X179369Y205289D01*
X180237Y204929D01*
X181177D01*
X182045Y205289D01*
X182710Y205953D01*
X183069Y206821D01*
Y207761D01*
X182710Y208629D01*
X182045Y209294D01*
X181177Y209653D01*
G37*
G36*
X239053Y224606D02*
G01X238113D01*
X237245Y224247D01*
X236580Y223582D01*
X236221Y222714D01*
Y221774D01*
X236580Y220906D01*
X237245Y220241D01*
X238113Y219882D01*
X239053D01*
X239921Y220241D01*
X240585Y220906D01*
X240945Y221774D01*
Y222714D01*
X240585Y223582D01*
X239921Y224247D01*
X239053Y224606D01*
G37*
G36*
X227241Y219034D02*
G01X226301D01*
X225433Y218674D01*
X224768Y218010D01*
X224409Y217142D01*
Y216202D01*
X224768Y215334D01*
X225433Y214669D01*
X226301Y214309D01*
X227241D01*
X228109Y214669D01*
X228773Y215334D01*
X229133Y216202D01*
Y217142D01*
X228773Y218010D01*
X228109Y218674D01*
X227241Y219034D01*
G37*
G36*
X247808Y202394D02*
G01X246868D01*
X246000Y202034D01*
X245336Y201370D01*
X244976Y200501D01*
Y199562D01*
X245336Y198694D01*
X246000Y198029D01*
X246868Y197669D01*
X247808D01*
X248676Y198029D01*
X249341Y198694D01*
X249700Y199562D01*
Y200501D01*
X249341Y201370D01*
X248676Y202034D01*
X247808Y202394D01*
G37*
G36*
X205500Y205937D02*
G01X204560D01*
X203692Y205577D01*
X203027Y204913D01*
X202668Y204045D01*
Y203105D01*
X203027Y202237D01*
X203692Y201572D01*
X204560Y201213D01*
X205500D01*
X206368Y201572D01*
X207032Y202237D01*
X207392Y203105D01*
Y204045D01*
X207032Y204913D01*
X206368Y205577D01*
X205500Y205937D01*
G37*
G36*
X211504Y213862D02*
G01X210564D01*
X209696Y213503D01*
X209031Y212838D01*
X208672Y211970D01*
Y211030D01*
X209031Y210162D01*
X209696Y209497D01*
X210564Y209138D01*
X211504D01*
X212372Y209497D01*
X213036Y210162D01*
X213396Y211030D01*
Y211970D01*
X213036Y212838D01*
X212372Y213503D01*
X211504Y213862D01*
G37*
G36*
X320549Y221923D02*
G01X319609D01*
X318741Y221564D01*
X318076Y220899D01*
X317717Y220031D01*
Y219091D01*
X318076Y218223D01*
X318741Y217559D01*
X319609Y217199D01*
X320549D01*
X321417Y217559D01*
X322081Y218223D01*
X322441Y219091D01*
Y220031D01*
X322081Y220899D01*
X321417Y221564D01*
X320549Y221923D01*
G37*
G36*
X273044Y202092D02*
G01X272104D01*
X271236Y201732D01*
X270571Y201067D01*
X270212Y200199D01*
Y199259D01*
X270571Y198391D01*
X271236Y197727D01*
X272104Y197367D01*
X273044D01*
X273912Y197727D01*
X274577Y198391D01*
X274936Y199259D01*
Y200199D01*
X274577Y201067D01*
X273912Y201732D01*
X273044Y202092D01*
G37*
G36*
X328816Y227935D02*
G01X327877D01*
X327008Y227575D01*
X326344Y226911D01*
X325984Y226043D01*
Y225103D01*
X326344Y224235D01*
X327008Y223570D01*
X327877Y223211D01*
X328816D01*
X329684Y223570D01*
X330349Y224235D01*
X330709Y225103D01*
Y226043D01*
X330349Y226911D01*
X329684Y227575D01*
X328816Y227935D01*
G37*
G36*
X379210Y225770D02*
G01X378270D01*
X377402Y225410D01*
X376738Y224746D01*
X376378Y223878D01*
X376217Y223770D01*
X375667Y223998D01*
X374727D01*
X373859Y223639D01*
X373194Y222974D01*
X372835Y222106D01*
Y221166D01*
X373194Y220298D01*
X373859Y219633D01*
X374727Y219274D01*
X375667D01*
X376535Y219633D01*
X377199Y220298D01*
X377559Y221166D01*
X377720Y221273D01*
X378270Y221045D01*
X379210D01*
X380078Y221405D01*
X380743Y222070D01*
X381102Y222938D01*
Y223878D01*
X380743Y224746D01*
X380078Y225410D01*
X379210Y225770D01*
G37*
G36*
X390118D02*
G01X389178D01*
X388310Y225410D01*
X387645Y224746D01*
X387286Y223878D01*
Y222938D01*
X387645Y222070D01*
X388310Y221405D01*
X389178Y221045D01*
X390118D01*
X390986Y221405D01*
X391650Y222070D01*
X392010Y222938D01*
Y223878D01*
X391650Y224746D01*
X390986Y225410D01*
X390118Y225770D01*
G37*
G36*
X391500Y206496D02*
G01X389997D01*
X388545Y206107D01*
X387243Y205356D01*
X386180Y204293D01*
X385428Y202991D01*
X385039Y201539D01*
Y200036D01*
X385428Y198584D01*
X386180Y197282D01*
X387243Y196219D01*
X388545Y195468D01*
X389997Y195079D01*
X391500D01*
X392951Y195468D01*
X394253Y196219D01*
X395316Y197282D01*
X396068Y198584D01*
X396457Y200036D01*
Y201539D01*
X396068Y202991D01*
X395316Y204293D01*
X394253Y205356D01*
X392951Y206107D01*
X391500Y206496D01*
G37*
G36*
X356613Y203467D02*
G01X355674D01*
X354805Y203108D01*
X354141Y202443D01*
X353781Y201575D01*
Y200635D01*
X354141Y199767D01*
X354805Y199103D01*
X355674Y198743D01*
X356613D01*
X357481Y199103D01*
X358146Y199767D01*
X358506Y200635D01*
Y201575D01*
X358146Y202443D01*
X357481Y203108D01*
X356613Y203467D01*
G37*
G36*
X371336Y217991D02*
G01X370396D01*
X369528Y217632D01*
X368864Y216967D01*
X368504Y216099D01*
Y215159D01*
X368864Y214291D01*
X369528Y213627D01*
X370396Y213267D01*
X371336D01*
X372204Y213627D01*
X372869Y214291D01*
X373228Y215159D01*
Y216099D01*
X372869Y216967D01*
X372204Y217632D01*
X371336Y217991D01*
G37*
G36*
X338659Y218683D02*
G01X337719D01*
X336851Y218324D01*
X336186Y217659D01*
X335827Y216791D01*
Y215851D01*
X336186Y214983D01*
X336851Y214318D01*
X337719Y213959D01*
X338659D01*
X339527Y214318D01*
X340192Y214983D01*
X340551Y215851D01*
Y216791D01*
X340192Y217659D01*
X339527Y218324D01*
X338659Y218683D01*
G37*
G36*
X282231Y255748D02*
G01X281292D01*
X280423Y255388D01*
X279759Y254724D01*
X279399Y253856D01*
Y252916D01*
X279759Y252048D01*
X280423Y251383D01*
X281292Y251024D01*
X282231D01*
X283100Y251383D01*
X283764Y252048D01*
X284124Y252916D01*
Y253856D01*
X283764Y254724D01*
X283100Y255388D01*
X282231Y255748D01*
G37*
G36*
X317399Y245669D02*
G01X316459D01*
X315591Y245310D01*
X314927Y244645D01*
X314567Y243777D01*
Y242837D01*
X314927Y241969D01*
X315591Y241304D01*
X316459Y240945D01*
X317399D01*
X318267Y241304D01*
X318932Y241969D01*
X319291Y242837D01*
Y243777D01*
X318932Y244645D01*
X318267Y245310D01*
X317399Y245669D01*
G37*
G36*
X250470D02*
G01X249530D01*
X248662Y245310D01*
X247997Y244645D01*
X247638Y243777D01*
Y242837D01*
X247997Y241969D01*
X248662Y241304D01*
X249530Y240945D01*
X250470D01*
X251338Y241304D01*
X252003Y241969D01*
X252362Y242837D01*
Y243777D01*
X252003Y244645D01*
X251338Y245310D01*
X250470Y245669D01*
G37*
G36*
X360069Y257480D02*
G01X359130D01*
X358261Y257121D01*
X357597Y256456D01*
X357237Y255588D01*
Y254648D01*
X357597Y253780D01*
X358261Y253116D01*
X359130Y252756D01*
X360069D01*
X360938Y253116D01*
X361602Y253780D01*
X361962Y254648D01*
Y255588D01*
X361602Y256456D01*
X360938Y257121D01*
X360069Y257480D01*
G37*
G36*
X384328Y240730D02*
G01X383388D01*
X382520Y240371D01*
X381856Y239706D01*
X381496Y238838D01*
Y237898D01*
X381856Y237030D01*
X382520Y236366D01*
X383388Y236006D01*
X384328D01*
X385196Y236366D01*
X385861Y237030D01*
X386220Y237898D01*
Y238838D01*
X385861Y239706D01*
X385196Y240371D01*
X384328Y240730D01*
G37*
G36*
X335903Y236400D02*
G01X334963D01*
X334095Y236040D01*
X333431Y235376D01*
X333071Y234507D01*
Y233568D01*
X333431Y232699D01*
X334095Y232035D01*
X334963Y231675D01*
X335903D01*
X336771Y232035D01*
X337436Y232699D01*
X337795Y233568D01*
Y234507D01*
X337436Y235376D01*
X336771Y236040D01*
X335903Y236400D01*
G37*
G36*
X345942Y245652D02*
G01X345003D01*
X344134Y245292D01*
X343470Y244628D01*
X343110Y243759D01*
Y242820D01*
X343470Y241951D01*
X344134Y241287D01*
X344587Y241099D01*
Y240558D01*
X344134Y240371D01*
X343470Y239706D01*
X343110Y238838D01*
Y237898D01*
X343470Y237030D01*
X344134Y236366D01*
X345003Y236006D01*
X345942D01*
X346811Y236366D01*
X347475Y237030D01*
X347835Y237898D01*
Y238838D01*
X347475Y239706D01*
X346811Y240371D01*
X346358Y240558D01*
Y241099D01*
X346811Y241287D01*
X347475Y241951D01*
X347835Y242820D01*
Y243759D01*
X347475Y244628D01*
X346811Y245292D01*
X345942Y245652D01*
G37*
G36*
X257641Y340354D02*
G01X256138D01*
X254686Y339965D01*
X253385Y339214D01*
X252322Y338151D01*
X251570Y336849D01*
X251181Y335397D01*
Y333894D01*
X251570Y332442D01*
X252322Y331140D01*
X253385Y330078D01*
X254686Y329326D01*
X256138Y328937D01*
X257641D01*
X259093Y329326D01*
X260395Y330078D01*
X261458Y331140D01*
X262209Y332442D01*
X262598Y333894D01*
Y335397D01*
X262209Y336849D01*
X261458Y338151D01*
X260395Y339214D01*
X259093Y339965D01*
X257641Y340354D01*
G37*
G36*
X254387Y299358D02*
G01X253447D01*
X252579Y298999D01*
X251915Y298334D01*
X251555Y297466D01*
Y296526D01*
X251915Y295658D01*
X252579Y294993D01*
X253447Y294634D01*
X254387D01*
X255255Y294993D01*
X255920Y295658D01*
X256279Y296526D01*
Y297466D01*
X255920Y298334D01*
X255255Y298999D01*
X254387Y299358D01*
G37*
G36*
X272381Y280810D02*
G01X271441D01*
X270573Y280450D01*
X269908Y279786D01*
X269549Y278918D01*
Y277978D01*
X269908Y277110D01*
X270573Y276445D01*
X271441Y276086D01*
X272381D01*
X273249Y276445D01*
X273913Y277110D01*
X274273Y277978D01*
Y278918D01*
X273913Y279786D01*
X273249Y280450D01*
X272381Y280810D01*
G37*
G36*
X391500Y340354D02*
G01X389997D01*
X388545Y339965D01*
X387243Y339214D01*
X386180Y338151D01*
X385428Y336849D01*
X385039Y335397D01*
Y333894D01*
X385428Y332442D01*
X386180Y331140D01*
X387243Y330078D01*
X388545Y329326D01*
X389997Y328937D01*
X391500D01*
X392951Y329326D01*
X394253Y330078D01*
X395316Y331140D01*
X396068Y332442D01*
X396457Y333894D01*
Y335397D01*
X396068Y336849D01*
X395316Y338151D01*
X394253Y339214D01*
X392951Y339965D01*
X391500Y340354D01*
G37*
G36*
X418777Y285827D02*
G01X417837D01*
X416969Y285467D01*
X416304Y284803D01*
X415945Y283934D01*
Y282995D01*
X416304Y282126D01*
X416969Y281462D01*
X417837Y281102D01*
X418777D01*
X419645Y281462D01*
X420310Y282126D01*
X420669Y282995D01*
Y283934D01*
X420310Y284803D01*
X419645Y285467D01*
X418777Y285827D01*
G37*
G36*
X375273D02*
G01X374333D01*
X373465Y285467D01*
X372801Y284803D01*
X372441Y283934D01*
Y282995D01*
X372801Y282126D01*
X373465Y281462D01*
X374333Y281102D01*
X375273D01*
X376141Y281462D01*
X376806Y282126D01*
X377165Y282995D01*
Y283934D01*
X376806Y284803D01*
X376141Y285467D01*
X375273Y285827D01*
G37*
G36*
X74625Y338878D02*
G01X73407D01*
X72230Y338563D01*
X71175Y337954D01*
X70314Y337092D01*
X69705Y336037D01*
X69390Y334861D01*
Y333643D01*
X69705Y332466D01*
X70314Y331412D01*
X71175Y330550D01*
X72230Y329941D01*
X73407Y329626D01*
X74625D01*
X75801Y329941D01*
X76856Y330550D01*
X77718Y331412D01*
X78326Y332466D01*
X78642Y333643D01*
Y334861D01*
X78326Y336037D01*
X77718Y337092D01*
X76856Y337954D01*
X75801Y338563D01*
X74625Y338878D01*
G37*
G36*
X51879Y337795D02*
G01X50483D01*
X49114Y337523D01*
X47824Y336989D01*
X46664Y336213D01*
X45676Y335226D01*
X44901Y334065D01*
X44367Y332776D01*
X44094Y331407D01*
Y330011D01*
X44367Y328642D01*
X44901Y327352D01*
X45676Y326191D01*
X46664Y325204D01*
X47824Y324429D01*
X49114Y323894D01*
X50483Y323622D01*
X51879D01*
X53248Y323894D01*
X54538Y324429D01*
X55699Y325204D01*
X56686Y326191D01*
X57461Y327352D01*
X57995Y328642D01*
X58268Y330011D01*
Y331407D01*
X57995Y332776D01*
X57461Y334065D01*
X56686Y335226D01*
X55699Y336213D01*
X54538Y336989D01*
X53248Y337523D01*
X51879Y337795D01*
G37*
G36*
X67843Y275736D02*
G01X67340Y275528D01*
X66841Y275029D01*
X66633Y274526D01*
X67843D01*
Y275736D01*
G37*
G36*
X76717D02*
G01Y274526D01*
X77928D01*
X77719Y275029D01*
X77221Y275528D01*
X76717Y275736D01*
G37*
G36*
X94625Y338878D02*
G01X94516D01*
Y334752D01*
X98642D01*
Y334861D01*
X98326Y336037D01*
X97717Y337092D01*
X96856Y337954D01*
X95801Y338563D01*
X94625Y338878D01*
G37*
G36*
X93516D02*
G01X93407D01*
X92230Y338563D01*
X91175Y337954D01*
X90314Y337092D01*
X89705Y336037D01*
X89390Y334861D01*
Y334752D01*
X93516D01*
Y338878D01*
G37*
G36*
X134625D02*
G01X133407D01*
X132230Y338563D01*
X131175Y337954D01*
X130314Y337092D01*
X129705Y336037D01*
X129390Y334861D01*
Y333643D01*
X129705Y332466D01*
X130314Y331412D01*
X131175Y330550D01*
X132230Y329941D01*
X133407Y329626D01*
X134625D01*
X135801Y329941D01*
X136856Y330550D01*
X137717Y331412D01*
X138327Y332466D01*
X138642Y333643D01*
Y334861D01*
X138327Y336037D01*
X137717Y337092D01*
X136856Y337954D01*
X135801Y338563D01*
X134625Y338878D01*
G37*
G36*
X114625D02*
G01X113407D01*
X112230Y338563D01*
X111175Y337954D01*
X110314Y337092D01*
X109705Y336037D01*
X109390Y334861D01*
Y333643D01*
X109705Y332466D01*
X110314Y331412D01*
X111175Y330550D01*
X112230Y329941D01*
X113407Y329626D01*
X114625D01*
X115801Y329941D01*
X116856Y330550D01*
X117718Y331412D01*
X118326Y332466D01*
X118642Y333643D01*
Y334861D01*
X118326Y336037D01*
X117718Y337092D01*
X116856Y337954D01*
X115801Y338563D01*
X114625Y338878D01*
G37*
G36*
X98642Y333752D02*
G01X94516D01*
Y329626D01*
X94625D01*
X95801Y329941D01*
X96856Y330550D01*
X97717Y331412D01*
X98326Y332466D01*
X98642Y333643D01*
Y333752D01*
G37*
G36*
X93516D02*
G01X89390D01*
Y333643D01*
X89705Y332466D01*
X90314Y331412D01*
X91175Y330550D01*
X92230Y329941D01*
X93407Y329626D01*
X93516D01*
Y333752D01*
G37*
G36*
X120549Y281890D02*
G01X119609D01*
X118741Y281530D01*
X118076Y280866D01*
X117717Y279997D01*
Y279058D01*
X118076Y278189D01*
X118741Y277525D01*
X119609Y277165D01*
X120549D01*
X121417Y277525D01*
X122081Y278189D01*
X122441Y279058D01*
Y279997D01*
X122081Y280866D01*
X121417Y281530D01*
X120549Y281890D01*
G37*
G36*
X84561Y286034D02*
G01X83622D01*
X82753Y285674D01*
X82089Y285009D01*
X81729Y284141D01*
Y283201D01*
X82089Y282333D01*
X82753Y281669D01*
X83622Y281309D01*
X84561D01*
X85430Y281669D01*
X86094Y282333D01*
X86454Y283201D01*
Y284141D01*
X86094Y285009D01*
X85430Y285674D01*
X84561Y286034D01*
G37*
G36*
X322757Y320604D02*
G01X321817D01*
X320949Y320244D01*
X320285Y319580D01*
X319925Y318712D01*
Y317772D01*
X320285Y316904D01*
X320949Y316239D01*
X321817Y315880D01*
X322757D01*
X323625Y316239D01*
X324290Y316904D01*
X324650Y317772D01*
Y318712D01*
X324290Y319580D01*
X323625Y320244D01*
X322757Y320604D01*
G37*
G36*
X316218Y300394D02*
G01X315278D01*
X314410Y300034D01*
X314039Y299663D01*
X313712Y299397D01*
X313386Y299663D01*
X313015Y300034D01*
X312147Y300394D01*
X311207D01*
X310339Y300034D01*
X309674Y299370D01*
X309314Y298501D01*
Y297562D01*
X309674Y296693D01*
X310339Y296029D01*
X311207Y295669D01*
X312147D01*
X313015Y296029D01*
X313386Y296400D01*
X313712Y296666D01*
X314039Y296400D01*
X314410Y296029D01*
X315278Y295669D01*
X316218D01*
X317086Y296029D01*
X317751Y296693D01*
X318110Y297562D01*
Y298501D01*
X317751Y299370D01*
X317086Y300034D01*
X316218Y300394D01*
G37*
G36*
X304013Y301181D02*
G01X303073D01*
X302205Y300821D01*
X301541Y300157D01*
X301181Y299289D01*
Y298349D01*
X301541Y297481D01*
X302205Y296816D01*
X303073Y296457D01*
X304013D01*
X304881Y296816D01*
X305546Y297481D01*
X305906Y298349D01*
Y299289D01*
X305546Y300157D01*
X304881Y300821D01*
X304013Y301181D01*
G37*
G36*
X302045Y285341D02*
G01X301105D01*
X300237Y284981D01*
X299572Y284317D01*
X299213Y283448D01*
Y282509D01*
X299572Y281641D01*
X300237Y280976D01*
X301105Y280616D01*
X302045D01*
X302913Y280976D01*
X303577Y281641D01*
X303937Y282509D01*
Y283448D01*
X303577Y284317D01*
X302913Y284981D01*
X302045Y285341D01*
G37*
G36*
X308721Y287068D02*
G01X307782D01*
X306914Y286708D01*
X306249Y286044D01*
X305889Y285175D01*
Y284236D01*
X306249Y283367D01*
X306914Y282703D01*
X307782Y282343D01*
X308721D01*
X309590Y282703D01*
X310254Y283367D01*
X310614Y284236D01*
Y285175D01*
X310254Y286044D01*
X309590Y286708D01*
X308721Y287068D01*
G37*
G36*
X316218Y290420D02*
G01X315278D01*
X314410Y290060D01*
X313745Y289395D01*
X313386Y288527D01*
Y287588D01*
X313745Y286719D01*
X314410Y286055D01*
X315278Y285695D01*
X316218D01*
X317086Y286055D01*
X317751Y286719D01*
X318110Y287588D01*
Y288527D01*
X317751Y289395D01*
X317086Y290060D01*
X316218Y290420D01*
G37*
G36*
X295745Y291479D02*
G01X294806D01*
X293937Y291120D01*
X293273Y290455D01*
X292913Y289587D01*
Y288647D01*
X293273Y287779D01*
X293937Y287115D01*
X294806Y286755D01*
X295745D01*
X296614Y287115D01*
X297278Y287779D01*
X297638Y288647D01*
Y289587D01*
X297278Y290455D01*
X296614Y291120D01*
X295745Y291479D01*
G37*
G36*
X324879Y296457D02*
G01X323940D01*
X323071Y296097D01*
X322407Y295433D01*
X322047Y294564D01*
Y293625D01*
X322407Y292756D01*
X323071Y292092D01*
X323940Y291732D01*
X324879D01*
X325747Y292092D01*
X326412Y292756D01*
X326772Y293625D01*
Y294564D01*
X326412Y295433D01*
X325747Y296097D01*
X324879Y296457D01*
G37*
G36*
X350709Y307906D02*
G01X349528D01*
X348551Y307778D01*
X347641Y307401D01*
X346860Y306801D01*
X346261Y306020D01*
X345884Y305110D01*
X345755Y304134D01*
X345884Y303157D01*
X346261Y302248D01*
X346860Y301466D01*
X347641Y300867D01*
X348551Y300490D01*
X349528Y300361D01*
X350709D01*
X351685Y300490D01*
X352595Y300867D01*
X353376Y301466D01*
X353976Y302248D01*
X354352Y303157D01*
X354481Y304134D01*
X354352Y305110D01*
X353976Y306020D01*
X353376Y306801D01*
X352595Y307401D01*
X351685Y307778D01*
X350709Y307906D01*
G37*
G36*
X342835Y302001D02*
G01X341653D01*
X340677Y301872D01*
X339767Y301495D01*
X338986Y300896D01*
X338387Y300115D01*
X338010Y299205D01*
X337881Y298228D01*
X338010Y297252D01*
X338387Y296342D01*
X338986Y295561D01*
X339767Y294961D01*
X340677Y294584D01*
X341653Y294456D01*
X342835D01*
X343811Y294584D01*
X344721Y294961D01*
X345502Y295561D01*
X346102Y296342D01*
X346479Y297252D01*
X346607Y298228D01*
X346479Y299205D01*
X346102Y300115D01*
X345502Y300896D01*
X344721Y301495D01*
X343811Y301872D01*
X342835Y302001D01*
G37*
G36*
X350709Y296095D02*
G01X349528D01*
X348551Y295967D01*
X347641Y295590D01*
X346860Y294990D01*
X346261Y294209D01*
X345884Y293299D01*
X345755Y292323D01*
X345884Y291347D01*
X346261Y290437D01*
X346860Y289655D01*
X347641Y289056D01*
X348551Y288679D01*
X349528Y288550D01*
X350709D01*
X351685Y288679D01*
X352595Y289056D01*
X353376Y289655D01*
X353976Y290437D01*
X354352Y291347D01*
X354481Y292323D01*
X354352Y293299D01*
X353976Y294209D01*
X353376Y294990D01*
X352595Y295590D01*
X351685Y295967D01*
X350709Y296095D01*
G37*
G36*
X354822Y276378D02*
G01X353883D01*
X353014Y276018D01*
X352350Y275354D01*
X351990Y274486D01*
Y273546D01*
X352350Y272678D01*
X353014Y272013D01*
X353883Y271654D01*
X354822D01*
X355691Y272013D01*
X356355Y272678D01*
X356715Y273546D01*
Y274486D01*
X356355Y275354D01*
X355691Y276018D01*
X354822Y276378D01*
G37*
G36*
X341744Y285917D02*
G01X337947D01*
X338010Y285441D01*
X338387Y284531D01*
X338986Y283750D01*
X339767Y283150D01*
X340677Y282773D01*
X341653Y282645D01*
X341744D01*
Y285917D01*
G37*
G36*
X346541D02*
G01X342744D01*
Y282645D01*
X342835D01*
X343811Y282773D01*
X344721Y283150D01*
X345502Y283750D01*
X346102Y284531D01*
X346479Y285441D01*
X346541Y285917D01*
G37*
G36*
X341744Y290190D02*
G01X341653D01*
X340677Y290061D01*
X339767Y289684D01*
X338986Y289085D01*
X338387Y288303D01*
X338010Y287394D01*
X337947Y286917D01*
X341744D01*
Y290190D01*
G37*
G36*
X342835D02*
G01X342744D01*
Y286917D01*
X346541D01*
X346479Y287394D01*
X346102Y288303D01*
X345502Y289085D01*
X344721Y289684D01*
X343811Y290061D01*
X342835Y290190D01*
G37*
G36*
X329921Y291732D02*
G01X328981D01*
X328113Y291373D01*
X327449Y290708D01*
X327089Y289840D01*
Y288900D01*
X327449Y288032D01*
X328113Y287368D01*
X328981Y287008D01*
X329921D01*
X330789Y287368D01*
X331454Y288032D01*
X331814Y288900D01*
Y289840D01*
X331454Y290708D01*
X330789Y291373D01*
X329921Y291732D01*
G37*
G36*
X188462Y273760D02*
G01X187522D01*
X186654Y273401D01*
X185990Y272736D01*
X185630Y271868D01*
Y270928D01*
X185990Y270060D01*
X186654Y269395D01*
X187522Y269036D01*
X188462D01*
X189330Y269395D01*
X189995Y270060D01*
X190354Y270928D01*
Y271868D01*
X189995Y272736D01*
X189330Y273401D01*
X188462Y273760D01*
G37*
G36*
X220312Y277987D02*
G01X219372D01*
X218504Y277627D01*
X217839Y276963D01*
X217480Y276095D01*
Y275155D01*
X217839Y274287D01*
X218504Y273622D01*
X219372Y273262D01*
X220312D01*
X221180Y273622D01*
X221845Y274287D01*
X222204Y275155D01*
Y276095D01*
X221845Y276963D01*
X221180Y277627D01*
X220312Y277987D01*
G37*
G36*
X197273Y282374D02*
G01X196333D01*
X195465Y282014D01*
X194800Y281350D01*
X194441Y280481D01*
Y279542D01*
X194800Y278673D01*
X195465Y278009D01*
X196333Y277649D01*
X197273D01*
X198141Y278009D01*
X198806Y278673D01*
X199064Y279297D01*
X199564Y279197D01*
Y278620D01*
X199923Y277752D01*
X200588Y277087D01*
X201456Y276728D01*
X202396D01*
X203264Y277087D01*
X203929Y277752D01*
X204288Y278620D01*
Y279560D01*
X203929Y280428D01*
X203264Y281092D01*
X202396Y281452D01*
X201456D01*
X200588Y281092D01*
X199923Y280428D01*
X199665Y279804D01*
X199165Y279904D01*
Y280481D01*
X198806Y281350D01*
X198141Y282014D01*
X197273Y282374D01*
G37*
G36*
X220942Y296654D02*
G01X220003D01*
X219134Y296294D01*
X218470Y295629D01*
X218110Y294761D01*
Y294240D01*
X217920Y293805D01*
X217648Y293782D01*
X216970D01*
X216102Y293422D01*
X215437Y292758D01*
X215077Y291889D01*
Y290950D01*
X215437Y290081D01*
X216102Y289417D01*
X216970Y289057D01*
X217909D01*
X218778Y289417D01*
X219442Y290081D01*
X219802Y290950D01*
Y291471D01*
X219992Y291906D01*
X220264Y291929D01*
X220942D01*
X221811Y292289D01*
X222475Y292953D01*
X222835Y293822D01*
Y294761D01*
X222475Y295629D01*
X221811Y296294D01*
X220942Y296654D01*
G37*
G36*
X199534Y300822D02*
G01X198594D01*
X197726Y300463D01*
X197061Y299798D01*
X196702Y298930D01*
Y297990D01*
X197061Y297122D01*
X197726Y296458D01*
X198594Y296098D01*
X199534D01*
X200402Y296458D01*
X201066Y297122D01*
X201426Y297990D01*
Y298930D01*
X201066Y299798D01*
X200402Y300463D01*
X199534Y300822D01*
G37*
G36*
X226339Y301965D02*
G01X225399D01*
X224531Y301605D01*
X223867Y300941D01*
X223507Y300072D01*
Y299133D01*
X223867Y298265D01*
X224531Y297600D01*
X225399Y297240D01*
X226339D01*
X227207Y297600D01*
X227872Y298265D01*
X228232Y299133D01*
Y300072D01*
X227872Y300941D01*
X227207Y301605D01*
X226339Y301965D01*
G37*
G36*
X178642Y338878D02*
G01X169390D01*
Y329626D01*
X178642D01*
Y338878D01*
G37*
G36*
X154625D02*
G01X153407D01*
X152230Y338563D01*
X151175Y337954D01*
X150314Y337092D01*
X149705Y336037D01*
X149390Y334861D01*
Y333643D01*
X149705Y332466D01*
X150314Y331412D01*
X151175Y330550D01*
X152230Y329941D01*
X153407Y329626D01*
X154625D01*
X155801Y329941D01*
X156856Y330550D01*
X157718Y331412D01*
X158326Y332466D01*
X158642Y333643D01*
Y334861D01*
X158326Y336037D01*
X157718Y337092D01*
X156856Y337954D01*
X155801Y338563D01*
X154625Y338878D01*
G37*
G36*
X211802Y328429D02*
G01X211050D01*
X210324Y328234D01*
X209673Y327858D01*
X209234Y327419D01*
X208926Y327365D01*
X208617Y327419D01*
X208178Y327858D01*
X207527Y328234D01*
X206802Y328429D01*
X206050D01*
X205324Y328234D01*
X204673Y327858D01*
X204142Y327327D01*
X203766Y326676D01*
X203571Y325950D01*
Y325199D01*
X203766Y324473D01*
X204142Y323822D01*
X204581Y323383D01*
X204635Y323075D01*
X204581Y322766D01*
X204142Y322327D01*
X203766Y321676D01*
X203605Y321075D01*
X206426D01*
Y320075D01*
X203605D01*
X203766Y319473D01*
X204142Y318822D01*
X204581Y318383D01*
X204635Y318074D01*
X204581Y317766D01*
X204142Y317327D01*
X203766Y316676D01*
X203605Y316074D01*
X206426D01*
Y315074D01*
X203605D01*
X203766Y314473D01*
X204142Y313822D01*
X204581Y313383D01*
X204635Y313074D01*
X204581Y312766D01*
X204142Y312327D01*
X203766Y311676D01*
X203571Y310950D01*
Y310199D01*
X203766Y309473D01*
X204142Y308822D01*
X204581Y308383D01*
X204635Y308074D01*
X204581Y307766D01*
X204142Y307327D01*
X203766Y306676D01*
X203605Y306075D01*
X206426D01*
Y305574D01*
X206926D01*
Y302753D01*
X207527Y302915D01*
X208178Y303291D01*
X208617Y303730D01*
X208926Y303784D01*
X209234Y303730D01*
X209673Y303291D01*
X210324Y302915D01*
X211050Y302720D01*
X211802D01*
X212527Y302915D01*
X213178Y303291D01*
X213710Y303822D01*
X214086Y304473D01*
X214280Y305199D01*
Y305950D01*
X214086Y306676D01*
X213710Y307327D01*
X213270Y307766D01*
X213216Y308074D01*
X213270Y308383D01*
X213710Y308822D01*
X214086Y309473D01*
X214280Y310199D01*
Y310950D01*
X214086Y311676D01*
X213710Y312327D01*
X213270Y312766D01*
X213216Y313074D01*
X213270Y313383D01*
X213710Y313822D01*
X214086Y314473D01*
X214280Y315199D01*
Y315950D01*
X214086Y316676D01*
X213710Y317327D01*
X213270Y317766D01*
X213216Y318074D01*
X213270Y318383D01*
X213710Y318822D01*
X214086Y319473D01*
X214280Y320199D01*
Y320950D01*
X214086Y321676D01*
X213710Y322327D01*
X213270Y322766D01*
X213216Y323075D01*
X213270Y323383D01*
X213710Y323822D01*
X214086Y324473D01*
X214280Y325199D01*
Y325950D01*
X214086Y326676D01*
X213710Y327327D01*
X213178Y327858D01*
X212527Y328234D01*
X211802Y328429D01*
G37*
G36*
X226339Y317933D02*
G01X225399D01*
X224531Y317573D01*
X223867Y316909D01*
X223507Y316041D01*
Y315101D01*
X223867Y314233D01*
X224531Y313568D01*
X225399Y313209D01*
X226339D01*
X227207Y313568D01*
X227872Y314233D01*
X228232Y315101D01*
Y316041D01*
X227872Y316909D01*
X227207Y317573D01*
X226339Y317933D01*
G37*
G36*
X200470Y316142D02*
G01X199530D01*
X198662Y315782D01*
X197997Y315118D01*
X197638Y314249D01*
Y313310D01*
X197997Y312441D01*
X198662Y311777D01*
X199530Y311417D01*
X200470D01*
X201338Y311777D01*
X202003Y312441D01*
X202362Y313310D01*
Y314249D01*
X202003Y315118D01*
X201338Y315782D01*
X200470Y316142D01*
G37*
G36*
X225435Y308066D02*
G01X224495D01*
X223627Y307706D01*
X222962Y307041D01*
X222603Y306173D01*
Y305233D01*
X222962Y304365D01*
X223627Y303701D01*
X224495Y303341D01*
X225435D01*
X226303Y303701D01*
X226967Y304365D01*
X227327Y305233D01*
Y306173D01*
X226967Y307041D01*
X226303Y307706D01*
X225435Y308066D01*
G37*
G36*
X205926Y305075D02*
G01X203605D01*
X203766Y304473D01*
X204142Y303822D01*
X204673Y303291D01*
X205324Y302915D01*
X205926Y302753D01*
Y305075D01*
G37*
%LNuP-H Main PCBA Assy V04_2*%
%LPD*%
G54D142*
X368221Y266117D03*
X445563Y264764D03*
X462795D03*
G54D144*
X68343Y266152D03*
X76217D03*
G54D142*
X365158Y194715D03*
X171651Y194225D03*
X286614Y195877D03*
X224321Y194717D03*
X234164D03*
X644344Y201673D03*
X521654Y215551D03*
X584646D03*
X604331D03*
X600394D03*
X596457D03*
X533465D03*
X545276D03*
X557087D03*
X625613Y223836D03*
X491535Y224410D03*
X285039Y278346D03*
X283858Y329659D03*
G54D138*
X313268Y150709D03*
G54D142*
X39472Y240158D03*
G54D144*
X68343Y262215D03*
X76217D03*
X72280D03*
G54D142*
X40784Y263002D03*
X86060Y253159D03*
X44488Y221654D03*
X62992Y221260D03*
X79134Y220866D03*
X72047Y192913D03*
X56299Y176378D03*
X39764Y190945D03*
X142126Y173228D03*
X112205Y173622D03*
X103347Y240158D03*
X108268D03*
X113189D03*
X137402Y224803D03*
X114961Y214312D03*
X111417Y194095D03*
X562205Y264498D03*
X620079Y230315D03*
Y234917D03*
X596457Y230315D03*
X584646D03*
X557087D03*
X652559Y235236D03*
X604331Y230315D03*
X600394D03*
X353346Y231479D03*
X363189D03*
X227744Y232518D03*
X290551Y231890D03*
X149606Y230315D03*
X468504Y297244D03*
X485336Y292323D03*
X443701Y289764D03*
X462795Y288386D03*
Y276575D03*
X487205Y282480D03*
X486221Y269685D03*
X518701D03*
X527559Y279528D03*
X477953Y323622D03*
X515748Y295276D03*
X566535Y331102D03*
X600394Y300787D03*
X612598Y336614D03*
X621260Y272047D03*
X599606Y286614D03*
X538189Y290551D03*
X225394Y257874D03*
X199753Y260956D03*
X149606Y234252D03*
X223169Y245456D03*
X193558Y236126D03*
X215882Y235399D03*
Y243781D03*
X469291Y238976D03*
X441339Y240945D03*
X462795Y252953D03*
Y243504D03*
X416929Y246850D03*
X480315Y238976D03*
X510827Y260827D03*
X544291Y262795D03*
X533465Y247047D03*
X486221Y260827D03*
X545276Y230315D03*
X533465D03*
X521654D03*
X485039Y232283D03*
X498032D03*
X491732Y240905D03*
X485039Y243504D03*
G54D137*
X379921Y161378D03*
X458661D03*
G54D142*
X351378Y171260D03*
X459646D03*
X430118D03*
X380906D03*
X635079Y175787D03*
Y171850D03*
X596220Y180709D03*
Y176772D03*
X331496Y179528D03*
G54D138*
X470748Y150709D03*
X419016D03*
X392008D03*
X340276D03*
G54D142*
X414370Y159449D03*
X408465Y154528D03*
X404528D03*
X329724D03*
X335630Y159449D03*
X325787Y154528D03*
G54D138*
X261535Y150709D03*
G54D142*
X272638Y171260D03*
X255118Y179528D03*
X256890Y159449D03*
X246063Y154528D03*
X250984D03*
G54D137*
X301181Y161378D03*
G54D142*
X303738Y192520D03*
X311782Y175984D03*
X302165Y171260D03*
G54D125*
X179252Y154252D03*
Y135630D03*
G54D126*
X188976Y158780D03*
X185827D03*
G54D142*
X170866Y166929D03*
X182680Y174256D03*
X160627Y191358D03*
G54D125*
X214449Y154252D03*
Y135630D03*
G54D126*
X204724Y158780D03*
X207874D03*
G54D142*
Y170188D03*
X208376Y183103D03*
X225790Y172047D03*
X186317Y205028D03*
X150591Y198819D03*
X152559Y217520D03*
X151575Y221457D03*
X172341Y197765D03*
X162892Y202764D03*
X198819Y227953D03*
X215703Y212198D03*
X224321Y205543D03*
X234164D03*
X244685Y222146D03*
X286614Y213386D03*
X260433Y217717D03*
X262452Y205906D03*
X311024Y215688D03*
X303210Y214439D03*
X268632Y209966D03*
X328346Y208248D03*
X353346Y221636D03*
X363189D03*
X386221Y226951D03*
X372535Y210809D03*
X387869Y215629D03*
X326307Y234234D03*
X262992Y257087D03*
X276762Y264405D03*
X265748Y238976D03*
X277559Y239046D03*
X271654Y238976D03*
X259842Y239046D03*
X283465Y238976D03*
X296457Y264567D03*
X318504Y253150D03*
X330709Y251575D03*
X349415Y246305D03*
X335433Y240730D03*
X397835Y264173D03*
X372835Y243307D03*
X256701Y305859D03*
X249213Y340571D03*
X260961Y315571D03*
X242187Y284747D03*
X251393Y276914D03*
X277559Y271427D03*
X367323Y280315D03*
X424409Y273622D03*
X424803Y309055D03*
X424016Y333858D03*
X413779Y313386D03*
X383071Y276378D03*
X367323Y296776D03*
X389764Y274410D03*
X47674Y292333D03*
X40784Y268907D03*
X41769Y292333D03*
G54D144*
X76217Y270089D03*
X68343D03*
Y274026D03*
X76217D03*
X72280D03*
G54D142*
X70312Y286624D03*
X110236Y303150D03*
X113189D03*
X116142D03*
G54D134*
X94016Y334252D03*
G54D142*
X306693Y318110D03*
X303258Y278346D03*
X325984Y333465D03*
G54D133*
X342244Y286417D03*
G54D142*
X359055Y334252D03*
X339735Y322047D03*
X347638Y268247D03*
X187992Y283301D03*
X199192Y293556D03*
X228641Y288477D03*
X209307Y283740D03*
X204366Y287790D03*
G54D136*
X206426Y305574D03*
Y315575D03*
Y320574D03*
G54D142*
X225869Y330858D03*
X196125Y317819D03*
M02*