G04 =========================================*
G04 Numerical Innovations - Layer Information*
G04 Units: English*
G04 Purpose: Mask Bottom*
G04 Material: Solder Resist*
G04 =========================================*
G04 FAB 3000 Version 8.3.44 (64-bit) - Gerber/CAM Software*
G04 RS274-X Output*
%FSLAX35Y35*%
%MIA0B0*%
%MOIN*%
%SFA1.000000B1.000000*%

%IPPOS*%
%AMROUNDEDRECTD125*
4,1,4,0.019685,0.011810,
-0.019685,0.011810,
-0.019685,-0.011810,
0.019685,-0.011810,
0.019685,0.011810,0.0*
4,1,4,0.000500,0.031495,
-0.000500,0.031495,
-0.000500,-0.031495,
0.000500,-0.031495,
0.000500,0.031495,0.0*
1,1,0.039370,0.000000,-0.011810*
1,1,0.039370,0.000000,-0.011810*
1,1,0.039370,0.000000,0.011810*
1,1,0.039370,0.000000,0.011810*
%
%ADD10C,0.010000*%
%ADD13C,0.019680*%
%ADD115O,0.078870X0.067060*%
%ADD116C,0.008000*%
%ADD117C,0.084770*%
%ADD118R,0.084770X0.084770*%
%ADD119C,0.049340*%
%ADD120C,0.063910*%
%ADD121C,0.143830*%
%ADD122C,0.118240*%
%ADD123C,0.165480*%
%ADD124C,0.133980*%
%ADD125ROUNDEDRECTD125*%
%ADD126C,0.025590*%
%ADD127C,0.007870*%
%ADD128C,0.015750*%
%ADD129C,0.039370*%
%ADD130C,0.013780*%
%ADD133O,0.070870X0.059060*%
%ADD134C,0.076770*%
%ADD135R,0.076770X0.076770*%
%ADD136C,0.041340*%
%ADD137C,0.055910*%
%ADD138C,0.135830*%
%ADD139C,0.110240*%
%ADD140C,0.157480*%
%ADD141C,0.125980*%
%ADD142C,0.031500*%
%ADD143C,0.055120*%
%ADD144C,0.019680*%
%LNuP-H Main PCBA Assy V04_0*%
%LPD*%
G54D122*
X132677Y208465D03*
Y183465D03*
Y158465D03*
G54D117*
X154016Y334252D03*
G54D118*
X174016D03*
G54D125*
X179252Y154252D03*
G54D126*
X188976Y158780D03*
X185827D03*
X192126D03*
X195276D03*
X193701Y156024D03*
X187402D03*
X190551D03*
G54D125*
X179252Y135630D03*
G54D122*
X87795Y158465D03*
G54D124*
X51181Y149606D03*
G54D123*
X110236Y226693D03*
G54D122*
X87795Y208465D03*
Y183465D03*
G54D121*
X419016Y150709D03*
G54D120*
X431102Y161378D03*
X458661D03*
X448819D03*
X440945D03*
G54D124*
X641732Y149606D03*
Y330709D03*
G54D121*
X470748Y150709D03*
G54D120*
X301181Y161378D03*
G54D115*
X350118Y304134D03*
X342244Y286417D03*
X350118Y292323D03*
X342244Y298228D03*
G54D116*
X390748Y334646D03*
Y200787D03*
G54D120*
X362205Y161378D03*
X370079D03*
X379921D03*
X352362D03*
G54D121*
X340276Y150709D03*
X392008D03*
X313268D03*
G54D116*
X256890Y334646D03*
Y200787D03*
G54D120*
X291339Y161378D03*
X283465D03*
X273622D03*
G54D121*
X261535Y150709D03*
G54D126*
X201575Y158780D03*
X204724D03*
X207874D03*
X198425D03*
X206299Y156024D03*
X203150D03*
X200000D03*
G54D125*
X214449Y135630D03*
Y154252D03*
G54D119*
X211426Y305574D03*
Y310575D03*
X206426Y315575D03*
Y320574D03*
X211426Y325574D03*
X206426D03*
X211426Y320574D03*
Y315575D03*
X206426Y310575D03*
Y305574D03*
G54D127*
X72280Y274026D03*
X76217D03*
X68343D03*
Y270089D03*
Y266152D03*
Y262215D03*
X76217D03*
X72280D03*
X76217Y266152D03*
X72280D03*
X76217Y270089D03*
X72280D03*
G54D124*
X51181Y330709D03*
G54D117*
X114016Y334252D03*
X134016D03*
X94016D03*
X74016D03*
M02*